<?xml version="1.0" encoding="utf-8"?>
<!-- Generator: Adobe Illustrator 17.1.0, SVG Export Plug-In . SVG Version: 6.00 Build 0)  -->

<svg version="1.1" id="Layer_1" xmlns="http://www.w3.org/2000/svg" xmlns:xlink="http://www.w3.org/1999/xlink" x="0px" y="0px"
	 width="348.8px" height="206.6px" viewBox="0 1.6 348.8 206.6" enable-background="new 0 1.6 348.8 206.6" xml:space="preserve">
<polygon fill="#FFFFFF" points="129.3,100.5 129.3,108.8 127.9,108.8 127.9,100.5 "/>
<polygon fill="#FFFFFF" points="137,110.8 131.4,116.7 130.5,115.7 136.4,110.2 "/>
<polygon fill="#FFFFFF" points="125.3,118.9 133,123.6 132.4,125 124.4,120.3 "/>
<polygon fill="#FFFFFF" points="116.3,112.2 109.2,116.3 108.6,115.1 115.3,111.2 "/>
<polygon fill="#FFFFFF" points="122.8,106.5 115.7,102.5 116.3,101.5 123.4,105.5 "/>
<polygon fill="#FFFFFF" points="220.7,124.8 215.3,118.9 216.3,117.9 221.8,123.8 "/>
<polygon fill="#FFFFFF" points="162.4,204 164.5,196 166.1,196.5 163.9,204.4 "/>
<polyline fill="#FFFFFF" points="66.3,192.6 65.9,191.4 65.9,191.4 73.7,189.1 74.3,190.6 70.9,191.4 "/>
<polygon fill="#FFFFFF" points="29,101.1 34.9,106.7 33.8,107.8 28.2,102.1 "/>
<polygon fill="#FFFFFF" points="86.7,23.1 84.6,31.4 83.2,31 85.2,23.1 "/>
<polygon fill="#FFFFFF" points="175.6,35.7 183.8,33.7 184.2,35.1 176.1,37.3 "/>
<g>
	<g>
		<g>
			<g>
				<g>
					<text transform="matrix(1.001 0 0 1 155.938 115.3799)" font-family="'ArialMT'" font-size="11">Si</text>
				</g>
			</g>
		</g>
	</g>
	<g>
		<g>
			<g>
				<g>
					<text transform="matrix(1.001 0 0 1 165.6406 115.3799)" font-family="'ArialMT'" font-size="11">d</text>
				</g>
			</g>
		</g>
	</g>
	<g>
		<g>
			<g>
				<g>
					<text transform="matrix(1.001 0 0 1 171.665 115.3799)" font-family="'ArialMT'" font-size="11">e</text>
				</g>
			</g>
		</g>
	</g>
	<g>
		<g>
			<g>
				<g>
					<text transform="matrix(1.001 0 0 1 177.6895 115.3799)" font-family="'ArialMT'" font-size="11"> </text>
				</g>
			</g>
		</g>
	</g>
	<g>
		<g>
			<g>
				<g>
					<text transform="matrix(1.001 0 0 1 180.8369 115.3799)" font-family="'ArialMT'" font-size="11">1</text>
				</g>
			</g>
		</g>
	</g>
</g>
<g>
	<g>
		<g>
			<g>
				<g>
					<text transform="matrix(1.001 0 0 1 227.7183 177.3701)" font-family="'ArialMT'" font-size="11">Se</text>
				</g>
			</g>
		</g>
	</g>
	<g>
		<g>
			<g>
				<g>
					<text transform="matrix(1.001 0 0 1 241.0869 177.3701)" font-family="'ArialMT'" font-size="11">g</text>
				</g>
			</g>
		</g>
	</g>
	<g>
		<g>
			<g>
				<g>
					<text transform="matrix(1.001 0 0 1 247.1113 177.3701)" font-family="'ArialMT'" font-size="11">me</text>
				</g>
			</g>
		</g>
	</g>
	<g>
		<g>
			<g>
				<g>
					<text transform="matrix(1.001 0 0 1 262.3076 177.3701)" font-family="'ArialMT'" font-size="11">n</text>
				</g>
			</g>
		</g>
	</g>
	<g>
		<g>
			<g>
				<g>
					<text transform="matrix(1.001 0 0 1 268.332 177.3701)" font-family="'ArialMT'" font-size="11">t</text>
				</g>
			</g>
		</g>
	</g>
</g>
<g>
	<g>
		<g>
			<g>
				<g>
					<text transform="matrix(0 0.999 -1 0 182.3519 144.4375)" font-family="'ArialMT'" font-size="11.0003">Si</text>
				</g>
			</g>
		</g>
	</g>
	<g>
		<g>
			<g>
				<g>
					<text transform="matrix(0 0.999 -1 0 182.3519 154.1206)" font-family="'ArialMT'" font-size="11.0003">d</text>
				</g>
			</g>
		</g>
	</g>
	<g>
		<g>
			<g>
				<g>
					<text transform="matrix(0 0.999 -1 0 182.3519 160.1333)" font-family="'ArialMT'" font-size="11.0003">e</text>
				</g>
			</g>
		</g>
	</g>
	<g>
		<g>
			<g>
				<g>
					<text transform="matrix(0 0.999 -1 0 182.3519 166.146)" font-family="'ArialMT'" font-size="11.0003"> </text>
				</g>
			</g>
		</g>
	</g>
	<g>
		<g>
			<g>
				<g>
					<text transform="matrix(0 0.999 -1 0 182.3519 169.2876)" font-family="'ArialMT'" font-size="11.0003">2</text>
				</g>
			</g>
		</g>
	</g>
</g>
<g>
	<g>
		<g>
			<g>
				<g>
					<text transform="matrix(1.001 0 0 1 206.4341 41.7651)" font-family="'ArialMT'" font-size="11">C</text>
				</g>
			</g>
		</g>
	</g>
	<g>
		<g>
			<g>
				<g>
					<text transform="matrix(1.001 0 0 1 214.2974 41.7651)" font-family="'ArialMT'" font-size="11">n</text>
				</g>
			</g>
		</g>
	</g>
	<g>
		<g>
			<g>
				<g>
					<text transform="matrix(1.001 0 0 1 220.3218 41.7651)" font-family="'ArialMT'" font-size="11">a</text>
				</g>
			</g>
		</g>
	</g>
	<g>
		<g>
			<g>
				<g>
					<text transform="matrix(1.001 0 0 1 226.3467 41.7651)" font-family="'ArialMT'" font-size="11">me</text>
				</g>
			</g>
		</g>
	</g>
	<g>
		<g>
			<g>
				<g>
					<text transform="matrix(1.001 0 0 1 241.543 41.7651)" font-family="'ArialMT'" font-size="11"> </text>
				</g>
			</g>
		</g>
	</g>
	<g>
		<g>
			<g>
				<g>
					<text transform="matrix(1.001 0 0 1 244.6899 41.7651)" font-family="'ArialMT'" font-size="11">-</text>
				</g>
			</g>
		</g>
	</g>
	<g>
		<g>
			<g>
				<g>
					<text transform="matrix(1.001 0 0 1 248.1035 41.7651)" font-family="'ArialMT'" font-size="11"> </text>
				</g>
			</g>
		</g>
	</g>
	<g>
		<g>
			<g>
				<g>
					<text transform="matrix(1.001 0 0 1 251.2505 41.7651)" font-family="'ArialMT'" font-size="11">n</text>
				</g>
			</g>
		</g>
	</g>
	<g>
		<g>
			<g>
				<g>
					<text transform="matrix(1.001 0 0 1 257.2754 41.7651)" font-family="'ArialMT'" font-size="11">o</text>
				</g>
			</g>
		</g>
	</g>
	<g>
		<g>
			<g>
				<g>
					<text transform="matrix(1.001 0 0 1 263.2998 41.7651)" font-family="'ArialMT'" font-size="11">d</text>
				</g>
			</g>
		</g>
	</g>
	<g>
		<g>
			<g>
				<g>
					<text transform="matrix(1.001 0 0 1 269.3242 41.7651)" font-family="'ArialMT'" font-size="11">e</text>
				</g>
			</g>
		</g>
	</g>
	<g>
		<g>
			<g>
				<g>
					<text transform="matrix(1.001 0 0 1 275.3486 41.7651)" font-family="'ArialMT'" font-size="11">s </text>
				</g>
			</g>
		</g>
	</g>
	<g>
		<g>
			<g>
				<g>
					<text transform="matrix(1.001 0 0 1 284.0015 41.7651)" font-family="'ArialMT'" font-size="11">a</text>
				</g>
			</g>
		</g>
	</g>
	<g>
		<g>
			<g>
				<g>
					<text transform="matrix(1.001 0 0 1 290.0254 41.7651)" font-family="'ArialMT'" font-size="11">l</text>
				</g>
			</g>
		</g>
	</g>
	<g>
		<g>
			<g>
				<g>
					<text transform="matrix(1.001 0 0 1 292.3838 41.7651)" font-family="'ArialMT'" font-size="11">o</text>
				</g>
			</g>
		</g>
	</g>
	<g>
		<g>
			<g>
				<g>
					<text transform="matrix(1.001 0 0 1 298.4082 41.7651)" font-family="'ArialMT'" font-size="11">n</text>
				</g>
			</g>
		</g>
	</g>
	<g>
		<g>
			<g>
				<g>
					<text transform="matrix(1.001 0 0 1 304.4326 41.7651)" font-family="'ArialMT'" font-size="11">g</text>
				</g>
			</g>
		</g>
	</g>
	<g>
		<g>
			<g>
				<g>
					<text transform="matrix(1.001 0 0 1 310.458 41.7651)" font-family="'ArialMT'" font-size="11"> </text>
				</g>
			</g>
		</g>
	</g>
	<g>
		<g>
			<g>
				<g>
					<text transform="matrix(1.001 0 0 1 313.6045 41.7651)" font-family="'ArialMT'" font-size="11">si</text>
				</g>
			</g>
		</g>
	</g>
	<g>
		<g>
			<g>
				<g>
					<text transform="matrix(1.001 0 0 1 321.4678 41.7651)" font-family="'ArialMT'" font-size="11">d</text>
				</g>
			</g>
		</g>
	</g>
	<g>
		<g>
			<g>
				<g>
					<text transform="matrix(1.001 0 0 1 327.4932 41.7651)" font-family="'ArialMT'" font-size="11">e</text>
				</g>
			</g>
		</g>
	</g>
	<g>
		<g>
			<g>
				<g>
					<text transform="matrix(1.001 0 0 1 333.5166 41.7651)" font-family="'ArialMT'" font-size="11"> </text>
				</g>
			</g>
		</g>
	</g>
	<g>
		<g>
			<g>
				<g>
					<text transform="matrix(1.001 0 0 1 336.6641 41.7651)" font-family="'ArialMT'" font-size="11">1</text>
				</g>
			</g>
		</g>
	</g>
</g>
<g>
	<g>
		<g>
			<g>
				<g>
					<text transform="matrix(1.001 0 0 1 206.4341 59.6255)" font-family="'ArialMT'" font-size="11">C</text>
				</g>
			</g>
		</g>
	</g>
	<g>
		<g>
			<g>
				<g>
					<text transform="matrix(1.001 0 0 1 214.2974 59.6255)" font-family="'ArialMT'" font-size="11">n</text>
				</g>
			</g>
		</g>
	</g>
	<g>
		<g>
			<g>
				<g>
					<text transform="matrix(1.001 0 0 1 220.3218 59.6255)" font-family="'ArialMT'" font-size="11">a</text>
				</g>
			</g>
		</g>
	</g>
	<g>
		<g>
			<g>
				<g>
					<text transform="matrix(1.001 0 0 1 226.3467 59.6255)" font-family="'ArialMT'" font-size="11">me</text>
				</g>
			</g>
		</g>
	</g>
	<g>
		<g>
			<g>
				<g>
					<text transform="matrix(1.001 0 0 1 241.543 59.6255)" font-family="'ArialMT'" font-size="11">2</text>
				</g>
			</g>
		</g>
	</g>
	<g>
		<g>
			<g>
				<g>
					<text transform="matrix(1.001 0 0 1 247.5674 59.6255)" font-family="'ArialMT'" font-size="11"> </text>
				</g>
			</g>
		</g>
	</g>
	<g>
		<g>
			<g>
				<g>
					<text transform="matrix(1.001 0 0 1 250.7144 59.6255)" font-family="'ArialMT'" font-size="11">-</text>
				</g>
			</g>
		</g>
	</g>
	<g>
		<g>
			<g>
				<g>
					<text transform="matrix(1.001 0 0 1 254.1279 59.6255)" font-family="'ArialMT'" font-size="11"> </text>
				</g>
			</g>
		</g>
	</g>
	<g>
		<g>
			<g>
				<g>
					<text transform="matrix(1.001 0 0 1 257.2754 59.6255)" font-family="'ArialMT'" font-size="11">n</text>
				</g>
			</g>
		</g>
	</g>
	<g>
		<g>
			<g>
				<g>
					<text transform="matrix(1.001 0 0 1 263.2998 59.6255)" font-family="'ArialMT'" font-size="11">o</text>
				</g>
			</g>
		</g>
	</g>
	<g>
		<g>
			<g>
				<g>
					<text transform="matrix(1.001 0 0 1 269.3242 59.6255)" font-family="'ArialMT'" font-size="11">d</text>
				</g>
			</g>
		</g>
	</g>
	<g>
		<g>
			<g>
				<g>
					<text transform="matrix(1.001 0 0 1 275.3486 59.6255)" font-family="'ArialMT'" font-size="11">e</text>
				</g>
			</g>
		</g>
	</g>
	<g>
		<g>
			<g>
				<g>
					<text transform="matrix(1.001 0 0 1 281.373 59.6255)" font-family="'ArialMT'" font-size="11">s </text>
				</g>
			</g>
		</g>
	</g>
	<g>
		<g>
			<g>
				<g>
					<text transform="matrix(1.001 0 0 1 290.0254 59.6255)" font-family="'ArialMT'" font-size="11">a</text>
				</g>
			</g>
		</g>
	</g>
	<g>
		<g>
			<g>
				<g>
					<text transform="matrix(1.001 0 0 1 296.0503 59.6255)" font-family="'ArialMT'" font-size="11">l</text>
				</g>
			</g>
		</g>
	</g>
	<g>
		<g>
			<g>
				<g>
					<text transform="matrix(1.001 0 0 1 298.4082 59.6255)" font-family="'ArialMT'" font-size="11">o</text>
				</g>
			</g>
		</g>
	</g>
	<g>
		<g>
			<g>
				<g>
					<text transform="matrix(1.001 0 0 1 304.4326 59.6255)" font-family="'ArialMT'" font-size="11">n</text>
				</g>
			</g>
		</g>
	</g>
	<g>
		<g>
			<g>
				<g>
					<text transform="matrix(1.001 0 0 1 310.458 59.6255)" font-family="'ArialMT'" font-size="11">g</text>
				</g>
			</g>
		</g>
	</g>
	<g>
		<g>
			<g>
				<g>
					<text transform="matrix(1.001 0 0 1 316.4814 59.6255)" font-family="'ArialMT'" font-size="11"> </text>
				</g>
			</g>
		</g>
	</g>
	<g>
		<g>
			<g>
				<g>
					<text transform="matrix(1.001 0 0 1 319.6289 59.6255)" font-family="'ArialMT'" font-size="11">si</text>
				</g>
			</g>
		</g>
	</g>
	<g>
		<g>
			<g>
				<g>
					<text transform="matrix(1.001 0 0 1 327.4932 59.6255)" font-family="'ArialMT'" font-size="11">d</text>
				</g>
			</g>
		</g>
	</g>
	<g>
		<g>
			<g>
				<g>
					<text transform="matrix(1.001 0 0 1 333.5166 59.6255)" font-family="'ArialMT'" font-size="11">e</text>
				</g>
			</g>
		</g>
	</g>
	<g>
		<g>
			<g>
				<g>
					<text transform="matrix(1.001 0 0 1 339.542 59.6255)" font-family="'ArialMT'" font-size="11"> </text>
				</g>
			</g>
		</g>
	</g>
	<g>
		<g>
			<g>
				<g>
					<text transform="matrix(1.001 0 0 1 342.6885 59.6255)" font-family="'ArialMT'" font-size="11">2</text>
				</g>
			</g>
		</g>
	</g>
</g>
<g>
	<g>
		<g>
			<g>
				<g>
					<text transform="matrix(1.001 0 0 1 -4.882813e-004 10.9995)" font-family="'ArialMT'" font-size="11">C</text>
				</g>
			</g>
		</g>
	</g>
	<g>
		<g>
			<g>
				<g>
					<text transform="matrix(1.001 0 0 1 7.8633 10.9995)" font-family="'ArialMT'" font-size="11">o</text>
				</g>
			</g>
		</g>
	</g>
	<g>
		<g>
			<g>
				<g>
					<text transform="matrix(1.001 0 0 1 13.8877 10.9995)" font-family="'ArialMT'" font-size="11">n</text>
				</g>
			</g>
		</g>
	</g>
	<g>
		<g>
			<g>
				<g>
					<text transform="matrix(1.001 0 0 1 19.9126 10.9995)" font-family="'ArialMT'" font-size="11">f</text>
				</g>
			</g>
		</g>
	</g>
	<g>
		<g>
			<g>
				<g>
					<text transform="matrix(1.001 0 0 1 23.0596 10.9995)" font-family="'ArialMT'" font-size="11">o</text>
				</g>
			</g>
		</g>
	</g>
	<g>
		<g>
			<g>
				<g>
					<text transform="matrix(1.001 0 0 1 29.084 10.9995)" font-family="'ArialMT'" font-size="11">rm</text>
				</g>
			</g>
		</g>
	</g>
	<g>
		<g>
			<g>
				<g>
					<text transform="matrix(1.001 0 0 1 41.6694 10.9995)" font-family="'ArialMT'" font-size="11">a</text>
				</g>
			</g>
		</g>
	</g>
	<g>
		<g>
			<g>
				<g>
					<text transform="matrix(1.001 0 0 1 47.6938 10.9995)" font-family="'ArialMT'" font-size="11">b</text>
				</g>
			</g>
		</g>
	</g>
	<g>
		<g>
			<g>
				<g>
					<text transform="matrix(1.001 0 0 1 53.9824 10.9995)" font-family="'ArialMT'" font-size="11">l</text>
				</g>
			</g>
		</g>
	</g>
	<g>
		<g>
			<g>
				<g>
					<text transform="matrix(1.001 0 0 1 56.3408 10.9995)" font-family="'ArialMT'" font-size="11">e</text>
				</g>
			</g>
		</g>
	</g>
	<g>
		<g>
			<g>
				<g>
					<text transform="matrix(1.001 0 0 1 62.3652 10.9995)" font-family="'ArialMT'" font-size="11"> </text>
				</g>
			</g>
		</g>
	</g>
	<g>
		<g>
			<g>
				<g>
					<text transform="matrix(1.001 0 0 1 65.2485 10.9995)" font-family="'ArialMT'" font-size="11">I</text>
				</g>
			</g>
		</g>
	</g>
	<g>
		<g>
			<g>
				<g>
					<text transform="matrix(1.001 0 0 1 68.3955 10.9995)" font-family="'ArialMT'" font-size="11">n</text>
				</g>
			</g>
		</g>
	</g>
	<g>
		<g>
			<g>
				<g>
					<text transform="matrix(1.001 0 0 1 74.4199 10.9995)" font-family="'ArialMT'" font-size="11">t</text>
				</g>
			</g>
		</g>
	</g>
	<g>
		<g>
			<g>
				<g>
					<text transform="matrix(1.001 0 0 1 77.5674 10.9995)" font-family="'ArialMT'" font-size="11">e</text>
				</g>
			</g>
		</g>
	</g>
	<g>
		<g>
			<g>
				<g>
					<text transform="matrix(1.001 0 0 1 83.5918 10.9995)" font-family="'ArialMT'" font-size="11">rf</text>
				</g>
			</g>
		</g>
	</g>
	<g>
		<g>
			<g>
				<g>
					<text transform="matrix(1.001 0 0 1 90.1411 10.9995)" font-family="'ArialMT'" font-size="11">a</text>
				</g>
			</g>
		</g>
	</g>
	<g>
		<g>
			<g>
				<g>
					<text transform="matrix(1.001 0 0 1 96.1655 10.9995)" font-family="'ArialMT'" font-size="11">ce</text>
				</g>
			</g>
		</g>
	</g>
</g>
<path fill="none" stroke="#00AA4F" stroke-width="1.021" stroke-linecap="square" d="M69.6,189.6"/>
<path fill="none" stroke="#000000" stroke-linecap="square" d="M177.1,36.2c24.7,16.9,40,44.6,40,77.3c0,52-41.3,94.2-92.3,94.2
	c-19.3,0-37.2-6-52-16.3c-0.7-0.5-1.4-1-2.2-1.6"/>
<path fill="none" stroke="#000000" stroke-linecap="square" d="M72.3,35.8c4.1-3,7.5-4.6,12.1-6.8c12.1-5.9,25.7-9.3,40-9.3
	c19,0,35.7,4.9,50.4,14.9"/>
<path fill="none" stroke="#000000" stroke-width="1.021" stroke-linecap="square" d="M32.6,103.3c3-27.4,16.6-50.3,37.7-65.5"/>
<path fill="none" stroke="#000000" stroke-width="1.021" stroke-linecap="square" d="M69.6,189.6C46.8,172.5,32,144.9,32,113.9
	c0-3.4,0.2-6.7,0.5-9.9"/>
<g>
	<g>
		<path fill="none" stroke="#000000" stroke-width="1.0107" stroke-linecap="square" d="M71.9,190.2c13.5-4.6,23-11.4,31.3-23.1
			c8.5-12,15.1-25.8,17-40.5"/>
	</g>
	<path fill="none" stroke="#000000" stroke-width="1.0107" stroke-linecap="square" d="M69.7,188.9c20.9-6.8,36.4-25.3,43.8-45.3
		c2.1-5.7,3.5-11.6,4.8-17.4"/>
</g>
<g>
	<g>
		<path fill="none" stroke="#000000" stroke-width="1.0021" stroke-linecap="square" d="M32.8,105c10.3,9.7,20.7,14.9,34.8,16.7
			c14.5,1.9,29.7,1.3,43.5-3.8"/>
	</g>
	<path fill="none" stroke="#000000" stroke-width="1.0021" stroke-linecap="square" d="M32.9,102.4C48.5,117.6,72,122.6,93,119.8
		c6-0.8,11.8-2.3,17.6-3.8"/>
</g>
<g>
	<g>
		<path fill="none" stroke="#000000" stroke-width="0.9874" stroke-linecap="square" d="M70.4,37.7C70,52,73.2,63.2,81.6,75
			c8.6,12.1,19.4,23.1,32.9,29.9"/>
	</g>
	<path fill="none" stroke="#000000" stroke-width="0.9874" stroke-linecap="square" d="M72.4,36.1C71.5,58,83.8,79,100.4,92.8
		c4.7,3.9,9.9,7.3,15.1,10.6"/>
</g>
<g>
	<g>
		<path fill="none" stroke="#000000" stroke-width="0.9838" stroke-linecap="square" d="M174.7,35.3c-13.5,5-22.8,12.2-30.8,24.2
			c-8.2,12.4-14.4,26.4-15.9,41.3"/>
	</g>
	<path fill="none" stroke="#000000" stroke-width="0.9838" stroke-linecap="square" d="M177,36.6c-20.8,7.4-35.9,26.5-42.7,47
		c-1.9,5.8-3.2,11.8-4.3,17.8"/>
</g>
<g>
	<g>
		<path fill="none" stroke="#000000" stroke-width="0.9733" stroke-linecap="square" d="M216,107.9c-11.9-7.9-22.9-11.2-37.1-10.4
			c-14.5,0.8-29.2,4.3-41.8,12.2"/>
	</g>
	<path fill="none" stroke="#000000" stroke-width="0.9733" stroke-linecap="square" d="M216.3,110.5c-18-12.5-41.9-13.2-62-6.3
		c-5.7,1.9-11.1,4.6-16.5,7.3"/>
</g>
<g>
	<g>
		<path fill="none" stroke="#000000" stroke-width="0.9838" stroke-linecap="square" d="M180.7,187.7c-0.5-14.2-4.3-25.1-13.3-36.3
			c-9.2-11.5-20.6-21.8-34.3-27.8"/>
	</g>
	<path fill="none" stroke="#000000" stroke-width="0.9838" stroke-linecap="square" d="M178.8,189.4c-0.4-21.8-13.8-41.8-31.1-54.6
		c-4.9-3.6-10.2-6.7-15.5-9.6"/>
</g>
<ellipse fill="none" stroke="#000000" stroke-linecap="square" stroke-miterlimit="10" cx="124.5" cy="113.9" rx="12.8" ry="13.3"/>
<rect x="175.3" y="34.4" transform="matrix(-0.8655 0.5009 -0.5009 -0.8655 349.6681 -24.7599)" fill="#FFFFFF" stroke="#FFFFFF" stroke-width="0.8183" stroke-linecap="square" width="5.7" height="0.4"/>
<rect x="215.4" y="109.7" transform="matrix(-0.9028 -0.4301 0.4301 -0.9028 367.7256 302.9563)" fill="#FFFFFF" stroke="#FFFFFF" stroke-width="0.7579" stroke-linecap="square" width="5.4" height="0.4"/>
<rect x="27.5" y="102.1" transform="matrix(-0.852 -0.5236 0.5236 -0.852 2.6221 205.448)" fill="#FFFFFF" stroke="#FFFFFF" stroke-width="0.8553" stroke-linecap="square" width="5.7" height="0.5"/>
<rect x="68.5" y="34.7" transform="matrix(-2.489886e-002 -0.9997 0.9997 -2.489886e-002 38.2398 107.1039)" fill="#FFFFFF" stroke="#FFFFFF" stroke-width="0.879" stroke-linecap="square" width="5.7" height="0.5"/>
<rect x="177.2" y="191.2" transform="matrix(1.376867e-002 -0.9999 0.9999 1.376867e-002 -14.0988 368.6104)" stroke="#FFFFFF" stroke-width="0.8463" stroke-linecap="square" width="5.3" height="0.5"/>
<rect x="65.8" y="190.7" transform="matrix(0.8834 -0.4685 0.4685 0.8834 -81.4863 54.3909)" fill="#FFFFFF" stroke="#FFFFFF" stroke-width="0.8984" stroke-linecap="square" width="5.6" height="0.5"/>
<g>
	<g>
		<polygon fill="#FFFFFF" points="63.6,27.5 71.2,35.7 68.7,24.8 		"/>
	</g>
	<g>
		<line fill="none" stroke="#000000" x1="61.7" y1="17.9" x2="67" y2="27.9"/>
		<polygon points="63.6,27.5 71.2,35.7 68.7,24.8 		"/>
	</g>
</g>
<g>
	<g>
		<polygon fill="#FFFFFF" points="216.7,162.9 206.4,158.4 213.1,167.5 		"/>
	</g>
	<g>
		<line fill="none" stroke="#000000" x1="223.4" y1="171.9" x2="213.4" y2="163.9"/>
		<polygon points="216.7,162.9 206.4,158.4 213.1,167.5 		"/>
	</g>
</g>
<rect x="125.6" y="102.8" transform="matrix(0.2207 -0.9753 0.9753 0.2207 -0.3996 205.5157)" fill="#FFFFFF" stroke="#FFFFFF" stroke-width="0.8754" stroke-linecap="square" width="5.6" height="0.5"/>
<rect x="112.1" y="104.2" transform="matrix(-0.8458 -0.5336 0.5336 -0.8458 156.4644 253.8805)" fill="#FFFFFF" stroke="#FFFFFF" stroke-width="0.5649" stroke-linecap="square" width="5.7" height="0.2"/>
<rect x="109.9" y="116.2" transform="matrix(0.9423 -0.3348 0.3348 0.9423 -32.4062 44.6016)" fill="#FFFFFF" stroke="#FFFFFF" stroke-width="0.7221" stroke-linecap="square" width="6.6" height="0.3"/>
<rect x="132.2" y="111.3" transform="matrix(0.9183 -0.3958 0.3958 0.9183 -33.1127 62.5428)" stroke="#FFFFFF" stroke-width="0.7741" stroke-linecap="square" width="5.6" height="0.4"/>
<rect x="127.9" y="122.9" transform="matrix(0.8665 0.4992 -0.4992 0.8665 78.875 -48.764)" fill="#FFFFFF" stroke="#FFFFFF" stroke-width="0.7918" stroke-linecap="square" width="5.4" height="0.4"/>
<rect x="116.7" y="124.2" transform="matrix(8.738167e-002 -0.9962 0.9962 8.738167e-002 -14.9652 232.4654)" fill="#FFFFFF" stroke="#FFFFFF" stroke-width="0.8695" stroke-linecap="square" width="5.4" height="0.5"/>
</svg>
