<?xml version="1.0" encoding="utf-8"?>
<!-- Generator: Adobe Illustrator 17.1.0, SVG Export Plug-In . SVG Version: 6.00 Build 0)  -->

<svg version="1.1" id="Layer_1" xmlns="http://www.w3.org/2000/svg" xmlns:xlink="http://www.w3.org/1999/xlink" x="0px" y="0px"
	 width="190.2px" height="137.3px" viewBox="0 0 190.2 137.3" enable-background="new 0 0 190.2 137.3" xml:space="preserve">
<g>
	<g>
		<polygon fill="#FFFFFF" points="183.4,46.8 190.2,37.9 179.8,42.2 		"/>
	</g>
	<g>
		<line fill="none" stroke="#000000" stroke-linecap="square" stroke-miterlimit="10" x1="183.2" y1="43.3" x2="82.7" y2="120.2"/>
		<polygon points="183.4,46.8 190.2,37.9 179.8,42.2 		"/>
	</g>
</g>
<g>
	<g>
		<polygon fill="#FFFFFF" points="116.7,28.9 117.5,17.7 111.2,27 		"/>
	</g>
	<g>
		<line fill="none" stroke="#000000" stroke-linecap="square" stroke-miterlimit="10" x1="114.7" y1="26.1" x2="82.7" y2="120.2"/>
		<polygon points="116.7,28.9 117.5,17.7 111.2,27 		"/>
	</g>
</g>
<g>
	<g>
		<polygon fill="#FFFFFF" points="85.4,10.8 82.5,0 79.6,10.8 		"/>
	</g>
	<g>
		<line fill="none" stroke="#000000" stroke-linecap="square" stroke-miterlimit="10" x1="82.5" y1="8.9" x2="82.7" y2="120.2"/>
		<polygon points="85.4,10.8 82.5,0 79.6,10.8 		"/>
	</g>
</g>
<g>
	<g>
		<polygon fill="#FFFFFF" points="9.5,37.2 0,31.2 5.2,41.1 		"/>
	</g>
	<g>
		<line fill="none" stroke="#000000" stroke-linecap="square" stroke-miterlimit="10" x1="6.1" y1="37.7" x2="82.7" y2="120.2"/>
		<polygon points="9.5,37.2 0,31.2 5.2,41.1 		"/>
	</g>
</g>
<g>
	<g>
		<g>
			<g>
				<text transform="matrix(1.0028 0 0 1 13.395 40.9219)" font-family="'ArialMT'" font-size="11">y</text>
			</g>
		</g>
	</g>
</g>
<g>
	<g>
		<g>
			<g>
				<text transform="matrix(1.0028 0 0 1 85.6895 17.9727)" font-family="'ArialMT'" font-size="11">z</text>
			</g>
		</g>
	</g>
</g>
<g>
	<g>
		<g>
			<g>
				<text transform="matrix(1.0028 0 0 1 115.2607 36.7964)" font-family="'ArialMT'" font-size="11">xy</text>
			</g>
		</g>
	</g>
</g>
<g>
	<g>
		<g>
			<g>
				<text transform="matrix(1.0028 0 0 1 180.2178 54.9702)" font-family="'ArialMT'" font-size="11">x</text>
			</g>
		</g>
	</g>
</g>
<g>
	<g>
		<g>
			<g>
				<text transform="matrix(1.0028 0 0 1 58.7261 133.6885)" font-family="'ArialMT'" font-size="11">Origin (0,0,0)</text>
			</g>
		</g>
	</g>
</g>
<ellipse fill="#0096D7" cx="83" cy="118.3" rx="3.5" ry="3.3"/>
</svg>
