<?xml version="1.0" encoding="utf-8"?>
<!-- Generator: Adobe Illustrator 17.1.0, SVG Export Plug-In . SVG Version: 6.00 Build 0)  -->

<svg version="1.1" id="Layer_1" xmlns="http://www.w3.org/2000/svg" xmlns:xlink="http://www.w3.org/1999/xlink" x="0px" y="0px"
	 width="408.7px" height="417.8px" viewBox="0 1.6 408.7 417.8" enable-background="new 0 1.6 408.7 417.8" xml:space="preserve">
<path fill="none" stroke="#000000" stroke-linecap="square" stroke-miterlimit="10" d="M21.2,363.3c0-29,23.9-52.4,53.5-52.4
	c29.5,0,53.5,23.5,53.5,52.4"/>
<path fill="none" stroke="#000000" stroke-linecap="square" stroke-miterlimit="10" stroke-dasharray="3.6" d="M132.2,164.8
	c-4.3,18.6-18.9,32.3-36.7,36.9c-8.3,2.2-17.6,2.4-26.2,0.3c-25.5-6.2-38-21.6-37.8-51.5"/>
<path fill="none" stroke="#000000" stroke-linecap="square" stroke-miterlimit="10" stroke-dasharray="0.36,0" d="M60.8,197.6"/>
<path fill="none" stroke="#000000" stroke-linecap="square" stroke-miterlimit="10" stroke-dasharray="0.36,0" d="M82.4,154.5"/>
<line fill="none" stroke="#000000" stroke-linecap="square" stroke-miterlimit="10" x1="50.1" y1="139.6" x2="68.4" y2="165.3"/>
<line fill="none" stroke="#000000" stroke-linecap="square" stroke-miterlimit="10" x1="224.5" y1="202.6" x2="243" y2="176.9"/>
<g>
	<g>
		<g>
			<g>
				<text transform="matrix(1.0003 0 0 1 106 72.75)" enable-background="new    "><tspan x="0" y="0" font-family="'ArialMT'" font-size="11">V</tspan><tspan x="6.5" y="0" font-family="'ArialMT'" font-size="11">AL1</tspan></text>
			</g>
		</g>
	</g>
</g>
<g>
	<g>
		<g>
			<g>
				<g>
					<text transform="matrix(1 0 0 1 229.25 11)" font-family="'ArialMT'" font-size="11">imaginary </text>
				</g>
			</g>
		</g>
	</g>
	<g>
		<g>
			<g>
				<g>
					<text transform="matrix(1 0 0 1 229.25 24)" font-family="'ArialMT'" font-size="11">circular arc</text>
				</g>
			</g>
		</g>
	</g>
</g>
<g>
	<g>
		<g>
			<g>
				<g>
					<text transform="matrix(1 0 0 1 43.4165 227)" font-family="'ArialMT'" font-size="11">imaginary </text>
				</g>
			</g>
		</g>
	</g>
	<g>
		<g>
			<g>
				<g>
					<text transform="matrix(1 0 0 1 43.4165 240)" font-family="'ArialMT'" font-size="11">circular arc</text>
				</g>
			</g>
		</g>
	</g>
</g>
<g>
	<g>
		<g>
			<g>
				<g>
					<text transform="matrix(1 0 0 1 146.4863 293.2637)" font-family="'ArialMT'" font-size="11">imaginary </text>
				</g>
			</g>
		</g>
	</g>
	<g>
		<g>
			<g>
				<g>
					<text transform="matrix(1 0 0 1 146.4863 306.2637)" font-family="'ArialMT'" font-size="11">circular arc</text>
				</g>
			</g>
		</g>
	</g>
</g>
<g>
	<g>
		<g>
			<g>
				<text transform="matrix(1.0003 0 0 1 0 152.75)" enable-background="new    "><tspan x="0" y="0" font-family="'ArialMT'" font-size="11">V</tspan><tspan x="6.5" y="0" font-family="'ArialMT'" font-size="11">AL1</tspan></text>
			</g>
		</g>
	</g>
</g>
<g>
	<g>
		<g>
			<g>
				<text transform="matrix(1.0003 0 0 1 174 193.75)" enable-background="new    "><tspan x="0" y="0" font-family="'ArialMT'" font-size="11">V</tspan><tspan x="6.5" y="0" font-family="'ArialMT'" font-size="11">AL1</tspan></text>
			</g>
		</g>
	</g>
</g>
<g>
	<g>
		<g>
			<g>
				<text transform="matrix(1.0003 0 0 1 19 297.75)" enable-background="new    "><tspan x="0" y="0" font-family="'ArialMT'" font-size="11">V</tspan><tspan x="6.5" y="0" font-family="'ArialMT'" font-size="11">AL1 (circular line)</tspan></text>
			</g>
		</g>
	</g>
</g>
<g>
	<g>
		<g>
			<g>
				<text transform="matrix(1.0003 0 0 1 311.666 389.5)" enable-background="new    "><tspan x="0" y="0" font-family="'ArialMT'" font-size="11">V</tspan><tspan x="6.5" y="0" font-family="'ArialMT'" font-size="11">AL1 (arbitrary line)</tspan></text>
			</g>
		</g>
	</g>
</g>
<g>
	<g>
		<g>
			<g>
				<text transform="matrix(1.0003 0 0 1 140 15.75)" enable-background="new    "><tspan x="0" y="0" font-family="'ArialMT'" font-size="11">V</tspan><tspan x="6.5" y="0" font-family="'ArialMT'" font-size="11">AL2</tspan></text>
			</g>
		</g>
	</g>
</g>
<g>
	<g>
		<g>
			<g>
				<text transform="matrix(1.0003 0 0 1 138 164.75)" enable-background="new    "><tspan x="0" y="0" font-family="'ArialMT'" font-size="11">V</tspan><tspan x="6.5" y="0" font-family="'ArialMT'" font-size="11">AL2</tspan></text>
			</g>
		</g>
	</g>
</g>
<g>
	<g>
		<g>
			<g>
				<text transform="matrix(1.0003 0 0 1 310.5 187.5)" enable-background="new    "><tspan x="0" y="0" font-family="'ArialMT'" font-size="11">V</tspan><tspan x="6.5" y="0" font-family="'ArialMT'" font-size="11">AL2</tspan></text>
			</g>
		</g>
	</g>
</g>
<g>
	<g>
		<g>
			<g>
				<text transform="matrix(1.0003 0 0 1 142.1074 374.8574)" enable-background="new    "><tspan x="0" y="0" font-family="'ArialMT'" font-size="11">V</tspan><tspan x="6.5" y="0" font-family="'ArialMT'" font-size="11">AL2</tspan></text>
			</g>
		</g>
	</g>
</g>
<g>
	<g>
		<g>
			<g>
				<text transform="matrix(1.0003 0 0 1 246 72.75)" enable-background="new    "><tspan x="0" y="0" font-family="'ArialMT'" font-size="11">V</tspan><tspan x="6.5" y="0" font-family="'ArialMT'" font-size="11">AL3</tspan></text>
			</g>
		</g>
	</g>
</g>
<g>
	<g>
		<g>
			<g>
				<text transform="matrix(1.0003 0 0 1 116 153.75)" enable-background="new    "><tspan x="0" y="0" font-family="'ArialMT'" font-size="11">V</tspan><tspan x="6.5" y="0" font-family="'ArialMT'" font-size="11">AL3</tspan></text>
			</g>
		</g>
	</g>
</g>
<g>
	<g>
		<g>
			<g>
				<text transform="matrix(1.0003 0 0 1 233.5234 121.75)" enable-background="new    "><tspan x="0" y="0" font-family="'ArialMT'" font-size="11">V</tspan><tspan x="6.5" y="0" font-family="'ArialMT'" font-size="11">AL3</tspan></text>
			</g>
		</g>
	</g>
</g>
<g>
	<g>
		<g>
			<g>
				<text transform="matrix(1.0003 0 0 1 210 302.083)" enable-background="new    "><tspan x="0" y="0" font-family="'ArialMT'" font-size="11">V</tspan><tspan x="6.5" y="0" font-family="'ArialMT'" font-size="11">AL3</tspan></text>
			</g>
		</g>
	</g>
</g>
<g>
	<g>
		<g>
			<g>
				<g>
					<text transform="matrix(1.0003 0 0 1 20.8335 119.5835)" enable-background="new    "><tspan x="0" y="0" font-family="'ArialMT'" font-size="11">V</tspan><tspan x="6.5" y="0" font-family="'ArialMT'" font-size="11">AL4</tspan></text>
				</g>
			</g>
		</g>
	</g>
	<g>
		<g>
			<g>
				<g>
					<text transform="matrix(1.0003 0 0 1 20.8335 132.5835)" font-family="'ArialMT'" font-size="11">(+ radius)</text>
				</g>
			</g>
		</g>
	</g>
</g>
<g>
	<g>
		<g>
			<g>
				<g>
					<text transform="matrix(1.0003 0 0 1 197.5 214.25)" enable-background="new    "><tspan x="0" y="0" font-family="'ArialMT'" font-size="11">V</tspan><tspan x="6.5" y="0" font-family="'ArialMT'" font-size="11">AL4</tspan></text>
				</g>
			</g>
		</g>
	</g>
	<g>
		<g>
			<g>
				<g>
					<text transform="matrix(1.0003 0 0 1 197.5 227.25)" font-family="'ArialMT'" font-size="11">(- radius)</text>
				</g>
			</g>
		</g>
	</g>
</g>
<g>
	<g>
		<g>
			<g>
				<text transform="matrix(1.0003 0 0 1 255 321.75)" enable-background="new    "><tspan x="0" y="0" font-family="'ArialMT'" font-size="11">V</tspan><tspan x="6.5" y="0" font-family="'ArialMT'" font-size="11">AL4</tspan></text>
			</g>
		</g>
	</g>
</g>
<g>
	<g>
		<g>
			<g>
				<text transform="matrix(1.0003 0 0 1 176 75.75)" font-family="'ArialMT'" font-size="11">KPNEW</text>
			</g>
		</g>
	</g>
</g>
<g>
	<g>
		<g>
			<g>
				<text transform="matrix(1.0003 0 0 1 72.75 144.3335)" font-family="'ArialMT'" font-size="11">KPNEW</text>
			</g>
		</g>
	</g>
</g>
<g>
	<g>
		<g>
			<g>
				<text transform="matrix(1.0003 0 0 1 248.25 203.75)" font-family="'ArialMT'" font-size="11">KPNEW</text>
			</g>
		</g>
	</g>
</g>
<g>
	<g>
		<g>
			<g>
				<text transform="matrix(1.0003 0 0 1 57.6763 374.75)" font-family="'ArialMT'" font-size="11">KPNEW</text>
			</g>
		</g>
	</g>
</g>
<g>
	<g>
		<g>
			<g>
				<text transform="matrix(1.0003 0 0 1 194 385.75)" font-family="'ArialMT'" font-size="11">KPNEW</text>
			</g>
		</g>
	</g>
</g>
<g>
	<g>
		<g>
			<g>
				<text transform="matrix(1.0003 0 0 1 144 96.75)" enable-background="new    "><tspan x="0" y="0" font-family="'ArialMT'" font-size="11">(a)</tspan><tspan x="13.4" y="0" font-family="'ArialMT'" font-size="11"> </tspan><tspan x="16.3" y="0" font-family="'ArialMT'" font-size="11">Three keypoints</tspan></text>
			</g>
		</g>
	</g>
</g>
<g>
	<g>
		<g>
			<g>
				<text transform="matrix(1.0003 0 0 1 99 262.75)" enable-background="new    "><tspan x="0" y="0" font-family="'ArialMT'" font-size="11">(b)</tspan><tspan x="13.4" y="0" font-family="'ArialMT'" font-size="11"> </tspan><tspan x="16.3" y="0" font-family="'ArialMT'" font-size="11">Three keypoints and a radius</tspan></text>
			</g>
		</g>
	</g>
</g>
<g>
	<g>
		<g>
			<g>
				<text transform="matrix(1.0003 0 0 1 131 415.75)" font-family="'ArialMT'" font-size="11">(c) Locations on line</text>
			</g>
		</g>
	</g>
</g>
<path fill="none" stroke="#21B24B" stroke-width="0.9429" stroke-linecap="square" stroke-miterlimit="10" d="M189.6,119.1"/>
<path fill="none" stroke="#000000" stroke-linecap="square" stroke-miterlimit="10" stroke-dasharray="3.6" d="M136,68.6
	c0-29,23.9-52.4,53.5-52.4S243,39.7,243,68.6"/>
<circle stroke="#000000" cx="136.1" cy="68.3" r="1.6"/>
<circle stroke="#000000" cx="243.1" cy="68.6" r="1.6"/>
<circle stroke="#000000" cx="163.4" cy="23.8" r="1.6"/>
<circle stroke="#000000" cx="189.6" cy="60.3" r="1.6"/>
<path fill="none" stroke="#21B24B" stroke-width="1.0011" stroke-linecap="square" stroke-miterlimit="10" stroke-dasharray="5.54" d="
	M248.3,318.8"/>
<path fill="none" stroke="#000000" stroke-linecap="square" stroke-miterlimit="10" stroke-dasharray="3.6" d="M173.4,365.8
	c-7.1-26.8,35.7-61.7,74.4-48.1"/>
<path fill="none" stroke="#000000" stroke-linecap="square" stroke-miterlimit="10" stroke-dasharray="3.6" d="M204.2,190
	c0-19.8,11.2-37,27.7-46c7.6-4.1,16.4-7,25.8-6.5c28.1,1.5,44.3,14.1,49.1,43.1"/>
<circle stroke="#000000" cx="246.1" cy="126.8" r="1.6"/>
<circle stroke="#000000" cx="306.9" cy="180.6" r="1.6"/>
<circle stroke="#000000" cx="204.3" cy="190" r="1.6"/>
<circle stroke="#000000" cx="261.7" cy="190.7" r="1.6"/>
<circle stroke="#000000" cx="116.4" cy="157.2" r="1.6"/>
<g>
	<g>
		<polygon fill="#FFFFFF" points="82,158.8 84,150.6 78.1,156.6 		"/>
		<polygon fill="#FFFFFF" points="60.2,189 58.1,197.1 64,191.1 		"/>
	</g>
	<g>
		
			<line fill="none" stroke="#000000" stroke-linecap="square" stroke-miterlimit="10" stroke-dasharray="11.52,5.76,3.6,5.76" x1="61.3" y1="191.3" x2="80.8" y2="156.4"/>
		<polygon points="82,158.8 84,150.6 78.1,156.6 		"/>
		<polygon points="60.2,189 58.1,197.1 64,191.1 		"/>
	</g>
</g>
<circle stroke="#000000" cx="85" cy="148.7" r="1.6"/>
<circle stroke="#000000" cx="131.8" cy="165.8" r="1.6"/>
<circle stroke="#000000" cx="31.5" cy="150.9" r="1.6"/>
<circle stroke="#000000" cx="76.7" cy="360.4" r="1.6"/>
<g>
	<g>
		<polygon fill="#FFFFFF" points="33.8,315.3 39.2,321.7 37.7,313.5 		"/>
	</g>
	<g>
		<line fill="none" stroke="#000000" x1="29" y1="300.4" x2="36.3" y2="315.8"/>
		<polygon points="33.8,315.3 39.2,321.7 37.7,313.5 		"/>
	</g>
</g>
<g>
	<g>
		<polygon fill="#FFFFFF" points="182.7,322.9 188.2,329.3 186.6,321 		"/>
	</g>
	<g>
		<line fill="none" stroke="#000000" x1="177.9" y1="307.9" x2="185.3" y2="323.3"/>
		<polygon points="182.7,322.9 188.2,329.3 186.6,321 		"/>
	</g>
</g>
<g>
	<g>
		<polygon fill="#FFFFFF" points="101.4,210.8 100.4,202.4 97.1,210.2 		"/>
	</g>
	<g>
		<line fill="none" stroke="#000000" x1="97.2" y1="225.8" x2="99.5" y2="209"/>
		<polygon points="101.4,210.8 100.4,202.4 97.1,210.2 		"/>
	</g>
</g>
<path fill="none" stroke="#DA2980" stroke-linecap="square" stroke-miterlimit="10" d="M264.6,347.7"/>
<path fill="none" stroke="#DA2980" stroke-width="0.9889" stroke-linecap="square" stroke-miterlimit="10" d="M252.1,338.1"/>
<path fill="none" stroke="#000000" stroke-width="0.9845" stroke-linecap="square" stroke-miterlimit="10" d="M173.4,365.8
	c14.1-14.1,28.3-29.5,42.6-43.5c7.2-7.1,17.5-24.4,28.4-12.3c2.5,2.8,4.2,6.4,5.4,10.3c3,9.9,2.7,22.3,3.6,31.1
	c1.3,12.3,7,29.9,20.9,33.3c13.3,3.2,27.4-10.4,34.8-19.7c1.2-1.5,2.4-3.1,3.6-4.6"/>
<circle stroke="#000000" cx="173.5" cy="365.8" r="1.6"/>
<circle stroke="#000000" cx="222" cy="315.6" r="1.6"/>
<circle stroke="#000000" cx="249" cy="317.7" r="1.6"/>
<circle stroke="#000000" cx="214.4" cy="371.8" r="1.6"/>
<g>
	<g>
		<polygon fill="#FFFFFF" points="215,12.1 210.5,19.3 217.9,15.3 		"/>
	</g>
	<g>
		<line fill="none" stroke="#000000" x1="225.5" y1="5.2" x2="215.4" y2="14.7"/>
		<polygon points="215,12.1 210.5,19.3 217.9,15.3 		"/>
	</g>
</g>
<g>
	<g>
		<g>
			<g>
				<g>
					<text transform="matrix(1 0 0 1 305.875 135.875)" font-family="'ArialMT'" font-size="11">imaginary </text>
				</g>
			</g>
		</g>
	</g>
	<g>
		<g>
			<g>
				<g>
					<text transform="matrix(1 0 0 1 305.875 148.875)" font-family="'ArialMT'" font-size="11">circular arc</text>
				</g>
			</g>
		</g>
	</g>
</g>
<g>
	<g>
		<polygon fill="#FFFFFF" points="291.6,137 287.2,144.1 294.6,140.2 		"/>
	</g>
	<g>
		<line fill="none" stroke="#000000" x1="302.1" y1="130" x2="292" y2="139.6"/>
		<polygon points="291.6,137 287.2,144.1 294.6,140.2 		"/>
	</g>
</g>
<g>
	<g>
		<polygon fill="#FFFFFF" points="244,147.9 238.6,141.4 240.1,149.7 		"/>
		<polygon fill="#FFFFFF" points="255,182 260.4,188.5 259,180.2 		"/>
	</g>
	<g>
		
			<line fill="none" stroke="#000000" stroke-linecap="square" stroke-miterlimit="10" stroke-dasharray="11.52,5.76,3.6,5.76" x1="257.6" y1="182.5" x2="241.4" y2="147.4"/>
		<polygon points="244,147.9 238.6,141.4 240.1,149.7 		"/>
		<polygon points="255,182 260.4,188.5 259,180.2 		"/>
	</g>
</g>
<g>
	<g>
		<polygon fill="#FFFFFF" points="300,386.7 291.7,385.2 298.1,390.6 		"/>
	</g>
	<g>
		<line fill="none" stroke="#000000" x1="310.3" y1="393.9" x2="297.7" y2="388"/>
		<polygon points="300,386.7 291.7,385.2 298.1,390.6 		"/>
	</g>
</g>
</svg>
