<?xml version="1.0" encoding="utf-8"?>
<!-- Generator: Adobe Illustrator 17.1.0, SVG Export Plug-In . SVG Version: 6.00 Build 0)  -->

<svg version="1.1" id="Layer_1" xmlns="http://www.w3.org/2000/svg" xmlns:xlink="http://www.w3.org/1999/xlink" x="0px" y="0px"
	 width="293.4px" height="136.1px" viewBox="0 0 293.4 136.1" enable-background="new 0 0 293.4 136.1" xml:space="preserve">
<polyline fill="none" stroke="#000000" stroke-linecap="square" stroke-miterlimit="10" points="214.1,29.7 182.2,8.5 214.1,29.7 
	176.1,23.6 182.2,8.5 176.1,23.6 214.1,29.7 "/>
<polyline fill="none" stroke="#000000" stroke-linecap="square" stroke-miterlimit="10" points="202.5,41.3 214.1,29.7 202.5,41.3 
	176.1,23.6 214.1,29.7 176.1,23.6 202.5,41.3 "/>
<polyline fill="none" stroke="#000000" stroke-linecap="square" stroke-miterlimit="10" points="145,1 145,17.3 145,1 176.1,23.6 
	145,17.3 176.1,23.6 145,1 "/>
<polyline fill="none" stroke="#000000" stroke-linecap="square" stroke-miterlimit="10" points="182.2,8.5 145,1 182.2,8.5 
	176.1,23.6 145,1 176.1,23.6 182.2,8.5 "/>
<polyline fill="none" stroke="#000000" stroke-linecap="square" stroke-miterlimit="10" points="107.4,8.5 113.9,23.6 107.4,8.5 
	145,17.3 113.9,23.6 145,17.3 107.4,8.5 "/>
<polyline fill="none" stroke="#000000" stroke-linecap="square" stroke-miterlimit="10" points="145,1 107.4,8.5 145,1 145,17.3 
	107.4,8.5 145,17.3 145,1 "/>
<polyline fill="none" stroke="#000000" stroke-linecap="square" stroke-miterlimit="10" points="75.9,29.7 87.4,41.3 75.9,29.7 
	113.9,23.6 87.4,41.3 113.9,23.6 75.9,29.7 "/>
<polyline fill="none" stroke="#000000" stroke-linecap="square" stroke-miterlimit="10" points="107.4,8.5 75.9,29.7 107.4,8.5 
	113.9,23.6 75.9,29.7 113.9,23.6 107.4,8.5 "/>
<polyline fill="none" stroke="#000000" stroke-linecap="square" stroke-miterlimit="10" points="176.1,23.6 170,38.4 176.1,23.6 
	191.1,52.7 170,38.4 191.1,52.7 176.1,23.6 "/>
<polyline fill="none" stroke="#000000" stroke-linecap="square" stroke-miterlimit="10" points="202.5,41.3 176.1,23.6 202.5,41.3 
	191.1,52.7 176.1,23.6 191.1,52.7 202.5,41.3 "/>
<polyline fill="none" stroke="#000000" stroke-linecap="square" stroke-miterlimit="10" points="145,17.3 145,33.8 145,17.3 
	170,38.4 145,33.8 170,38.4 145,17.3 "/>
<polyline fill="none" stroke="#000000" stroke-linecap="square" stroke-miterlimit="10" points="176.1,23.6 145,17.3 176.1,23.6 
	170,38.4 145,17.3 170,38.4 176.1,23.6 "/>
<polyline fill="none" stroke="#000000" stroke-linecap="square" stroke-miterlimit="10" points="113.9,23.6 120,38.4 113.9,23.6 
	145,33.8 120,38.4 145,33.8 113.9,23.6 "/>
<polyline fill="none" stroke="#000000" stroke-linecap="square" stroke-miterlimit="10" points="145,17.3 113.9,23.6 145,17.3 
	145,33.8 113.9,23.6 145,33.8 145,17.3 "/>
<polyline fill="none" stroke="#000000" stroke-linecap="square" stroke-miterlimit="10" points="113.9,23.6 87.4,41.3 113.9,23.6 
	98.8,52.7 87.4,41.3 98.8,52.7 113.9,23.6 "/>
<polyline fill="none" stroke="#000000" stroke-linecap="square" stroke-miterlimit="10" points="120,38.4 113.9,23.6 120,38.4 
	98.8,52.7 113.9,23.6 98.8,52.7 120,38.4 "/>
<polyline fill="none" stroke="#000000" stroke-linecap="square" stroke-miterlimit="10" points="170,38.4 163.7,53.7 170,38.4 
	179.6,64.3 163.7,53.7 179.6,64.3 170,38.4 "/>
<polyline fill="none" stroke="#000000" stroke-linecap="square" stroke-miterlimit="10" points="191.1,52.7 170,38.4 191.1,52.7 
	179.6,64.3 170,38.4 179.6,64.3 191.1,52.7 "/>
<polyline fill="none" stroke="#000000" stroke-linecap="square" stroke-miterlimit="10" points="145,33.8 145,50.1 145,33.8 
	163.7,53.7 145,50.1 163.7,53.7 145,33.8 "/>
<polyline fill="none" stroke="#000000" stroke-linecap="square" stroke-miterlimit="10" points="170,38.4 145,33.8 170,38.4 
	163.7,53.7 145,33.8 163.7,53.7 170,38.4 "/>
<polyline fill="none" stroke="#000000" stroke-linecap="square" stroke-miterlimit="10" points="120,38.4 126.1,53.7 120,38.4 
	145,50.1 126.1,53.7 145,50.1 120,38.4 "/>
<polyline fill="none" stroke="#000000" stroke-linecap="square" stroke-miterlimit="10" points="145,33.8 120,38.4 145,33.8 
	145,50.1 120,38.4 145,50.1 145,33.8 "/>
<polyline fill="none" stroke="#000000" stroke-linecap="square" stroke-miterlimit="10" points="120,38.4 98.8,52.7 120,38.4 
	110.4,64.3 98.8,52.7 110.4,64.3 120,38.4 "/>
<polyline fill="none" stroke="#000000" stroke-linecap="square" stroke-miterlimit="10" points="126.1,53.7 120,38.4 126.1,53.7 
	110.4,64.3 120,38.4 110.4,64.3 126.1,53.7 "/>
<polyline fill="none" stroke="#000000" stroke-linecap="square" stroke-miterlimit="10" points="107.6,72.5 101.3,87.3 107.6,72.5 
	127.7,105 101.3,87.3 127.7,105 107.6,72.5 "/>
<polyline fill="none" stroke="#000000" stroke-linecap="square" stroke-miterlimit="10" points="139.1,93.4 107.6,72.5 139.1,93.4 
	127.7,105 107.6,72.5 127.7,105 139.1,93.4 "/>
<polyline fill="none" stroke="#000000" stroke-linecap="square" stroke-miterlimit="10" points="70,64.9 70,81.2 70,64.9 
	101.3,87.3 70,81.2 101.3,87.3 70,64.9 "/>
<polyline fill="none" stroke="#000000" stroke-linecap="square" stroke-miterlimit="10" points="107.6,72.5 70,64.9 107.6,72.5 
	101.3,87.3 70,64.9 101.3,87.3 107.6,72.5 "/>
<polyline fill="none" stroke="#000000" stroke-linecap="square" stroke-miterlimit="10" points="32.8,72.5 39.1,87.3 32.8,72.5 
	70,81.2 39.1,87.3 70,81.2 32.8,72.5 "/>
<polyline fill="none" stroke="#000000" stroke-linecap="square" stroke-miterlimit="10" points="70,64.9 32.8,72.5 70,64.9 70,81.2 
	32.8,72.5 70,81.2 70,64.9 "/>
<polyline fill="none" stroke="#000000" stroke-linecap="square" stroke-miterlimit="10" points="1,93.4 12.6,105 1,93.4 39.1,87.3 
	12.6,105 39.1,87.3 1,93.4 "/>
<polyline fill="none" stroke="#000000" stroke-linecap="square" stroke-miterlimit="10" points="32.8,72.5 1,93.4 32.8,72.5 
	39.1,87.3 1,93.4 39.1,87.3 32.8,72.5 "/>
<polyline fill="none" stroke="#000000" stroke-linecap="square" stroke-miterlimit="10" points="101.3,87.3 95.2,102.4 101.3,87.3 
	116.1,116.4 95.2,102.4 116.1,116.4 101.3,87.3 "/>
<polyline fill="none" stroke="#000000" stroke-linecap="square" stroke-miterlimit="10" points="127.7,105 101.3,87.3 127.7,105 
	116.1,116.4 101.3,87.3 116.1,116.4 127.7,105 "/>
<polyline fill="none" stroke="#000000" stroke-linecap="square" stroke-miterlimit="10" points="70,81.2 70,97.3 70,81.2 
	95.2,102.4 70,97.3 95.2,102.4 70,81.2 "/>
<polyline fill="none" stroke="#000000" stroke-linecap="square" stroke-miterlimit="10" points="101.3,87.3 70,81.2 101.3,87.3 
	95.2,102.4 70,81.2 95.2,102.4 101.3,87.3 "/>
<polyline fill="none" stroke="#000000" stroke-linecap="square" stroke-miterlimit="10" points="39.1,87.3 45.2,102.4 39.1,87.3 
	70,97.3 45.2,102.4 70,97.3 39.1,87.3 "/>
<polyline fill="none" stroke="#000000" stroke-linecap="square" stroke-miterlimit="10" points="70,81.2 39.1,87.3 70,81.2 70,97.3 
	39.1,87.3 70,97.3 70,81.2 "/>
<polyline fill="none" stroke="#000000" stroke-linecap="square" stroke-miterlimit="10" points="12.6,105 24,116.4 12.6,105 
	45.2,102.4 24,116.4 45.2,102.4 12.6,105 "/>
<polyline fill="none" stroke="#000000" stroke-linecap="square" stroke-miterlimit="10" points="39.1,87.3 12.6,105 39.1,87.3 
	45.2,102.4 12.6,105 45.2,102.4 39.1,87.3 "/>
<polyline fill="none" stroke="#000000" stroke-linecap="square" stroke-miterlimit="10" points="95.2,102.4 88.7,117.5 95.2,102.4 
	104.5,128 88.7,117.5 104.5,128 95.2,102.4 "/>
<polyline fill="none" stroke="#000000" stroke-linecap="square" stroke-miterlimit="10" points="116.1,116.4 95.2,102.4 
	116.1,116.4 104.5,128 95.2,102.4 104.5,128 116.1,116.4 "/>
<polyline fill="none" stroke="#000000" stroke-linecap="square" stroke-miterlimit="10" points="70,97.3 70,113.8 70,97.3 
	88.7,117.5 70,113.8 88.7,117.5 70,97.3 "/>
<polyline fill="none" stroke="#000000" stroke-linecap="square" stroke-miterlimit="10" points="95.2,102.4 70,97.3 95.2,102.4 
	88.7,117.5 70,97.3 88.7,117.5 95.2,102.4 "/>
<polyline fill="none" stroke="#000000" stroke-linecap="square" stroke-miterlimit="10" points="45.2,102.4 51.5,117.5 45.2,102.4 
	70,113.8 51.5,117.5 70,113.8 45.2,102.4 "/>
<polyline fill="none" stroke="#000000" stroke-linecap="square" stroke-miterlimit="10" points="70,97.3 45.2,102.4 70,97.3 
	70,113.8 45.2,102.4 70,113.8 70,97.3 "/>
<polyline fill="none" stroke="#000000" stroke-linecap="square" stroke-miterlimit="10" points="24,116.4 35.4,128 24,116.4 
	51.5,117.5 35.4,128 51.5,117.5 24,116.4 "/>
<polyline fill="none" stroke="#000000" stroke-linecap="square" stroke-miterlimit="10" points="45.2,102.4 24,116.4 45.2,102.4 
	51.5,117.5 24,116.4 51.5,117.5 45.2,102.4 "/>
<polyline fill="none" stroke="#000000" stroke-linecap="square" stroke-miterlimit="10" points="252.9,87.3 279.3,105 252.9,87.3 
	291.1,93.4 279.3,105 291.1,93.4 252.9,87.3 "/>
<polyline fill="none" stroke="#000000" stroke-linecap="square" stroke-miterlimit="10" points="221.6,81.2 252.9,87.3 221.6,81.2 
	259,72.5 252.9,87.3 259,72.5 291.1,93.4 252.9,87.3 291.1,93.4 259,72.5 252.9,87.3 259,72.5 221.6,81.2 "/>
<polyline fill="none" stroke="#000000" stroke-linecap="square" stroke-miterlimit="10" points="190.5,87.3 221.6,81.2 190.5,87.3 
	221.6,64.9 221.6,81.2 221.6,64.9 259,72.5 221.6,81.2 259,72.5 221.6,64.9 221.6,81.2 221.6,64.9 190.5,87.3 "/>
<polyline fill="none" stroke="#000000" stroke-linecap="square" stroke-miterlimit="10" points="164,105 190.5,87.3 164,105 
	184.4,72.5 190.5,87.3 184.4,72.5 221.6,64.9 190.5,87.3 221.6,64.9 184.4,72.5 190.5,87.3 184.4,72.5 164,105 "/>
<polyline fill="none" stroke="#000000" stroke-linecap="square" stroke-miterlimit="10" points="152.5,93.4 164,105 152.5,93.4 
	184.4,72.5 164,105 184.4,72.5 152.5,93.4 "/>
<polyline fill="none" stroke="#000000" stroke-linecap="square" stroke-miterlimit="10" points="246.6,102.4 267.8,116.4 
	246.6,102.4 279.3,105 267.8,116.4 279.3,105 246.6,102.4 "/>
<polyline fill="none" stroke="#000000" stroke-linecap="square" stroke-miterlimit="10" points="221.6,97.3 246.6,102.4 221.6,97.3 
	252.9,87.3 246.6,102.4 252.9,87.3 279.3,105 246.6,102.4 279.3,105 252.9,87.3 246.6,102.4 252.9,87.3 221.6,97.3 "/>
<polyline fill="none" stroke="#000000" stroke-linecap="square" stroke-miterlimit="10" points="196.8,102.4 221.6,97.3 
	196.8,102.4 221.6,81.2 221.6,97.3 221.6,81.2 252.9,87.3 221.6,97.3 252.9,87.3 221.6,81.2 221.6,97.3 221.6,81.2 196.8,102.4 "/>
<polyline fill="none" stroke="#000000" stroke-linecap="square" stroke-miterlimit="10" points="175.8,116.4 196.8,102.4 
	175.8,116.4 190.5,87.3 196.8,102.4 190.5,87.3 221.6,81.2 196.8,102.4 221.6,81.2 190.5,87.3 196.8,102.4 190.5,87.3 175.8,116.4 
	"/>
<polyline fill="none" stroke="#000000" stroke-linecap="square" stroke-miterlimit="10" points="164,105 175.8,116.4 164,105 
	190.5,87.3 175.8,116.4 190.5,87.3 164,105 "/>
<polyline fill="none" stroke="#000000" stroke-linecap="square" stroke-miterlimit="10" points="240.3,117.5 256.6,128 240.3,117.5 
	267.8,116.4 256.6,128 267.8,116.4 240.3,117.5 "/>
<polyline fill="none" stroke="#000000" stroke-linecap="square" stroke-miterlimit="10" points="221.6,113.8 240.3,117.5 
	221.6,113.8 246.6,102.4 240.3,117.5 246.6,102.4 267.8,116.4 240.3,117.5 267.8,116.4 246.6,102.4 240.3,117.5 246.6,102.4 
	221.6,113.8 "/>
<polyline fill="none" stroke="#000000" stroke-linecap="square" stroke-miterlimit="10" points="202.9,117.5 221.6,113.8 
	202.9,117.5 221.6,97.3 221.6,113.8 221.6,97.3 246.6,102.4 221.6,113.8 246.6,102.4 221.6,97.3 221.6,113.8 221.6,97.3 
	202.9,117.5 "/>
<polyline fill="none" stroke="#000000" stroke-linecap="square" stroke-miterlimit="10" points="187,128 202.9,117.5 187,128 
	196.8,102.4 202.9,117.5 196.8,102.4 221.6,97.3 202.9,117.5 221.6,97.3 196.8,102.4 202.9,117.5 196.8,102.4 187,128 "/>
<polyline fill="none" stroke="#000000" stroke-linecap="square" stroke-miterlimit="10" points="175.8,116.4 187,128 175.8,116.4 
	196.8,102.4 187,128 196.8,102.4 175.8,116.4 "/>
<g>
	<g>
		<g>
			<g>
				<g>
					<text transform="matrix(0.9986 0 0 1 126.9414 68.1689)" font-family="'ArialMT'" font-size="11.0002">KE</text>
				</g>
			</g>
		</g>
	</g>
	<g>
		<g>
			<g>
				<g>
					<text transform="matrix(0.9986 0 0 1 141.3315 68.1689)" enable-background="new    "><tspan x="0" y="0" font-family="'ArialMT'" font-size="11.0002">Y</tspan><tspan x="7.1" y="0" font-family="'ArialMT'" font-size="11.0002"> </tspan></text>
				</g>
			</g>
		</g>
	</g>
	<g>
		<g>
			<g>
				<g>
					<text transform="matrix(0.9986 0 0 1 151.7979 68.1689)" font-family="'ArialMT'" font-size="11.0002">=</text>
				</g>
			</g>
		</g>
	</g>
	<g>
		<g>
			<g>
				<g>
					<text transform="matrix(0.9986 0 0 1 158.0703 68.1689)" font-family="'ArialMT'" font-size="11.0002"> </text>
				</g>
			</g>
		</g>
	</g>
	<g>
		<g>
			<g>
				<g>
					<text transform="matrix(0.9986 0 0 1 161.21 68.1689)" font-family="'ArialMT'" font-size="11.0002">0</text>
				</g>
			</g>
		</g>
	</g>
</g>
<g>
	<g>
		<g>
			<g>
				<g>
					<text transform="matrix(0.9986 0 0 1 52.54 132.3164)" font-family="'ArialMT'" font-size="11.0002">KE</text>
				</g>
			</g>
		</g>
	</g>
	<g>
		<g>
			<g>
				<g>
					<text transform="matrix(0.9986 0 0 1 66.9302 132.3164)" enable-background="new    "><tspan x="0" y="0" font-family="'ArialMT'" font-size="11.0002">Y</tspan><tspan x="7.1" y="0" font-family="'ArialMT'" font-size="11.0002"> </tspan></text>
				</g>
			</g>
		</g>
	</g>
	<g>
		<g>
			<g>
				<g>
					<text transform="matrix(0.9986 0 0 1 77.3965 132.3164)" font-family="'ArialMT'" font-size="11.0002">=</text>
				</g>
			</g>
		</g>
	</g>
	<g>
		<g>
			<g>
				<g>
					<text transform="matrix(0.9986 0 0 1 83.6689 132.3164)" font-family="'ArialMT'" font-size="11.0002"> </text>
				</g>
			</g>
		</g>
	</g>
	<g>
		<g>
			<g>
				<g>
					<text transform="matrix(0.9986 0 0 1 86.8086 132.3164)" font-family="'ArialMT'" font-size="11.0002">1</text>
				</g>
			</g>
		</g>
	</g>
</g>
<g>
	<g>
		<g>
			<g>
				<g>
					<text transform="matrix(0.9986 0 0 1 203.7495 132.5195)" font-family="'ArialMT'" font-size="11.0002">KE</text>
				</g>
			</g>
		</g>
	</g>
	<g>
		<g>
			<g>
				<g>
					<text transform="matrix(0.9986 0 0 1 218.1396 132.5195)" enable-background="new    "><tspan x="0" y="0" font-family="'ArialMT'" font-size="11.0002">Y</tspan><tspan x="7.1" y="0" font-family="'ArialMT'" font-size="11.0002"> </tspan></text>
				</g>
			</g>
		</g>
	</g>
	<g>
		<g>
			<g>
				<g>
					<text transform="matrix(0.9986 0 0 1 228.6064 132.5195)" font-family="'ArialMT'" font-size="11.0002">=</text>
				</g>
			</g>
		</g>
	</g>
	<g>
		<g>
			<g>
				<g>
					<text transform="matrix(0.9986 0 0 1 234.8784 132.5195)" font-family="'ArialMT'" font-size="11.0002"> </text>
				</g>
			</g>
		</g>
	</g>
	<g>
		<g>
			<g>
				<g>
					<text transform="matrix(0.9986 0 0 1 238.0181 132.5195)" font-family="'ArialMT'" font-size="11.0002">2</text>
				</g>
			</g>
		</g>
	</g>
</g>
</svg>
