<?xml version="1.0" encoding="utf-8"?>
<!-- Generator: Adobe Illustrator 17.1.0, SVG Export Plug-In . SVG Version: 6.00 Build 0)  -->

<svg version="1.1" id="Layer_1" xmlns="http://www.w3.org/2000/svg" xmlns:xlink="http://www.w3.org/1999/xlink" x="0px" y="0px"
	 width="172.3px" height="151.4px" viewBox="0 1.6 172.3 151.4" enable-background="new 0 1.6 172.3 151.4" xml:space="preserve">
<line fill="none" stroke="#000000" x1="0.9" y1="7" x2="0.9" y2="151"/>
<line fill="none" stroke="#000000" x1="0.9" y1="151" x2="144.9" y2="151"/>
<g>
	<g>
		<g>
			<g>
				<g>
					<text transform="matrix(1 0 0 1 5.2451 10.9995)" font-family="'ArialMT'" font-size="11">f</text>
				</g>
			</g>
		</g>
	</g>
	<g>
		<g>
			<g>
				<g>
					<text transform="matrix(1 0 0 1 8.3013 13.9995)" font-family="'ArialMT'" font-size="11">X</text>
				</g>
			</g>
		</g>
	</g>
	<g>
		<g>
			<g>
				<g>
					<text transform="matrix(1 0 0 1 15.6382 10.9995)" font-family="'ArialMT'" font-size="11">(x)</text>
				</g>
			</g>
		</g>
	</g>
</g>
<g>
	<path d="M54.3,83.6c0.1,0.2,0.2,0.4,0.1,0.7c0,0.2-0.1,0.4-0.3,0.6s-0.4,0.2-0.6,0.2c-0.2,0-0.5,0-0.7-0.1s-0.4-0.2-0.6-0.3
		c-0.1-0.1-0.1-0.1,0-0.2s0.1-0.1,0.2,0c0.2,0.1,0.4,0.2,0.5,0.3c0.2,0.1,0.4,0.1,0.6,0.1c0.1,0,0.2,0,0.3-0.1s0.1-0.2,0.1-0.3
		c0-0.1,0-0.2-0.1-0.3c-0.1-0.1-0.2-0.2-0.4-0.3l-2.1-0.7c-0.2-0.1-0.4-0.2-0.6-0.3c-0.2-0.1-0.3-0.2-0.5-0.4
		c-0.1-0.2-0.2-0.3-0.3-0.5s-0.1-0.4-0.1-0.6c0-0.4,0.1-0.8,0.3-1.1c0.2-0.3,0.4-0.6,0.8-0.8c-0.3-0.2-0.6-0.4-0.8-0.6
		c-0.2-0.3-0.3-0.6-0.3-0.9c0-0.2,0-0.4,0.1-0.6s0.2-0.3,0.3-0.5c0.1-0.1,0.3-0.3,0.5-0.4s0.4-0.2,0.6-0.2c-0.1-0.3-0.2-0.5-0.2-0.9
		v-0.1h0.1h0.1v0.1c0,0.3,0.1,0.6,0.2,0.8c0.1,0,0.2,0,0.3,0s0.2,0,0.3,0s0.1,0,0.3,0c0.1,0,0.2,0,0.4,0c0.1,0,0.2,0,0.3,0.1
		c0.1,0,0.1,0.1,0.1,0.2s0,0.2-0.1,0.2s-0.2,0.1-0.3,0.1s-0.2,0-0.4,0c-0.1,0-0.2,0-0.3,0c-0.2,0-0.4-0.1-0.6-0.2
		c-0.2,0.1-0.4,0.3-0.5,0.6c-0.1,0.3-0.2,0.5-0.2,0.8s0.1,0.5,0.2,0.7c0.1,0.2,0.3,0.4,0.5,0.6c0.2-0.1,0.5-0.1,0.8-0.1
		c0.1,0,0.1,0,0.3,0c0.1,0,0.2,0,0.4,0c0.1,0,0.2,0,0.3,0.1c0.1,0,0.1,0.1,0.1,0.2s0,0.2-0.1,0.2s-0.2,0.1-0.3,0.1s-0.2,0-0.4,0
		c-0.1,0-0.2,0-0.3,0c-0.2,0-0.3,0-0.5,0s-0.3-0.1-0.4-0.1c-0.3,0.2-0.5,0.4-0.7,0.7c-0.2,0.3-0.2,0.6-0.2,0.9s0.1,0.6,0.3,0.8
		c0.2,0.2,0.5,0.4,0.8,0.5l2.1,0.8C54,83.2,54.2,83.4,54.3,83.6z M52.8,79.3c-0.1,0-0.3,0-0.6,0c-0.2,0-0.3,0-0.5,0.1
		c0.1,0.1,0.3,0.1,0.5,0.1c0.3,0,0.5,0,0.6,0s0.2,0,0.2,0S53,79.3,52.8,79.3z M52.8,76.3c-0.1,0-0.3,0-0.6,0c-0.1,0-0.2,0-0.3,0.1
		c0.1,0.1,0.2,0.1,0.3,0.1C52.5,76.4,52.7,76.4,52.8,76.3c0.1,0.1,0.2,0.1,0.2,0C53,76.3,53,76.3,52.8,76.3z"/>
	<path d="M59,81.3c-0.1,0.3-0.1,0.6-0.3,0.8c-0.1,0.2-0.3,0.4-0.5,0.6s-0.4,0.2-0.7,0.2s-0.6-0.1-0.9-0.2c-0.3-0.1-0.5-0.3-0.7-0.5
		s-0.4-0.5-0.5-0.8s-0.2-0.6-0.2-1c0-0.3,0.1-0.6,0.2-0.9c0.1-0.3,0.3-0.6,0.5-0.8c0.3-0.3,0.6-0.5,0.9-0.6l-0.6-0.4
		c-0.3-0.2-0.5-0.4-0.5-0.7c-0.1-0.3-0.1-0.6,0-0.9s0.3-0.5,0.5-0.7s0.6-0.3,0.9-0.3c0.3,0,0.5,0.1,0.8,0.2c0.2,0.2,0.4,0.3,0.6,0.6
		c0,0,0,0,0,0.1c0,0,0,0.1-0.1,0.1h-0.1c0,0-0.1,0-0.1-0.1c-0.1-0.2-0.3-0.4-0.5-0.5s-0.4-0.2-0.6-0.2c-0.2,0-0.4,0.1-0.6,0.2
		c-0.2,0.1-0.3,0.3-0.3,0.5c-0.1,0.2-0.1,0.4,0,0.6s0.2,0.4,0.4,0.5l1,0.7c0.5,0.3,0.8,0.7,1,1.1s0.3,0.9,0.3,1.5
		C59.1,80.7,59.1,81,59,81.3z M58.6,79.9c-0.1-0.2-0.2-0.4-0.3-0.5c-0.1-0.2-0.3-0.3-0.4-0.5c-0.2-0.1-0.4-0.3-0.6-0.4l-0.2-0.1
		c-0.1,0.1-0.3,0.1-0.4,0.2c-0.1,0.1-0.2,0.2-0.3,0.3c-0.1,0.2-0.2,0.5-0.3,0.8c0,0.3-0.1,0.6-0.1,0.8c0,0.3,0,0.6,0.1,0.9
		c0,0.3,0.1,0.5,0.3,0.8c0.1,0.2,0.3,0.3,0.4,0.5c0.2,0.1,0.4,0.2,0.6,0.2c0.2,0,0.4-0.1,0.5-0.2s0.3-0.3,0.3-0.5
		c0.1-0.2,0.2-0.4,0.2-0.7c0-0.3,0.1-0.5,0.1-0.8C58.7,80.3,58.7,80.1,58.6,79.9z"/>
</g>
<g>
	<g>
		<g>
			<g>
				<text transform="matrix(1 0 0 1 151.4946 149.417)" font-family="'ArialMT'" font-size="11">x     </text>
			</g>
		</g>
	</g>
</g>
<path fill="none" stroke="#000000" d="M0.5,151.4C2,140.5,7.4,64,7.4,64c1.2-9,1.2-9,2-18c0.3-2.8,0.4-20.9,2-24.5
	c2.9-6.5,12.4,82.3,13.3,88.6c1.4,9.3,3,10.1,4.7,14.9c1.3,3.8,8.2,9.4,10.5,10.8c4.1,2.5,7.8,4.5,11.8,5.7
	c9.9,2.8,12.9,4.6,25.3,5.8c6.3,0.6,14.5,2.4,23.5,2.4"/>
<line fill="none" stroke="#000000" x1="27.9" y1="102.7" x2="46.9" y2="80.6"/>
</svg>
