<?xml version="1.0" encoding="utf-8"?>
<!-- Generator: Adobe Illustrator 17.1.0, SVG Export Plug-In . SVG Version: 6.00 Build 0)  -->

<svg version="1.1" id="Layer_1" xmlns="http://www.w3.org/2000/svg" xmlns:xlink="http://www.w3.org/1999/xlink" x="0px" y="0px"
	 width="171.5px" height="147.1px" viewBox="0 1.6 171.5 147.1" enable-background="new 0 1.6 171.5 147.1" xml:space="preserve">
<line fill="none" stroke="#000000" x1="0.5" y1="2" x2="0.5" y2="146"/>
<line fill="none" stroke="#000000" x1="0.5" y1="146" x2="144.5" y2="146"/>
<g>
	<g>
		<g>
			<g>
				<g>
					<text transform="matrix(1 0 0 1 9.833 10.9995)" font-family="'ArialMT'" font-size="11">F</text>
				</g>
			</g>
		</g>
	</g>
	<g>
		<g>
			<g>
				<g>
					<text transform="matrix(1 0 0 1 16.5522 13.9995)" font-family="'ArialMT'" font-size="11">X</text>
				</g>
			</g>
		</g>
	</g>
	<g>
		<g>
			<g>
				<g>
					<text transform="matrix(1 0 0 1 23.8892 10.9995)" font-family="'ArialMT'" font-size="11">(x)</text>
				</g>
			</g>
		</g>
	</g>
</g>
<g>
	<g>
		<g>
			<g>
				<text transform="matrix(1 0 0 1 150.7495 145.083)" font-family="'ArialMT'" font-size="11">x     </text>
			</g>
		</g>
	</g>
</g>
<g>
	<g>
		<g>
			<g>
				<g>
					<text transform="matrix(1 0 0 1 3.6665 113.8329)" font-family="'ArialMT'" font-size="11">x</text>
				</g>
			</g>
		</g>
	</g>
	<g>
		<g>
			<g>
				<g>
					<text transform="matrix(1 0 0 1 9.1665 116.8329)" font-family="'ArialMT'" font-size="11">min</text>
				</g>
			</g>
		</g>
	</g>
</g>
<line fill="none" stroke="#000000" x1="67.1" y1="32.6" x2="83.7" y2="47.3"/>
<g>
	<path d="M93.3,54.8h-0.5l0,0c-0.2-0.1-0.4-0.3-0.5-0.5l-1.7-2.9l-1.9,3.2c-0.1,0.1-0.1,0.2-0.2,0.2s-0.2,0-0.3-0.1
		c-0.2,0-0.2-0.1-0.2-0.2s0-0.2,0.1-0.3l2.3-3.1L88.5,48c-0.1-0.2-0.3-0.4-0.4-0.6c-0.1-0.2-0.3-0.2-0.5-0.2c-0.1,0-0.1,0-0.1-0.1
		s0-0.1,0.1-0.1c0.3,0,0.6,0,0.9,0.1s0.5,0.3,0.7,0.5l3.8,6.2c0.1,0.1,0.2,0.3,0.2,0.4c0.1,0.1,0.2,0.2,0.2,0.3l0.1,0.1
		C93.4,54.8,93.4,54.8,93.3,54.8z"/>
</g>
<path fill="none" stroke="#000000" d="M27.5,146c2.7-41,8.3-58.9,14.3-78.3c7.8-25,18.3-39.3,41.3-52c10.6-5.9,30.1-7.1,49.3-3.7"/>
</svg>
