<?xml version="1.0" encoding="utf-8"?>
<!-- Generator: Adobe Illustrator 17.1.0, SVG Export Plug-In . SVG Version: 6.00 Build 0)  -->

<svg version="1.1" id="Layer_1" xmlns="http://www.w3.org/2000/svg" xmlns:xlink="http://www.w3.org/1999/xlink" x="0px" y="0px"
	 width="171.5px" height="147.1px" viewBox="0 1.6 171.5 147.1" enable-background="new 0 1.6 171.5 147.1" xml:space="preserve">
<line fill="none" stroke="#000000" x1="0.5" y1="2" x2="0.5" y2="146"/>
<line fill="none" stroke="#000000" x1="0.5" y1="146" x2="144.5" y2="146"/>
<g>
	<g>
		<g>
			<g>
				<g>
					<text transform="matrix(1 0 0 1 9.833 10.9995)" font-family="'ArialMT'" font-size="11">f</text>
				</g>
			</g>
		</g>
	</g>
	<g>
		<g>
			<g>
				<g>
					<text transform="matrix(1 0 0 1 12.8892 13.9995)" font-family="'ArialMT'" font-size="11">X</text>
				</g>
			</g>
		</g>
	</g>
	<g>
		<g>
			<g>
				<g>
					<text transform="matrix(1 0 0 1 20.2261 10.9995)" font-family="'ArialMT'" font-size="11">(x)</text>
				</g>
			</g>
		</g>
	</g>
</g>
<g>
	<g>
		<g>
			<g>
				<text transform="matrix(1 0 0 1 150.7495 145.083)" font-family="'ArialMT'" font-size="11">x     </text>
			</g>
		</g>
	</g>
</g>
<path fill="none" stroke="#000000" d="M116.7,144.5"/>
<line fill="none" stroke="#000000" x1="18.9" y1="127.7" x2="18.9" y2="146"/>
<g>
	<g>
		<g>
			<g>
				<g>
					<text transform="matrix(1 0 0 1 3.6665 121.8335)" font-family="'ArialMT'" font-size="11">x</text>
				</g>
			</g>
		</g>
	</g>
	<g>
		<g>
			<g>
				<g>
					<text transform="matrix(1 0 0 1 9.1665 124.8335)" font-family="'ArialMT'" font-size="11">min</text>
				</g>
			</g>
		</g>
	</g>
</g>
<line fill="none" stroke="#000000" x1="52.6" y1="77.6" x2="29.1" y2="58.6"/>
<g>
	<g>
		<g>
			<g>
				<g>
					<text transform="matrix(1 0 0 1 11.834 53.6665)" font-family="'ArialMT'" font-size="11">m,x</text>
				</g>
			</g>
		</g>
	</g>
	<g>
		<g>
			<g>
				<g>
					<text transform="matrix(1 0 0 1 29.5532 56.6665)" font-family="'ArialMT'" font-size="11">chr</text>
				</g>
			</g>
		</g>
	</g>
</g>
<path fill="none" stroke="#000000" d="M24.8,146c6.6,0,9.3,0,13-2c3.2-1.8,6.1-5.1,6.6-5.6c4.1-4.1,16.1-100.1,16.1-100.1
	c0-6.5,5.3-16,7.8-5.5c1.3,5.3,2.9,26,2.9,29.4c0,16.9,5.9,75.3,10.6,77"/>
</svg>
