<?xml version="1.0" encoding="utf-8"?>
<!-- Generator: Adobe Illustrator 17.1.0, SVG Export Plug-In . SVG Version: 6.00 Build 0)  -->

<svg version="1.1" id="Layer_1" xmlns="http://www.w3.org/2000/svg" xmlns:xlink="http://www.w3.org/1999/xlink" x="0px" y="0px"
	 width="170.9px" height="152.4px" viewBox="0 1.6 170.9 152.4" enable-background="new 0 1.6 170.9 152.4" xml:space="preserve">
<line fill="none" stroke="#000000" x1="0.5" y1="7" x2="0.5" y2="151"/>
<line fill="none" stroke="#000000" x1="0.5" y1="151" x2="144.5" y2="151"/>
<g>
	<g>
		<g>
			<g>
				<g>
					<text transform="matrix(1 0 0 1 4.833 10.9995)" font-family="'ArialMT'" font-size="11">f</text>
				</g>
			</g>
		</g>
	</g>
	<g>
		<g>
			<g>
				<g>
					<text transform="matrix(1 0 0 1 7.8892 13.9995)" font-family="'ArialMT'" font-size="11">X</text>
				</g>
			</g>
		</g>
	</g>
	<g>
		<g>
			<g>
				<g>
					<text transform="matrix(1 0 0 1 15.2261 10.9995)" font-family="'ArialMT'" font-size="11">(x)</text>
				</g>
			</g>
		</g>
	</g>
</g>
<g>
	<g>
		<path d="M73.7,66.1h-0.5l0,0c-0.2-0.1-0.4-0.3-0.5-0.5L71,62.7L69,66c-0.1,0.1-0.1,0.2-0.2,0.2s-0.2,0-0.3-0.1
			c-0.1-0.1-0.1-0.1-0.2-0.2c0-0.1,0-0.2,0.1-0.3l2.3-3.1l-1.9-3.1c-0.1-0.2-0.3-0.4-0.4-0.6c-0.1-0.2-0.3-0.2-0.5-0.2
			c-0.1,0-0.1,0-0.1-0.1s0-0.1,0.1-0.1c0.3,0,0.6,0,0.9,0.1s0.5,0.3,0.7,0.5l3.8,6.2c0.1,0.1,0.2,0.3,0.2,0.4
			c0.1,0.1,0.2,0.2,0.2,0.3V66.1C73.8,66.1,73.7,66.1,73.7,66.1z"/>
		<path d="M76.1,67.1c-0.2,0.4-0.4,0.7-0.7,1c-0.1,0-0.1,0-0.2,0l0,0V68c0.3-0.3,0.5-0.6,0.6-0.9C76,66.8,76,66.4,76,66v-0.1v-0.1
			c0,0.1-0.2,0.2-0.4,0.2c-0.2,0-0.3-0.1-0.4-0.2s-0.1-0.3-0.1-0.4s0-0.3,0.1-0.4s0.2-0.2,0.4-0.2c0.1,0,0.3,0,0.3,0.1
			c0.1,0.1,0.2,0.2,0.2,0.3c0.1,0.1,0.1,0.2,0.1,0.4c0,0.1,0,0.3,0,0.4C76.3,66.4,76.2,66.8,76.1,67.1z"/>
	</g>
	<g>
		<g>
			<g>
				<g>
					<text transform="matrix(1 0 0 1 76.9709 66.0005)" font-family="'ArialMT'" font-size="11">k</text>
				</g>
			</g>
		</g>
	</g>
</g>
<g>
	<g>
		<g>
			<g>
				<text transform="matrix(1 0 0 1 150.083 150.4165)" font-family="'ArialMT'" font-size="11">x     </text>
			</g>
		</g>
	</g>
</g>
<path fill="none" stroke="#000000" stroke-linecap="round" d="M0.5,145.6"/>
<path fill="none" stroke="#000000" stroke-linecap="round" d="M12.3,81.6"/>
<path fill="none" stroke="#000000" stroke-linecap="round" d="M19.1,20.2"/>
<path fill="none" stroke="#000000" stroke-linecap="round" d="M1.1,149.1c2-25.1,2.9-35.7,4-47.8c2.4-26,3.4-31.1,5.7-49.3
	c0.9-7.2,4-26.3,4-26.3s2.3-7.4,4.8-4.8c2.4,2.4,4.2,6.6,6.1,13.5c6.7,24.1,21.1,65.4,21.1,65.4c2.6,6.2,10.6,31,17.6,37.1
	c7.5,6.5,11.6,7.2,17.3,8.8c4.4,1.2,14,3,17.7,3"/>
<line fill="none" stroke="#000000" x1="46.8" y1="88" x2="64.2" y2="66.7"/>
</svg>
