<?xml version="1.0" encoding="utf-8"?>
<!-- Generator: Adobe Illustrator 17.1.0, SVG Export Plug-In . SVG Version: 6.00 Build 0)  -->

<svg version="1.1" id="Layer_1" xmlns="http://www.w3.org/2000/svg" xmlns:xlink="http://www.w3.org/1999/xlink" x="0px" y="0px"
	 width="171.5px" height="147.1px" viewBox="0 1.6 171.5 147.1" enable-background="new 0 1.6 171.5 147.1" xml:space="preserve">
<line fill="none" stroke="#000000" x1="0.5" y1="2" x2="0.5" y2="146"/>
<line fill="none" stroke="#000000" x1="0.5" y1="146" x2="144.5" y2="146"/>
<g>
	<g>
		<g>
			<g>
				<g>
					<text transform="matrix(1 0 0 1 9.833 10.9995)" font-family="'ArialMT'" font-size="11">f</text>
				</g>
			</g>
		</g>
	</g>
	<g>
		<g>
			<g>
				<g>
					<text transform="matrix(1 0 0 1 12.8892 13.9995)" font-family="'ArialMT'" font-size="11">X</text>
				</g>
			</g>
		</g>
	</g>
	<g>
		<g>
			<g>
				<g>
					<text transform="matrix(1 0 0 1 20.2261 10.9995)" font-family="'ArialMT'" font-size="11">(x)</text>
				</g>
			</g>
		</g>
	</g>
</g>
<g>
	<g>
		<g>
			<g>
				<text transform="matrix(1 0 0 1 150.7495 145.083)" font-family="'ArialMT'" font-size="11">x     </text>
			</g>
		</g>
	</g>
</g>
<path fill="none" stroke="#000000" d="M116.7,144.5"/>
<line fill="none" stroke="#000000" x1="18.9" y1="81.7" x2="18.9" y2="146"/>
<g>
	<g>
		<g>
			<g>
				<g>
					<text transform="matrix(1 0 0 1 3.6665 75.5)" font-family="'ArialMT'" font-size="11">x</text>
				</g>
			</g>
		</g>
	</g>
	<g>
		<g>
			<g>
				<g>
					<text transform="matrix(1 0 0 1 9.1665 78.5)" font-family="'ArialMT'" font-size="11">min</text>
				</g>
			</g>
		</g>
	</g>
</g>
<g>
	<g>
		<g>
			<g>
				<g>
					<text transform="matrix(1 0 0 1 110 114.8329)" font-family="'ArialMT'" font-size="11">x</text>
				</g>
			</g>
		</g>
	</g>
	<g>
		<g>
			<g>
				<g>
					<text transform="matrix(1 0 0 1 115.5 117.8329)" font-family="'ArialMT'" font-size="11">max</text>
				</g>
			</g>
		</g>
	</g>
</g>
<line fill="none" stroke="#000000" x1="127.2" y1="123.7" x2="127.2" y2="146.3"/>
<path fill="none" stroke="#000000" d="M18.9,146c3.9-35.3,9.2-57.8,13.4-79c2.5-12.5,2.7-12.6,6.5-26.1c3.1-10.7,9.8-21.8,16.3-15.3
	c5.8,5.8,5.8,7,12.3,20.5c6.6,13.9,24.4,54.5,31,68.5c5.8,12.3,19.2,28.8,25.1,31.4"/>
<line fill="none" stroke="#000000" x1="73.8" y1="60.1" x2="94.2" y2="30.3"/>
<g>
	<g>
		<g>
			<g>
				<g>
					<text transform="matrix(1 0 0 1 98.167 29)" font-family="'ArialMT'" font-size="11">r</text>
				</g>
			</g>
		</g>
	</g>
	<g>
		<g>
			<g>
				<g>
					<text transform="matrix(1 0 0 1 101.2251 29)" font-family="'ArialMT'" font-size="11">,t</text>
				</g>
			</g>
		</g>
	</g>
</g>
</svg>
