<?xml version="1.0" encoding="utf-8"?>
<!-- Generator: Adobe Illustrator 17.1.0, SVG Export Plug-In . SVG Version: 6.00 Build 0)  -->

<svg version="1.1" id="Layer_1" xmlns="http://www.w3.org/2000/svg" xmlns:xlink="http://www.w3.org/1999/xlink" x="0px" y="0px"
	 width="171.7px" height="150.8px" viewBox="0 1.6 171.7 150.8" enable-background="new 0 1.6 171.7 150.8" xml:space="preserve">
<line fill="none" stroke="#000000" x1="0.5" y1="7" x2="0.5" y2="151"/>
<line fill="none" stroke="#000000" x1="0.5" y1="151" x2="144.5" y2="151"/>
<g>
	<g>
		<g>
			<g>
				<g>
					<text transform="matrix(1 0 0 1 4.833 10.9995)" font-family="'ArialMT'" font-size="11">F</text>
				</g>
			</g>
		</g>
	</g>
	<g>
		<g>
			<g>
				<g>
					<text transform="matrix(1 0 0 1 11.5522 13.9995)" font-family="'ArialMT'" font-size="11">X</text>
				</g>
			</g>
		</g>
	</g>
	<g>
		<g>
			<g>
				<g>
					<text transform="matrix(1 0 0 1 18.8892 10.9995)" font-family="'ArialMT'" font-size="11">(x)</text>
				</g>
			</g>
		</g>
	</g>
</g>
<g>
	<path d="M48.6,75.6c0.1,0.2,0.2,0.4,0.1,0.7c0,0.2-0.1,0.4-0.3,0.6s-0.4,0.2-0.6,0.2c-0.2,0-0.5,0-0.7-0.1s-0.4-0.2-0.6-0.3
		c-0.1-0.1-0.1-0.1,0-0.2s0.1-0.1,0.2,0c0.2,0.1,0.4,0.2,0.5,0.3c0.2,0.1,0.4,0.1,0.6,0.1c0.1,0,0.2,0,0.3-0.1s0.1-0.2,0.1-0.3
		c0-0.1,0-0.2-0.1-0.3c-0.1-0.1-0.2-0.2-0.4-0.3l-2.1-0.7c-0.2-0.1-0.4-0.2-0.6-0.3c-0.2-0.1-0.3-0.2-0.5-0.4
		c-0.1-0.2-0.2-0.3-0.3-0.5s-0.1-0.4-0.1-0.6c0-0.4,0.1-0.8,0.3-1.1c0.2-0.3,0.4-0.6,0.8-0.8c-0.3-0.2-0.6-0.4-0.8-0.6
		c-0.2-0.3-0.3-0.6-0.3-0.9c0-0.2,0-0.4,0.1-0.6s0.2-0.3,0.3-0.5c0.1-0.1,0.3-0.3,0.5-0.4s0.4-0.2,0.6-0.2c-0.1-0.3-0.2-0.5-0.2-0.9
		v-0.1h0.1h0.1v0.1c0,0.3,0.1,0.6,0.2,0.8c0.1,0,0.2,0,0.3,0s0.2,0,0.3,0s0.1,0,0.3,0c0.1,0,0.2,0,0.4,0c0.1,0,0.2,0,0.3,0.1
		c0.1,0,0.1,0.1,0.1,0.2s0,0.2-0.1,0.2s-0.2,0.1-0.3,0.1s-0.2,0-0.4,0c-0.1,0-0.2,0-0.3,0c-0.2,0-0.4-0.1-0.6-0.2
		c-0.2,0.1-0.4,0.3-0.5,0.6c-0.1,0.3-0.2,0.5-0.2,0.8s0.1,0.5,0.2,0.7c0.1,0.2,0.3,0.4,0.5,0.6c0.2-0.1,0.5-0.1,0.8-0.1
		c0.1,0,0.1,0,0.3,0s0.2,0,0.4,0c0.1,0,0.2,0,0.3,0.1c0.1,0,0.1,0.1,0.1,0.2s0,0.2-0.1,0.2s-0.2,0.1-0.3,0.1s-0.2,0-0.4,0
		s-0.2,0-0.3,0c-0.2,0-0.3,0-0.5,0s-0.3-0.1-0.4-0.1c-0.3,0.2-0.5,0.4-0.7,0.7c-0.2,0.3-0.2,0.6-0.2,0.9s0.1,0.6,0.3,0.8
		c0.2,0.2,0.5,0.4,0.8,0.5l2.1,0.8C48.3,75.2,48.5,75.4,48.6,75.6z M47.1,71.3c-0.1,0-0.3,0-0.6,0c-0.2,0-0.3,0-0.5,0.1
		c0.1,0.1,0.3,0.1,0.5,0.1c0.3,0,0.5,0,0.6,0s0.2,0,0.2,0C47.3,71.3,47.2,71.3,47.1,71.3z M47.1,68.3c-0.1,0-0.3,0-0.6,0
		c-0.1,0-0.2,0-0.3,0.1c0.1,0.1,0.2,0.1,0.3,0.1C46.8,68.4,47,68.4,47.1,68.3c0.1,0.1,0.2,0.1,0.2,0C47.3,68.3,47.2,68.3,47.1,68.3z
		"/>
	<path d="M53.3,73.3c-0.1,0.3-0.1,0.6-0.3,0.8c-0.1,0.2-0.3,0.4-0.5,0.6s-0.4,0.2-0.7,0.2s-0.6-0.1-0.9-0.2
		c-0.3-0.1-0.5-0.3-0.7-0.5s-0.4-0.5-0.5-0.8s-0.2-0.6-0.2-1c0-0.3,0.1-0.6,0.2-0.9c0.1-0.3,0.3-0.6,0.5-0.8
		c0.3-0.3,0.6-0.5,0.9-0.6l-0.6-0.4C50.2,69.5,50,69.3,50,69c-0.1-0.3-0.1-0.6,0-0.9s0.3-0.5,0.5-0.7s0.6-0.3,0.9-0.3
		c0.3,0,0.5,0.1,0.8,0.2c0.2,0.2,0.4,0.3,0.6,0.6c0,0,0,0,0,0.1c0,0,0,0.1-0.1,0.1h-0.1c0,0-0.1,0-0.1-0.1c-0.1-0.2-0.3-0.4-0.5-0.5
		s-0.4-0.2-0.6-0.2c-0.2,0-0.4,0.1-0.6,0.2c-0.2,0.1-0.3,0.3-0.3,0.5c-0.1,0.2-0.1,0.4,0,0.6s0.2,0.4,0.4,0.5l1,0.7
		c0.5,0.3,0.8,0.7,1,1.1s0.3,0.9,0.3,1.5C53.3,72.7,53.3,73,53.3,73.3z M52.9,71.9c-0.1-0.2-0.2-0.4-0.3-0.5
		c-0.1-0.2-0.3-0.3-0.4-0.5c-0.2-0.1-0.4-0.3-0.6-0.4l-0.2-0.1c-0.1,0.1-0.3,0.1-0.4,0.2c-0.1,0.1-0.2,0.2-0.3,0.3
		c-0.1,0.2-0.2,0.5-0.3,0.8c0,0.3-0.1,0.6-0.1,0.8c0,0.3,0,0.6,0.1,0.9c0,0.3,0.1,0.5,0.3,0.8c0.1,0.2,0.3,0.3,0.4,0.5
		c0.2,0.1,0.4,0.2,0.6,0.2c0.2,0,0.4-0.1,0.5-0.2s0.3-0.3,0.3-0.5c0.1-0.2,0.2-0.4,0.2-0.7c0-0.3,0.1-0.5,0.1-0.8
		C53,72.3,52.9,72.1,52.9,71.9z"/>
</g>
<g>
	<g>
		<g>
			<g>
				<text transform="matrix(1 0 0 1 150.916 148.75)" font-family="'ArialMT'" font-size="11">x     </text>
			</g>
		</g>
	</g>
</g>
<path fill="none" stroke="#000000" d="M1.8,149.7c1.5-10.9,16.7-85.2,16.7-85.2s3.5-15.8,8-26C30.2,30,33.8,26.7,38,24
	c8.5-5.5,12.6-7.2,19.5-8c23-2.5,66.5-5.5,75.5-5.5"/>
<line fill="none" stroke="#000000" x1="41.5" y1="68.5" x2="24.5" y2="53"/>
</svg>
