<?xml version="1.0" encoding="utf-8"?>
<!-- Generator: Adobe Illustrator 17.1.0, SVG Export Plug-In . SVG Version: 6.00 Build 0)  -->

<svg version="1.1" id="Layer_1" xmlns="http://www.w3.org/2000/svg" xmlns:xlink="http://www.w3.org/1999/xlink" x="0px" y="0px"
	 width="171.9px" height="151.4px" viewBox="0 1.6 171.9 151.4" enable-background="new 0 1.6 171.9 151.4" xml:space="preserve">
<line fill="none" stroke="#000000" x1="0.5" y1="7" x2="0.5" y2="151"/>
<line fill="none" stroke="#000000" x1="0.5" y1="151" x2="144.5" y2="151"/>
<g>
	<g>
		<g>
			<g>
				<g>
					<text transform="matrix(1 0 0 1 4.833 10.9995)" font-family="'ArialMT'" font-size="11">F</text>
				</g>
			</g>
		</g>
	</g>
	<g>
		<g>
			<g>
				<g>
					<text transform="matrix(1 0 0 1 11.5522 13.9995)" font-family="'ArialMT'" font-size="11">X</text>
				</g>
			</g>
		</g>
	</g>
	<g>
		<g>
			<g>
				<g>
					<text transform="matrix(1 0 0 1 18.8892 10.9995)" font-family="'ArialMT'" font-size="11">(x)</text>
				</g>
			</g>
		</g>
	</g>
</g>
<g>
	<g>
		<path d="M73.7,66.1h-0.5l0,0c-0.2-0.1-0.4-0.3-0.5-0.5L71,62.7L69,66c-0.1,0.1-0.1,0.2-0.2,0.2s-0.2,0-0.3-0.1
			c-0.1-0.1-0.1-0.1-0.2-0.2c0-0.1,0-0.2,0.1-0.3l2.3-3.1l-1.9-3.1c-0.1-0.2-0.3-0.4-0.4-0.6c-0.1-0.2-0.3-0.2-0.5-0.2
			c-0.1,0-0.1,0-0.1-0.1s0-0.1,0.1-0.1c0.3,0,0.6,0,0.9,0.1s0.5,0.3,0.7,0.5l3.8,6.2c0.1,0.1,0.2,0.3,0.2,0.4
			c0.1,0.1,0.2,0.2,0.2,0.3V66.1C73.8,66.1,73.7,66.1,73.7,66.1z"/>
		<path d="M76.1,67.1c-0.2,0.4-0.4,0.7-0.7,1c-0.1,0-0.1,0-0.2,0l0,0V68c0.3-0.3,0.5-0.6,0.6-0.9C76,66.8,76,66.4,76,66v-0.1v-0.1
			c0,0.1-0.2,0.2-0.4,0.2c-0.2,0-0.3-0.1-0.4-0.2s-0.1-0.3-0.1-0.4s0-0.3,0.1-0.4s0.2-0.2,0.4-0.2c0.1,0,0.3,0,0.3,0.1
			c0.1,0.1,0.2,0.2,0.2,0.3c0.1,0.1,0.1,0.2,0.1,0.4c0,0.1,0,0.3,0,0.4C76.3,66.4,76.2,66.8,76.1,67.1z"/>
	</g>
	<g>
		<g>
			<g>
				<g>
					<text transform="matrix(1 0 0 1 76.9709 66.0005)" font-family="'ArialMT'" font-size="11">k</text>
				</g>
			</g>
		</g>
	</g>
</g>
<g>
	<g>
		<g>
			<g>
				<text transform="matrix(1 0 0 1 151.0825 149.4165)" font-family="'ArialMT'" font-size="11">x     </text>
			</g>
		</g>
	</g>
</g>
<path fill="none" stroke="#000000" stroke-linecap="round" d="M0.5,145.6"/>
<path fill="none" stroke="#000000" stroke-linecap="round" d="M12.3,81.6"/>
<path fill="none" stroke="#000000" stroke-linecap="round" d="M19.1,20.2"/>
<path fill="none" stroke="#000000" stroke-linecap="round" d="M0.5,151c9.4-2.1,19.1-33.7,22.7-45.3c7.3-24,8.8-40.2,16-55
	c5.6-11.6,8.6-15,18.3-22.3c13.2-10,27.8-11,35-11c12.7,0,14-0.5,24.5-0.5"/>
<line fill="none" stroke="#000000" x1="72.7" y1="55.8" x2="61.2" y2="29.7"/>
</svg>
