<?xml version="1.0" encoding="utf-8"?>
<!-- Generator: Adobe Illustrator 17.1.0, SVG Export Plug-In . SVG Version: 6.00 Build 0)  -->

<svg version="1.1" id="Layer_1" xmlns="http://www.w3.org/2000/svg" xmlns:xlink="http://www.w3.org/1999/xlink" x="0px" y="0px"
	 width="171.2px" height="146.8px" viewBox="0 1.6 171.2 146.8" enable-background="new 0 1.6 171.2 146.8" xml:space="preserve">
<line fill="none" stroke="#000000" x1="0.5" y1="2" x2="0.5" y2="146"/>
<line fill="none" stroke="#000000" x1="0.5" y1="146" x2="144.5" y2="146"/>
<line fill="none" stroke="#000000" stroke-width="0.5" x1="72.2" y1="146" x2="72.2" y2="10"/>
<g>
	<g>
		<g>
			<g>
				<g>
					<text transform="matrix(1 0 0 1 9.833 10.9995)" font-family="'ArialMT'" font-size="11">f</text>
				</g>
			</g>
		</g>
	</g>
	<g>
		<g>
			<g>
				<g>
					<text transform="matrix(1 0 0 1 12.8892 13.9995)" font-family="'ArialMT'" font-size="11">X</text>
				</g>
			</g>
		</g>
	</g>
	<g>
		<g>
			<g>
				<g>
					<text transform="matrix(1 0 0 1 20.2261 10.9995)" font-family="'ArialMT'" font-size="11">(x)</text>
				</g>
			</g>
		</g>
	</g>
</g>
<g>
	<g>
		<g>
			<g>
				<text transform="matrix(1 0 0 1 77.1665 71.9995)" font-family="'ArialMT'" font-size="11">2</text>
			</g>
		</g>
	</g>
</g>
<g>
	<g>
		<g>
			<g>
				<text transform="matrix(1.01 0 0 1 75.167 131.3325)" font-family="'SymbolMT'" font-size="11">µ</text>
			</g>
		</g>
	</g>
</g>
<g>
	<g>
		<g>
			<g>
				<text transform="matrix(1 0 0 1 150.416 144.75)" font-family="'ArialMT'" font-size="11">x     </text>
			</g>
		</g>
	</g>
</g>
<g>
	<g>
		<path fill="#FFFFFF" d="M102.5,74c-2.8,1.1-6.4,2.9-8.5,4.8l1.7-4.8L94,69.2C96.2,71.1,99.7,72.9,102.5,74z"/>
		<path fill="#FFFFFF" d="M43.5,74c2.8-1.1,6.4-2.9,8.5-4.8L50.3,74l1.7,4.8C49.8,76.9,46.3,75.1,43.5,74z"/>
	</g>
	<g>
		<line fill="none" stroke="#000000" stroke-width="0.5" x1="49.5" y1="74" x2="96.5" y2="74"/>
		<path d="M99.5,74c-1.4,0.5-3.2,1.4-4.3,2.4l0.9-2.4l-0.9-2.4C96.3,72.6,98.1,73.5,99.5,74z"/>
		<path d="M46.5,74c1.4-0.5,3.2-1.4,4.3-2.4L49.9,74l0.9,2.4C49.7,75.4,47.9,74.5,46.5,74z"/>
	</g>
</g>
<path fill="none" stroke="#000000" d="M0.5,146c0,0,5.9-0.5,10.9-4.9c1.2-1,2.4-2.2,3.5-3.4c1.4-1.6,2.8-3.3,4-5.2
	c2.9-4.6,5.9-9.8,8.5-15.3C37.1,96.7,45.8,74,45.8,74"/>
<path fill="none" stroke="#000000" d="M45.8,74c0,0,1.7-4.3,4.2-11c2.6-7,6-16.3,9.2-24.8c2.2-5.8,4.2-11.1,5.8-15.2
	c1.8-4.5,4.1-7.4,4.1-7.4"/>
<path fill="none" stroke="#000000" d="M144,145.3c0,0-5.9-0.5-10.9-4.9c-1.2-1-2.4-2.2-3.5-3.4c-1.4-1.6-2.7-3.3-3.9-5.2
	c-2.9-4.6-5.9-9.8-8.5-15.3C107.5,96,98.8,73.3,98.8,73.3"/>
<path fill="none" stroke="#000000" d="M98.8,73.3c0,0-1.7-4.3-4.2-11c-2.6-7-6.1-16.3-9.3-24.8c-2.2-5.8-4.3-11.2-5.9-15.2
	c-1.8-4.5-4.1-7.4-4.1-7.4"/>
<path fill="none" stroke="#000000" d="M69.2,15.7c0,0,1.5-2,3-2.2c1.6-0.2,3.2,1.4,3.2,1.4"/>
<g>
	<g>
		<g>
			<g>
				<text transform="matrix(1.01 0 0 1 84.167 71.999)" font-family="'SymbolMT'" font-size="11">σ</text>
			</g>
		</g>
	</g>
</g>
</svg>
