<?xml version="1.0" encoding="utf-8"?>
<!-- Generator: Adobe Illustrator 17.1.0, SVG Export Plug-In . SVG Version: 6.00 Build 0)  -->

<svg version="1.1" id="Layer_1" xmlns="http://www.w3.org/2000/svg" xmlns:xlink="http://www.w3.org/1999/xlink" x="0px" y="0px"
	 width="171.7px" height="151.3px" viewBox="0 1.6 171.7 151.3" enable-background="new 0 1.6 171.7 151.3" xml:space="preserve">
<line fill="none" stroke="#000000" x1="0.5" y1="7" x2="0.5" y2="151"/>
<line fill="none" stroke="#000000" x1="0.5" y1="151" x2="144.5" y2="151"/>
<line fill="none" stroke="#000000" stroke-width="0.5" x1="28.5" y1="151" x2="28.5" y2="18.7"/>
<g>
	<g>
		<g>
			<g>
				<g>
					<text transform="matrix(1 0 0 1 4.833 10.9995)" font-family="'ArialMT'" font-size="11">f</text>
				</g>
			</g>
		</g>
	</g>
	<g>
		<g>
			<g>
				<g>
					<text transform="matrix(1 0 0 1 7.8892 13.9995)" font-family="'ArialMT'" font-size="11">X</text>
				</g>
			</g>
		</g>
	</g>
	<g>
		<g>
			<g>
				<g>
					<text transform="matrix(1 0 0 1 15.2261 10.9995)" font-family="'ArialMT'" font-size="11">(x)</text>
				</g>
			</g>
		</g>
	</g>
</g>
<g>
	<path d="M35.7,30.3c0,0.2,0,0.4-0.1,0.6c0,0.2-0.1,0.3-0.2,0.4c-0.1,0.1-0.3,0.2-0.5,0.2c-0.3,0-0.5-0.1-0.7-0.2
		c-0.2-0.2-0.4-0.3-0.5-0.6c-0.1,0.2-0.3,0.4-0.5,0.6s-0.4,0.2-0.7,0.2c-0.2,0-0.4,0-0.6-0.1c-0.2,0-0.4-0.1-0.5-0.3v2.2
		c0,0.1,0,0.2-0.1,0.3s-0.2,0.1-0.3,0.1c-0.1,0-0.2,0-0.2-0.1c-0.1-0.1-0.1-0.2-0.1-0.3v-6.5c0-0.1,0-0.2,0.1-0.3
		c0.1-0.1,0.2-0.1,0.2-0.1c0.1,0,0.2,0,0.3,0.1c0.1,0.1,0.1,0.2,0.1,0.3v2.6c0,0.2,0,0.5,0.1,0.7c0,0.2,0.1,0.4,0.2,0.6
		c0.1,0.1,0.2,0.2,0.4,0.3c0.2,0.1,0.3,0.1,0.5,0.1c0.3,0,0.5-0.1,0.7-0.3c0.2-0.2,0.3-0.4,0.4-0.7V30v-3c0-0.1,0-0.2,0.1-0.3
		c0.1-0.1,0.2-0.1,0.2-0.1c0.1,0,0.2,0,0.3,0.1s0.1,0.2,0.1,0.3v3.2c0,0.3,0,0.5,0.1,0.8c0.1,0.2,0.2,0.3,0.4,0.3
		c0.1,0,0.2,0,0.3-0.1s0.1-0.2,0.1-0.3c0-0.1,0.1-0.3,0.1-0.5s0-0.4,0-0.6c0-0.1,0-0.1,0.1-0.1h0.1c0.1,0,0.1,0,0.1,0.1
		C35.7,29.9,35.7,30.1,35.7,30.3z"/>
</g>
<g>
	<g>
		<g>
			<g>
				<text transform="matrix(1 0 0 1 150.916 149.25)" font-family="'ArialMT'" font-size="11">x     </text>
			</g>
		</g>
	</g>
</g>
<path fill="none" stroke="#000000" stroke-linecap="round" d="M0.5,145.6"/>
<path fill="none" stroke="#000000" stroke-linecap="round" d="M12.3,81.6"/>
<path fill="none" stroke="#000000" stroke-linecap="round" d="M19.1,20.2"/>
<path fill="none" stroke="#000000" stroke-linecap="round" d="M1.1,149.1c2-25.1,2.9-35.7,4-47.8c2.4-26,3.4-31.1,5.7-49.3
	c0.9-7.2,4-26.3,4-26.3s2.3-7.4,4.8-4.8c2.4,2.4,4.2,6.6,6.1,13.5c6.7,24.1,21.1,65.4,21.1,65.4c2.6,6.2,9.3,29.9,15.1,35.8
	c4.7,4.7,18.6,11.7,20.2,12c5.7,1.1,9.3,2.5,13,2.5c2.8,0,11.9,0.7,11.9,0.7"/>
</svg>
