<?xml version="1.0" encoding="utf-8"?>
<!-- Generator: Adobe Illustrator 17.1.0, SVG Export Plug-In . SVG Version: 6.00 Build 0)  -->

<svg version="1.1" id="Layer_1" xmlns="http://www.w3.org/2000/svg" xmlns:xlink="http://www.w3.org/1999/xlink" x="0px" y="0px"
	 width="171.5px" height="147.1px" viewBox="0 1.6 171.5 147.1" enable-background="new 0 1.6 171.5 147.1" xml:space="preserve">
<line fill="none" stroke="#000000" x1="0.5" y1="2" x2="0.5" y2="146"/>
<line fill="none" stroke="#000000" x1="0.5" y1="146" x2="144.5" y2="146"/>
<g>
	<g>
		<g>
			<g>
				<g>
					<text transform="matrix(1 0 0 1 9.833 10.9995)" font-family="'ArialMT'" font-size="11">F</text>
				</g>
			</g>
		</g>
	</g>
	<g>
		<g>
			<g>
				<g>
					<text transform="matrix(1 0 0 1 16.5522 13.9995)" font-family="'ArialMT'" font-size="11">X</text>
				</g>
			</g>
		</g>
	</g>
	<g>
		<g>
			<g>
				<g>
					<text transform="matrix(1 0 0 1 23.8892 10.9995)" font-family="'ArialMT'" font-size="11">(x)</text>
				</g>
			</g>
		</g>
	</g>
</g>
<g>
	<g>
		<g>
			<g>
				<text transform="matrix(1 0 0 1 150.7495 145.083)" font-family="'ArialMT'" font-size="11">x     </text>
			</g>
		</g>
	</g>
</g>
<line fill="none" stroke="#000000" x1="18.9" y1="123.3" x2="18.9" y2="146"/>
<g>
	<g>
		<g>
			<g>
				<g>
					<text transform="matrix(1 0 0 1 3.6665 113.8329)" font-family="'ArialMT'" font-size="11">x</text>
				</g>
			</g>
		</g>
	</g>
	<g>
		<g>
			<g>
				<g>
					<text transform="matrix(1 0 0 1 9.1665 116.8329)" font-family="'ArialMT'" font-size="11">min</text>
				</g>
			</g>
		</g>
	</g>
</g>
<g>
	<g>
		<g>
			<g>
				<g>
					<text transform="matrix(1 0 0 1 129 114.8329)" font-family="'ArialMT'" font-size="11">x</text>
				</g>
			</g>
		</g>
	</g>
	<g>
		<g>
			<g>
				<g>
					<text transform="matrix(1 0 0 1 134.5 117.8329)" font-family="'ArialMT'" font-size="11">max</text>
				</g>
			</g>
		</g>
	</g>
</g>
<line fill="none" stroke="#000000" x1="126.5" y1="11" x2="126.5" y2="146.3"/>
<g>
	<g>
		<g>
			<g>
				<g>
					<text transform="matrix(1 0 0 1 60.6665 112.1665)" font-family="'ArialMT'" font-size="11">x</text>
				</g>
			</g>
		</g>
	</g>
	<g>
		<g>
			<g>
				<g>
					<text transform="matrix(1 0 0 1 66.1665 115.1665)" font-family="'ArialMT'" font-size="11">mlv</text>
				</g>
			</g>
		</g>
	</g>
</g>
<path fill="none" stroke="#000000" d="M18.9,146c6.1-3.3,13.5-6.2,21.6-14.3c7.8-7.8,13.7-17.1,20.2-28.8c6.3-11.4,11-19,17.8-35.5
	c4.9-11.7,4.8-14.6,10.1-25.4c5.3-10.8,11.5-21.2,18.1-26.1C119,6.7,126.5,11,126.5,11"/>
</svg>
