<?xml version="1.0" encoding="utf-8"?>
<!-- Generator: Adobe Illustrator 17.1.0, SVG Export Plug-In . SVG Version: 6.00 Build 0)  -->

<svg version="1.1" id="Layer_1" xmlns="http://www.w3.org/2000/svg" xmlns:xlink="http://www.w3.org/1999/xlink" x="0px" y="0px"
	 width="171.5px" height="147.1px" viewBox="0 1.6 171.5 147.1" enable-background="new 0 1.6 171.5 147.1" xml:space="preserve">
<line fill="none" stroke="#000000" x1="0.5" y1="2" x2="0.5" y2="146"/>
<line fill="none" stroke="#000000" x1="0.5" y1="146" x2="144.5" y2="146"/>
<line fill="none" stroke="#000000" stroke-width="0.5" x1="143.8" y1="146" x2="143.8" y2="10"/>
<g>
	<g>
		<g>
			<g>
				<g>
					<text transform="matrix(1 0 0 1 9.833 10.9995)" font-family="'ArialMT'" font-size="11">F</text>
				</g>
			</g>
		</g>
	</g>
	<g>
		<g>
			<g>
				<g>
					<text transform="matrix(1 0 0 1 16.5522 13.9995)" font-family="'ArialMT'" font-size="11">X</text>
				</g>
			</g>
		</g>
	</g>
	<g>
		<g>
			<g>
				<g>
					<text transform="matrix(1 0 0 1 23.8892 10.9995)" font-family="'ArialMT'" font-size="11">(x)</text>
				</g>
			</g>
		</g>
	</g>
</g>
<g>
	<g>
		<path d="M80.1,133.6c0,0.2,0,0.4-0.1,0.6c0,0.2-0.1,0.3-0.2,0.4c-0.1,0.1-0.3,0.2-0.5,0.2c-0.3,0-0.5-0.1-0.7-0.2
			c-0.2-0.2-0.4-0.3-0.5-0.6c-0.1,0.2-0.3,0.4-0.5,0.6c-0.2,0.2-0.4,0.2-0.7,0.2c-0.2,0-0.4,0-0.6-0.1c-0.2,0-0.4-0.1-0.5-0.3v2.2
			c0,0.1,0,0.2-0.1,0.3s-0.2,0.1-0.3,0.1c-0.1,0-0.2,0-0.2-0.1c-0.1-0.1-0.1-0.2-0.1-0.3v-6.5c0-0.1,0-0.2,0.1-0.3s0.2-0.1,0.2-0.1
			c0.1,0,0.2,0,0.3,0.1c0.1,0.1,0.1,0.2,0.1,0.3v2.6c0,0.2,0,0.5,0.1,0.7c0,0.2,0.1,0.4,0.2,0.6c0.1,0.1,0.2,0.2,0.4,0.3
			c0.2,0.1,0.3,0.1,0.5,0.1c0.3,0,0.5-0.1,0.7-0.3s0.3-0.4,0.4-0.7v-0.1v-3.2c0-0.1,0-0.2,0.1-0.3s0.2-0.1,0.2-0.1
			c0.1,0,0.2,0,0.3,0.1c0.1,0.1,0.1,0.2,0.1,0.3v3.2c0,0.3,0,0.5,0.1,0.8c0.1,0.2,0.2,0.3,0.4,0.3c0.1,0,0.2,0,0.3-0.1
			c0.1-0.1,0.1-0.2,0.1-0.3s0.1-0.3,0.1-0.5s0-0.4,0-0.6c0-0.1,0-0.1,0.1-0.1H80c0.1,0,0.1,0,0.1,0.1
			C80.1,133.3,80.1,133.4,80.1,133.6z"/>
	</g>
	<g>
		<g>
			<g>
				<g>
					<text transform="matrix(1 0 0 1 80.1979 138.666)" font-family="'ArialMT'" font-size="11">G</text>
				</g>
			</g>
		</g>
	</g>
</g>
<g>
	<g>
		<g>
			<g>
				<text transform="matrix(1 0 0 1 150.7495 145.083)" font-family="'ArialMT'" font-size="11">x     </text>
			</g>
		</g>
	</g>
</g>
<g>
	<g>
		<g>
			<g>
				<g>
					<text transform="matrix(1 0 0 1 16 113.8329)" font-family="'ArialMT'" font-size="11">x</text>
				</g>
			</g>
		</g>
	</g>
	<g>
		<g>
			<g>
				<g>
					<text transform="matrix(1 0 0 1 21.5 116.8329)" font-family="'ArialMT'" font-size="11">min</text>
				</g>
			</g>
		</g>
	</g>
</g>
<g>
	<g>
		<g>
			<g>
				<g>
					<text transform="matrix(1 0 0 1 115.6665 116.4995)" font-family="'ArialMT'" font-size="11">x</text>
				</g>
			</g>
		</g>
	</g>
	<g>
		<g>
			<g>
				<g>
					<text transform="matrix(1 0 0 1 121.1665 119.4995)" font-family="'ArialMT'" font-size="11">max</text>
				</g>
			</g>
		</g>
	</g>
</g>
<path fill="none" stroke="#000000" d="M144.2,146.3"/>
<path fill="none" stroke="#000000" d="M144.2,123.7"/>
<path fill="none" stroke="#000000" d="M18.9,146c6.4-2.1,25.9-6.8,37.1-22.8c9.4-13.3,14.5-24.6,20.9-37.6
	c2-4.2,18.3-42.1,21.9-49.9c5-10.7,10.7-19.5,15.8-22.9c6.5-4.4,29.2-2.7,29.2-2.7"/>
</svg>
