<?xml version="1.0" encoding="utf-8"?>
<!-- Generator: Adobe Illustrator 17.1.0, SVG Export Plug-In . SVG Version: 6.00 Build 0)  -->

<svg version="1.1" id="Layer_1" xmlns="http://www.w3.org/2000/svg" xmlns:xlink="http://www.w3.org/1999/xlink" x="0px" y="0px"
	 width="171.5px" height="147.1px" viewBox="0 1.6 171.5 147.1" enable-background="new 0 1.6 171.5 147.1" xml:space="preserve">
<line fill="none" stroke="#000000" x1="0.5" y1="2" x2="0.5" y2="146"/>
<line fill="none" stroke="#000000" x1="0.5" y1="146" x2="144.5" y2="146"/>
<line fill="none" stroke="#000000" stroke-width="0.5" x1="72.8" y1="146" x2="72.8" y2="10"/>
<g>
	<g>
		<g>
			<g>
				<g>
					<text transform="matrix(1 0 0 1 9.833 10.9995)" font-family="'ArialMT'" font-size="11">f</text>
				</g>
			</g>
		</g>
	</g>
	<g>
		<g>
			<g>
				<g>
					<text transform="matrix(1 0 0 1 12.8892 13.9995)" font-family="'ArialMT'" font-size="11">X</text>
				</g>
			</g>
		</g>
	</g>
	<g>
		<g>
			<g>
				<g>
					<text transform="matrix(1 0 0 1 20.2261 10.9995)" font-family="'ArialMT'" font-size="11">(x)</text>
				</g>
			</g>
		</g>
	</g>
</g>
<g>
	<g>
		<g>
			<g>
				<g>
					<text transform="matrix(1 0 0 1 74.1665 69.3329)" font-family="'ArialMT'" font-size="11">2</text>
				</g>
			</g>
		</g>
	</g>
	<g>
		<path d="M84.3,65.2c0.2,0.3,0.4,0.5,0.5,0.9c0.1,0.3,0.2,0.7,0.2,1s-0.1,0.6-0.2,0.9s-0.3,0.5-0.5,0.8c-0.2,0.2-0.4,0.4-0.7,0.5
			c-0.3,0.1-0.5,0.2-0.8,0.2s-0.6-0.1-0.8-0.2c-0.3-0.1-0.5-0.3-0.7-0.5s-0.4-0.5-0.5-0.8s-0.2-0.6-0.2-0.9s0-0.6,0.1-0.9
			s0.3-0.6,0.5-0.8c0.2-0.2,0.4-0.4,0.7-0.5c0.3-0.1,0.5-0.2,0.8-0.2h2.7c0.1,0,0.2,0,0.2,0.1c0.1,0.1,0.1,0.1,0.1,0.2
			s0,0.2-0.1,0.2c-0.1,0.1-0.1,0.1-0.2,0.1L84.3,65.2L84.3,65.2z M84.2,66.4c0-0.2-0.1-0.5-0.3-0.6c-0.1-0.2-0.3-0.3-0.5-0.4
			s-0.4-0.1-0.6-0.1s-0.4,0-0.6,0.1s-0.3,0.2-0.5,0.4c-0.1,0.2-0.2,0.4-0.3,0.6c0,0.2-0.1,0.5-0.1,0.7c0,0.3,0,0.5,0.1,0.8
			c0,0.3,0.1,0.5,0.3,0.7c0.1,0.2,0.3,0.3,0.5,0.4s0.4,0.2,0.6,0.2l0,0l0,0c0.2,0,0.4-0.1,0.6-0.2s0.3-0.3,0.5-0.4
			c0.1-0.2,0.2-0.4,0.3-0.7c0-0.3,0.1-0.5,0.1-0.8C84.3,66.9,84.3,66.6,84.2,66.4z"/>
	</g>
	<g>
		<g>
			<g>
				<g>
					<text transform="matrix(1 0 0 1 86.378 73.3329)" font-family="'ArialMT'" font-size="11">G</text>
				</g>
			</g>
		</g>
	</g>
</g>
<g>
	<g>
		<path d="M80.1,133.6c0,0.2,0,0.4-0.1,0.6c0,0.2-0.1,0.3-0.2,0.4c-0.1,0.1-0.3,0.2-0.5,0.2c-0.3,0-0.5-0.1-0.7-0.2
			c-0.2-0.2-0.4-0.3-0.5-0.6c-0.1,0.2-0.3,0.4-0.5,0.6c-0.2,0.2-0.4,0.2-0.7,0.2c-0.2,0-0.4,0-0.6-0.1c-0.2,0-0.4-0.1-0.5-0.3v2.2
			c0,0.1,0,0.2-0.1,0.3s-0.2,0.1-0.3,0.1c-0.1,0-0.2,0-0.2-0.1c-0.1-0.1-0.1-0.2-0.1-0.3v-6.5c0-0.1,0-0.2,0.1-0.3s0.2-0.1,0.2-0.1
			c0.1,0,0.2,0,0.3,0.1c0.1,0.1,0.1,0.2,0.1,0.3v2.6c0,0.2,0,0.5,0.1,0.7c0,0.2,0.1,0.4,0.2,0.6c0.1,0.1,0.2,0.2,0.4,0.3
			c0.2,0.1,0.3,0.1,0.5,0.1c0.3,0,0.5-0.1,0.7-0.3s0.3-0.4,0.4-0.7v-0.1v-3.2c0-0.1,0-0.2,0.1-0.3s0.2-0.1,0.2-0.1
			c0.1,0,0.2,0,0.3,0.1c0.1,0.1,0.1,0.2,0.1,0.3v3.2c0,0.3,0,0.5,0.1,0.8c0.1,0.2,0.2,0.3,0.4,0.3c0.1,0,0.2,0,0.3-0.1
			c0.1-0.1,0.1-0.2,0.1-0.3s0.1-0.3,0.1-0.5s0-0.4,0-0.6c0-0.1,0-0.1,0.1-0.1H80c0.1,0,0.1,0,0.1,0.1
			C80.1,133.3,80.1,133.4,80.1,133.6z"/>
	</g>
	<g>
		<g>
			<g>
				<g>
					<text transform="matrix(1 0 0 1 80.1979 138.666)" font-family="'ArialMT'" font-size="11">G</text>
				</g>
			</g>
		</g>
	</g>
</g>
<g>
	<g>
		<g>
			<g>
				<text transform="matrix(1 0 0 1 150.7495 145.083)" font-family="'ArialMT'" font-size="11">x     </text>
			</g>
		</g>
	</g>
</g>
<g>
	<g>
		<path fill="#FFFFFF" d="M102.5,74c-2.8,1.1-6.4,2.9-8.5,4.8l1.7-4.8L94,69.2C96.2,71.1,99.7,72.9,102.5,74z"/>
		<path fill="#FFFFFF" d="M43.5,74c2.8-1.1,6.4-2.9,8.5-4.8L50.3,74l1.7,4.8C49.8,76.9,46.3,75.1,43.5,74z"/>
	</g>
	<g>
		<line fill="none" stroke="#000000" stroke-width="0.5" x1="49.5" y1="74" x2="96.5" y2="74"/>
		<path d="M99.5,74c-1.4,0.5-3.2,1.4-4.3,2.4l0.9-2.4l-0.9-2.4C96.3,72.6,98.1,73.5,99.5,74z"/>
		<path d="M46.5,74c1.4-0.5,3.2-1.4,4.3-2.4L49.9,74l0.9,2.4C49.7,75.4,47.9,74.5,46.5,74z"/>
	</g>
</g>
<path fill="none" stroke="#000000" d="M45.8,74c0,0,1.7-4.3,4.2-11c2.6-7,6-16.3,9.2-24.8c2.2-5.8,4.2-11.1,5.8-15.2
	c1.8-4.5,4.1-7.4,4.1-7.4"/>
<path fill="none" stroke="#000000" d="M98.8,73.3c0,0-1.7-4.3-4.2-11c-2.6-7-6.1-16.3-9.3-24.8c-2.2-5.8-4.3-11.2-5.9-15.2
	c-1.8-4.5-4.1-7.4-4.1-7.4"/>
<path fill="none" stroke="#000000" d="M69.2,15.7c0,0,1.8-2.2,3.3-2.4c1.6-0.2,2.9,1.7,2.9,1.7"/>
<line fill="none" stroke="#000000" x1="18.9" y1="123.3" x2="18.9" y2="146"/>
<path fill="none" stroke="#000000" d="M45.8,74c0,0-6.7,17.7-13.8,33.1c-6.3,13.8-13.2,25.3-13.2,25.3"/>
<path fill="none" stroke="#000000" d="M98.5,72.5c0,0,13.5,35.4,25.9,54.4c10.3,15.7,19.8,15.5,19.8,15.5"/>
<g>
	<g>
		<g>
			<g>
				<g>
					<text transform="matrix(1 0 0 1 3.6665 113.8329)" font-family="'ArialMT'" font-size="11">x</text>
				</g>
			</g>
		</g>
	</g>
	<g>
		<g>
			<g>
				<g>
					<text transform="matrix(1 0 0 1 9.1665 116.8329)" font-family="'ArialMT'" font-size="11">min</text>
				</g>
			</g>
		</g>
	</g>
</g>
<g>
	<g>
		<g>
			<g>
				<g>
					<text transform="matrix(1 0 0 1 120 114.8329)" font-family="'ArialMT'" font-size="11">x</text>
				</g>
			</g>
		</g>
	</g>
	<g>
		<g>
			<g>
				<g>
					<text transform="matrix(1 0 0 1 125.5 117.8329)" font-family="'ArialMT'" font-size="11">max</text>
				</g>
			</g>
		</g>
	</g>
</g>
<line fill="none" stroke="#000000" x1="144.2" y1="123.7" x2="144.2" y2="146.3"/>
</svg>
