<?xml version="1.0" encoding="utf-8"?>
<!-- Generator: Adobe Illustrator 17.1.0, SVG Export Plug-In . SVG Version: 6.00 Build 0)  -->

<svg version="1.1" id="Layer_1" xmlns="http://www.w3.org/2000/svg" xmlns:xlink="http://www.w3.org/1999/xlink" x="0px" y="0px"
	 width="171.5px" height="147.1px" viewBox="0 0 171.5 147.1" enable-background="new 0 0 171.5 147.1" xml:space="preserve">
<line fill="none" stroke="#000000" x1="0.5" y1="2" x2="0.5" y2="146"/>
<line fill="none" stroke="#000000" x1="0.5" y1="146" x2="144.5" y2="146"/>
<g>
	<g>
		<g>
			<g>
				<g>
					<g enable-background="new    ">
						<path d="M10.7,11V3.1H16v0.9h-4.3v2.4h3.7v0.9h-3.7V11H10.7z"/>
					</g>
				</g>
			</g>
		</g>
	</g>
	<g>
		<g>
			<g>
				<g>
					<g enable-background="new    ">
						<path d="M16.6,14l3-4.1L17,6.1h1.2l1.4,2c0.3,0.4,0.5,0.7,0.6,1c0.2-0.3,0.4-0.6,0.6-0.9l1.6-2.1h1.1l-2.8,3.7l3,4.2h-1.3
							l-2-2.8c-0.1-0.2-0.2-0.3-0.3-0.5c-0.2,0.3-0.3,0.5-0.4,0.6l-2,2.7H16.6z"/>
					</g>
				</g>
			</g>
		</g>
	</g>
	<g>
		<g>
			<g>
				<g>
					<g enable-background="new    ">
						<path d="M26.5,13.3c-0.5-0.7-1-1.5-1.4-2.4s-0.6-1.8-0.6-2.8c0-0.9,0.1-1.7,0.4-2.4c0.3-0.9,0.8-1.8,1.5-2.7h0.7
							c-0.4,0.7-0.7,1.3-0.9,1.6c-0.2,0.5-0.4,1-0.5,1.5c-0.2,0.7-0.2,1.3-0.2,2c0,1.7,0.5,3.4,1.6,5.2H26.5z"/>
						<path d="M27.6,11l2.1-3l-1.9-2.7H29l0.9,1.3c0.2,0.3,0.3,0.5,0.4,0.6c0.2-0.2,0.3-0.4,0.4-0.6l1-1.3h1.2l-2,2.7l2.1,3h-1.2
							l-1.2-1.8l-0.3-0.5L28.8,11H27.6z"/>
						<path d="M34.4,13.3h-0.7c1.1-1.7,1.6-3.4,1.6-5.2c0-0.7-0.1-1.3-0.2-2c-0.1-0.5-0.3-1.1-0.5-1.5c-0.1-0.3-0.4-0.9-0.9-1.6h0.7
							c0.7,0.9,1.2,1.8,1.5,2.7c0.3,0.8,0.4,1.6,0.4,2.4c0,1-0.2,1.9-0.6,2.8C35.4,11.9,34.9,12.6,34.4,13.3z"/>
					</g>
				</g>
			</g>
		</g>
	</g>
</g>
<g>
	<g>
		<g>
			<g>
				<g enable-background="new    ">
					<path d="M150.8,145.1l2.1-3l-1.9-2.7h1.2l0.9,1.3c0.2,0.3,0.3,0.5,0.4,0.6c0.2-0.2,0.3-0.4,0.4-0.6l1-1.3h1.2l-2,2.7l2.1,3H155
						l-1.2-1.8l-0.3-0.5l-1.5,2.3H150.8z"/>
				</g>
			</g>
		</g>
	</g>
</g>
<path fill="none" stroke="#000000" d="M116.7,144.5"/>
<line fill="none" stroke="#000000" x1="18.9" y1="127.7" x2="18.9" y2="146"/>
<g>
	<g>
		<g>
			<g>
				<g>
					<g enable-background="new    ">
						<path d="M3.7,121.8l2.1-3l-1.9-2.7h1.2l0.9,1.3c0.2,0.3,0.3,0.5,0.4,0.6c0.2-0.2,0.3-0.4,0.4-0.6l1-1.3h1.2l-2,2.7l2.1,3H7.9
							l-1.2-1.8l-0.3-0.5l-1.5,2.3H3.7z"/>
					</g>
				</g>
			</g>
		</g>
	</g>
	<g>
		<g>
			<g>
				<g>
					<g enable-background="new    ">
						<path d="M9.9,124.8v-5.7h0.9v0.8c0.2-0.3,0.4-0.5,0.7-0.7s0.6-0.3,1-0.3c0.4,0,0.8,0.1,1,0.3c0.3,0.2,0.5,0.4,0.6,0.7
							c0.5-0.7,1-1,1.8-1c0.6,0,1,0.2,1.3,0.5c0.3,0.3,0.5,0.8,0.5,1.4v3.9h-1v-3.6c0-0.4,0-0.7-0.1-0.8c-0.1-0.2-0.2-0.3-0.3-0.4
							s-0.4-0.2-0.6-0.2c-0.4,0-0.7,0.1-1,0.4c-0.3,0.3-0.4,0.7-0.4,1.3v3.3h-1v-3.7c0-0.4-0.1-0.8-0.2-1s-0.4-0.3-0.8-0.3
							c-0.3,0-0.5,0.1-0.8,0.2c-0.2,0.1-0.4,0.4-0.5,0.6s-0.2,0.7-0.2,1.2v3H9.9z"/>
						<path d="M19.1,118.1V117h1v1.1H19.1z M19.1,124.8v-5.7h1v5.7H19.1z"/>
						<path d="M21.5,124.8v-5.7h0.9v0.8c0.4-0.6,1-0.9,1.8-0.9c0.3,0,0.7,0.1,0.9,0.2c0.3,0.1,0.5,0.3,0.6,0.5s0.2,0.4,0.3,0.7
							c0,0.2,0.1,0.5,0.1,0.9v3.5h-1v-3.5c0-0.4,0-0.7-0.1-0.9s-0.2-0.4-0.4-0.5c-0.2-0.1-0.4-0.2-0.7-0.2c-0.4,0-0.8,0.1-1.1,0.4
							c-0.3,0.3-0.4,0.8-0.4,1.5v3.1H21.5z"/>
					</g>
				</g>
			</g>
		</g>
	</g>
</g>
<line fill="none" stroke="#000000" x1="100.3" y1="56.3" x2="76.7" y2="37.2"/>
<g>
	<g>
		<g>
			<g>
				<g>
					<g enable-background="new    ">
						<path d="M59.6,31.7V26h0.9v0.8c0.2-0.3,0.4-0.5,0.7-0.7s0.6-0.3,1-0.3c0.4,0,0.8,0.1,1,0.3c0.3,0.2,0.5,0.4,0.6,0.7
							c0.5-0.7,1-1,1.8-1c0.6,0,1,0.2,1.3,0.5s0.5,0.8,0.5,1.4v3.9h-1v-3.6c0-0.4,0-0.7-0.1-0.8c-0.1-0.2-0.2-0.3-0.3-0.4
							c-0.2-0.1-0.4-0.2-0.6-0.2c-0.4,0-0.7,0.1-1,0.4s-0.4,0.7-0.4,1.3v3.3h-1V28c0-0.4-0.1-0.8-0.2-1s-0.4-0.3-0.8-0.3
							c-0.3,0-0.5,0.1-0.8,0.2c-0.2,0.1-0.4,0.4-0.5,0.6c-0.1,0.3-0.2,0.7-0.2,1.2v3H59.6z"/>
						<path d="M69,31.7v-1.1h1.1v1.1c0,0.4-0.1,0.7-0.2,1s-0.4,0.4-0.7,0.6l-0.3-0.4c0.2-0.1,0.4-0.2,0.5-0.4s0.2-0.4,0.2-0.7H69z"
							/>
						<path d="M71.1,31.7l2.1-3L71.3,26h1.2l0.9,1.3c0.2,0.3,0.3,0.5,0.4,0.6c0.2-0.2,0.3-0.4,0.4-0.6l1-1.3h1.2l-2,2.7l2.1,3h-1.2
							l-1.2-1.8l-0.3-0.5l-1.5,2.3H71.1z"/>
					</g>
				</g>
			</g>
		</g>
	</g>
	<g>
		<g>
			<g>
				<g>
					<g enable-background="new    ">
						<path d="M81,32.6l1,0.1c-0.1,0.7-0.4,1.2-0.8,1.5c-0.4,0.4-1,0.6-1.6,0.6c-0.8,0-1.4-0.3-1.9-0.8c-0.5-0.5-0.7-1.2-0.7-2.2
							c0-0.6,0.1-1.2,0.3-1.6s0.5-0.8,0.9-1c0.4-0.2,0.9-0.3,1.4-0.3c0.6,0,1.1,0.2,1.5,0.5s0.6,0.8,0.8,1.3l-0.9,0.1
							c-0.1-0.4-0.2-0.7-0.5-0.9c-0.2-0.2-0.5-0.3-0.8-0.3c-0.5,0-0.9,0.2-1.2,0.5c-0.3,0.3-0.5,0.9-0.5,1.7c0,0.8,0.1,1.3,0.4,1.7
							c0.3,0.3,0.7,0.5,1.1,0.5c0.4,0,0.7-0.1,1-0.3C80.8,33.4,80.9,33.1,81,32.6z"/>
						<path d="M82.8,34.7v-7.9h1v2.8c0.5-0.5,1-0.8,1.7-0.8c0.4,0,0.8,0.1,1.1,0.3c0.3,0.2,0.5,0.4,0.7,0.7c0.1,0.3,0.2,0.7,0.2,1.3
							v3.6h-1v-3.6c0-0.5-0.1-0.8-0.3-1.1c-0.2-0.2-0.5-0.3-0.9-0.3c-0.3,0-0.6,0.1-0.8,0.2c-0.3,0.1-0.4,0.3-0.5,0.6
							c-0.1,0.3-0.2,0.6-0.2,1.1v3.1H82.8z"/>
						<path d="M88.9,34.7V29h0.9v0.9c0.2-0.4,0.4-0.7,0.6-0.8c0.2-0.1,0.4-0.2,0.6-0.2c0.3,0,0.7,0.1,1,0.3L91.7,30
							c-0.2-0.1-0.5-0.2-0.7-0.2c-0.2,0-0.4,0.1-0.6,0.2c-0.2,0.1-0.3,0.3-0.4,0.5c-0.1,0.3-0.2,0.7-0.2,1.1v3H88.9z"/>
					</g>
				</g>
			</g>
		</g>
	</g>
</g>
<path fill="none" stroke="#000000" d="M72.5,146c6.6-3,10.5-4.5,15.7-9.7c4.5-4.5,9.2-17,9.3-17.7c4.2-15.3,4.7-28.8,4.7-45.3
	c0-20-0.8-25.7,1-40.3c1-8.6,5.1-21.2,14.3-24"/>
</svg>
