<?xml version="1.0" encoding="utf-8"?>
<!-- Generator: Adobe Illustrator 17.1.0, SVG Export Plug-In . SVG Version: 6.00 Build 0)  -->

<svg version="1.1" id="Layer_1" xmlns="http://www.w3.org/2000/svg" xmlns:xlink="http://www.w3.org/1999/xlink" x="0px" y="0px"
	 width="171.5px" height="147.1px" viewBox="0 1.6 171.5 147.1" enable-background="new 0 1.6 171.5 147.1" xml:space="preserve">
<line fill="none" stroke="#000000" x1="0.5" y1="2" x2="0.5" y2="146"/>
<line fill="none" stroke="#000000" x1="0.5" y1="146" x2="144.5" y2="146"/>
<g>
	<g>
		<g>
			<g>
				<g>
					<text transform="matrix(1 0 0 1 9.833 10.9995)" font-family="'ArialMT'" font-size="11">F</text>
				</g>
			</g>
		</g>
	</g>
	<g>
		<g>
			<g>
				<g>
					<text transform="matrix(1 0 0 1 16.5522 13.9995)" font-family="'ArialMT'" font-size="11">X</text>
				</g>
			</g>
		</g>
	</g>
	<g>
		<g>
			<g>
				<g>
					<text transform="matrix(1 0 0 1 23.8892 10.9995)" font-family="'ArialMT'" font-size="11">(x)</text>
				</g>
			</g>
		</g>
	</g>
</g>
<g>
	<g>
		<g>
			<g>
				<text transform="matrix(1 0 0 1 150.7495 145.083)" font-family="'ArialMT'" font-size="11">x     </text>
			</g>
		</g>
	</g>
</g>
<path fill="none" stroke="#000000" d="M116.7,144.5"/>
<line fill="none" stroke="#000000" x1="18.9" y1="122.3" x2="18.9" y2="146"/>
<g>
	<g>
		<g>
			<g>
				<g>
					<text transform="matrix(1 0 0 1 3.6665 115.1665)" font-family="'ArialMT'" font-size="11">x</text>
				</g>
			</g>
		</g>
	</g>
	<g>
		<g>
			<g>
				<g>
					<text transform="matrix(1 0 0 1 9.1665 118.1665)" font-family="'ArialMT'" font-size="11">min</text>
				</g>
			</g>
		</g>
	</g>
</g>
<g>
	<g>
		<g>
			<g>
				<g>
					<text transform="matrix(1 0 0 1 110 114.8329)" font-family="'ArialMT'" font-size="11">x</text>
				</g>
			</g>
		</g>
	</g>
	<g>
		<g>
			<g>
				<g>
					<text transform="matrix(1 0 0 1 115.5 117.8329)" font-family="'ArialMT'" font-size="11">max</text>
				</g>
			</g>
		</g>
	</g>
</g>
<line fill="none" stroke="#000000" x1="127.2" y1="123.7" x2="127.2" y2="146.3"/>
<path fill="none" stroke="#000000" d="M18.7,146c14.8-6,33.4-35.8,42.8-55.2c8-16.5,8.9-19.6,13.5-32.2C78.8,48.2,90.3,26,96.5,19.8
	c5.2-5.2,10.3-11.2,28.2-7.2"/>
<line fill="none" stroke="#000000" x1="66.5" y1="73.7" x2="57.9" y2="41.6"/>
<g>
	<g>
		<g>
			<g>
				<g>
					<text transform="matrix(1 0 0 1 49.8335 37.667)" font-family="'ArialMT'" font-size="11">r</text>
				</g>
			</g>
		</g>
	</g>
	<g>
		<g>
			<g>
				<g>
					<text transform="matrix(1 0 0 1 52.8916 37.667)" font-family="'ArialMT'" font-size="11">,t</text>
				</g>
			</g>
		</g>
	</g>
</g>
</svg>
