<?xml version="1.0" encoding="utf-8"?>
<!-- Generator: Adobe Illustrator 17.1.0, SVG Export Plug-In . SVG Version: 6.00 Build 0)  -->

<svg version="1.1" id="Layer_1" xmlns="http://www.w3.org/2000/svg" xmlns:xlink="http://www.w3.org/1999/xlink" x="0px" y="0px"
	 width="405.5px" height="266.5px" viewBox="0 0 405.5 266.5" enable-background="new 0 0 405.5 266.5" xml:space="preserve">
<polygon fill="#00A294" stroke="#00A294" points="312.1,209.9 185.8,209.9 185.8,243.5 312.1,243.5 "/>
<polygon fill="#00A294" stroke="#00A294" points="59.7,243.5 185.8,243.5 185.8,209.9 59.7,209.9 "/>
<polygon fill="#00A294" stroke="#00A294" points="312.1,41.7 185.8,41.7 185.8,75.3 312.1,75.3 "/>
<polygon fill="#00A294" stroke="#00A294" points="59.7,75.3 185.8,75.3 185.8,41.7 59.7,41.7 "/>
<polygon fill="#00A294" stroke="#00A294" points="353.9,59 341.9,49.4 324.6,78.6 329.9,82.7 "/>
<polygon fill="#00A294" stroke="#00A294" points="371.2,142.5 371.2,100.7 337.6,100.7 337.6,142.5 "/>
<polygon fill="#00A294" stroke="#00A294" points="371.2,100.7 369,85.4 336.6,94 337.6,100.7 "/>
<polygon fill="#00A294" stroke="#00A294" points="369,85.4 363,71 334,88 336.6,94 "/>
<polygon fill="#00A294" stroke="#00A294" points="363,71.2 353.9,59 329.9,82.7 334,88 "/>
<polygon fill="#00A294" stroke="#00A294" points="341.9,49.4 327.5,43.8 318.6,76 324.8,78.6 "/>
<polygon fill="#00A294" stroke="#00A294" points="327.5,43.8 312.1,41.7 312.1,75.3 318.4,76.2 "/>
<polygon fill="#00A294" stroke="#00A294" points="34.2,100.7 34.9,94 2.5,85.4 0.6,100.7 "/>
<polygon fill="#00A294" stroke="#00A294" points="41.6,82.7 46.9,78.6 29.9,49.4 17.6,59 "/>
<polygon fill="#00A294" stroke="#00A294" points="46.9,78.6 52.9,76 44,43.8 29.9,49.4 "/>
<polygon fill="#00A294" stroke="#00A294" points="34.4,142.5 34.4,100.7 0.6,100.7 0.6,142.5 "/>
<polygon fill="#00A294" stroke="#00A294" points="34.9,94 37.6,88 8.3,71 2.5,85.4 "/>
<polygon fill="#00A294" stroke="#00A294" points="37.6,87.8 41.4,82.5 17.6,59 8.5,71 "/>
<polygon fill="#00A294" stroke="#00A294" points="52.9,76.2 59.7,75.3 59.7,41.7 44,43.8 "/>
<polygon fill="#00A294" stroke="#00A294" points="17.6,226.5 29.9,235.8 46.9,206.5 41.6,202.7 "/>
<polygon fill="#00A294" stroke="#00A294" points="0.6,142.5 0.6,184.7 34.4,184.7 34.4,142.5 "/>
<polygon fill="#00A294" stroke="#00A294" points="0.6,184.7 2.5,199.8 34.9,191.2 34.2,184.7 "/>
<polygon fill="#00A294" stroke="#00A294" points="2.5,199.8 8.3,214.2 37.6,197.2 34.9,191.2 "/>
<polygon fill="#00A294" stroke="#00A294" points="8.5,214 17.6,226.7 41.6,202.7 37.6,197.2 "/>
<polygon fill="#00A294" stroke="#00A294" points="29.9,235.8 44,241.8 52.9,209.2 46.9,206.5 "/>
<polygon fill="#00A294" stroke="#00A294" points="44,241.8 59.7,243.5 59.7,209.9 52.9,209.2 "/>
<polygon fill="#00A294" stroke="#00A294" points="337.6,142.5 337.6,184.7 371.2,184.7 371.2,142.5 "/>
<polygon fill="#00A294" stroke="#00A294" points="337.6,184.7 336.6,191.2 369,199.8 371.2,184.7 "/>
<polygon fill="#00A294" stroke="#00A294" points="336.6,191.2 334,197.2 363,214.2 369,199.8 "/>
<polygon fill="#00A294" stroke="#00A294" points="334,197.2 329.9,202.7 353.9,226.7 363,214 "/>
<polygon fill="#00A294" stroke="#00A294" points="329.9,202.7 324.6,206.5 341.9,235.8 353.9,226.5 "/>
<polygon fill="#00A294" stroke="#00A294" points="324.8,206.5 318.6,209.2 327.5,241.8 341.9,235.8 "/>
<polygon fill="#00A294" stroke="#00A294" points="318.4,209.2 312.1,209.9 312.1,243.5 327.5,241.8 "/>
<g>
	<g>
		<polygon fill="#FFFFFF" points="338.8,72.3 343,65 335.7,69.2 		"/>
	</g>
	<g>
		<line fill="none" stroke="#000000" stroke-linecap="square" x1="338.3" y1="69.8" x2="310.7" y2="97.4"/>
		<polygon points="338.8,72.3 343,65 335.7,69.2 		"/>
	</g>
</g>
<g>
	<g>
		<g>
			<g>
				<text transform="matrix(1.001 0 0 1 122.3511 184.5479)" font-family="'ArialMT'" font-size="11">TCUR</text>
			</g>
		</g>
	</g>
</g>
<g>
	<g>
		<polygon fill="#FFFFFF" points="152.3,193.1 160.4,190.9 152.3,188.7 		"/>
	</g>
	<g>
		<line fill="none" stroke="#000000" stroke-linecap="square" x1="153.8" y1="190.9" x2="121.6" y2="190.9"/>
		<polygon points="152.3,193.1 160.4,190.9 152.3,188.7 		"/>
	</g>
</g>
<g>
	<g>
		<polygon fill="#FFFFFF" points="158.1,160.5 152.8,167 160.6,164 		"/>
	</g>
	<g>
		<line fill="none" stroke="#000000" stroke-linecap="square" x1="158.1" y1="163.1" x2="186.5" y2="142.7"/>
		<polygon points="158.1,160.5 152.8,167 160.6,164 		"/>
	</g>
</g>
<g>
	<g>
		<g>
			<g>
				<text transform="matrix(1.001 0 0 1 387.0596 154.9121)" font-family="'ArialMT'" font-size="11">X</text>
			</g>
		</g>
	</g>
</g>
<g>
	<g>
		<g>
			<g>
				<text transform="matrix(1.001 0 0 1 174.6167 18.7544)" font-family="'ArialMT'" font-size="11">Y</text>
			</g>
		</g>
	</g>
</g>
<g>
	<g>
		<g>
			<g>
				<text transform="matrix(1.001 0 0 1 173.5146 142.5537)" font-family="'ArialMT'" font-size="11">Z</text>
			</g>
		</g>
	</g>
</g>
<g>
	<g>
		<polygon fill="#FFFFFF" points="188.7,8.1 186.5,0 184.3,8.1 		"/>
	</g>
	<g>
		<line fill="none" stroke="#000000" stroke-linecap="square" x1="186.5" y1="6.6" x2="186.5" y2="142.5"/>
		<polygon points="188.7,8.1 186.5,0 184.3,8.1 		"/>
	</g>
</g>
<g>
	<g>
		<polygon fill="#FFFFFF" points="397.3,144.6 405.5,142.4 397.3,140.3 		"/>
	</g>
	<g>
		<line fill="none" stroke="#000000" stroke-linecap="square" x1="398.8" y1="142.5" x2="186.8" y2="142.5"/>
		<polygon points="397.3,144.6 405.5,142.4 397.3,140.3 		"/>
	</g>
</g>
<g>
	<g>
		<g>
			<g>
				<text transform="matrix(1.001 0 0 1 261.1294 162.9717)" font-family="'ArialMT'" font-size="11">XC</text>
			</g>
		</g>
	</g>
</g>
<g>
	<g>
		<polygon fill="#FFFFFF" points="280.2,201.2 282.4,209.3 284.5,201.2 		"/>
	</g>
	<g>
		<line fill="none" stroke="#000000" stroke-linecap="square" x1="282.3" y1="202.7" x2="282.3" y2="188.3"/>
		<polygon points="280.2,201.2 282.4,209.3 284.5,201.2 		"/>
	</g>
</g>
<g>
	<g>
		<polygon fill="#FFFFFF" points="284.5,251.6 282.3,243.4 280.1,251.6 		"/>
	</g>
	<g>
		<line fill="none" stroke="#000000" stroke-linecap="square" x1="282.3" y1="250.1" x2="282.3" y2="266"/>
		<polygon points="284.5,251.6 282.3,243.4 280.1,251.6 		"/>
	</g>
</g>
<g>
	<g>
		<g>
			<g>
				<text transform="matrix(1.001 0 0 1 286.0513 198.707)" enable-background="new    "><tspan x="0" y="0" font-family="'ArialMT'" font-size="11">D</tspan><tspan x="7.9" y="0" font-family="'ArialMT'" font-size="11">Y</tspan></text>
			</g>
		</g>
	</g>
</g>
<polygon stroke="#000000" stroke-linecap="square" points="188.6,55.6 188.4,56.6 187.9,57.3 187.2,57.8 185.5,57.8 184.8,57.3 
	184.3,56.6 184.1,55.6 184.3,54.4 184.8,53.9 185.5,53.4 187.2,53.4 187.9,53.9 188.4,54.4 "/>
<polygon stroke="#000000" stroke-linecap="square" points="356.1,142.2 355.8,143.1 354.6,144.3 352.7,144.3 351.5,143.1 
	351.3,142.2 351.5,141 352.7,140 354.6,140 355.8,141 "/>
<line fill="none" stroke="#000000" stroke-linecap="square" x1="155.8" y1="55.6" x2="163.7" y2="55.6"/>
<line fill="none" x1="160.8" y1="62.6" x2="158.9" y2="63.8"/>
<line fill="none" stroke="#000000" stroke-linecap="square" x1="155.8" y1="144.1" x2="163.7" y2="144.1"/>
<g>
	<g>
		<g>
			<g>
				<text transform="matrix(1.001 0 0 1 291.4541 109.1997)" font-family="'ArialMT'" font-size="11">RAD</text>
			</g>
		</g>
	</g>
</g>
<g>
	<g>
		<g>
			<g>
				<text transform="matrix(1.001 0 0 1 153.6504 106.7407)" font-family="'ArialMT'" font-size="11">YC</text>
			</g>
		</g>
	</g>
</g>
<g>
	<g>
		<g>
			<g>
				<text transform="matrix(1.001 0 0 1 130.2773 258.6963)" font-family="'ArialMT'" font-size="11">Thickness = DZ</text>
			</g>
		</g>
	</g>
</g>
<line fill="none" stroke="#000000" stroke-linecap="square" x1="186.5" y1="163.8" x2="186.5" y2="155.9"/>
<line fill="none" stroke="#000000" stroke-linecap="square" x1="353.1" y1="163.8" x2="353.1" y2="155.9"/>
<g>
	<g>
		<polygon fill="#FFFFFF" points="344.7,161.9 352.8,159.7 344.7,157.5 		"/>
	</g>
	<g>
		<line fill="none" stroke="#000000" stroke-linecap="square" x1="282.4" y1="159.7" x2="346.1" y2="159.7"/>
		<polygon points="344.7,161.9 352.8,159.7 344.7,157.5 		"/>
	</g>
</g>
<g>
	<g>
		<polygon fill="#FFFFFF" points="194.9,157.6 186.8,159.8 194.9,161.9 		"/>
	</g>
	<g>
		<line fill="none" stroke="#000000" stroke-linecap="square" x1="193.4" y1="159.7" x2="252.1" y2="159.7"/>
		<polygon points="194.9,157.6 186.8,159.8 194.9,161.9 		"/>
	</g>
</g>
<g>
	<g>
		<polygon fill="#FFFFFF" points="162.4,64.4 160.2,56.2 158.1,64.4 		"/>
	</g>
	<g>
		<line fill="none" stroke="#000000" stroke-linecap="square" x1="160.3" y1="93.6" x2="160.3" y2="62.9"/>
		<polygon points="162.4,64.4 160.2,56.2 158.1,64.4 		"/>
	</g>
</g>
<g>
	<g>
		<polygon fill="#FFFFFF" points="158.1,135.1 160.3,143.2 162.5,135.1 		"/>
	</g>
	<g>
		<line fill="none" stroke="#000000" stroke-linecap="square" x1="160.3" y1="136.6" x2="160.3" y2="109.9"/>
		<polygon points="158.1,135.1 160.3,143.2 162.5,135.1 		"/>
	</g>
</g>
</svg>
