<?xml version="1.0" encoding="utf-8"?>
<!-- Generator: Adobe Illustrator 17.1.0, SVG Export Plug-In . SVG Version: 6.00 Build 0)  -->

<svg version="1.1" id="Layer_1" xmlns="http://www.w3.org/2000/svg" xmlns:xlink="http://www.w3.org/1999/xlink" x="0px" y="0px"
	 width="329.2px" height="102.7px" viewBox="0 0 329.2 102.7" enable-background="new 0 0 329.2 102.7" xml:space="preserve">
<g>
	<g>
		<g>
			<g>
				<g>
					<text transform="matrix(1 0 0 1 54.7686 10.3795)" font-family="'ArialMT'" font-size="10">  edge</text>
				</g>
			</g>
		</g>
	</g>
	<g>
		<g>
			<g>
				<g>
					<text transform="matrix(1 0 0 1 54.7686 22.3795)" font-family="'ArialMT'" font-size="10">collapse</text>
				</g>
			</g>
		</g>
	</g>
</g>
<g>
	<g>
		<polygon fill="#FFFFFF" points="86.4,34.4 94,38.1 89.3,31.1 		"/>
	</g>
	<g>
		<path fill="none" stroke="#000000" d="M88.9,33.8c-4-3.4-9.5-5.6-15.6-5.6c-6.3,0-12,2.3-16,6"/>
		<polygon points="86.4,34.4 94,38.1 89.3,31.1 		"/>
	</g>
</g>
<g>
	<g>
		<g>
			<g>
				<text transform="matrix(1 0 0 1 8.5186 80.1041)" font-family="'ArialMT'" font-size="11">Before</text>
			</g>
		</g>
	</g>
</g>
<g>
	<g>
		<g>
			<g>
				<text transform="matrix(1 0 0 1 115.5186 80.1041)" font-family="'ArialMT'" font-size="11">After</text>
			</g>
		</g>
	</g>
</g>
<g>
	<polygon fill="none" stroke="#000000" points="137.2,65.3 147.7,37.3 139.7,7.3 122.2,1.8 105.2,9.3 100.2,36.8 112.2,65.3 	"/>
	<line fill="none" stroke="#000000" x1="139.7" y1="7.3" x2="126.2" y2="33.8"/>
	<line fill="none" stroke="#000000" x1="105.5" y1="9.6" x2="123.9" y2="33.9"/>
	<line fill="none" stroke="#000000" x1="126.6" y1="34.1" x2="147" y2="37.4"/>
	<line fill="none" stroke="#000000" x1="112.1" y1="65.4" x2="124.4" y2="36"/>
	<line fill="none" stroke="#000000" x1="136.9" y1="65.5" x2="126.2" y2="36.1"/>
	<line fill="none" stroke="#000000" x1="100.5" y1="36.7" x2="123.7" y2="34.5"/>
	<line fill="none" stroke="#000000" x1="124.9" y1="32.8" x2="122.2" y2="2.4"/>
	<path d="M123.2,34.2c0.2-1.1,1.3-1.8,2.4-1.6s1.8,1.3,1.6,2.4c-0.2,1.1-1.3,1.8-2.4,1.6S123,35.3,123.2,34.2L123.2,34.2z"/>
</g>
<g>
	<polygon fill="none" stroke="#000000" points="37.5,65.3 48,37.3 40,7.3 22.5,1.8 5.5,9.3 0.5,36.8 12.5,65.3 	"/>
	<line fill="none" stroke="#000000" x1="40" y1="7.3" x2="24.5" y2="24.8"/>
	<line fill="none" stroke="#000000" x1="5.9" y1="9.6" x2="24.3" y2="24.9"/>
	<line fill="none" stroke="#000000" x1="12.5" y1="65.4" x2="25.6" y2="48"/>
	<line fill="none" stroke="#000000" x1="37.3" y1="65.5" x2="25.4" y2="48.1"/>
	<g>
		<polyline fill="#D9D9D9" stroke="#000000" points="25.3,47.2 47.1,37.4 24.2,23.9 47.1,37.4 24.3,24.5 1.5,37.2 1.5,38.4 		"/>
		<path fill="#D9D9D9" stroke="#000000" stroke-width="1.2469" d="M46.1,37.8"/>
		<path fill="#D9D9D9" stroke="#000000" stroke-width="1.2469" d="M25,47"/>
		<path fill="#D9D9D9" stroke="#000000" d="M25.3,47.2L1.5,37.4L25.3,47.2z"/>
	</g>
	<line fill="none" stroke="#000000" x1="24.5" y1="20.3" x2="22.5" y2="2.4"/>
	<line fill="none" stroke="#000000" stroke-dasharray="3.6" x1="25.5" y1="47.8" x2="24.3" y2="23.3"/>
	<path d="M22.7,21.6c0.2-1.1,1.3-1.8,2.4-1.6c1.1,0.2,1.8,1.3,1.6,2.4c-0.2,1.1-1.3,1.8-2.4,1.6C23.2,23.8,22.5,22.7,22.7,21.6
		L22.7,21.6z"/>
	<g>
		<g>
			<g>
				<g>
					<text transform="matrix(1 0 0 1 36.5186 25.3297)" font-family="'ArialMT'" font-size="11">I</text>
				</g>
			</g>
		</g>
	</g>
	<g>
		<g>
			<g>
				<g>
					<text transform="matrix(1 0 0 1 34.0186 55.3297)" font-family="'ArialMT'" font-size="11">J</text>
				</g>
			</g>
		</g>
	</g>
	<path d="M23.5,48.8c0.2-1.1,1.3-1.8,2.4-1.6s1.8,1.3,1.6,2.4c-0.2,1.1-1.3,1.8-2.4,1.6C23.9,50.9,23.2,49.8,23.5,48.8L23.5,48.8z"
		/>
</g>
<g>
	<g>
		<g>
			<g>
				<g>
					<text transform="matrix(1 0 0 1 237.6357 10.3795)" font-family="'ArialMT'" font-size="10">  edge</text>
				</g>
			</g>
		</g>
	</g>
	<g>
		<g>
			<g>
				<g>
					<text transform="matrix(1 0 0 1 237.6357 22.3795)" font-family="'ArialMT'" font-size="10">collapse</text>
				</g>
			</g>
		</g>
	</g>
</g>
<g>
	<g>
		<polygon fill="#FFFFFF" points="269.3,34.4 276.9,38.1 272.1,31.1 		"/>
	</g>
	<g>
		<path fill="none" stroke="#000000" d="M271.8,33.8c-4-3.4-9.5-5.6-15.6-5.6c-6.3,0-12,2.3-16,6"/>
		<polygon points="269.3,34.4 276.9,38.1 272.1,31.1 		"/>
	</g>
</g>
<g>
	<g>
		<g>
			<g>
				<text transform="matrix(1 0 0 1 194.0186 80.1041)" font-family="'ArialMT'" font-size="11">Before</text>
			</g>
		</g>
	</g>
</g>
<g>
	<g>
		<g>
			<g>
				<text transform="matrix(1 0 0 1 296.5186 80.1041)" font-family="'ArialMT'" font-size="11">After</text>
			</g>
		</g>
	</g>
</g>
<g>
	<polygon fill="none" stroke="#000000" points="318.2,64 328.7,36 320.7,6 303.2,0.5 286.2,8 281.2,35.5 293.2,64 	"/>
	<line fill="none" stroke="#000000" x1="320.7" y1="6.8" x2="307.2" y2="49.7"/>
	<line fill="none" stroke="#000000" x1="286.6" y1="8.4" x2="305" y2="49.7"/>
	<line fill="none" stroke="#000000" x1="307.7" y1="50.7" x2="321.1" y2="53.8"/>
	<line fill="none" stroke="#000000" x1="301.2" y1="63.6" x2="305.4" y2="53.2"/>
	<line fill="none" stroke="#000000" x1="312" y1="63.8" x2="307.3" y2="52.4"/>
	<line fill="none" stroke="#000000" x1="289.5" y1="54.8" x2="304.8" y2="51.3"/>
	<line fill="none" stroke="#000000" x1="306" y1="50.6" x2="303.3" y2="1.1"/>
	<path d="M303.9,50.9c0.2-1.1,1.3-1.8,2.4-1.6s1.8,1.3,1.6,2.4c-0.2,1.1-1.3,1.8-2.4,1.6C304.4,53.1,303.7,52,303.9,50.9L303.9,50.9
		z"/>
	<g>
		<g>
			<g>
				<g>
					<text transform="matrix(1 0 0 1 312.039 61.9762)" font-family="'ArialMT'" font-size="11">J</text>
				</g>
			</g>
		</g>
	</g>
</g>
<g>
	<g>
		<g>
			<g>
				<text transform="matrix(1 0 0 1 27.5186 99.1041)" font-family="'ArialMT'" font-size="11">Optimal Placement</text>
			</g>
		</g>
	</g>
</g>
<g>
	<g>
		<g>
			<g>
				<text transform="matrix(1 0 0 1 212.0186 99.1041)" font-family="'ArialMT'" font-size="11">Subset Placement</text>
			</g>
		</g>
	</g>
</g>
<g>
	<polygon fill="none" stroke="#000000" points="220.7,65.3 231.2,37.3 223.2,7.3 205.7,1.8 188.7,9.3 183.7,36.8 195.7,65.3 	"/>
	<line fill="none" stroke="#000000" x1="223.2" y1="7.3" x2="207.7" y2="24.8"/>
	<line fill="none" stroke="#000000" x1="189.1" y1="9.6" x2="207.5" y2="24.9"/>
	<line fill="none" stroke="#000000" x1="195.7" y1="65.4" x2="208.8" y2="48"/>
	<line fill="none" stroke="#000000" x1="220.5" y1="65.5" x2="208.6" y2="48.1"/>
	<g>
		<polyline fill="#D9D9D9" stroke="#000000" points="208.5,47.2 230.3,37.4 207.4,23.9 230.3,37.4 207.5,24.5 184.7,37.2 
			184.7,38.4 		"/>
		<path fill="#D9D9D9" stroke="#000000" stroke-width="1.2469" d="M229.3,37.8"/>
		<path fill="#D9D9D9" stroke="#000000" stroke-width="1.2469" d="M208.2,47"/>
		<path fill="#D9D9D9" stroke="#000000" d="M208.5,47.2l-23.8-9.8L208.5,47.2z"/>
	</g>
	<line fill="none" stroke="#000000" x1="207.7" y1="20.3" x2="205.7" y2="2.4"/>
	<line fill="none" stroke="#000000" stroke-dasharray="3.6" x1="208.7" y1="47.8" x2="207.5" y2="23.3"/>
	<path d="M205.9,21.6c0.2-1.1,1.3-1.8,2.4-1.6c1.1,0.2,1.8,1.3,1.6,2.4s-1.3,1.8-2.4,1.6C206.4,23.8,205.7,22.7,205.9,21.6
		L205.9,21.6z"/>
	<g>
		<g>
			<g>
				<g>
					<text transform="matrix(1 0 0 1 219.7148 25.3297)" font-family="'ArialMT'" font-size="11">I</text>
				</g>
			</g>
		</g>
	</g>
	<g>
		<g>
			<g>
				<g>
					<text transform="matrix(1 0 0 1 217.2148 55.3297)" font-family="'ArialMT'" font-size="11">J</text>
				</g>
			</g>
		</g>
	</g>
	<path d="M206.6,48.8c0.2-1.1,1.3-1.8,2.4-1.6c1.1,0.2,1.8,1.3,1.6,2.4c-0.2,1.1-1.3,1.8-2.4,1.6C207.1,50.9,206.4,49.8,206.6,48.8
		L206.6,48.8z"/>
</g>
</svg>
