<?xml version="1.0" encoding="utf-8"?>
<!-- Generator: Adobe Illustrator 17.1.0, SVG Export Plug-In . SVG Version: 6.00 Build 0)  -->

<svg version="1.1" id="Layer_1" xmlns="http://www.w3.org/2000/svg" xmlns:xlink="http://www.w3.org/1999/xlink" x="0px" y="0px"
	 width="150.4px" height="146.6px" viewBox="0 0 150.4 146.6" enable-background="new 0 0 150.4 146.6" xml:space="preserve">
<path fill="#00BDF2" stroke="#000000" d="M0.5,90.7c0-30.8,24.6-55.4,55.3-55.4s55.3,24.6,55.3,55.4s-24.6,55.4-55.3,55.4
	S0.5,121.5,0.5,90.7L0.5,90.7z"/>
<path fill="#FFFFFF" stroke="#666666" d="M7.7,91.8C7.7,65.2,28.9,44,55.4,44s47.7,21.3,47.7,47.8c0,26.6-21.2,47.8-47.7,47.8
	C28.9,139.7,7.7,118.4,7.7,91.8L7.7,91.8z"/>
<g>
	<g>
		<g>
			<g>
				<text transform="matrix(0.9974 0 0 1 85.2192 40.7138)" font-family="'ArialMT'" font-size="10.9996">Ri</text>
			</g>
		</g>
	</g>
</g>
<g>
	<g>
		<g>
			<g>
				<text transform="matrix(0.9974 0 0 1 131.813 103.1074)" font-family="'ArialMT'" font-size="10.9996">y</text>
			</g>
		</g>
	</g>
</g>
<g>
	<g>
		<g>
			<g>
				<text transform="matrix(0.9974 0 0 1 60.0347 20.8242)" font-family="'ArialMT'" font-size="10.9996">z</text>
			</g>
		</g>
	</g>
</g>
<g>
	<g>
		<polygon fill="#FFFFFF" points="60.2,10.8 57.3,0 54.4,10.8 		"/>
	</g>
	<g>
		<line fill="none" stroke="#666666" stroke-linecap="square" x1="57.3" y1="93.1" x2="57.3" y2="8.9"/>
		<polygon fill="#666666" points="60.2,10.8 57.3,0 54.4,10.8 		"/>
	</g>
</g>
<g>
	<g>
		<polygon fill="#FFFFFF" points="139.5,95.9 150.4,93 139.5,90.1 		"/>
	</g>
	<g>
		
			<line fill="none" stroke="#666666" stroke-width="0.7707" stroke-linecap="square" stroke-miterlimit="10" x1="57.2" y1="93" x2="141.5" y2="93"/>
		<polygon fill="#666666" points="140,95.2 148.3,93 140,90.7 		"/>
	</g>
</g>
<g>
	<g>
		<polygon fill="#FFFFFF" points="75.5,60.4 77.3,49.4 70.2,58 		"/>
	</g>
	<g>
		<line fill="none" stroke="#666666" stroke-linecap="square" x1="57.3" y1="93.3" x2="73.7" y2="57.5"/>
		<polygon fill="#666666" points="75.5,60.4 77.3,49.4 70.2,58 		"/>
	</g>
</g>
<path d="M52.8,92.4c0-2.3,1.9-4.2,4.2-4.2s4.2,1.9,4.2,4.2c0,2.3-1.9,4.2-4.2,4.2C54.6,96.6,52.8,94.7,52.8,92.4L52.8,92.4z"/>
<g>
	<g>
		<polygon fill="#FFFFFF" points="93,114.4 104,116.8 95.7,109.2 		"/>
	</g>
	<g>
		<line fill="none" stroke="#666666" stroke-linecap="square" x1="56.9" y1="92.3" x2="96.1" y2="112.7"/>
		<polygon fill="#666666" points="93,114.4 104,116.8 95.7,109.2 		"/>
	</g>
</g>
<g>
	<g>
		<g>
			<g>
				<text transform="matrix(0.9974 0 0 1 108.2876 124.0444)" font-family="'ArialMT'" font-size="10.9996">Ro</text>
			</g>
		</g>
	</g>
</g>
<line fill="none" stroke="#000000" stroke-width="2" x1="111" y1="93" x2="0.5" y2="93"/>
<g>
	<line fill="none" stroke="#000000" stroke-width="2" stroke-linecap="square" x1="57.3" y1="36.3" x2="57.3" y2="145.1"/>
</g>
<line fill="none" stroke="#000000" stroke-width="2" x1="18.2" y1="131.2" x2="97.4" y2="53.8"/>
<g>
	<line fill="none" stroke="#000000" stroke-width="2" stroke-linecap="square" x1="17.5" y1="52.6" x2="93.9" y2="129"/>
</g>
</svg>
