<?xml version="1.0" encoding="utf-8"?>
<!-- Generator: Adobe Illustrator 17.1.0, SVG Export Plug-In . SVG Version: 6.00 Build 0)  -->

<svg version="1.1" id="Layer_1" xmlns="http://www.w3.org/2000/svg" xmlns:xlink="http://www.w3.org/1999/xlink" x="0px" y="0px"
	 width="344.5px" height="246.1px" viewBox="0 0 344.5 246.1" enable-background="new 0 0 344.5 246.1" xml:space="preserve">
<line fill="none" stroke="#000000" stroke-width="0.9971" stroke-miterlimit="10" x1="254" y1="90.8" x2="254" y2="22"/>
<line fill="none" stroke="#000000" stroke-width="0.9971" stroke-miterlimit="10" stroke-dasharray="5.76,5.76" x1="254" y1="155.1" x2="254" y2="90.8"/>
<line fill="none" stroke="#000000" stroke-width="0.9971" stroke-dasharray="5.76,5.76" x1="43.5" y1="116.4" x2="129.3" y2="29.7"/>
<line fill="none" stroke="#000000" stroke-width="0.9971" stroke-dasharray="5.76,5.76" x1="253.8" y1="50" x2="130.8" y2="29.5"/>
<line fill="none" stroke="#000000" stroke-width="0.9971" stroke-dasharray="5.76,5.76" x1="254.1" y1="64.9" x2="131.1" y2="44.3"/>
<line fill="none" stroke="#000000" stroke-width="0.9971" stroke-dasharray="5.76,5.76" x1="43.8" y1="131.2" x2="129.6" y2="44.5"/>
<g>
	<g>
		<g>
			<g>
				<text transform="matrix(1 0 0 1 283.3325 94.006)" font-family="'ArialMT'" font-size="11">Base layer n</text>
			</g>
		</g>
	</g>
</g>
<g>
	
		<line fill="none" stroke="#000000" stroke-width="0.9971" stroke-dasharray="5.76,5.76" x1="130.1" y1="132.8" x2="254" y2="154.5"/>
	
		<line fill="none" stroke="#000000" stroke-width="0.9971" stroke-dasharray="5.76,5.76" x1="45.1" y1="220.4" x2="130.1" y2="132.8"/>
	<polyline fill="none" stroke="#000000" stroke-dasharray="5.76,5.76" points="44,221.8 167.5,244.1 254,154.5 	"/>
</g>
<line fill="none" stroke="#000000" stroke-width="0.9971" stroke-miterlimit="10" stroke-dasharray="5.76,5.76" x1="44" y1="157.1" x2="44.2" y2="221.8"/>
<line fill="none" stroke="#000000" stroke-width="0.9971" stroke-miterlimit="10" x1="43.5" y1="87.9" x2="44" y2="157.1"/>
<path fill="#FFFFFF" stroke="#000000" stroke-width="0.9971" stroke-miterlimit="10" d="M43.3,97.9"/>
<polyline fill="#FFFFFF" stroke="#000000" stroke-width="0.9971" stroke-miterlimit="10" stroke-dasharray="5.76,5.76" points="
	167.7,180.2 167.7,246.1 167.7,122.3 "/>
<line fill="none" stroke="#000000" stroke-width="0.9971" stroke-miterlimit="10" x1="167.7" y1="112.3" x2="167.7" y2="180.2"/>
<path fill="#FFFFFF" stroke="#000000" stroke-width="0.9971" stroke-miterlimit="10" d="M167.7,122.3"/>
<polygon fill="none" stroke="#000000" stroke-width="0.9971" stroke-miterlimit="10" stroke-dasharray="5.76,5.76" points="
	254.3,22 167.7,112.3 43.3,87.9 130.1,0.5 "/>
<line fill="none" stroke="#000000" x1="135.9" y1="178.9" x2="167.2" y2="185.1"/>
<line fill="none" stroke="#000000" x1="43.9" y1="162.3" x2="65.3" y2="166.5"/>
<line fill="none" stroke="#000000" x1="179.8" y1="173.2" x2="168.2" y2="185.1"/>
<line fill="none" stroke="#000000" x1="119.6" y1="161.9" x2="166.7" y2="171.2"/>
<line fill="none" stroke="#000000" x1="63.3" y1="148.8" x2="95.3" y2="155.1"/>
<line fill="none" stroke="#000000" x1="177.3" y1="161.9" x2="166.7" y2="172.3"/>
<polygon fill="#B3B3B3" stroke="#000000" stroke-width="1.44" stroke-linecap="round" stroke-linejoin="round" points="167.2,155.3 
	253.7,64.2 254.2,44.1 167.2,135.2 "/>
<polygon fill="#B3B3B3" stroke="#000000" stroke-width="1.44" points="167.2,135 43.9,110.6 43.9,130.7 167.2,155.1 "/>
<line fill="none" stroke="#000000" stroke-width="0.9971" stroke-dasharray="5.76,5.76" x1="130.1" y1="133.8" x2="130.1" y2="1"/>
<path fill="none" stroke="#000000" stroke-width="0.9971" stroke-dasharray="5.76,5.76" d="M130.8,23.5"/>
<g>
	<g>
		<g>
			<g>
				<text transform="matrix(1 0 0 1 35.7231 160.0045)" font-family="'ArialMT'" font-size="11">I</text>
			</g>
		</g>
	</g>
</g>
<g>
	<g>
		<g>
			<g>
				<text transform="matrix(1 0 0 1 159.4253 167.2467)" font-family="'ArialMT'" font-size="11">J</text>
			</g>
		</g>
	</g>
</g>
<g>
	<g>
		<g>
			<g>
				<text transform="matrix(1 0 0 1 258.5005 93.8048)" font-family="'ArialMT'" font-size="11">K</text>
			</g>
		</g>
	</g>
</g>
<g>
	<g>
		<g>
			<g>
				<text transform="matrix(1 0 0 1 134.667 63.005)" font-family="'ArialMT'" font-size="11">L</text>
			</g>
		</g>
	</g>
</g>
<path d="M164.2,143.2c0.3-1.6,1.8-2.6,3.4-2.3c1.6,0.3,2.6,1.8,2.3,3.4c-0.3,1.6-1.8,2.6-3.4,2.3
	C164.9,146.3,163.9,144.8,164.2,143.2L164.2,143.2z"/>
<path d="M164.7,175.2c0.3-1.6,1.8-2.6,3.4-2.3c1.6,0.3,2.6,1.8,2.3,3.4c-0.3,1.6-1.8,2.6-3.4,2.3
	C165.4,178.2,164.4,176.7,164.7,175.2L164.7,175.2z"/>
<path d="M251.2,54.2c0.3-1.6,1.8-2.6,3.4-2.3s2.6,1.8,2.3,3.4c-0.3,1.6-1.8,2.6-3.4,2.3C251.9,57.3,250.9,55.8,251.2,54.2
	L251.2,54.2z"/>
<path d="M250.7,87.5c0.3-1.6,1.8-2.6,3.4-2.3c1.6,0.3,2.6,1.8,2.3,3.4s-1.8,2.6-3.4,2.3C251.4,90.6,250.4,89.1,250.7,87.5
	L250.7,87.5z"/>
<path d="M127.2,64c0.3-1.6,1.8-2.6,3.4-2.3c1.6,0.3,2.6,1.8,2.3,3.4s-1.8,2.6-3.4,2.3C127.9,67.1,126.9,65.6,127.2,64L127.2,64z"/>
<path d="M41.5,151.7c0.3-1.6,1.8-2.6,3.4-2.3c1.6,0.3,2.6,1.8,2.3,3.4c-0.3,1.6-1.8,2.6-3.4,2.3C42.2,154.7,41.2,153.2,41.5,151.7
	L41.5,151.7z"/>
<path d="M40.5,120.8c0.3-1.6,1.8-2.6,3.4-2.3c1.6,0.3,2.6,1.8,2.3,3.4s-1.8,2.6-3.4,2.3C41.2,123.9,40.2,122.4,40.5,120.8
	L40.5,120.8z"/>
<line fill="none" x1="206" y1="14.7" x2="157" y2="67.4"/>
<g>
	<g>
		<g>
			<g>
				<g>
					<text transform="matrix(1 0 0 1 133.0005 25.0055)" enable-background="new    "><tspan x="0" y="0" font-family="'ArialMT'" font-size="10">(</tspan><tspan x="3.3" y="0" font-family="'ArialMT'" font-size="10">Y</tspan></text>
				</g>
			</g>
		</g>
	</g>
	<g>
		<g>
			<g>
				<g>
					<text transform="matrix(1 0 0 1 143.0005 28.0055)" font-family="'ArialMT'" font-size="9">1</text>
				</g>
			</g>
		</g>
	</g>
	<g>
		<g>
			<g>
				<g>
					<text transform="matrix(1 0 0 1 148.0059 25.0055)" font-family="'ArialMT'" font-size="11"> </text>
				</g>
			</g>
		</g>
	</g>
	<g>
		<g>
			<g>
				<g>
					<text transform="matrix(1 0 0 1 151.062 25.0055)" font-family="'ArialMT'" font-size="10">= 1)</text>
				</g>
			</g>
		</g>
	</g>
</g>
<g>
	<g>
		<g>
			<g>
				<g>
					<text transform="matrix(1 0 0 1 260.6675 58.3385)" enable-background="new    "><tspan x="0" y="0" font-family="'ArialMT'" font-size="10">(</tspan><tspan x="3.3" y="0" font-family="'ArialMT'" font-size="10">Y</tspan></text>
				</g>
			</g>
		</g>
	</g>
	<g>
		<g>
			<g>
				<g>
					<text transform="matrix(1 0 0 1 270.6675 61.3385)" font-family="'ArialMT'" font-size="9">2</text>
				</g>
			</g>
		</g>
	</g>
	<g>
		<g>
			<g>
				<g>
					<text transform="matrix(1 0 0 1 275.6729 58.3385)" font-family="'ArialMT'" font-size="11"> </text>
				</g>
			</g>
		</g>
	</g>
	<g>
		<g>
			<g>
				<g>
					<text transform="matrix(1 0 0 1 278.729 58.3385)" font-family="'ArialMT'" font-size="10">= 1)</text>
				</g>
			</g>
		</g>
	</g>
</g>
<g>
	<g>
		<g>
			<g>
				<g>
					<text transform="matrix(1 0 0 1 0 124.6715)" enable-background="new    "><tspan x="0" y="0" font-family="'ArialMT'" font-size="10">(</tspan><tspan x="3.3" y="0" font-family="'ArialMT'" font-size="10">Y</tspan></text>
				</g>
			</g>
		</g>
	</g>
	<g>
		<g>
			<g>
				<g>
					<text transform="matrix(1 0 0 1 10 127.6715)" font-family="'ArialMT'" font-size="9">1</text>
				</g>
			</g>
		</g>
	</g>
	<g>
		<g>
			<g>
				<g>
					<text transform="matrix(1 0 0 1 15.0054 124.6715)" font-family="'ArialMT'" font-size="11"> </text>
				</g>
			</g>
		</g>
	</g>
	<g>
		<g>
			<g>
				<g>
					<text transform="matrix(1 0 0 1 18.0615 124.6715)" font-family="'ArialMT'" font-size="10">= 0)</text>
				</g>
			</g>
		</g>
	</g>
</g>
<g>
	<g>
		<g>
			<g>
				<g>
					<text transform="matrix(1 0 0 1 197.145 132.0045)" font-family="'ArialMT'" font-size="10">Y</text>
				</g>
			</g>
		</g>
	</g>
	<g>
		<g>
			<g>
				<g>
					<text transform="matrix(1 0 0 1 203.8149 135.0045)" font-family="'ArialMT'" font-size="9">2</text>
				</g>
			</g>
		</g>
	</g>
</g>
<g>
	<g>
		<line fill="none" x1="49.5" y1="96.8" x2="61.7" y2="84.7"/>
		<polygon fill="#EB3B90" points="49.1,94.3 44.9,101.6 52.1,97.3 		"/>
	</g>
	<g>
		<line fill="none" stroke="#000000" x1="49.5" y1="96.8" x2="61.7" y2="84.7"/>
		<polygon points="49.1,94.3 44.9,101.6 52.1,97.3 		"/>
	</g>
</g>
<g>
	<g>
		<g>
			<g>
				<g>
					<text transform="matrix(1 0 0 1 126.312 144.694)" enable-background="new    "><tspan x="0" y="0" font-family="'ArialMT'" font-size="10">(</tspan><tspan x="3.3" y="0" font-family="'ArialMT'" font-size="10">Y</tspan></text>
				</g>
			</g>
		</g>
	</g>
	<g>
		<g>
			<g>
				<g>
					<text transform="matrix(1 0 0 1 136.312 147.694)" font-family="'ArialMT'" font-size="9">2</text>
				</g>
			</g>
		</g>
	</g>
	<g>
		<g>
			<g>
				<g>
					<text transform="matrix(1 0 0 1 141.3174 144.694)" font-family="'ArialMT'" font-size="11"> </text>
				</g>
			</g>
		</g>
	</g>
	<g>
		<g>
			<g>
				<g>
					<text transform="matrix(1 0 0 1 144.3735 144.694)" font-family="'ArialMT'" font-size="10">= 0)</text>
				</g>
			</g>
		</g>
	</g>
</g>
<path d="M127.3,37.5c0.3-1.6,1.8-2.6,3.4-2.3c1.6,0.3,2.6,1.8,2.3,3.4c-0.3,1.6-1.8,2.6-3.4,2.3C128,40.6,127,39.1,127.3,37.5
	L127.3,37.5z"/>
<g>
	<g>
		<line fill="none" x1="86.5" y1="59.8" x2="74.4" y2="72"/>
		<polygon fill="#EB3B90" points="87,62.4 91.2,55.1 83.9,59.3 		"/>
	</g>
	<g>
		<line fill="none" stroke="#000000" x1="86.5" y1="59.8" x2="74.4" y2="72"/>
		<polygon points="87,62.4 91.2,55.1 83.9,59.3 		"/>
	</g>
</g>
<g>
	<g>
		<g>
			<g>
				<g>
					<text transform="matrix(1 0 0 1 63.9551 80.1129)" font-family="'ArialMT'" font-size="10">Y</text>
				</g>
			</g>
		</g>
	</g>
	<g>
		<g>
			<g>
				<g>
					<text transform="matrix(1 0 0 1 70.625 83.1129)" font-family="'ArialMT'" font-size="9">1</text>
				</g>
			</g>
		</g>
	</g>
</g>
<g>
	<g>
		<g>
			<g>
				<text transform="matrix(1 0 0 1 97.9775 86.005)" fill="#ED1C24" font-family="'ArialMT'" font-size="11">II</text>
			</g>
		</g>
	</g>
</g>
<line fill="none" stroke="#000000" stroke-linecap="round" x1="140" y1="149.7" x2="156.3" y2="133.3"/>
<line fill="none" stroke="#000000" stroke-linecap="round" x1="117.8" y1="145.2" x2="134.2" y2="128.8"/>
<line fill="none" stroke="#000000" stroke-linecap="round" x1="53" y1="133" x2="69.3" y2="116.7"/>
<line fill="none" stroke="#000000" stroke-linecap="round" x1="94.5" y1="139.8" x2="110.8" y2="123.5"/>
<line fill="none" stroke="#000000" stroke-linecap="round" x1="73.2" y1="135.7" x2="89.5" y2="119.3"/>
<line fill="none" stroke="#000000" stroke-linecap="round" x1="184.3" y1="118.4" x2="180.3" y2="140.4"/>
<line fill="none" stroke="#000000" stroke-linecap="round" x1="202.4" y1="99.6" x2="198.4" y2="121.6"/>
<line fill="none" stroke="#000000" stroke-linecap="round" x1="222.6" y1="78.5" x2="218.6" y2="100.5"/>
<line fill="none" stroke="#000000" stroke-linecap="round" x1="242.3" y1="58.4" x2="238.3" y2="80.4"/>
<g>
	<g>
		<g>
			<g>
				<text transform="matrix(1 0 0 1 237.3335 89.005)" fill="#ED1C24" font-family="'ArialMT'" font-size="11">JJ</text>
			</g>
		</g>
	</g>
</g>
<g>
	<g>
		<line fill="none" x1="173.2" y1="159.8" x2="196.3" y2="136.7"/>
		<polygon fill="#EB3B90" points="172.7,157.3 168.5,164.5 175.8,160.3 		"/>
	</g>
	<g>
		<line fill="none" stroke="#000000" x1="173.2" y1="159.8" x2="196.3" y2="136.7"/>
		<polygon points="172.7,157.3 168.5,164.5 175.8,160.3 		"/>
	</g>
</g>
<line fill="none" stroke="#000000" x1="237.3" y1="91.7" x2="237.3" y2="102.3"/>
<g>
	<g>
		<line fill="none" x1="232.3" y1="100.7" x2="209.1" y2="123.9"/>
		<polygon fill="#EB3B90" points="232.7,103.3 237,96 229.7,100.2 		"/>
	</g>
	<g>
		<line fill="none" stroke="#000000" x1="232.3" y1="100.7" x2="209.1" y2="123.9"/>
		<polygon points="232.7,103.3 237,96 229.7,100.2 		"/>
	</g>
</g>
<g>
	<g>
		<g>
			<g>
				<text transform="matrix(1 0 0 1 136.7676 84.5709)" font-family="'ArialMT'" font-size="11">Reinforcing</text>
			</g>
		</g>
	</g>
</g>
<g>
	<g>
		<line fill="none" x1="254.3" y1="75" x2="280.7" y2="88.7"/>
		<polygon fill="#FFFFFF" points="256.6,73.8 248.4,72 254.6,77.6 		"/>
	</g>
	<g>
		<line fill="none" stroke="#000000" x1="254.3" y1="75" x2="280.7" y2="88.7"/>
		<polygon points="256.6,73.8 248.4,72 254.6,77.6 		"/>
	</g>
</g>
<g>
	<g>
		<g>
			<g>
				<text transform="matrix(1 0 0 1 284.6665 111.6715)" font-family="'ArialMT'" font-size="11">e = 1</text>
			</g>
		</g>
	</g>
</g>
<line fill="none" stroke="#000000" stroke-width="0.9971" stroke-dasharray="5.76,5.76" x1="130.1" y1="64.1" x2="254" y2="85.8"/>
<line fill="none" stroke="#000000" stroke-width="0.9971" stroke-dasharray="5.76,5.76" x1="44.1" y1="150.8" x2="130.1" y2="64.1"/>
<polyline fill="none" stroke="#000000" points="44,152.1 167.5,175.4 254,85.8 "/>
<line fill="none" stroke="#000000" x1="92.3" y1="50" x2="92.3" y2="60.7"/>
<g>
	<g>
		<path fill="none" stroke="#000000" stroke-width="0.8624" stroke-linecap="square" d="M148.4,10.7"/>
		<polyline fill="#ED1C24" stroke="#ED1C24" stroke-width="0.8624" stroke-linecap="square" points="97.5,70.6 234.3,77.8 
			234.4,72.2 97.8,64.7 97.5,70.6 		"/>
	</g>
	<path stroke="#000000" stroke-width="0.8616" d="M234.9,77.5c-1.1,0.8-2.5,0.3-3-1.1c-0.6-1.5-0.1-3.3,1-4.1c1.1-0.8,2.5-0.3,3,1.1
		S236,76.7,234.9,77.5z"/>
	<path stroke="#000000" stroke-width="0.8616" d="M98.4,70.1c-1.1,0.8-2.5,0.3-3-1.1c-0.6-1.5-0.1-3.3,1-4.1c1.1-0.8,2.5-0.3,3,1.1
		C100,67.5,99.5,69.3,98.4,70.1z"/>
</g>
</svg>
