<?xml version="1.0" encoding="utf-8"?>
<!-- Generator: Adobe Illustrator 17.1.0, SVG Export Plug-In . SVG Version: 6.00 Build 0)  -->

<svg version="1.1" id="Layer_1" xmlns="http://www.w3.org/2000/svg" xmlns:xlink="http://www.w3.org/1999/xlink" x="0px" y="0px"
	 width="225.5px" height="194.8px" viewBox="0 1.6 225.5 194.8" enable-background="new 0 1.6 225.5 194.8" xml:space="preserve">
<line fill="none" x1="215.5" y1="164.1" x2="215.5" y2="151.4"/>
<polyline fill="none" points="215.5,164.1 215.5,151.4 114.7,151.4 "/>
<polyline fill="none" points="215.5,164.1 215.5,151.4 114.7,151.4 114.7,37.5 "/>
<polyline fill="none" points="215.5,164.1 215.5,151.4 114.7,151.4 114.7,37.5 177.8,37.5 "/>
<polyline fill="none" points="215.5,164.1 215.5,151.4 114.7,151.4 114.7,37.5 177.8,37.5 177.8,24.8 "/>
<polyline fill="none" points="215.5,164.1 215.5,151.4 114.7,151.4 114.7,37.5 177.8,37.5 177.8,24.8 38.8,24.8 "/>
<polyline fill="none" points="215.5,164.1 215.5,151.4 114.7,151.4 114.7,37.5 177.8,37.5 177.8,24.8 38.8,24.8 38.8,37.5 "/>
<polyline fill="none" points="215.5,164.1 215.5,151.4 114.7,151.4 114.7,37.5 177.8,37.5 177.8,24.8 38.8,24.8 38.8,37.5 
	101.9,37.5 "/>
<polyline fill="none" points="215.5,164.1 215.5,151.4 114.7,151.4 114.7,37.5 177.8,37.5 177.8,24.8 38.8,24.8 38.8,37.5 
	101.9,37.5 101.9,151.4 "/>
<polyline fill="none" points="215.5,164.1 215.5,151.4 114.7,151.4 114.7,37.5 177.8,37.5 177.8,24.8 38.8,24.8 38.8,37.5 
	101.9,37.5 101.9,151.4 13.3,151.4 "/>
<polyline fill="none" points="215.5,164.1 215.5,151.4 114.7,151.4 114.7,37.5 177.8,37.5 177.8,24.8 38.8,24.8 38.8,37.5 
	101.9,37.5 101.9,151.4 13.3,151.4 13.3,164.1 "/>
<polygon fill="#00BDF2" stroke="#000000" stroke-linecap="square" points="215.5,164.1 215.5,151.4 114.7,151.4 114.7,37.5 
	177.8,37.5 177.8,24.8 38.8,24.8 38.8,37.5 101.9,37.5 101.9,151.4 13.3,151.4 13.3,164.1 "/>
<g>
	<g>
		<polygon fill="#FFFFFF" points="205.6,182 216.4,179.1 205.6,176.2 		"/>
		<polygon fill="#FFFFFF" points="23.2,176.3 12.4,179.2 23.2,182.1 		"/>
	</g>
	<g>
		<line fill="none" stroke="#000000" stroke-linecap="square" x1="21.3" y1="179.2" x2="207.5" y2="179.2"/>
		<polygon points="205.6,182 216.4,179.1 205.6,176.2 		"/>
		<polygon points="23.2,176.3 12.4,179.2 23.2,182.1 		"/>
	</g>
</g>
<g>
	<g>
		<polygon fill="#FFFFFF" points="167.5,16.4 178.3,13.5 167.5,10.6 		"/>
		<polygon fill="#FFFFFF" points="50.1,10.6 39.2,13.5 50.1,16.5 		"/>
	</g>
	<g>
		<line fill="none" stroke="#000000" stroke-linecap="square" x1="48.1" y1="13.5" x2="169.4" y2="13.5"/>
		<polygon points="167.5,16.4 178.3,13.5 167.5,10.6 		"/>
		<polygon points="50.1,10.6 39.2,13.5 50.1,16.5 		"/>
	</g>
</g>
<g>
	<g>
		<polygon fill="#FFFFFF" points="219.6,154 222.5,164.8 225.5,154 		"/>
		<polygon fill="#FFFFFF" points="225.4,35.3 222.5,24.5 219.6,35.3 		"/>
	</g>
	<g>
		<line fill="none" stroke="#000000" stroke-linecap="square" x1="222.5" y1="33.3" x2="222.5" y2="155.9"/>
		<polygon points="219.6,154 222.5,164.8 225.5,154 		"/>
		<polygon points="225.4,35.3 222.5,24.5 219.6,35.3 		"/>
	</g>
</g>
<g>
	<g>
		<g>
			<g>
				<text transform="matrix(0.9996 0 0 1 102.4087 192.7617)" font-family="'ArialMT'" font-size="11.0002">W1</text>
			</g>
		</g>
	</g>
</g>
<g>
	<g>
		<g>
			<g>
				<text transform="matrix(0.9996 0 0 1 96.9385 10.9995)" font-family="'ArialMT'" font-size="11.0002">W2</text>
			</g>
		</g>
	</g>
</g>
<g>
	<g>
		<g>
			<g>
				<g>
					<text transform="matrix(0.9996 0 0 1 202.5771 92.6563)" font-family="'ArialMT'" font-size="11.0002"> </text>
				</g>
			</g>
		</g>
	</g>
	<g>
		<g>
			<g>
				<g>
					
						<text transform="matrix(0.9996 0 0 1 202.5771 92.6563)" fill="none" stroke="#000000" font-family="'ArialMT'" font-size="11.0002"> </text>
				</g>
			</g>
		</g>
	</g>
</g>
<g>
	<g>
		<g>
			<g>
				<text transform="matrix(0.9996 0 0 1 0 161.5459)" font-family="'ArialMT'" font-size="11.0002">t1</text>
			</g>
		</g>
	</g>
</g>
<g>
	<g>
		<g>
			<g>
				<text transform="matrix(0.9996 0 0 1 24.0215 35.9058)" font-family="'ArialMT'" font-size="11.0002">t2</text>
			</g>
		</g>
	</g>
</g>
<g>
	<g>
		<g>
			<g>
				<text transform="matrix(0.9996 0 0 1 119.6201 100.3066)" font-family="'ArialMT'" font-size="11.0002">t3</text>
			</g>
		</g>
	</g>
</g>
<line fill="none" stroke="#000000" stroke-linecap="square" stroke-miterlimit="10" x1="101.9" y1="37.5" x2="114.7" y2="37.5"/>
<line fill="none" stroke="#000000" stroke-linecap="square" x1="101.9" y1="94.9" x2="114.7" y2="94.9"/>
<line fill="none" stroke="#000000" stroke-linecap="square" x1="101.9" y1="37.5" x2="101.9" y2="24.8"/>
<line fill="none" stroke="#000000" stroke-linecap="square" x1="114.7" y1="37.5" x2="114.7" y2="24.8"/>
<g>
	<g>
		<polygon fill="#FFFFFF" points="145.8,167.5 156.7,164.6 145.8,161.7 		"/>
	</g>
	<g>
		<line fill="none" stroke="#000000" stroke-linecap="square" x1="107.7" y1="164.6" x2="147.8" y2="164.6"/>
		<polygon points="145.8,167.5 156.7,164.6 145.8,161.7 		"/>
	</g>
</g>
<g>
	<g>
		<g>
			<g>
				<text transform="matrix(0.9996 0 0 1 119.6201 122.8955)" font-family="'ArialMT'" font-size="11.0002">z</text>
			</g>
		</g>
	</g>
</g>
<g>
	<g>
		<g>
			<g>
				<text transform="matrix(0.9996 0 0 1 141.0439 143.8486)" font-family="'ArialMT'" font-size="11.0002">y</text>
			</g>
		</g>
	</g>
</g>
<line fill="none" x1="100.7" y1="164.1" x2="113.5" y2="164.1"/>
<line fill="none" stroke="#000000" stroke-linecap="square" x1="101.9" y1="163.9" x2="101.9" y2="151.4"/>
<line fill="none" stroke="#000000" stroke-linecap="square" x1="114.7" y1="164.1" x2="114.7" y2="151.4"/>
<line fill="none" stroke="#000000" stroke-linecap="square" x1="101.7" y1="151.4" x2="114.4" y2="151.4"/>
<ellipse stroke="#000000" cx="108" cy="163.9" rx="4.2" ry="4"/>
<g>
	<g>
		<polygon fill="#FFFFFF" points="110.8,113.9 107.9,103.1 105,113.9 		"/>
	</g>
	<g>
		<line fill="none" stroke="#000000" stroke-linecap="square" x1="107.9" y1="164.6" x2="107.9" y2="111.9"/>
		<polygon points="110.8,113.9 107.9,103.1 105,113.9 		"/>
	</g>
</g>
<g>
	<g>
		<g>
			<g>
				<text transform="matrix(0.9996 0 0 1 198.6045 99.333)" font-family="'ArialMT'" font-size="11.0002">W3</text>
			</g>
		</g>
	</g>
</g>
</svg>
