<?xml version="1.0" encoding="utf-8"?>
<!-- Generator: Adobe Illustrator 17.1.0, SVG Export Plug-In . SVG Version: 6.00 Build 0)  -->

<svg version="1.1" id="Layer_1" xmlns="http://www.w3.org/2000/svg" xmlns:xlink="http://www.w3.org/1999/xlink" x="0px" y="0px"
	 width="491.6px" height="228.7px" viewBox="0 0 491.6 228.7" enable-background="new 0 0 491.6 228.7" xml:space="preserve">
<polygon fill="#00BDF2" stroke="#00BDF2" points="54.5,74 54.5,24.6 22.1,24.6 22.1,74 "/>
<polygon fill="#00BDF2" stroke="#00BDF2" stroke-linecap="square" points="133.5,74 140.2,9.5 81.6,22.9 78.8,68.2 "/>
<path fill="#00BDF2" stroke="#00BDF2" stroke-linecap="square" d="M154.2,46.3c0-15.4,12.3-27.7,27.6-27.7
	c15.4,0,27.6,12.3,27.6,27.7S197.1,74,181.8,74C166.4,74,154.2,61.7,154.2,46.3L154.2,46.3z"/>
<path fill="#00BDF2" d="M227.5,46.3c0-15.4,12.3-27.7,27.6-27.7s27.6,12.3,27.6,27.7S270.4,74,255.1,74S227.5,61.7,227.5,46.3
	L227.5,46.3z"/>
<path fill="#FFFFFF" d="M231.1,46.8c0-13.3,10.6-23.9,23.9-23.9s23.9,10.6,23.9,23.9S268.3,70.7,255,70.7
	C241.7,70.8,231.1,60.1,231.1,46.8L231.1,46.8z"/>
<polygon fill="#00BDF2" stroke="#00BDF2" stroke-linecap="square" points="363.2,74 315.3,74 315.3,0.5 371.4,0.5 371.4,8.7 
	321.9,8.7 321.9,66.2 363.2,66.2 "/>
<polygon fill="#00BDF2" stroke="#00BDF2" stroke-linecap="square" points="469.9,74 469.9,67.6 434.4,67.6 434.4,10.7 466,10.7 
	466,4.3 396.5,4.3 396.5,10.7 428,10.7 428,67.6 397.7,67.6 397.7,74 468.9,74 "/>
<polygon fill="#00BDF2" stroke="#00BDF2" stroke-width="0.9" stroke-linecap="square" stroke-miterlimit="10" points="173.9,200.6 
	173.9,134.2 168.7,134.2 168.7,190.1 143.3,190.1 143.3,200.3 204.5,200.3 204.5,190.1 173.9,190.1 "/>
<polygon fill="#00BDF2" stroke="#00BDF2" stroke-width="0.45" stroke-linecap="square" points="68.4,200.6 68.4,194.1 34.7,194.1 
	34.7,128.8 0.2,128.8 0.2,134.3 31.9,134.3 31.9,200.6 "/>
<polygon fill="#00BDF2" stroke="#00BDF2" points="84.5,136.4 89.6,136.4 89.6,190.9 126.6,190.9 126.6,198.6 84.5,198.6 "/>
<polygon fill="#00BDF2" stroke="#00BDF2" stroke-width="0.9" stroke-linecap="square" points="241.9,200.6 212,200.6 212,191.9 
	238.5,191.9 238.5,128.6 291.3,128.6 291.3,194.8 315.3,194.8 315.3,200.3 287.7,200.6 287.7,133.5 241.9,133.5 "/>
<polygon fill="#00BDF2" stroke="#00BDF2" stroke-width="0.5" stroke-linecap="square" points="406,198.6 406,143.1 330.1,143.1 
	330.1,198.6 "/>
<g>
	<g>
		<g>
			<g>
				<text transform="matrix(1 0 0 1 19.1974 99.167)" enable-background="new    "><tspan x="0" y="0" font-family="'ArialMT'" font-size="11">REC</tspan><tspan x="23.2" y="0" font-family="'ArialMT'" font-size="11">T</tspan></text>
			</g>
		</g>
	</g>
</g>
<g>
	<g>
		<g>
			<g>
				<text transform="matrix(1 0 0 1 90.1973 99.167)" font-family="'ArialMT'" font-size="11">QUAD</text>
			</g>
		</g>
	</g>
</g>
<g>
	<g>
		<g>
			<g>
				<text transform="matrix(1 0 0 1 164.8638 99.167)" font-family="'ArialMT'" font-size="11">CSOLID</text>
			</g>
		</g>
	</g>
</g>
<g>
	<g>
		<g>
			<g>
				<text transform="matrix(1 0 0 1 242.5302 99.167)" font-family="'ArialMT'" font-size="11">CTUBE</text>
			</g>
		</g>
	</g>
</g>
<g>
	<g>
		<g>
			<g>
				<text transform="matrix(1 0 0 1 322.5313 99.167)" font-family="'ArialMT'" font-size="11">CHAN</text>
			</g>
		</g>
	</g>
</g>
<g>
	<g>
		<g>
			<g>
				<text transform="matrix(1 0 0 1 429.1983 99.167)" font-family="'ArialMT'" font-size="11">I</text>
			</g>
		</g>
	</g>
</g>
<g>
	<g>
		<g>
			<g>
				<text transform="matrix(1 0 0 1 28.1974 221.167)" font-family="'ArialMT'" font-size="11">Z</text>
			</g>
		</g>
	</g>
</g>
<g>
	<g>
		<g>
			<g>
				<text transform="matrix(1 0 0 1 103.1973 221.167)" font-family="'ArialMT'" font-size="11">L</text>
			</g>
		</g>
	</g>
</g>
<g>
	<g>
		<g>
			<g>
				<text transform="matrix(1 0 0 1 187.8643 225.167)" font-family="'ArialMT'" font-size="11"> </text>
			</g>
		</g>
	</g>
</g>
<g>
	<g>
		<g>
			<g>
				<text transform="matrix(1 0 0 1 169.8643 221.167)" font-family="'ArialMT'" font-size="11">T</text>
			</g>
		</g>
	</g>
</g>
<g>
	<g>
		<g>
			<g>
				<text transform="matrix(1 0 0 1 252.1974 221.167)" enable-background="new    "><tspan x="0" y="0" font-family="'ArialMT'" font-size="11">H</tspan><tspan x="7.9" y="0" font-family="'ArialMT'" font-size="11">A</tspan><tspan x="14.5" y="0" font-family="'ArialMT'" font-size="11">TS</tspan></text>
			</g>
		</g>
	</g>
</g>
<g>
	<g>
		<g>
			<g>
				<text transform="matrix(1 0 0 1 351.1983 221.167)" font-family="'ArialMT'" font-size="11">HREC</text>
			</g>
		</g>
	</g>
</g>
<path fill="#00BDF2" stroke="#00BDF2" stroke-linecap="square" d="M489.7,155.8c2,3.3,1.2,9.5,1.2,13.5c0,4.3,0.8,9.5-4.6,10
	c-3.6,0.4-7.1-4.7-10.6-5.2c-2.1,7.5-16,14.1-21.5,19.7c-5.7,5.9-6.5,4.6-13.9,4.1c-6.4-0.4-12.6,0.9-19.3,0.6
	c-4.1-8.8,2.7-15.2,6.1-23.1c2.7-6.4,3.1-18.7,8.3-23.5c4-3.7,12.6-2.9,17.9-3.3C463.4,148,483.3,145.1,489.7,155.8z"/>
<g>
	<g>
		<g>
			<g>
				<text transform="matrix(1 0 0 1 441.8643 221.167)" font-family="'ArialMT'" font-size="11">ASEC</text>
			</g>
		</g>
	</g>
</g>
<polygon fill="#FFFFFF" stroke="#FFFFFF" stroke-width="0.5" stroke-linecap="square" points="400.6,193.2 400.6,147.7 335.5,147.7 
	335.5,193.2 "/>
</svg>
