<?xml version="1.0" encoding="utf-8"?>
<!-- Generator: Adobe Illustrator 17.1.0, SVG Export Plug-In . SVG Version: 6.00 Build 0)  -->

<svg version="1.1" id="Layer_1" xmlns="http://www.w3.org/2000/svg" xmlns:xlink="http://www.w3.org/1999/xlink" x="0px" y="0px"
	 width="307.6px" height="252.6px" viewBox="0 0 307.6 252.6" enable-background="new 0 0 307.6 252.6" xml:space="preserve">
<line fill="none" stroke="#000000" stroke-width="0.9971" stroke-dasharray="5.76,5.76" x1="188.8" y1="150.8" x2="188.8" y2="10"/>
<line fill="none" stroke="#000000" stroke-width="0.9971" stroke-miterlimit="10" stroke-dasharray="5.76,5.76" x1="256" y1="87.3" x2="256" y2="22"/>
<line fill="none" stroke="#000000" stroke-width="0.9971" stroke-miterlimit="10" stroke-dasharray="5.76,5.76" x1="256" y1="162.1" x2="256" y2="87.3"/>
<path fill="none" stroke="#000000" stroke-width="0.9971" stroke-dasharray="5.76,5.76" d="M132.8,29.5"/>
<path fill="none" stroke="#000000" stroke-width="0.9971" stroke-dasharray="5.76,5.76" d="M255.8,50"/>
<line fill="none" stroke="#000000" stroke-width="0.9971" stroke-dasharray="5.76,5.76" x1="131.5" y1="141" x2="255.4" y2="163.7"/>
<line fill="none" stroke="#000000" stroke-width="0.9971" stroke-miterlimit="10" stroke-dasharray="5.76,5.76" x1="46" y1="150.4" x2="46.2" y2="228.8"/>
<line fill="none" stroke="#000000" stroke-width="0.9971" stroke-miterlimit="10" stroke-dasharray="5.76,5.76" x1="45.5" y1="87.9" x2="46" y2="150.4"/>
<path fill="#FFFFFF" stroke="#000000" stroke-width="0.9971" stroke-miterlimit="10" d="M45.3,97.9"/>
<polyline fill="none" stroke="#000000" stroke-width="0.9971" stroke-miterlimit="10" stroke-dasharray="5.76,5.76" points="
	169.7,175.8 169.7,252 169.7,122.3 "/>
<line fill="none" stroke="#000000" stroke-width="0.9971" stroke-miterlimit="10" stroke-dasharray="5.76,5.76" x1="169.7" y1="112.3" x2="169.7" y2="175.8"/>
<path fill="#FFFFFF" stroke="#000000" stroke-width="0.9971" stroke-miterlimit="10" d="M169.7,122.3"/>
<polygon fill="none" stroke="#000000" stroke-width="0.9971" stroke-miterlimit="10" stroke-dasharray="5.76,5.76" points="
	256.3,21 169.7,112.3 45.3,87.9 132.1,0.5 "/>
<g>
	
		<line fill="none" stroke="#000000" stroke-width="0.9971" stroke-dasharray="5.76,5.76" x1="46.1" y1="227.4" x2="132.1" y2="140.8"/>
	<polyline fill="none" stroke="#000000" stroke-dasharray="5.76,5.76" points="46,228.8 169.5,252 256,162.5 	"/>
</g>
<line fill="none" stroke="#000000" stroke-width="0.9971" stroke-dasharray="5.76,5.76" x1="132.1" y1="141.8" x2="132.1" y2="1"/>
<g>
	<g>
		<g>
			<g>
				<text transform="matrix(1 0 0 1 37.7231 157.5003)" font-family="'ArialMT'" font-size="11">I</text>
			</g>
		</g>
	</g>
</g>
<g>
	<g>
		<g>
			<g>
				<text transform="matrix(1 0 0 1 172.0005 185.6701)" font-family="'ArialMT'" font-size="11">J</text>
			</g>
		</g>
	</g>
</g>
<g>
	<g>
		<g>
			<g>
				<text transform="matrix(1 0 0 1 260.5005 92.8019)" font-family="'ArialMT'" font-size="11">K</text>
			</g>
		</g>
	</g>
</g>
<g>
	<g>
		<g>
			<g>
				<text transform="matrix(1 0 0 1 138.2593 64.2619)" font-family="'ArialMT'" font-size="11">L</text>
			</g>
		</g>
	</g>
</g>
<path d="M166.7,174.7c0.3-1.6,1.8-2.6,3.4-2.3c1.6,0.3,2.6,1.8,2.3,3.4c-0.3,1.6-1.8,2.6-3.4,2.3
	C167.4,177.8,166.4,176.3,166.7,174.7L166.7,174.7z"/>
<path d="M252.7,87.2c0.3-1.6,1.8-2.6,3.4-2.3c1.6,0.3,2.6,1.8,2.3,3.4c-0.3,1.6-1.8,2.6-3.4,2.3S252.4,88.8,252.7,87.2L252.7,87.2z"
	/>
<path d="M130.3,64.8c0.3-1.6,1.8-2.6,3.4-2.3c1.6,0.3,2.6,1.8,2.3,3.4s-1.8,2.6-3.4,2.3C131,67.9,130,66.4,130.3,64.8L130.3,64.8z"
	/>
<path d="M43.7,152.7c0.3-1.6,1.8-2.6,3.4-2.3c1.6,0.3,2.6,1.8,2.3,3.4c-0.3,1.6-1.8,2.6-3.4,2.3C44.4,155.8,43.4,154.3,43.7,152.7
	L43.7,152.7z"/>
<g>
	<g>
		<g>
			<g>
				<g>
					<text transform="matrix(1 0 0 1 181.8638 183.4748)" enable-background="new    "><tspan x="0" y="0" font-family="'ArialMT'" font-size="10">(</tspan><tspan x="3.3" y="0" font-family="'ArialMT'" font-size="10">Y</tspan></text>
				</g>
			</g>
		</g>
	</g>
	<g>
		<g>
			<g>
				<g>
					<text transform="matrix(1 0 0 1 191.8638 186.4748)" font-family="'ArialMT'" font-size="9">1</text>
				</g>
			</g>
		</g>
	</g>
	<g>
		<g>
			<g>
				<g>
					<text transform="matrix(1 0 0 1 196.8692 183.4748)" font-family="'ArialMT'" font-size="11"> </text>
				</g>
			</g>
		</g>
	</g>
	<g>
		<g>
			<g>
				<g>
					<text transform="matrix(1 0 0 1 199.9253 183.4748)" font-family="'ArialMT'" font-size="10">= 1)</text>
				</g>
			</g>
		</g>
	</g>
</g>
<g>
	<g>
		<g>
			<g>
				<g>
					<text transform="matrix(1 0 0 1 270.6675 91.0031)" enable-background="new    "><tspan x="0" y="0" font-family="'ArialMT'" font-size="10">(</tspan><tspan x="3.3" y="0" font-family="'ArialMT'" font-size="10">Y</tspan></text>
				</g>
			</g>
		</g>
	</g>
	<g>
		<g>
			<g>
				<g>
					<text transform="matrix(1 0 0 1 280.6675 94.0031)" font-family="'ArialMT'" font-size="9">2</text>
				</g>
			</g>
		</g>
	</g>
	<g>
		<g>
			<g>
				<g>
					<text transform="matrix(1 0 0 1 285.6729 91.0031)" font-family="'ArialMT'" font-size="11"> </text>
				</g>
			</g>
		</g>
	</g>
	<g>
		<g>
			<g>
				<g>
					<text transform="matrix(1 0 0 1 288.729 91.0031)" font-family="'ArialMT'" font-size="10">= 1)</text>
				</g>
			</g>
		</g>
	</g>
</g>
<g>
	<g>
		<g>
			<g>
				<g>
					<text transform="matrix(1 0 0 1 0 156.1691)" enable-background="new    "><tspan x="0" y="0" font-family="'ArialMT'" font-size="10">(</tspan><tspan x="3.3" y="0" font-family="'ArialMT'" font-size="10">Y</tspan></text>
				</g>
			</g>
		</g>
	</g>
	<g>
		<g>
			<g>
				<g>
					<text transform="matrix(1 0 0 1 10 159.1691)" font-family="'ArialMT'" font-size="9">1</text>
				</g>
			</g>
		</g>
	</g>
	<g>
		<g>
			<g>
				<g>
					<text transform="matrix(1 0 0 1 15.0054 156.1691)" font-family="'ArialMT'" font-size="11"> </text>
				</g>
			</g>
		</g>
	</g>
	<g>
		<g>
			<g>
				<g>
					<text transform="matrix(1 0 0 1 18.0615 156.1691)" font-family="'ArialMT'" font-size="10">= 0)</text>
				</g>
			</g>
		</g>
	</g>
</g>
<g>
	<g>
		<g>
			<g>
				<g>
					<text transform="matrix(1 0 0 1 155.3848 22.4298)" font-family="'ArialMT'" font-size="10">Y</text>
				</g>
			</g>
		</g>
	</g>
	<g>
		<g>
			<g>
				<g>
					<text transform="matrix(1 0 0 1 162.0547 25.4298)" font-family="'ArialMT'" font-size="9">2</text>
				</g>
			</g>
		</g>
	</g>
</g>
<g>
	<g>
		<polygon fill="#FFFFFF" points="104.3,112.9 112.7,112.5 105.2,108.7 		"/>
	</g>
	<g>
		<line fill="none" stroke="#000000" x1="106.2" y1="111.1" x2="89.4" y2="107.5"/>
		<polygon points="104.3,112.9 112.7,112.5 105.2,108.7 		"/>
	</g>
</g>
<g>
	<g>
		<g>
			<g>
				<g>
					<text transform="matrix(1 0 0 1 90.4453 64.4446)" enable-background="new    "><tspan x="0" y="0" font-family="'ArialMT'" font-size="10">(</tspan><tspan x="3.3" y="0" font-family="'ArialMT'" font-size="10">Y</tspan></text>
				</g>
			</g>
		</g>
	</g>
	<g>
		<g>
			<g>
				<g>
					<text transform="matrix(1 0 0 1 100.4453 67.4446)" font-family="'ArialMT'" font-size="9">2</text>
				</g>
			</g>
		</g>
	</g>
	<g>
		<g>
			<g>
				<g>
					<text transform="matrix(1 0 0 1 105.4507 64.4446)" font-family="'ArialMT'" font-size="11"> </text>
				</g>
			</g>
		</g>
	</g>
	<g>
		<g>
			<g>
				<g>
					<text transform="matrix(1 0 0 1 108.5068 64.4446)" font-family="'ArialMT'" font-size="10">= 0)</text>
				</g>
			</g>
		</g>
	</g>
</g>
<g>
	<g>
		<polygon fill="#FFFFFF" points="54.9,98.3 46.5,98.8 54,102.6 		"/>
	</g>
	<g>
		<line fill="none" stroke="#000000" x1="53" y1="100.1" x2="69.8" y2="103.8"/>
		<polygon points="54.9,98.3 46.5,98.8 54,102.6 		"/>
	</g>
</g>
<g>
	<g>
		<g>
			<g>
				<g>
					<text transform="matrix(1 0 0 1 74.6221 109.4446)" font-family="'ArialMT'" font-size="10">Y</text>
				</g>
			</g>
		</g>
	</g>
	<g>
		<g>
			<g>
				<g>
					<text transform="matrix(1 0 0 1 81.292 112.4446)" font-family="'ArialMT'" font-size="9">1</text>
				</g>
			</g>
		</g>
	</g>
</g>
<g>
	<g>
		<g>
			<g>
				<text transform="matrix(1 0 0 1 103.6465 140.053)" fill="#ED1C24" font-family="'ArialMT'" font-size="11">II</text>
			</g>
		</g>
	</g>
</g>
<path fill="#B3B3B3" stroke="#000000" stroke-linecap="round" d="M75.2,135.7"/>
<path fill="#B3B3B3" stroke="#000000" stroke-linecap="round" d="M182.3,140.4"/>
<g>
	<g>
		<g>
			<g>
				<text transform="matrix(1.1213 0 0 1 207.834 29.3335)" fill="#ED1C24" font-family="'ArialMT'" font-size="11">JJ</text>
			</g>
		</g>
	</g>
</g>
<g>
	<g>
		<polygon fill="#FFFFFF" points="141.1,15.3 132.8,16 140.4,19.6 		"/>
	</g>
	<g>
		<line fill="none" stroke="#000000" x1="139.3" y1="17.1" x2="153.8" y2="19.8"/>
		<polygon points="141.1,15.3 132.8,16 140.4,19.6 		"/>
	</g>
</g>
<g>
	<g>
		<polygon fill="#FFFFFF" points="182.9,26.7 191.3,25.9 183.7,22.4 		"/>
	</g>
	<g>
		<line fill="none" stroke="#000000" x1="184.8" y1="24.9" x2="169.3" y2="22.2"/>
		<polygon points="182.9,26.7 191.3,25.9 183.7,22.4 		"/>
	</g>
</g>
<line fill="none" stroke="#000000" x1="191.7" y1="20.7" x2="191.7" y2="30.7"/>
<line fill="none" stroke="#000000" x1="113.3" y1="107" x2="113.3" y2="117"/>
<line fill="none" stroke="#000000" stroke-width="0.9971" stroke-dasharray="5.76,5.76" x1="132.1" y1="64.8" x2="256" y2="86.5"/>
<line fill="none" stroke="#000000" stroke-width="0.9971" stroke-dasharray="5.76,5.76" x1="46.1" y1="151.4" x2="132.1" y2="64.8"/>
<polyline fill="none" stroke="#000000" points="46,152.8 169.5,176 256,86.5 "/>
<g>
	<g>
		<g>
			<g>
				<text transform="matrix(0.6264 -0.7795 0.7795 0.6264 156.8664 110.3021)" font-family="'ArialMT'" font-size="11.0004">Reinforcing</text>
			</g>
		</g>
	</g>
</g>
<g>
	<g>
		<path fill="none" stroke="#000000" stroke-width="0.7558" stroke-linecap="square" d="M105.2,47.3"/>
		<polyline fill="#ED1C24" stroke="#ED1C24" stroke-width="0.7558" stroke-linecap="square" points="123.6,110.8 201,20.5 
			196.9,17.7 119.3,107.8 123.6,110.8 		"/>
	</g>
	<path stroke="#000000" stroke-width="0.755" d="M201.1,19.9c0,1.2-1.1,1.8-2.5,1.5s-2.6-1.5-2.6-2.6c0-1.2,1.1-1.8,2.5-1.5
		C199.9,17.6,201.1,18.8,201.1,19.9z"/>
	<path stroke="#000000" stroke-width="0.755" d="M123.7,109.9c0,1.2-1.1,1.8-2.5,1.5s-2.6-1.5-2.6-2.6c0-1.2,1.1-1.8,2.5-1.5
		C122.5,107.6,123.7,108.8,123.7,109.9z"/>
</g>
<g>
	<g>
		<polygon fill="#FFFFFF" points="117,233.5 119.2,241.6 121.4,233.5 		"/>
	</g>
	<g>
		<line fill="none" stroke="#000000" x1="119.2" y1="235" x2="119.2" y2="185"/>
		<polygon points="117,233.5 119.2,241.6 121.4,233.5 		"/>
	</g>
</g>
<g>
	<g>
		<polygon fill="#FFFFFF" points="122.3,119 120.1,110.8 117.9,119 		"/>
	</g>
	<g>
		<line fill="none" stroke="#000000" x1="120.2" y1="117.5" x2="120.2" y2="164.5"/>
		<polygon points="122.3,119 120.1,110.8 117.9,119 		"/>
	</g>
</g>
<line fill="none" stroke="#000000" x1="116.2" y1="109.5" x2="125.2" y2="111.7"/>
<g>
	<g>
		<g>
			<g>
				<g>
					<text transform="matrix(1 0 0 1 116.3335 177.6691)" font-family="'ArialMT'" font-size="10">Z</text>
				</g>
			</g>
		</g>
	</g>
	<g>
		<g>
			<g>
				<g>
					<text transform="matrix(1 0 0 1 122.4419 180.6691)" font-family="'ArialMT'" font-size="9">1</text>
				</g>
			</g>
		</g>
	</g>
</g>
<line fill="none" stroke="#000000" x1="197.7" y1="18.8" x2="206.7" y2="20.9"/>
<g>
	<g>
		<polygon fill="#FFFFFF" points="198.7,144.5 200.9,152.6 203,144.5 		"/>
	</g>
	<g>
		<line fill="none" stroke="#000000" x1="200.8" y1="146" x2="200.8" y2="101"/>
		<polygon points="198.7,144.5 200.9,152.6 203,144.5 		"/>
	</g>
</g>
<g>
	<g>
		<polygon fill="#FFFFFF" points="204,29 201.8,20.8 199.6,29 		"/>
	</g>
	<g>
		<line fill="none" stroke="#000000" x1="201.8" y1="27.5" x2="201.8" y2="80.5"/>
		<polygon points="204,29 201.8,20.8 199.6,29 		"/>
	</g>
</g>
<g>
	<g>
		<g>
			<g>
				<g>
					<text transform="matrix(1 0 0 1 193.7622 94.9191)" font-family="'ArialMT'" font-size="10">Z</text>
				</g>
			</g>
		</g>
	</g>
	<g>
		<g>
			<g>
				<g>
					<text transform="matrix(1 0 0 1 199.8706 97.9191)" font-family="'ArialMT'" font-size="9">2</text>
				</g>
			</g>
		</g>
	</g>
	<g>
		<g>
			<g>
				<g>
					<text transform="matrix(1 0 0 1 204.8759 94.9191)" font-family="'ArialMT'" font-size="10"> = Z</text>
				</g>
			</g>
		</g>
	</g>
	<g>
		<g>
			<g>
				<g>
					<text transform="matrix(1 0 0 1 222.3808 97.9191)" font-family="'ArialMT'" font-size="9">1</text>
				</g>
			</g>
		</g>
	</g>
</g>
<line fill="none" stroke="#000000" stroke-width="0.9971" stroke-dasharray="5.76,5.76" x1="115.3" y1="242.3" x2="115.3" y2="101.5"/>
<g>
	<g>
		<g>
			<g>
				<g>
					<text transform="matrix(1 0 0 1 14.3335 231.6691)" font-family="'ArialMT'" font-size="10">Z</text>
				</g>
			</g>
		</g>
	</g>
	<g>
		<g>
			<g>
				<g>
					<text transform="matrix(1 0 0 1 20.4419 234.6691)" font-family="'ArialMT'" font-size="9">1 </text>
				</g>
			</g>
		</g>
	</g>
	<g>
		<g>
			<g>
				<g>
					<text transform="matrix(1 0 0 1 27.9478 231.6691)" font-family="'ArialMT'" font-size="10">= 0</text>
				</g>
			</g>
		</g>
	</g>
</g>
<g>
	<g>
		<g>
			<g>
				<text transform="matrix(1 0 0 1 282.8335 52.1691)" font-family="'ArialMT'" font-size="11">e = 2</text>
			</g>
		</g>
	</g>
</g>
</svg>
