<?xml version="1.0" encoding="utf-8"?>
<!-- Generator: Adobe Illustrator 17.1.0, SVG Export Plug-In . SVG Version: 6.00 Build 0)  -->

<svg version="1.1" id="Layer_1" xmlns="http://www.w3.org/2000/svg" xmlns:xlink="http://www.w3.org/1999/xlink" x="0px" y="0px"
	 width="268.4px" height="213.8px" viewBox="0 1.6 268.4 213.8" enable-background="new 0 1.6 268.4 213.8" xml:space="preserve">
<line fill="none" x1="92.5" y1="183.9" x2="26" y2="183.9"/>
<polyline fill="none" points="92.5,183.9 26,183.9 26,164.7 "/>
<polyline fill="none" points="92.5,183.9 26,183.9 26,164.7 85.1,164.7 "/>
<polyline fill="none" points="92.5,183.9 26,183.9 26,164.7 85.1,164.7 85.1,24.1 "/>
<polyline fill="none" points="92.5,183.9 26,183.9 26,164.7 85.1,164.7 85.1,24.1 202.3,24.1 "/>
<polyline fill="none" points="92.5,183.9 26,183.9 26,164.7 85.1,164.7 85.1,24.1 202.3,24.1 202.3,171.2 "/>
<polyline fill="none" points="92.5,183.9 26,183.9 26,164.7 85.1,164.7 85.1,24.1 202.3,24.1 202.3,171.2 255.6,171.2 "/>
<polyline fill="none" points="92.5,183.9 26,183.9 26,164.7 85.1,164.7 85.1,24.1 202.3,24.1 202.3,171.2 255.6,171.2 255.6,183.4 
	"/>
<polyline fill="none" points="92.5,183.9 26,183.9 26,164.7 85.1,164.7 85.1,24.1 202.3,24.1 202.3,171.2 255.6,171.2 255.6,183.4 
	196.1,183.4 "/>
<polyline fill="none" points="92.5,183.9 26,183.9 26,164.7 85.1,164.7 85.1,24.1 202.3,24.1 202.3,171.2 255.6,171.2 255.6,183.4 
	196.1,183.4 196.1,34.9 "/>
<polyline fill="none" points="92.5,183.9 26,183.9 26,164.7 85.1,164.7 85.1,24.1 202.3,24.1 202.3,171.2 255.6,171.2 255.6,183.4 
	196.1,183.4 196.1,34.9 92.5,34.9 "/>
<polygon fill="#00BDF2" stroke="#000000" stroke-linecap="square" points="92.5,183.9 26,183.9 26,164.7 85.1,164.7 85.1,24.1 
	202.3,24.1 202.3,171.2 255.6,171.2 255.6,183.4 194.4,183.9 194.4,34.9 92.5,34.9 "/>
<g>
	<g>
		<polygon fill="#FFFFFF" points="80.9,201.2 91.7,198.3 80.9,195.4 		"/>
		<polygon fill="#FFFFFF" points="34.4,195.5 23.5,198.4 34.4,201.3 		"/>
	</g>
	<g>
		<line fill="none" stroke="#000000" stroke-linecap="square" x1="32.4" y1="198.4" x2="82.9" y2="198.4"/>
		<polygon points="80.9,201.2 91.7,198.3 80.9,195.4 		"/>
		<polygon points="34.4,195.5 23.5,198.4 34.4,201.3 		"/>
	</g>
</g>
<g>
	<g>
		<polygon fill="#FFFFFF" points="244.6,201.2 255.5,198.3 244.6,195.4 		"/>
		<polygon fill="#FFFFFF" points="204.6,195.5 193.7,198.4 204.6,201.3 		"/>
	</g>
	<g>
		<line fill="none" stroke="#000000" stroke-linecap="square" x1="202.6" y1="198.4" x2="246.6" y2="198.4"/>
		<polygon points="244.6,201.2 255.5,198.3 244.6,195.4 		"/>
		<polygon points="204.6,195.5 193.7,198.4 204.6,201.3 		"/>
	</g>
</g>
<g>
	<g>
		<polygon fill="#FFFFFF" points="191.3,16.1 202.2,13.2 191.3,10.3 		"/>
		<polygon fill="#FFFFFF" points="95.1,10.4 84.2,13.3 95.1,16.2 		"/>
	</g>
	<g>
		<line fill="none" stroke="#000000" stroke-linecap="square" x1="93.1" y1="13.3" x2="193.3" y2="13.3"/>
		<polygon points="191.3,16.1 202.2,13.2 191.3,10.3 		"/>
		<polygon points="95.1,10.4 84.2,13.3 95.1,16.2 		"/>
	</g>
</g>
<g>
	<g>
		<polygon fill="#FFFFFF" points="0.1,172.4 3,183.2 5.9,172.4 		"/>
		<polygon fill="#FFFFFF" points="5.8,35.8 2.9,24.9 0,35.8 		"/>
	</g>
	<g>
		<line fill="none" stroke="#000000" stroke-linecap="square" x1="2.9" y1="33.8" x2="2.9" y2="174.3"/>
		<polygon points="0.1,172.4 3,183.2 5.9,172.4 		"/>
		<polygon points="5.8,35.8 2.9,24.9 0,35.8 		"/>
	</g>
</g>
<g>
	<g>
		<g>
			<g>
				<text transform="matrix(0.9993 0 0 1 46.6558 211.8301)" font-family="'ArialMT'" font-size="10.9998">W1</text>
			</g>
		</g>
	</g>
</g>
<g>
	<g>
		<g>
			<g>
				<text transform="matrix(0.9993 0 0 1 218.6338 211.8291)" font-family="'ArialMT'" font-size="10.9998">W2</text>
			</g>
		</g>
	</g>
</g>
<g>
	<g>
		<g>
			<g>
				<text transform="matrix(0.9993 0 0 1 134.5664 11)" font-family="'ArialMT'" font-size="10.9998">W3</text>
			</g>
		</g>
	</g>
</g>
<g>
	<g>
		<g>
			<g>
				<text transform="matrix(0.9993 0 0 1 9.666 100.4155)" font-family="'ArialMT'" font-size="10.9998">W4</text>
			</g>
		</g>
	</g>
</g>
<g>
	<g>
		<g>
			<g>
				<text transform="matrix(0.9993 0 0 1 209.0254 35.998)" font-family="'ArialMT'" font-size="10.9998">t3</text>
			</g>
		</g>
	</g>
</g>
<g>
	<g>
		<g>
			<g>
				<text transform="matrix(0.9993 0 0 1 72.8364 104.501)" font-family="'ArialMT'" font-size="10.9998">t4</text>
			</g>
		</g>
	</g>
</g>
<line fill="none" stroke="#000000" stroke-linecap="square" x1="85.1" y1="165.2" x2="85.1" y2="183.4"/>
<line fill="none" stroke="#000000" stroke-linecap="square" x1="85.1" y1="164.7" x2="92.5" y2="164.7"/>
<line fill="none" stroke="#000000" stroke-linecap="square" x1="92.5" y1="34.9" x2="86.1" y2="34.9"/>
<line fill="none" stroke="#000000" stroke-linecap="square" x1="92.3" y1="34.1" x2="92.3" y2="24.6"/>
<line fill="none" stroke="#000000" stroke-linecap="square" x1="194.4" y1="34.5" x2="194.4" y2="24.1"/>
<line fill="none" stroke="#000000" stroke-linecap="square" x1="202.5" y1="171.2" x2="202.5" y2="183.4"/>
<line fill="none" stroke="#000000" stroke-linecap="square" x1="194.4" y1="171.2" x2="202.1" y2="171.2"/>
<g>
	<g>
		<g>
			<g>
				<text transform="matrix(0.9993 0 0 1 9.666 175.6499)" font-family="'ArialMT'" font-size="10.9998">t1</text>
			</g>
		</g>
	</g>
</g>
<g>
	<g>
		<polygon fill="#FFFFFF" points="28.6,132.5 25.7,121.7 22.8,132.5 		"/>
	</g>
	<g>
		<line fill="none" stroke="#000000" stroke-linecap="square" x1="25.8" y1="183.2" x2="25.8" y2="130.5"/>
		<polygon points="28.6,132.5 25.7,121.7 22.8,132.5 		"/>
	</g>
</g>
<g>
	<g>
		<polygon fill="#FFFFFF" points="74.4,186.6 85.2,183.7 74.4,180.7 		"/>
	</g>
	<g>
		<line fill="none" stroke="#000000" stroke-linecap="square" x1="26" y1="183.7" x2="76.4" y2="183.7"/>
		<polygon points="74.4,186.6 85.2,183.7 74.4,180.7 		"/>
	</g>
</g>
<g>
	<g>
		<g>
			<g>
				<text transform="matrix(0.9993 0 0 1 259.2256 181.1778)" font-family="'ArialMT'" font-size="10.9998">t2</text>
			</g>
		</g>
	</g>
</g>
<g>
	<g>
		<g>
			<g>
				<text transform="matrix(0.9993 0 0 1 209.0254 104.501)" font-family="'ArialMT'" font-size="10.9998">t5</text>
			</g>
		</g>
	</g>
</g>
<g>
	<g>
		<g>
			<g>
				<text transform="matrix(0.9993 0 0 1 28.8027 142.4336)" font-family="'ArialMT'" font-size="10.9998">z</text>
			</g>
		</g>
	</g>
</g>
<g>
	<g>
		<g>
			<g>
				<text transform="matrix(0.9993 0 0 1 95.6548 175.6499)" font-family="'ArialMT'" font-size="10.9998">y</text>
			</g>
		</g>
	</g>
</g>
<path d="M21.9,183c0-2.4,1.9-4.3,4.3-4.3s4.3,1.9,4.3,4.3c0,2.4-1.9,4.3-4.3,4.3S21.9,185.4,21.9,183L21.9,183z"/>
<line fill="none" stroke="#000000" stroke-linecap="square" x1="194.4" y1="35.1" x2="202.1" y2="35.1"/>
</svg>
