<?xml version="1.0" encoding="utf-8"?>
<!-- Generator: Adobe Illustrator 17.1.0, SVG Export Plug-In . SVG Version: 6.00 Build 0)  -->

<svg version="1.1" id="Layer_1" xmlns="http://www.w3.org/2000/svg" xmlns:xlink="http://www.w3.org/1999/xlink" x="0px" y="0px"
	 width="509.4px" height="253.5px" viewBox="0 0 509.4 253.5" enable-background="new 0 0 509.4 253.5" xml:space="preserve">
<line fill="none" stroke="#ED1C24" stroke-width="3" x1="23.9" y1="133.5" x2="185.2" y2="116.3"/>
<rect x="23.9" y="48.2" fill="none" stroke="#000000" width="161.3" height="161.3"/>
<line fill="none" stroke="#000000" x1="0" y1="134.5" x2="17.7" y2="134.5"/>
<line fill="none" stroke="#000000" x1="0.3" y1="209.2" x2="18" y2="209.2"/>
<line fill="none" stroke="#000000" x1="190" y1="114.5" x2="207.7" y2="114.5"/>
<line fill="none" stroke="#000000" x1="190.3" y1="209.2" x2="208" y2="209.2"/>
<g>
	<polygon stroke="#000000" points="10.5,142.9 9,137.2 7.5,142.9 	"/>
</g>
<g>
	<line fill="none" stroke="#000000" x1="9" y1="141.9" x2="9" y2="161.9"/>
	<polygon stroke="#000000" points="10.5,142.9 9,137.2 7.5,142.9 	"/>
</g>
<g>
	<polygon stroke="#000000" points="7.5,200.2 9,205.9 10.5,200.2 	"/>
</g>
<g>
	<line fill="none" stroke="#000000" x1="9" y1="201.2" x2="9" y2="179.2"/>
	<polygon stroke="#000000" points="7.5,200.2 9,205.9 10.5,200.2 	"/>
</g>
<text transform="matrix(1 0 0 1 2.9316 173.8335)" font-family="'MyriadPro-Regular'" font-size="12">Y</text>
<text transform="matrix(1 0 0 1 9.5986 176.5)" font-family="'MyriadPro-Regular'" font-size="8">1</text>
<g>
	<polygon stroke="#000000" points="200.5,123.9 199,118.2 197.5,123.9 	"/>
</g>
<g>
	<line fill="none" stroke="#000000" x1="199" y1="122.9" x2="199" y2="149.9"/>
	<polygon stroke="#000000" points="200.5,123.9 199,118.2 197.5,123.9 	"/>
</g>
<g>
	<polygon stroke="#000000" points="197.5,200.8 199,206.5 200.5,200.8 	"/>
</g>
<g>
	<line fill="none" stroke="#000000" x1="199" y1="201.9" x2="199" y2="170.9"/>
	<polygon stroke="#000000" points="197.5,200.8 199,206.5 200.5,200.8 	"/>
</g>
<text transform="matrix(1 0 0 1 192.9316 161.8335)" font-family="'MyriadPro-Regular'" font-size="12">Y</text>
<text transform="matrix(1 0 0 1 199.5986 164.5)" font-family="'MyriadPro-Regular'" font-size="8">2</text>
<text transform="matrix(1 0 0 1 196.9316 221.8335)" enable-background="new    "><tspan x="0" y="0" font-family="'MyriadPro-Regular'" font-size="12">J</tspan><tspan x="4.4" y="0" font-family="'MyriadPro-Regular'" font-size="12">(</tspan><tspan x="8.3" y="0" font-family="'MyriadPro-Regular'" font-size="12">Y  = 0)</tspan></text>
<text transform="matrix(1 0 0 1 194.4316 111.5835)" font-family="'MyriadPro-Regular'" font-size="12">JJ</text>
<text transform="matrix(1 0 0 1 5.9316 131.5835)" font-family="'MyriadPro-Regular'" font-size="12">II</text>
<path d="M182,115.6c0.3-1.6,1.8-2.6,3.4-2.3c1.6,0.3,2.6,1.8,2.3,3.4s-1.8,2.6-3.4,2.3C182.7,118.6,181.7,117.1,182,115.6L182,115.6
	z"/>
<path d="M20.8,133.3c0.3-1.6,1.8-2.6,3.4-2.3s2.6,1.8,2.3,3.4c-0.3,1.6-1.8,2.6-3.4,2.3C21.5,136.3,20.5,134.8,20.8,133.3
	L20.8,133.3z"/>
<text transform="matrix(1 0 0 1 211.5986 223.75)" font-family="'MyriadPro-Regular'" font-size="8">2</text>
<text transform="matrix(1 0 0 1 7.1816 222.3335)" enable-background="new    "><tspan x="0" y="0" font-family="'MyriadPro-Regular'" font-size="12">I</tspan><tspan x="2.9" y="0" font-family="'MyriadPro-Regular'" font-size="12">(</tspan><tspan x="6.8" y="0" font-family="'MyriadPro-Regular'" font-size="12">Y  = 0)</tspan></text>
<text transform="matrix(1 0 0 1 19.8486 224.25)" font-family="'MyriadPro-Regular'" font-size="8">1</text>
<text transform="matrix(1 0 0 1 186.1816 43.0835)" enable-background="new    "><tspan x="0" y="0" font-family="'MyriadPro-Regular'" font-size="12">K</tspan><tspan x="6.5" y="0" font-family="'MyriadPro-Regular'" font-size="12">(</tspan><tspan x="10.4" y="0" font-family="'MyriadPro-Regular'" font-size="12">Y  = 1)</tspan></text>
<text transform="matrix(1 0 0 1 202.8486 45)" font-family="'MyriadPro-Regular'" font-size="8">2</text>
<text transform="matrix(1 0 0 1 22.4316 42.5835)" enable-background="new    "><tspan x="0" y="0" font-family="'MyriadPro-Regular'" font-size="12">L</tspan><tspan x="5.7" y="0" font-family="'MyriadPro-Regular'" font-size="12">(</tspan><tspan x="9.6" y="0" font-family="'MyriadPro-Regular'" font-size="12">Y  = 0)</tspan></text>
<text transform="matrix(1 0 0 1 38.0986 44.5)" font-family="'MyriadPro-Regular'" font-size="8">1</text>
<text transform="matrix(1 0 0 1 223.1816 120.25)" font-family="'MyriadPro-Regular'" font-size="12">e=1</text>
<text transform="matrix(1 0 0 1 339.4316 224.8335)" font-family="'MyriadPro-Regular'" font-size="12">Y</text>
<text transform="matrix(1 0 0 1 346.0986 227.5)" font-family="'MyriadPro-Regular'" font-size="8">1</text>
<text transform="matrix(1 0 0 1 349.4316 34.3335)" font-family="'MyriadPro-Regular'" font-size="12">Y</text>
<text transform="matrix(1 0 0 1 356.0986 37)" font-family="'MyriadPro-Regular'" font-size="8">2</text>
<text transform="matrix(1 0 0 1 463.9316 220.8335)" enable-background="new    "><tspan x="0" y="0" font-family="'MyriadPro-Regular'" font-size="12">J</tspan><tspan x="4.4" y="0" font-family="'MyriadPro-Regular'" font-size="12">(</tspan><tspan x="8.3" y="0" font-family="'MyriadPro-Regular'" font-size="12">Y  = 1)</tspan></text>
<text transform="matrix(1 0 0 1 400.9316 57.0835)" font-family="'MyriadPro-Regular'" font-size="12">JJ</text>
<text transform="matrix(1 0 0 1 371.9316 202.5835)" font-family="'MyriadPro-Regular'" font-size="12">II</text>
<line fill="none" stroke="#ED1C24" stroke-width="3" x1="381.3" y1="205.9" x2="398.5" y2="44.7"/>
<rect x="304.3" y="44.6" fill="none" stroke="#000000" width="161.3" height="161.3"/>
<line fill="none" stroke="#000000" x1="379.3" y1="229.8" x2="379.3" y2="212.2"/>
<line fill="none" stroke="#000000" x1="304.7" y1="229.5" x2="304.7" y2="211.8"/>
<line fill="none" stroke="#000000" x1="399.3" y1="39.8" x2="399.3" y2="22.2"/>
<line fill="none" stroke="#000000" x1="304.7" y1="39.5" x2="304.7" y2="21.8"/>
<g>
	<line fill="none" stroke="#000000" x1="371.9" y1="220.8" x2="352" y2="220.8"/>
	<polygon stroke="#000000" points="370.9,219.3 376.6,220.8 370.9,222.3 	"/>
</g>
<g>
	<polygon stroke="#000000" points="313.7,222.3 308,220.8 313.7,219.3 	"/>
</g>
<g>
	<line fill="none" stroke="#000000" x1="312.6" y1="220.8" x2="334.6" y2="220.8"/>
	<polygon stroke="#000000" points="313.7,222.3 308,220.8 313.7,219.3 	"/>
</g>
<g>
	<polygon stroke="#000000" points="389.9,29.3 395.6,30.8 389.9,32.3 	"/>
</g>
<g>
	<line fill="none" stroke="#000000" x1="390.9" y1="30.8" x2="364" y2="30.8"/>
	<polygon stroke="#000000" points="389.9,29.3 395.6,30.8 389.9,32.3 	"/>
</g>
<g>
	<polygon stroke="#000000" points="313,32.3 307.3,30.8 313,29.3 	"/>
</g>
<g>
	<line fill="none" stroke="#000000" x1="311.9" y1="30.8" x2="342.9" y2="30.8"/>
	<polygon stroke="#000000" points="313,32.3 307.3,30.8 313,29.3 	"/>
</g>
<path d="M399.3,47.8c1.6-0.3,2.6-1.8,2.3-3.4c-0.3-1.6-1.8-2.6-3.4-2.3s-2.6,1.8-2.3,3.4C396.2,47.1,397.7,48.1,399.3,47.8
	L399.3,47.8z"/>
<path d="M381.6,209.1c1.6-0.3,2.6-1.8,2.3-3.4c-0.3-1.6-1.8-2.6-3.4-2.3s-2.6,1.8-2.3,3.4C378.5,208.3,380,209.4,381.6,209.1
	L381.6,209.1z"/>
<text transform="matrix(1 0 0 1 478.5986 222.75)" font-family="'MyriadPro-Regular'" font-size="8">1</text>
<text transform="matrix(1 0 0 1 304.1816 242.3335)" enable-background="new    "><tspan x="0" y="0" font-family="'MyriadPro-Regular'" font-size="12">I</tspan><tspan x="2.9" y="0" font-family="'MyriadPro-Regular'" font-size="12">(</tspan><tspan x="6.8" y="0" font-family="'MyriadPro-Regular'" font-size="12">Y  = 0)</tspan></text>
<text transform="matrix(1 0 0 1 316.8486 244.25)" font-family="'MyriadPro-Regular'" font-size="8">1</text>
<text transform="matrix(1 0 0 1 468.1816 42.5835)" enable-background="new    "><tspan x="0" y="0" font-family="'MyriadPro-Regular'" font-size="12">K</tspan><tspan x="6.5" y="0" font-family="'MyriadPro-Regular'" font-size="12">(</tspan><tspan x="10.4" y="0" font-family="'MyriadPro-Regular'" font-size="12">Y  = 1)</tspan></text>
<text transform="matrix(1 0 0 1 484.8486 44.5)" font-family="'MyriadPro-Regular'" font-size="8">2</text>
<text transform="matrix(1 0 0 1 302.9316 16.5835)" enable-background="new    "><tspan x="0" y="0" font-family="'MyriadPro-Regular'" font-size="12">L</tspan><tspan x="5.7" y="0" font-family="'MyriadPro-Regular'" font-size="12">(</tspan><tspan x="9.6" y="0" font-family="'MyriadPro-Regular'" font-size="12">Y  = 0)</tspan></text>
<text transform="matrix(1 0 0 1 318.5986 18.5)" font-family="'MyriadPro-Regular'" font-size="8">2</text>
<text transform="matrix(1 0 0 1 475.1816 123.25)" font-family="'MyriadPro-Regular'" font-size="12">e=2</text>
<line fill="none" x1="246" y1="0" x2="255.5" y2="1.5"/>
<line fill="none" x1="249" y1="252" x2="258.5" y2="253.5"/>
<path d="M182.5,47.5c0.3-1.6,1.8-2.6,3.4-2.3c1.6,0.3,2.6,1.8,2.3,3.4c-0.3,1.6-1.8,2.6-3.4,2.3C183.2,50.6,182.2,49.1,182.5,47.5
	L182.5,47.5z"/>
<path d="M182.3,208.4c0.3-1.6,1.8-2.6,3.4-2.3c1.6,0.3,2.6,1.8,2.3,3.4c-0.3,1.6-1.8,2.6-3.4,2.3C183,211.5,182,210,182.3,208.4
	L182.3,208.4z"/>
<path d="M21,208.8c0.3-1.6,1.8-2.6,3.4-2.3s2.6,1.8,2.3,3.4c-0.3,1.6-1.8,2.6-3.4,2.3C21.7,211.8,20.7,210.3,21,208.8L21,208.8z"/>
<path d="M20.8,47c0.3-1.6,1.8-2.6,3.4-2.3s2.6,1.8,2.3,3.4c-0.3,1.6-1.8,2.6-3.4,2.3C21.5,50.1,20.5,48.6,20.8,47L20.8,47z"/>
<path d="M301.5,43.9c0.3-1.6,1.8-2.6,3.4-2.3s2.6,1.8,2.3,3.4c-0.3,1.6-1.8,2.6-3.4,2.3C302.2,47,301.2,45.5,301.5,43.9L301.5,43.9z
	"/>
<path d="M462.5,43.8c0.3-1.6,1.8-2.6,3.4-2.3s2.6,1.8,2.3,3.4c-0.3,1.6-1.8,2.6-3.4,2.3C463.2,46.8,462.2,45.3,462.5,43.8
	L462.5,43.8z"/>
<path d="M301.2,205.1c0.3-1.6,1.8-2.6,3.4-2.3s2.6,1.8,2.3,3.4c-0.3,1.6-1.8,2.6-3.4,2.3S300.9,206.7,301.2,205.1L301.2,205.1z"/>
<path d="M462.5,205.1c0.3-1.6,1.8-2.6,3.4-2.3s2.6,1.8,2.3,3.4c-0.3,1.6-1.8,2.6-3.4,2.3C463.2,208.2,462.2,206.7,462.5,205.1
	L462.5,205.1z"/>
</svg>
