<?xml version="1.0" encoding="utf-8"?>
<!-- Generator: Adobe Illustrator 17.1.0, SVG Export Plug-In . SVG Version: 6.00 Build 0)  -->

<svg version="1.1" id="Layer_1" xmlns="http://www.w3.org/2000/svg" xmlns:xlink="http://www.w3.org/1999/xlink" x="0px" y="0px"
	 width="403.1px" height="254.9px" viewBox="0 1.6 403.1 254.9" enable-background="new 0 1.6 403.1 254.9" xml:space="preserve">
<polyline stroke="#343895" points="36.7,237.7 385.5,237.7 385.5,30.6 385.3,30.6 36.9,30.6 36.9,30.8 385.3,30.8 385.3,237.7 
	385.3,237.4 36.9,237.4 36.9,237.7 36.9,30.8 36.9,30.6 36.9,30.6 36.7,30.6 "/>
<polyline stroke="#2F3E99" points="384.6,58 36.7,58 36.7,58.4 36.7,58.4 "/>
<polyline stroke="#353896" points="39.8,211.3 36.8,211.3 385.7,211.3 385.7,210.8 "/>
<polyline stroke="#343895" points="349.8,30.8 349.3,30.8 349.3,30.8 349.3,237.6 "/>
<polyline stroke="#343895" points="228.1,237.6 228.1,30.8 227.9,30.8 227.9,30.8 "/>
<polyline stroke="#343895" points="197.9,237.6 198.4,235.6 198.4,30.8 197.9,30.8 197.9,30.8 "/>
<polyline stroke="#343895" points="77,30.8 76.5,30.8 76.5,30.8 76.5,237.6 "/>
<g>
	<g>
		<g>
			<g>
				<text transform="matrix(0.9984 0 0 1 34.6255 24.7808)" font-family="'ArialMT'" font-size="11">65</text>
			</g>
		</g>
	</g>
</g>
<g>
	<g>
		<g>
			<g>
				<text transform="matrix(0.9984 0 0 1 53.8169 24.7808)" font-family="'ArialMT'" font-size="11">66</text>
			</g>
		</g>
	</g>
</g>
<g>
	<g>
		<g>
			<g>
				<text transform="matrix(0.9984 0 0 1 75.1675 24.7808)" font-family="'ArialMT'" font-size="11">67</text>
			</g>
		</g>
	</g>
</g>
<g>
	<g>
		<g>
			<g>
				<text transform="matrix(0.9984 0 0 1 19.6309 47.8081)" font-family="'ArialMT'" font-size="11">54</text>
			</g>
		</g>
	</g>
</g>
<g>
	<g>
		<g>
			<g>
				<text transform="matrix(0.9984 0 0 1 19.6309 61.3027)" font-family="'ArialMT'" font-size="11">43</text>
			</g>
		</g>
	</g>
</g>
<g>
	<g>
		<g>
			<g>
				<text transform="matrix(0.9984 0 0 1 133.9414 24.7808)" font-family="'ArialMT'" font-size="11">68</text>
			</g>
		</g>
	</g>
</g>
<g>
	<g>
		<g>
			<g>
				<text transform="matrix(0.9984 0 0 1 223.3813 24.7808)" font-family="'ArialMT'" font-size="11">71</text>
			</g>
		</g>
	</g>
</g>
<g>
	<g>
		<g>
			<g>
				<text transform="matrix(0.9984 0 0 1 193.915 24.7808)" font-family="'ArialMT'" font-size="11">69</text>
			</g>
		</g>
	</g>
</g>
<g>
	<g>
		<g>
			<g>
				<text transform="matrix(0.9984 0 0 1 208.228 24.7808)" font-family="'ArialMT'" font-size="11">70</text>
			</g>
		</g>
	</g>
</g>
<g>
	<g>
		<g>
			<g>
				<text transform="matrix(0.9984 0 0 1 283.0347 24.7808)" font-family="'ArialMT'" font-size="11">72</text>
			</g>
		</g>
	</g>
</g>
<g>
	<g>
		<g>
			<g>
				<text transform="matrix(0.9984 0 0 1 342.2471 24.7808)" font-family="'ArialMT'" font-size="11">73</text>
			</g>
		</g>
	</g>
</g>
<g>
	<g>
		<g>
			<g>
				<text transform="matrix(0.9984 0 0 1 360 24.7808)" font-family="'ArialMT'" font-size="11">74</text>
			</g>
		</g>
	</g>
</g>
<g>
	<g>
		<g>
			<g>
				<text transform="matrix(0.9984 0 0 1 378.9512 24.7808)" font-family="'ArialMT'" font-size="11">75</text>
			</g>
		</g>
	</g>
</g>
<g>
	<g>
		<g>
			<g>
				<text transform="matrix(0.9984 0 0 1 390.8682 47.8081)" font-family="'ArialMT'" font-size="11">64</text>
			</g>
		</g>
	</g>
</g>
<g>
	<g>
		<g>
			<g>
				<text transform="matrix(0.9984 0 0 1 390.8682 61.3027)" font-family="'ArialMT'" font-size="11">53</text>
			</g>
		</g>
	</g>
</g>
<g>
	<g>
		<g>
			<g>
				<text transform="matrix(0.9984 0 0 1 19.6309 214.8789)" font-family="'ArialMT'" font-size="11">23</text>
			</g>
		</g>
	</g>
</g>
<g>
	<g>
		<g>
			<g>
				<text transform="matrix(0.9984 0 0 1 19.6309 228.8145)" font-family="'ArialMT'" font-size="11">12</text>
			</g>
		</g>
	</g>
</g>
<g>
	<g>
		<g>
			<g>
				<text transform="matrix(0.9984 0 0 1 33.5044 252.9199)" font-family="'ArialMT'" font-size="11">1</text>
			</g>
		</g>
	</g>
</g>
<g>
	<g>
		<g>
			<g>
				<text transform="matrix(0.9984 0 0 1 72.8872 252.9209)" font-family="'ArialMT'" font-size="11">3</text>
			</g>
		</g>
	</g>
</g>
<g>
	<g>
		<g>
			<g>
				<text transform="matrix(0.9984 0 0 1 53.4155 252.9209)" font-family="'ArialMT'" font-size="11">2</text>
			</g>
		</g>
	</g>
</g>
<g>
	<g>
		<g>
			<g>
				<text transform="matrix(0.9984 0 0 1 136.8203 252.9209)" font-family="'ArialMT'" font-size="11">4</text>
			</g>
		</g>
	</g>
</g>
<g>
	<g>
		<g>
			<g>
				<text transform="matrix(0.9984 0 0 1 195.5132 252.9209)" font-family="'ArialMT'" font-size="11">5</text>
			</g>
		</g>
	</g>
</g>
<g>
	<g>
		<g>
			<g>
				<text transform="matrix(0.9984 0 0 1 209.9067 252.9209)" font-family="'ArialMT'" font-size="11">6</text>
			</g>
		</g>
	</g>
</g>
<g>
	<g>
		<g>
			<g>
				<text transform="matrix(0.9984 0 0 1 224.98 252.9209)" font-family="'ArialMT'" font-size="11">7</text>
			</g>
		</g>
	</g>
</g>
<g>
	<g>
		<g>
			<g>
				<text transform="matrix(0.9984 0 0 1 285.1929 252.9209)" font-family="'ArialMT'" font-size="11">8</text>
			</g>
		</g>
	</g>
</g>
<g>
	<g>
		<g>
			<g>
				<text transform="matrix(0.9984 0 0 1 346.5654 252.9209)" font-family="'ArialMT'" font-size="11">9</text>
			</g>
		</g>
	</g>
</g>
<g>
	<g>
		<g>
			<g>
				<text transform="matrix(0.9984 0 0 1 362.6797 252.9209)" font-family="'ArialMT'" font-size="11">10</text>
			</g>
		</g>
	</g>
</g>
<g>
	<g>
		<g>
			<g>
				<text transform="matrix(0.9984 0 0 1 378.751 252.9209)" enable-background="new    "><tspan x="0" y="0" font-family="'ArialMT'" font-size="11">1</tspan><tspan x="5.3" y="0" font-family="'ArialMT'" font-size="11">1</tspan></text>
			</g>
		</g>
	</g>
</g>
<g>
	<g>
		<g>
			<g>
				<text transform="matrix(0.9984 0 0 1 390.8682 228.8145)" font-family="'ArialMT'" font-size="11">22</text>
			</g>
		</g>
	</g>
</g>
<g>
	<g>
		<g>
			<g>
				<text transform="matrix(0.9984 0 0 1 390.8682 214.8789)" font-family="'ArialMT'" font-size="11">33</text>
			</g>
		</g>
	</g>
</g>
<g>
	<g>
		<g>
			<g>
				<text transform="matrix(0.9984 0 0 1 19.6309 144.6328)" font-family="'ArialMT'" font-size="11">34</text>
			</g>
		</g>
	</g>
</g>
<g>
	<g>
		<g>
			<g>
				<text transform="matrix(0.9984 0 0 1 390.8682 144.6328)" font-family="'ArialMT'" font-size="11">42</text>
			</g>
		</g>
	</g>
</g>
<g>
	<g>
		<g>
			<g>
				<g>
					<text transform="matrix(0.9984 0 0 1 0 11)" enable-background="new    "><tspan x="0" y="0" font-family="'ArialMT'" font-size="11">A</tspan><tspan x="6.7" y="0" font-family="'ArialMT'" font-size="11"> </tspan></text>
				</g>
			</g>
		</g>
	</g>
	<g>
		<g>
			<g>
				<g>
					<text transform="matrix(0.9984 0 0 1 10.2007 11)" font-family="'ArialMT'" font-size="11">n</text>
				</g>
			</g>
		</g>
	</g>
	<g>
		<g>
			<g>
				<g>
					<text transform="matrix(0.9984 0 0 1 16.21 11)" font-family="'ArialMT'" font-size="11">i</text>
				</g>
			</g>
		</g>
	</g>
	<g>
		<g>
			<g>
				<g>
					<text transform="matrix(0.9984 0 0 1 18.8257 11)" font-family="'ArialMT'" font-size="11">n</text>
				</g>
			</g>
		</g>
	</g>
	<g>
		<g>
			<g>
				<g>
					<text transform="matrix(0.9984 0 0 1 24.8345 11)" font-family="'ArialMT'" font-size="11">e</text>
				</g>
			</g>
		</g>
	</g>
	<g>
		<g>
			<g>
				<g>
					<text transform="matrix(0.9984 0 0 1 30.8438 11)" font-family="'ArialMT'" font-size="11"> </text>
				</g>
			</g>
		</g>
	</g>
	<g>
		<g>
			<g>
				<g>
					<text transform="matrix(0.9984 0 0 1 33.7192 11)" font-family="'ArialMT'" font-size="11">n</text>
				</g>
			</g>
		</g>
	</g>
	<g>
		<g>
			<g>
				<g>
					<text transform="matrix(0.9984 0 0 1 39.728 11)" font-family="'ArialMT'" font-size="11">o</text>
				</g>
			</g>
		</g>
	</g>
	<g>
		<g>
			<g>
				<g>
					<text transform="matrix(0.9984 0 0 1 46.001 11)" font-family="'ArialMT'" font-size="11">d</text>
				</g>
			</g>
		</g>
	</g>
	<g>
		<g>
			<g>
				<g>
					<text transform="matrix(0.9984 0 0 1 52.0098 11)" font-family="'ArialMT'" font-size="11">e</text>
				</g>
			</g>
		</g>
	</g>
	<g>
		<g>
			<g>
				<g>
					<text transform="matrix(0.9984 0 0 1 58.019 11)" font-family="'ArialMT'" font-size="11"> </text>
				</g>
			</g>
		</g>
	</g>
	<g>
		<g>
			<g>
				<g>
					<text transform="matrix(0.9984 0 0 1 60.8945 11)" font-family="'ArialMT'" font-size="11">ce</text>
				</g>
			</g>
		</g>
	</g>
	<g>
		<g>
			<g>
				<g>
					<text transform="matrix(0.9984 0 0 1 72.3945 11)" font-family="'ArialMT'" font-size="11">l</text>
				</g>
			</g>
		</g>
	</g>
	<g>
		<g>
			<g>
				<g>
					<text transform="matrix(0.9984 0 0 1 74.7466 11)" font-family="'ArialMT'" font-size="11">l</text>
				</g>
			</g>
		</g>
	</g>
</g>
<g>
	<g>
		<polygon fill="#FFFFFF" points="109.3,43.9 116.6,52.4 114.5,41.4 		"/>
	</g>
	<g>
		<polyline fill="none" stroke="#000000" stroke-width="0.877" points="80.9,8.2 95.3,8.2 112.7,44.4 		"/>
		<polygon points="109.7,44 116.1,51.4 114.3,41.8 		"/>
	</g>
</g>
<g>
	<ellipse fill="none" stroke="#000000" cx="37" cy="30.2" rx="1.9" ry="2.1"/>
</g>
<g>
	<ellipse fill="none" stroke="#000000" cx="56.8" cy="30.2" rx="1.9" ry="2.1"/>
</g>
<g>
	<ellipse fill="none" stroke="#000000" cx="56.8" cy="44.1" rx="1.9" ry="2.1"/>
</g>
<g>
	<ellipse fill="none" stroke="#000000" cx="56.8" cy="58.2" rx="1.9" ry="2.1"/>
</g>
<g>
	<ellipse fill="none" stroke="#000000" cx="76.5" cy="30.2" rx="1.9" ry="2.1"/>
</g>
<g>
	<ellipse fill="none" stroke="#000000" cx="76.5" cy="44.1" rx="1.9" ry="2.1"/>
</g>
<g>
	<ellipse fill="none" stroke="#000000" cx="76.5" cy="58.2" rx="1.9" ry="2.1"/>
</g>
<g>
	<ellipse fill="none" stroke="#000000" cx="37" cy="44.1" rx="1.9" ry="2.1"/>
</g>
<g>
	<ellipse fill="none" stroke="#000000" cx="37" cy="58.2" rx="1.9" ry="2.1"/>
</g>
<g>
	<ellipse fill="none" stroke="#000000" cx="56.7" cy="140.7" rx="1.9" ry="2.1"/>
</g>
<g>
	<ellipse fill="none" stroke="#000000" cx="76.4" cy="140.7" rx="1.9" ry="2.1"/>
</g>
<g>
	<ellipse fill="none" stroke="#000000" cx="36.9" cy="140.7" rx="1.9" ry="2.1"/>
</g>
<g>
	<ellipse fill="none" stroke="#000000" cx="56.8" cy="211.6" rx="1.9" ry="2.1"/>
</g>
<g>
	<ellipse fill="none" stroke="#000000" cx="76.5" cy="211.6" rx="1.9" ry="2.1"/>
</g>
<g>
	<ellipse fill="none" stroke="#000000" cx="37" cy="211.6" rx="1.9" ry="2.1"/>
</g>
<g>
	<ellipse fill="none" stroke="#000000" cx="56.8" cy="224.3" rx="1.9" ry="2.1"/>
</g>
<g>
	<ellipse fill="none" stroke="#000000" cx="76.5" cy="224.3" rx="1.9" ry="2.1"/>
</g>
<g>
	<ellipse fill="none" stroke="#000000" cx="37" cy="224.3" rx="1.9" ry="2.1"/>
</g>
<g>
	<ellipse fill="none" stroke="#000000" cx="56.7" cy="238" rx="1.9" ry="2.1"/>
</g>
<g>
	<ellipse fill="none" stroke="#000000" cx="76.4" cy="238" rx="1.9" ry="2.1"/>
</g>
<g>
	<ellipse fill="none" stroke="#000000" cx="36.9" cy="238" rx="1.9" ry="2.1"/>
</g>
<g>
	<ellipse fill="none" stroke="#000000" cx="140.3" cy="211.6" rx="1.9" ry="2.1"/>
</g>
<g>
	<ellipse fill="none" stroke="#000000" cx="140.3" cy="224.3" rx="1.9" ry="2.1"/>
</g>
<g>
	<ellipse fill="none" stroke="#000000" cx="140.3" cy="238" rx="1.9" ry="2.1"/>
</g>
<g>
	<ellipse fill="none" stroke="#000000" cx="140.3" cy="30.2" rx="1.9" ry="2.1"/>
</g>
<g>
	<ellipse fill="none" stroke="#000000" cx="140.3" cy="44.1" rx="1.9" ry="2.1"/>
</g>
<g>
	<ellipse fill="none" stroke="#000000" cx="140.3" cy="58.2" rx="1.9" ry="2.1"/>
</g>
<g>
	<ellipse fill="none" stroke="#000000" cx="198.6" cy="30.2" rx="1.9" ry="2.1"/>
</g>
<g>
	<ellipse fill="none" stroke="#000000" cx="198.6" cy="44.1" rx="1.9" ry="2.1"/>
</g>
<g>
	<ellipse fill="none" stroke="#000000" cx="198.6" cy="58.2" rx="1.9" ry="2.1"/>
</g>
<g>
	<ellipse fill="none" stroke="#000000" cx="213.3" cy="30.2" rx="1.9" ry="2.1"/>
</g>
<g>
	<ellipse fill="none" stroke="#000000" cx="213.3" cy="44.1" rx="1.9" ry="2.1"/>
</g>
<g>
	<ellipse fill="none" stroke="#000000" cx="213.3" cy="58.2" rx="1.9" ry="2.1"/>
</g>
<g>
	<ellipse fill="none" stroke="#000000" cx="228" cy="30.2" rx="1.9" ry="2.1"/>
</g>
<g>
	<ellipse fill="none" stroke="#000000" cx="228" cy="44.1" rx="1.9" ry="2.1"/>
</g>
<g>
	<ellipse fill="none" stroke="#000000" cx="228" cy="58.2" rx="1.9" ry="2.1"/>
</g>
<g>
	<ellipse fill="none" stroke="#000000" cx="198.6" cy="140.7" rx="1.9" ry="2.1"/>
</g>
<g>
	<ellipse fill="none" stroke="#000000" cx="213.2" cy="140.7" rx="1.9" ry="2.1"/>
</g>
<g>
	<ellipse fill="none" stroke="#000000" cx="227.9" cy="140.7" rx="1.9" ry="2.1"/>
</g>
<g>
	<ellipse fill="none" stroke="#000000" cx="288.3" cy="30.2" rx="1.9" ry="2.1"/>
</g>
<g>
	<ellipse fill="none" stroke="#000000" cx="288.3" cy="44.1" rx="1.9" ry="2.1"/>
</g>
<g>
	<ellipse fill="none" stroke="#000000" cx="288.3" cy="58.2" rx="1.9" ry="2.1"/>
</g>
<g>
	<ellipse fill="none" stroke="#000000" cx="349.6" cy="30.2" rx="1.9" ry="2.1"/>
</g>
<g>
	<ellipse fill="none" stroke="#000000" cx="349.6" cy="44.1" rx="1.9" ry="2.1"/>
</g>
<g>
	<ellipse fill="none" stroke="#000000" cx="349.6" cy="58.2" rx="1.9" ry="2.1"/>
</g>
<g>
	<ellipse fill="none" stroke="#000000" cx="368.3" cy="30.2" rx="1.9" ry="2.1"/>
</g>
<g>
	<ellipse fill="none" stroke="#000000" cx="368.3" cy="44.1" rx="1.9" ry="2.1"/>
</g>
<g>
	<ellipse fill="none" stroke="#000000" cx="368.3" cy="58.2" rx="1.9" ry="2.1"/>
</g>
<g>
	<ellipse fill="none" stroke="#000000" cx="385.8" cy="30.2" rx="1.9" ry="2.1"/>
</g>
<g>
	<ellipse fill="none" stroke="#000000" cx="385.8" cy="44.1" rx="1.9" ry="2.1"/>
</g>
<g>
	<ellipse fill="none" stroke="#000000" cx="385.8" cy="58.2" rx="1.9" ry="2.1"/>
</g>
<g>
	<ellipse fill="none" stroke="#000000" cx="349.6" cy="140.7" rx="1.9" ry="2.1"/>
</g>
<g>
	<ellipse fill="none" stroke="#000000" cx="368.3" cy="140.7" rx="1.9" ry="2.1"/>
</g>
<g>
	<ellipse fill="none" stroke="#000000" cx="385.8" cy="140.7" rx="1.9" ry="2.1"/>
</g>
<g>
	<ellipse fill="none" stroke="#000000" cx="349.6" cy="211.6" rx="1.9" ry="2.1"/>
</g>
<g>
	<ellipse fill="none" stroke="#000000" cx="368.3" cy="211.6" rx="1.9" ry="2.1"/>
</g>
<g>
	<ellipse fill="none" stroke="#000000" cx="385.8" cy="211.6" rx="1.9" ry="2.1"/>
</g>
<g>
	<ellipse fill="none" stroke="#000000" cx="349.6" cy="224.3" rx="1.9" ry="2.1"/>
</g>
<g>
	<ellipse fill="none" stroke="#000000" cx="368.3" cy="224.3" rx="1.9" ry="2.1"/>
</g>
<g>
	<ellipse fill="none" stroke="#000000" cx="385.8" cy="224.3" rx="1.9" ry="2.1"/>
</g>
<g>
	<ellipse fill="none" stroke="#000000" cx="349.6" cy="238" rx="1.9" ry="2.1"/>
</g>
<g>
	<ellipse fill="none" stroke="#000000" cx="368.3" cy="238" rx="1.9" ry="2.1"/>
</g>
<g>
	<ellipse fill="none" stroke="#000000" cx="385.8" cy="238" rx="1.9" ry="2.1"/>
</g>
<g>
	<ellipse fill="none" stroke="#000000" cx="288.3" cy="211.6" rx="1.9" ry="2.1"/>
</g>
<g>
	<ellipse fill="none" stroke="#000000" cx="288.3" cy="224.3" rx="1.9" ry="2.1"/>
</g>
<g>
	<ellipse fill="none" stroke="#000000" cx="288.3" cy="238" rx="1.9" ry="2.1"/>
</g>
<g>
	<ellipse fill="none" stroke="#000000" cx="228" cy="211.6" rx="1.9" ry="2.1"/>
</g>
<g>
	<ellipse fill="none" stroke="#000000" cx="228" cy="224.3" rx="1.9" ry="2.1"/>
</g>
<g>
	<ellipse fill="none" stroke="#000000" cx="228" cy="238" rx="1.9" ry="2.1"/>
</g>
<g>
	<ellipse fill="none" stroke="#000000" cx="198.6" cy="211.6" rx="1.9" ry="2.1"/>
</g>
<g>
	<ellipse fill="none" stroke="#000000" cx="198.6" cy="224.3" rx="1.9" ry="2.1"/>
</g>
<g>
	<ellipse fill="none" stroke="#000000" cx="198.6" cy="238" rx="1.9" ry="2.1"/>
</g>
<g>
	<ellipse fill="none" stroke="#000000" cx="213.3" cy="211.6" rx="1.9" ry="2.1"/>
</g>
<g>
	<ellipse fill="none" stroke="#000000" cx="213.3" cy="224.3" rx="1.9" ry="2.1"/>
</g>
<g>
	<ellipse fill="none" stroke="#000000" cx="213.3" cy="238" rx="1.9" ry="2.1"/>
</g>
<path fill="none" stroke="#000000" stroke-width="0.9453" d="M109.3,146.3"/>
<g>
	<g>
		<g>
			<polygon fill="#FFFFFF" points="216.8,125.4 210.7,119.6 213.1,127.6 			"/>
		</g>
	</g>
	<g>
		<g>
			<path fill="none" stroke="#000000" stroke-width="1.0759" d="M214.2,125.2c8.1,13.2,7.1,24.9-2.3,26.2"/>
			<polygon points="217,125.4 210.4,119.2 213,127.8 			"/>
		</g>
	</g>
</g>
<path fill="none" stroke="#000000" d="M112.4,184.2"/>
<path fill="none" stroke="#000000" d="M160.9,160.7"/>
</svg>
