<?xml version="1.0" encoding="utf-8"?>
<!-- Generator: Adobe Illustrator 17.1.0, SVG Export Plug-In . SVG Version: 6.00 Build 0)  -->

<svg version="1.1" id="Layer_1" xmlns="http://www.w3.org/2000/svg" xmlns:xlink="http://www.w3.org/1999/xlink" x="0px" y="0px"
	 width="287px" height="193.4px" viewBox="0 0 287 193.4" enable-background="new 0 0 287 193.4" xml:space="preserve">
<line fill="none" stroke="#000000" stroke-width="0.9971" stroke-dasharray="5.76,5.76" x1="96.9" y1="81.7" x2="219.5" y2="103.2"/>
<line fill="none" stroke="#000000" stroke-width="0.9971" stroke-dasharray="5.76,5.76" x1="9.6" y1="169.5" x2="95.6" y2="81.5"/>
<line fill="none" stroke="#000000" stroke-width="0.9971" stroke-dasharray="5.76,5.76" x1="10.1" y1="134.6" x2="96.1" y2="46.6"/>
<line fill="none" stroke="#000000" stroke-width="0.9971" stroke-miterlimit="10" stroke-dasharray="5.76,5.76" x1="219.5" y1="103.2" x2="219.5" y2="64.8"/>
<polyline fill="none" stroke="#000000" stroke-width="0.9971" stroke-miterlimit="10" stroke-dasharray="5.76,5.76" points="
	9.6,169.5 133,192.8 219.5,103.2 "/>
<line fill="none" stroke="#000000" x1="99.5" y1="180.1" x2="130.8" y2="186.3"/>
<line fill="none" stroke="#000000" x1="9.5" y1="162" x2="30.8" y2="166.2"/>
<line fill="none" stroke="#000000" x1="145.3" y1="173.4" x2="133.8" y2="185.4"/>
<line fill="none" stroke="#000000" x1="219.1" y1="96.7" x2="200.5" y2="116.1"/>
<line fill="none" stroke="#000000" x1="83.6" y1="167.1" x2="130.8" y2="176.4"/>
<line fill="none" stroke="#000000" x1="26.9" y1="154.5" x2="58.9" y2="160.9"/>
<line fill="none" stroke="#000000" x1="219.1" y1="85.8" x2="203.4" y2="102.2"/>
<polygon fill="#B3B3B3" stroke="#000000" stroke-width="1.44" points="132.8,145 219.3,53.9 219.8,41.8 132.8,132.9 "/>
<polygon fill="#B3B3B3" stroke="#000000" stroke-width="1.44" points="132.8,132.7 9.5,108.4 9.5,120.5 132.8,144.8 "/>
<line fill="none" stroke="#000000" x1="9.5" y1="135.1" x2="132.8" y2="159.5"/>
<line fill="none" stroke="#000000" x1="219.1" y1="69.8" x2="133.8" y2="158.5"/>
<g>
	<line fill="none" stroke="#000000" x1="131.3" y1="132.9" x2="123.2" y2="142.1"/>
	<line fill="none" stroke="#000000" x1="104.4" y1="127.7" x2="96.3" y2="136.9"/>
	<line fill="none" stroke="#000000" x1="111.2" y1="129" x2="103" y2="138.2"/>
	<line fill="none" stroke="#000000" x1="117.9" y1="130.3" x2="109.7" y2="139.5"/>
	<line fill="none" stroke="#000000" x1="124.6" y1="131.6" x2="116.5" y2="140.8"/>
	<line fill="none" stroke="#000000" x1="91" y1="125.1" x2="82.9" y2="134.3"/>
	<line fill="none" stroke="#000000" x1="97.7" y1="126.4" x2="89.6" y2="135.6"/>
	<line fill="none" stroke="#000000" x1="77.6" y1="122.5" x2="69.4" y2="131.7"/>
	<line fill="none" stroke="#000000" x1="84.3" y1="123.8" x2="76.2" y2="133"/>
	<line fill="none" stroke="#000000" x1="50.7" y1="117.3" x2="42.6" y2="126.6"/>
	<line fill="none" stroke="#000000" x1="57.4" y1="118.6" x2="49.3" y2="127.9"/>
	<line fill="none" stroke="#000000" x1="64.1" y1="119.9" x2="56" y2="129.2"/>
	<line fill="none" stroke="#000000" x1="70.9" y1="121.2" x2="62.7" y2="130.4"/>
	<line fill="none" stroke="#000000" x1="37.3" y1="114.7" x2="29.2" y2="124"/>
	<line fill="none" stroke="#000000" x1="44" y1="116" x2="35.9" y2="125.3"/>
	<line fill="none" stroke="#000000" x1="31.7" y1="112.8" x2="22.5" y2="123.3"/>
	<line fill="none" stroke="#000000" x1="18.2" y1="110.2" x2="10.1" y2="119.5"/>
	<line fill="none" stroke="#000000" x1="24.9" y1="111.5" x2="15.8" y2="122"/>
</g>
<line fill="none" stroke="#C9252C" stroke-width="1.44" x1="9.5" y1="114.4" x2="132.8" y2="138.7"/>
<g>
	<line fill="none" stroke="#000000" x1="138.3" y1="139.4" x2="140.7" y2="126"/>
	<line fill="none" stroke="#000000" x1="158.8" y1="117.8" x2="161.1" y2="104.3"/>
	<line fill="none" stroke="#000000" x1="153.7" y1="123.2" x2="156" y2="109.7"/>
	<line fill="none" stroke="#000000" x1="148.6" y1="128.6" x2="150.9" y2="115.1"/>
	<line fill="none" stroke="#000000" x1="143.4" y1="134" x2="145.8" y2="120.6"/>
	<line fill="none" stroke="#000000" x1="169" y1="106.9" x2="171.3" y2="93.5"/>
	<line fill="none" stroke="#000000" x1="163.9" y1="112.3" x2="166.2" y2="98.9"/>
	<line fill="none" stroke="#000000" x1="179.2" y1="96.1" x2="181.6" y2="82.6"/>
	<line fill="none" stroke="#000000" x1="174.1" y1="101.5" x2="176.5" y2="88"/>
	<line fill="none" stroke="#000000" x1="199.7" y1="74.4" x2="202" y2="61"/>
	<line fill="none" stroke="#000000" x1="194.6" y1="79.8" x2="196.9" y2="66.4"/>
	<line fill="none" stroke="#000000" x1="189.5" y1="85.2" x2="191.8" y2="71.8"/>
	<line fill="none" stroke="#000000" x1="184.4" y1="90.7" x2="186.7" y2="77.2"/>
	<line fill="none" stroke="#000000" x1="209.9" y1="63.6" x2="212.3" y2="50.1"/>
	<line fill="none" stroke="#000000" x1="204.8" y1="69" x2="207.1" y2="55.5"/>
	<line fill="none" stroke="#000000" x1="215.7" y1="59.6" x2="216.9" y2="44.4"/>
</g>
<line fill="none" stroke="#C9252C" stroke-width="1.44" x1="219.1" y1="49.1" x2="133.8" y2="137.8"/>
<line fill="none" stroke="#000000" stroke-width="0.9971" stroke-dasharray="5.76,5.76" x1="95.6" y1="81.5" x2="95.6" y2="0.7"/>
<line fill="none" stroke="#000000" stroke-width="0.9971" stroke-dasharray="5.76,5.76" x1="219.1" y1="39.5" x2="219.1" y2="23.9"/>
<line fill="none" stroke="#000000" stroke-width="0.9971" stroke-dasharray="5.76,5.76" x1="11.4" y1="111.2" x2="95.2" y2="27.4"/>
<line fill="none" stroke="#000000" stroke-width="0.9971" stroke-dasharray="5.76,5.76" x1="218.9" y1="67.9" x2="96.1" y2="46.6"/>
<path fill="none" stroke="#000000" stroke-width="0.9971" stroke-dasharray="5.76,5.76" d="M96.4,21.2"/>
<line fill="none" stroke="#000000" stroke-width="0.9971" stroke-dasharray="5.76,5.76" x1="219.4" y1="48.1" x2="96.4" y2="27.5"/>
<g>
	<g>
		<g>
			<g>
				<text transform="matrix(0.8269 0 0 1 1.5269 138.0663)" font-family="'ArialMT'" font-size="10.9999">I</text>
			</g>
		</g>
	</g>
</g>
<g>
	<g>
		<g>
			<g>
				<text transform="matrix(0.8269 0 0 1 0 117.2212)" font-family="'ArialMT'" font-size="10.9999">II</text>
			</g>
		</g>
	</g>
</g>
<g>
	<g>
		<g>
			<g>
				<text transform="matrix(0.8269 0 0 1 125.7729 155.6474)" font-family="'ArialMT'" font-size="10.9999">J</text>
			</g>
		</g>
	</g>
</g>
<g>
	<g>
		<g>
			<g>
				<text transform="matrix(0.8269 0 0 1 224.2251 74.3692)" font-family="'ArialMT'" font-size="10.9999">K</text>
			</g>
		</g>
	</g>
</g>
<g>
	<g>
		<g>
			<g>
				<text transform="matrix(0.8269 0 0 1 224.5581 52.5614)" font-family="'ArialMT'" font-size="10.9999">KK</text>
			</g>
		</g>
	</g>
</g>
<g>
	<g>
		<g>
			<g>
				<text transform="matrix(0.8269 0 0 1 100.7246 44.0694)" font-family="'ArialMT'" font-size="10.9999">L</text>
			</g>
		</g>
	</g>
</g>
<g>
	<g>
		<g>
			<g>
				<text transform="matrix(0.8269 0 0 1 100.0576 24.8721)" enable-background="new    "><tspan x="0" y="0" font-family="'ArialMT'" font-size="10.9999">L</tspan><tspan x="6.1" y="0" font-family="'ArialMT'" font-size="10.9999">L</tspan></text>
			</g>
		</g>
	</g>
</g>
<g>
	<line fill="none" stroke="#A6A6A6" stroke-width="2.16" x1="79.6" y1="67" x2="128.6" y2="55.7"/>
	<line fill="none" stroke="#A6A6A6" stroke-width="2" x1="59" y1="103.7" x2="173" y2="75.9"/>
	<line fill="none" stroke="#A6A6A6" stroke-width="2.16" x1="62.6" y1="83.6" x2="158" y2="60.2"/>
	<line fill="none" stroke="#A6A6A6" stroke-width="2.16" x1="53.2" y1="95.6" x2="168.6" y2="66.5"/>
</g>
<path d="M129.7,136.9c0.3-1.6,1.8-2.6,3.4-2.3c1.6,0.3,2.6,1.8,2.3,3.4c-0.3,1.6-1.8,2.6-3.4,2.3C130.4,140,129.4,138.5,129.7,136.9
	L129.7,136.9z"/>
<path d="M129.7,157.9c0.3-1.6,1.8-2.6,3.4-2.3c1.6,0.3,2.6,1.8,2.3,3.4c-0.3,1.6-1.8,2.6-3.4,2.3C130.4,161,129.4,159.5,129.7,157.9
	L129.7,157.9z"/>
<g>
	<g>
		<g>
			<g>
				<text transform="matrix(0.8269 0 0 1 121.2251 128.4023)" font-family="'ArialMT'" font-size="10.9999">JJ</text>
			</g>
		</g>
	</g>
</g>
<path d="M216.7,47.9c0.3-1.6,1.8-2.6,3.4-2.3c1.6,0.3,2.6,1.8,2.3,3.4c-0.3,1.6-1.8,2.6-3.4,2.3C217.4,51,216.4,49.5,216.7,47.9
	L216.7,47.9z"/>
<path d="M215.7,67.9c0.3-1.6,1.8-2.6,3.4-2.3c1.6,0.3,2.6,1.8,2.3,3.4s-1.8,2.6-3.4,2.3C216.4,71,215.4,69.5,215.7,67.9L215.7,67.9z
	"/>
<path d="M92.7,46.9c0.3-1.6,1.8-2.6,3.4-2.3s2.6,1.8,2.3,3.4c-0.3,1.6-1.8,2.6-3.4,2.3C93.4,50,92.4,48.5,92.7,46.9L92.7,46.9z"/>
<path d="M92.4,27.6c0.3-1.6,1.8-2.6,3.4-2.3c1.6,0.3,2.6,1.8,2.3,3.4c-0.3,1.6-1.8,2.6-3.4,2.3C93.1,30.7,92.1,29.2,92.4,27.6
	L92.4,27.6z"/>
<path d="M6.7,133.9c0.3-1.6,1.8-2.6,3.4-2.3s2.6,1.8,2.3,3.4c-0.3,1.6-1.8,2.6-3.4,2.3C7.4,137,6.4,135.5,6.7,133.9L6.7,133.9z"/>
<path d="M6.7,112.9c0.3-1.6,1.8-2.6,3.4-2.3c1.6,0.3,2.6,1.8,2.3,3.4s-1.8,2.6-3.4,2.3C7.4,116,6.4,114.5,6.7,112.9L6.7,112.9z"/>
<line fill="none" stroke="#000000" stroke-width="0.9971" stroke-dasharray="5.76,5.76" x1="219.4" y1="21.9" x2="96.6" y2="0.6"/>
<line fill="none" stroke="#000000" stroke-width="0.9971" stroke-dasharray="5.76,5.76" x1="219.4" y1="21.9" x2="96.6" y2="0.6"/>
<line fill="none" stroke="#000000" stroke-width="0.9971" stroke-dasharray="5.76,5.76" x1="8.6" y1="88.3" x2="94.6" y2="0.3"/>
<line fill="none" stroke="#000000" stroke-width="0.9971" stroke-dasharray="5.76,5.76" x1="132.4" y1="111.4" x2="9.6" y2="90.1"/>
<line fill="none" stroke="#000000" stroke-width="0.9971" stroke-dasharray="5.76,5.76" x1="133.1" y1="111.3" x2="219.1" y2="23.3"/>
<line fill="none" stroke="#000000" stroke-width="0.9971" stroke-dasharray="5.76,5.76" x1="8.6" y1="168.4" x2="8.6" y2="137.2"/>
<polyline fill="#FFFFFF" stroke="#000000" stroke-width="0.9971" stroke-miterlimit="10" points="9.3,120.4 9.3,131.8 9.3,121.5 
	8.8,121.5 "/>
<polyline fill="#FFFFFF" stroke="#000000" stroke-width="0.9971" stroke-miterlimit="10" points="219.8,52.9 219.8,65.8 219.8,54.2 
	219.3,54.1 "/>
<line fill="none" stroke="#000000" stroke-width="0.9971" stroke-dasharray="5.76,5.76" x1="8.1" y1="105.5" x2="8.1" y2="89.9"/>
<polyline fill="#FFFFFF" stroke="#000000" stroke-width="0.9971" stroke-miterlimit="10" points="132.3,146.4 132.3,159.3 
	132.3,147.7 131.8,147.6 "/>
<line fill="none" stroke="#000000" stroke-width="0.9971" stroke-dasharray="5.76,5.76" x1="132.1" y1="190.4" x2="132.1" y2="159.2"/>
<line fill="none" stroke="#000000" stroke-width="0.9971" stroke-dasharray="5.76,5.76" x1="132.1" y1="128.5" x2="132.1" y2="112.9"/>
<g>
	<g>
		<g>
			<g>
				<g>
					<text transform="matrix(1 0 0 1 225.8921 86.403)" font-family="'ArialMT'" font-size="11">Base layer n</text>
				</g>
			</g>
		</g>
	</g>
	<g>
		<line fill="none" stroke="#000000" x1="205.1" y1="78.7" x2="224.9" y2="82"/>
		<path d="M202.7,79.4c1.5,0.8,2.4,1.4,3.5,2.1l0.7-5c-0.5,0.1-2.4,0.6-4,0.8c-1.7,0.3-3.3,0.4-4.2,0.3
			C199.7,77.9,201.2,78.6,202.7,79.4z"/>
	</g>
</g>
<g>
	<g>
		<g>
			<g>
				<g>
					<text transform="matrix(1 0 0 1 200.8901 135.7385)" font-family="'ArialMT'" font-size="11">Reinforcement</text>
				</g>
			</g>
		</g>
	</g>
	<g>
		<line fill="none" stroke="#000000" x1="160.9" y1="117.7" x2="198.9" y2="131.7"/>
		<path d="M158.3,117.8c1.4,1,2.2,1.8,3.3,2.8l1.8-4.7c-0.5,0-2.6,0.1-4.3,0c-1.8-0.1-3.5-0.3-4.5-0.6
			C155.5,115.8,156.9,116.7,158.3,117.8z"/>
	</g>
</g>
</svg>
