<?xml version="1.0" encoding="utf-8"?>
<!-- Generator: Adobe Illustrator 17.1.0, SVG Export Plug-In . SVG Version: 6.00 Build 0)  -->

<svg version="1.1" id="Layer_1" xmlns="http://www.w3.org/2000/svg" xmlns:xlink="http://www.w3.org/1999/xlink" x="0px" y="0px"
	 width="176.8px" height="169.5px" viewBox="0 0 176.8 169.5" enable-background="new 0 0 176.8 169.5" xml:space="preserve">
<rect x="110.5" y="111" fill="none" stroke="#000000" stroke-dasharray="5.76,5.76" width="32" height="58"/>
<polyline fill="none" stroke="#000000" stroke-dasharray="5.76,5.76" points="110.5,111 34,34.5 20.5,21 0.5,0.5 "/>
<polyline fill="none" stroke="#000000" points="142.5,110 66,33.5 32.5,0.5 "/>
<line fill="none" stroke="#000000" stroke-dasharray="5.76,5.76" x1="110.5" y1="169" x2="0.5" y2="58.5"/>
<line fill="none" stroke="#000000" stroke-dasharray="5.76,5.76" x1="142.5" y1="169" x2="32.5" y2="58.5"/>
<rect x="0.5" y="0.5" fill="none" stroke="#000000" stroke-dasharray="5.76,5.76" width="32" height="58"/>
<g>
	<path fill="none" stroke="#000000" stroke-width="0.9751" stroke-linecap="square" d="M46.1,159.2"/>
	<polyline fill="#ED1C24" stroke="#ED1C24" stroke-width="0.9751" stroke-linecap="square" points="128.6,140.2 19.2,32.6 
		15.4,37.7 124.4,145.5 128.6,140.2 	"/>
</g>
<path stroke="#000000" stroke-width="0.9745" d="M18.5,32.3c1.5,0,2.3,1.5,1.8,3.3s-2.1,3.2-3.6,3.2s-2.3-1.5-1.8-3.3
	C15.5,33.7,17.1,32.3,18.5,32.3z"/>
<path stroke="#000000" stroke-width="0.9741" d="M127.5,139.9c1.5,0,2.3,1.5,1.8,3.3s-2.1,3.2-3.6,3.2s-2.3-1.5-1.8-3.3
	C124.4,141.3,126,139.9,127.5,139.9z"/>
<g>
	<g>
		<g>
			<g>
				<text transform="matrix(1 0 0 1 152 81)" font-family="'ArialMT'" font-size="11">e = 1</text>
			</g>
		</g>
	</g>
</g>
<g>
	<g>
		<g>
			<g>
				<text transform="matrix(1 0 0 1 5 50)" fill="#ED1C24" font-family="'ArialMT'" font-size="11">II</text>
			</g>
		</g>
	</g>
</g>
<g>
	<g>
		<g>
			<g>
				<text transform="matrix(1 0 0 1 130.5 153)" fill="#ED1C24" font-family="'ArialMT'" font-size="11">JJ</text>
			</g>
		</g>
	</g>
</g>
<g>
	<g>
		<g>
			<g>
				<text transform="matrix(1 0 0 1 3.9619 26.0381)" font-family="'ArialMT'" font-size="11">I</text>
			</g>
		</g>
	</g>
</g>
<g>
	<g>
		<g>
			<g>
				<text transform="matrix(1 0 0 1 135 130.5)" font-family="'ArialMT'" font-size="11">J</text>
			</g>
		</g>
	</g>
</g>
</svg>
