<?xml version="1.0" encoding="utf-8"?>
<!-- Generator: Adobe Illustrator 17.1.0, SVG Export Plug-In . SVG Version: 6.00 Build 0)  -->

<svg version="1.1" id="Layer_1" xmlns="http://www.w3.org/2000/svg" xmlns:xlink="http://www.w3.org/1999/xlink" x="0px" y="0px"
	 width="143.3px" height="137.8px" viewBox="0 0 143.3 137.8" enable-background="new 0 0 143.3 137.8" xml:space="preserve">
<g>
	<g>
		<polygon fill="#FFFFFF" points="132.4,87 143.3,84.1 132.4,81.2 		"/>
	</g>
	<g>
		<line fill="none" stroke="#666666" stroke-linecap="square" x1="58.2" y1="84.2" x2="134.4" y2="84.2"/>
		<polygon fill="#666666" points="132.4,87 143.3,84.1 132.4,81.2 		"/>
	</g>
</g>
<g>
	<g>
		<polygon fill="#FFFFFF" points="60.1,10.8 57.2,0 54.3,10.8 		"/>
	</g>
	<g>
		<line fill="none" stroke="#666666" stroke-linecap="square" x1="57.3" y1="8.9" x2="57.3" y2="83.9"/>
		<polygon fill="#666666" points="60.1,10.8 57.2,0 54.3,10.8 		"/>
	</g>
</g>
<path fill="#00BDF2" stroke="#000000" stroke-linecap="square" d="M0.5,82c0-30.7,24.6-55.3,55.3-55.3S111,51.3,111,82
	s-24.6,55.3-55.3,55.3C25.1,137.3,0.5,112.8,0.5,82L0.5,82z"/>
<g>
	<g>
		<g>
			<g>
				<text transform="matrix(0.9992 0 0 1 82.5522 30.4321)" font-family="'ArialMT'" font-size="10.9995">R</text>
			</g>
		</g>
	</g>
</g>
<g>
	<g>
		<g>
			<g>
				<text transform="matrix(0.9992 0 0 1 122.9478 96.2378)" font-family="'ArialMT'" font-size="10.9995">y</text>
			</g>
		</g>
	</g>
</g>
<g>
	<g>
		<g>
			<g>
				<text transform="matrix(0.9992 0 0 1 62.3682 20.0923)" font-family="'ArialMT'" font-size="10.9995">z</text>
			</g>
		</g>
	</g>
</g>
<line fill="none" x1="57.3" y1="137.3" x2="57.3" y2="27.3"/>
<g>
	<g>
		<polygon fill="#FFFFFF" points="80.7,45.3 83.1,34.4 75.5,42.7 		"/>
	</g>
	<g>
		<line fill="none" stroke="#666666" stroke-linecap="square" x1="57.3" y1="84.5" x2="79" y2="42.3"/>
		<polygon fill="#666666" points="80.7,45.3 83.1,34.4 75.5,42.7 		"/>
	</g>
</g>
<path fill="none" stroke="#666666" stroke-linecap="square" d="M17,83.2c0-21.4,17.1-38.5,38.5-38.5C76.9,44.7,94,61.8,94,83.2
	s-17.1,38.5-38.5,38.5C34.2,121.7,17,104.6,17,83.2L17,83.2z"/>
<line fill="none" stroke="#000000" stroke-width="2" x1="94.3" y1="121.7" x2="17.3" y2="42.7"/>
<path stroke="#000000" d="M60.2,84.3c-0.4,1.7-2.1,2.8-3.8,2.4s-1.8-2.1-1.4-3.8c0.4-1.7,1.1-2.8,2.8-2.4S60.6,82.6,60.2,84.3z"/>
<line fill="none" stroke="#000000" stroke-width="2" x1="17.4" y1="122" x2="97.8" y2="45.9"/>
<line fill="none" stroke="#000000" stroke-width="2" x1="111" y1="84.2" x2="0.5" y2="84.2"/>
<polyline fill="none" stroke="#000000" stroke-width="2.0068" points="57.5,137 57.3,46.1 57.3,26.3 "/>
</svg>
