<?xml version="1.0" encoding="utf-8"?>
<!-- Generator: Adobe Illustrator 17.1.0, SVG Export Plug-In . SVG Version: 6.00 Build 0)  -->

<svg version="1.1" id="Layer_1" xmlns="http://www.w3.org/2000/svg" xmlns:xlink="http://www.w3.org/1999/xlink" x="0px" y="0px"
	 width="420.4px" height="408px" viewBox="0 1.6 420.4 408" enable-background="new 0 1.6 420.4 408" xml:space="preserve">
<rect x="351.5" y="331.2" fill="none" stroke="#000000" width="32" height="58"/>
<polygon fill="none" stroke="#000000" stroke-width="0.9707" points="258.6,297.2 221,302.2 221,222.6 258.6,217.6 "/>
<rect x="10" y="47.7" fill="none" stroke="#000000" width="64" height="116"/>
<line fill="none" stroke="#000000" stroke-dasharray="5.76,5.76" x1="138.3" y1="247.9" x2="10" y2="163.7"/>
<line fill="none" stroke="#000000" x1="221.6" y1="303.2" x2="142.3" y2="250.9"/>
<line fill="none" stroke="#000000" stroke-dasharray="5.76,5.76" x1="350.5" y1="388.2" x2="223.6" y2="305.2"/>
<line fill="none" stroke="#000000" stroke-dasharray="5.76,5.76" x1="383.5" y1="389.2" x2="75.5" y2="163.4"/>
<line fill="none" stroke="#000000" stroke-dasharray="5.76,5.76" x1="140.2" y1="155.7" x2="11.1" y2="48.9"/>
<line fill="none" stroke="#000000" x1="220.8" y1="222.9" x2="142.2" y2="157.7"/>
<line fill="none" stroke="#000000" stroke-dasharray="5.76,5.76" x1="352.5" y1="332.2" x2="220.8" y2="222.9"/>
<line fill="none" stroke="#000000" stroke-dasharray="5.76,5.76" x1="180.3" y1="145.4" x2="72.8" y2="47.5"/>
<line fill="none" stroke="#000000" x1="258.9" y1="217.4" x2="182.3" y2="147.4"/>
<line fill="none" stroke="#000000" stroke-dasharray="5.76,5.76" x1="382.5" y1="330.2" x2="260.9" y2="219.4"/>
<polygon fill="none" stroke="#000000" stroke-width="1.0688" points="181.8,241.8 142.2,249.6 142.2,157.1 182.3,147.4 "/>
<g>
	<g>
		<g>
			<polygon fill="#FFFFFF" points="44.2,36.5 42,28.4 39.8,36.5 			"/>
		</g>
		<g>
			<line fill="none" stroke="#000000" x1="42" y1="35" x2="42" y2="163"/>
			<polygon points="44.2,36.5 42,28.4 39.8,36.5 			"/>
		</g>
	</g>
	<g>
		<g>
			<polygon fill="#FFFFFF" points="83.5,107.8 91.6,105.6 83.5,103.5 			"/>
		</g>
		<g>
			<line fill="none" stroke="#000000" x1="10" y1="105.7" x2="85" y2="105.7"/>
			<polygon points="83.5,107.8 91.6,105.6 83.5,103.5 			"/>
		</g>
	</g>
</g>
<g>
	<g>
		<g>
			<polygon fill="#FFFFFF" points="369.7,314 367.5,305.9 365.3,314 			"/>
		</g>
		<g>
			<line fill="none" stroke="#000000" x1="367.5" y1="312.5" x2="367.5" y2="389.5"/>
			<polygon points="369.7,314 367.5,305.9 365.3,314 			"/>
		</g>
	</g>
	<g>
		<g>
			<polygon fill="#FFFFFF" points="397,362.3 405.1,360.1 397,358 			"/>
		</g>
		<g>
			<line fill="none" stroke="#000000" x1="351.5" y1="360.2" x2="398.5" y2="360.2"/>
			<polygon points="397,362.3 405.1,360.1 397,358 			"/>
		</g>
	</g>
</g>
<g>
	<g>
		<g>
			<g>
				<text transform="matrix(1 0 0 1 250.8599 230.289)" fill="#ED1C24" font-family="'ArialMT'" font-size="11">II</text>
			</g>
		</g>
	</g>
</g>
<g>
	<g>
		<g>
			<g>
				<text transform="matrix(1 0 0 1 169.5078 160.1328)" fill="#ED1C24" font-family="'ArialMT'" font-size="11">JJ</text>
			</g>
		</g>
	</g>
</g>
<line fill="none" stroke="#ED1C24" stroke-width="2" x1="162.4" y1="198.7" x2="239.8" y2="259.9"/>
<path fill="#ED1C24" stroke="#ED1C24" d="M236.9,260.4c0-1.6,1.3-2.9,2.9-2.9c1.6,0,2.9,1.3,2.9,2.9s-1.3,2.9-2.9,2.9
	S236.9,262,236.9,260.4L236.9,260.4z"/>
<path fill="#ED1C24" stroke="#ED1C24" d="M159.3,198.5c0-1.6,1.3-2.9,2.9-2.9c1.6,0,2.9,1.3,2.9,2.9c0,1.6-1.3,2.9-2.9,2.9
	C160.6,201.3,159.3,200.1,159.3,198.5L159.3,198.5z"/>
<g>
	<g>
		<g>
			<g>
				<text transform="matrix(1 0 0 1 238.5278 274.9736)" fill="#ED1C24" font-family="'ArialMT'" font-size="11">I</text>
			</g>
		</g>
	</g>
</g>
<g>
	<g>
		<g>
			<g>
				<text transform="matrix(1 0 0 1 158.3481 214.3056)" fill="#ED1C24" font-family="'ArialMT'" font-size="11">J</text>
			</g>
		</g>
	</g>
</g>
<g>
	<g>
		<path fill="none" stroke="#000000" stroke-width="0.6873" stroke-linecap="square" d="M225.3,150.8"/>
		<polyline fill="#ED1C24" stroke="#ED1C24" stroke-width="0.6873" stroke-linecap="square" points="163.6,163.6 246.7,234.5 
			249.6,231.1 166.7,160 163.6,163.6 		"/>
	</g>
	<path stroke="#000000" stroke-width="0.6866" d="M247.3,234.6c-1.1,0-1.7-1-1.4-2.2c0.4-1.2,1.5-2.1,2.6-2.1s1.7,1,1.4,2.2
		S248.4,234.6,247.3,234.6z"/>
	<path stroke="#000000" stroke-width="0.6866" d="M164.4,163.8c-1.1,0-1.7-1-1.4-2.2c0.4-1.2,1.5-2.1,2.6-2.1s1.7,1,1.4,2.2
		C166.7,162.8,165.6,163.8,164.4,163.8z"/>
</g>
<line fill="none" stroke="#ED1C24" stroke-dasharray="5.76,5.76" x1="377.2" y1="344.5" x2="60.9" y2="72.3"/>
<path stroke="#000000" d="M374.3,343.6c0-1.6,1.3-2.9,2.9-2.9s2.9,1.3,2.9,2.9s-1.3,2.9-2.9,2.9
	C375.6,346.5,374.3,345.2,374.3,343.6L374.3,343.6z"/>
<path stroke="#000000" d="M56.1,71.3c0-1.6,1.3-2.9,2.9-2.9c1.6,0,2.9,1.3,2.9,2.9s-1.3,2.9-2.9,2.9C57.4,74.2,56.1,72.9,56.1,71.3
	L56.1,71.3z"/>
<g>
	<g>
		<g>
			<g>
				<text transform="matrix(1 0 0 1 407.3325 362.999)" font-family="'ArialMT'" font-size="11">y</text>
			</g>
		</g>
	</g>
</g>
<g>
	<g>
		<g>
			<g>
				<text transform="matrix(1 0 0 1 364.6655 302.333)" font-family="'ArialMT'" font-size="11">z</text>
			</g>
		</g>
	</g>
</g>
<g>
	<g>
		<g>
			<g>
				<text transform="matrix(1 0 0 1 93.4321 108.9004)" font-family="'ArialMT'" font-size="11">y</text>
			</g>
		</g>
	</g>
</g>
<g>
	<g>
		<g>
			<g>
				<text transform="matrix(1 0 0 1 40.3315 24.333)" font-family="'ArialMT'" font-size="11">z</text>
			</g>
		</g>
	</g>
</g>
<g>
	<g>
		<g>
			<g>
				<g>
					<text transform="matrix(1 0 0 1 41.8174 62.1826)" font-family="'ArialMT'" font-size="10">(y</text>
				</g>
			</g>
		</g>
	</g>
	<g>
		<g>
			<g>
				<g>
					<text transform="matrix(1 0 0 1 50.1475 65.1826)" font-family="'ArialMT'" font-size="9">2</text>
				</g>
			</g>
		</g>
	</g>
	<g>
		<g>
			<g>
				<g>
					<text transform="matrix(1 0 0 1 55.1529 62.1826)" font-family="'ArialMT'" font-size="10">, z</text>
				</g>
			</g>
		</g>
	</g>
	<g>
		<g>
			<g>
				<g>
					<text transform="matrix(1 0 0 1 65.7095 65.1826)" font-family="'ArialMT'" font-size="9">2</text>
				</g>
			</g>
		</g>
	</g>
	<g>
		<g>
			<g>
				<g>
					<text transform="matrix(1 0 0 1 70.7149 62.1826)" font-family="'ArialMT'" font-size="10">)</text>
				</g>
			</g>
		</g>
	</g>
</g>
<g>
	<g>
		<g>
			<g>
				<g>
					<text transform="matrix(1 0 0 1 388.1499 345.5166)" font-family="'ArialMT'" font-size="10">(y</text>
				</g>
			</g>
		</g>
	</g>
	<g>
		<g>
			<g>
				<g>
					<text transform="matrix(1 0 0 1 396.48 348.5166)" font-family="'ArialMT'" font-size="9">1</text>
				</g>
			</g>
		</g>
	</g>
	<g>
		<g>
			<g>
				<g>
					<text transform="matrix(1 0 0 1 401.4853 345.5166)" font-family="'ArialMT'" font-size="10">, z</text>
				</g>
			</g>
		</g>
	</g>
	<g>
		<g>
			<g>
				<g>
					<text transform="matrix(1 0 0 1 412.042 348.5166)" font-family="'ArialMT'" font-size="9">1</text>
				</g>
			</g>
		</g>
	</g>
	<g>
		<g>
			<g>
				<g>
					<text transform="matrix(1 0 0 1 417.0474 345.5166)" font-family="'ArialMT'" font-size="10">)</text>
				</g>
			</g>
		</g>
	</g>
</g>
<g>
	<g>
		<g>
			<g>
				<text transform="matrix(1 0 0 1 127.333 297.666)" font-family="'ArialMT'" font-size="11">Base beam</text>
			</g>
		</g>
	</g>
</g>
<g>
	<g>
		<g>
			<g>
				<text transform="matrix(1 0 0 1 1.525879e-005 10.9995)" font-family="'ArialMT'" font-size="11">Beam section #2</text>
			</g>
		</g>
	</g>
</g>
<g>
	<g>
		<g>
			<g>
				<text transform="matrix(1 0 0 1 327.3325 405.999)" font-family="'ArialMT'" font-size="11">Beam section #1</text>
			</g>
		</g>
	</g>
</g>
<g>
	<g>
		<g>
			<g>
				<text transform="matrix(0.7676 0.6409 -0.6409 0.7676 188.4186 170.9714)" font-family="'ArialMT'" font-size="11">Reinforcing</text>
			</g>
		</g>
	</g>
</g>
</svg>
