<?xml version="1.0" encoding="utf-8"?>
<!-- Generator: Adobe Illustrator 17.1.0, SVG Export Plug-In . SVG Version: 6.00 Build 0)  -->

<svg version="1.1" id="Layer_1" xmlns="http://www.w3.org/2000/svg" xmlns:xlink="http://www.w3.org/1999/xlink" x="0px" y="0px"
	 width="241.6px" height="215px" viewBox="0 1.4 241.6 215" enable-background="new 0 1.4 241.6 215" xml:space="preserve">
<g>
	<g>
		<g>
			<g>
				<text transform="matrix(0.9996 0 0 1 90.27 11)" font-family="'ArialMT'" font-size="9.9996">L</text>
			</g>
		</g>
	</g>
</g>
<g>
	<g>
		<g>
			<g>
				<text transform="matrix(0.9996 0 0 1 195.604 107.6602)" font-family="'ArialMT'" font-size="9.9996">K</text>
			</g>
		</g>
	</g>
</g>
<g>
	<g>
		<g>
			<g>
				<text transform="matrix(0.9996 0 0 1 126.437 186.4931)" font-family="'ArialMT'" font-size="9.9996">J</text>
			</g>
		</g>
	</g>
</g>
<g>
	<g>
		<g>
			<g>
				<text transform="matrix(0.9996 0 0 1 2.2705 142.334)" font-family="'ArialMT'" font-size="9.9996">I</text>
			</g>
		</g>
	</g>
</g>
<g>
	<polyline fill="none" stroke="#000000" stroke-width="1.0018" points="90.9,19.5 12.9,137.8 129,173.8 190.9,104.4 91.4,18.8 	"/>
	<line fill="none" stroke="#000000" stroke-width="1.0018" x1="91.2" y1="18.6" x2="129" y2="173.8"/>
</g>
<line fill="none" stroke="#000000" stroke-dasharray="5.76" x1="13.4" y1="136.7" x2="192" y2="103.1"/>
<line fill="none" stroke="#000000" stroke-width="1.1324" stroke-dasharray="6.5224" x1="157.1" y1="75.7" x2="113.9" y2="111.3"/>
<line fill="none" stroke="#000000" stroke-dasharray="5.76" x1="147.8" y1="67.1" x2="164.5" y2="128.7"/>
<g>
	<g>
		<g>
			<g>
				<g>
					<text transform="matrix(1 0 0 1 101.667 10)" font-family="'ArialMT'" font-size="10">(Z</text>
				</g>
			</g>
		</g>
	</g>
	<g>
		<g>
			<g>
				<g>
					<text transform="matrix(1 0 0 1 111.1055 13)" font-family="'ArialMT'" font-size="9">2</text>
				</g>
			</g>
		</g>
	</g>
	<g>
		<g>
			<g>
				<g>
					<text transform="matrix(1 0 0 1 116.1108 10)" font-family="'ArialMT'" font-size="10"> = 1)</text>
				</g>
			</g>
		</g>
	</g>
</g>
<g>
	<g>
		<g>
			<g>
				<g>
					<text transform="matrix(1 0 0 1 206.3335 106.6602)" enable-background="new    "><tspan x="0" y="0" font-family="'ArialMT'" font-size="10">(</tspan><tspan x="3.3" y="0" font-family="'ArialMT'" font-size="10">Y</tspan></text>
				</g>
			</g>
		</g>
	</g>
	<g>
		<g>
			<g>
				<g>
					<text transform="matrix(1 0 0 1 216.3335 109.6602)" font-family="'ArialMT'" font-size="9">2</text>
				</g>
			</g>
		</g>
	</g>
	<g>
		<g>
			<g>
				<g>
					<text transform="matrix(1 0 0 1 221.3389 106.6602)" font-family="'ArialMT'" font-size="10"> = 1)</text>
				</g>
			</g>
		</g>
	</g>
</g>
<g>
	<g>
		<g>
			<g>
				<g>
					<text transform="matrix(1 0 0 1 134.8345 186.4932)" enable-background="new    "><tspan x="0" y="0" font-family="'ArialMT'" font-size="10">(</tspan><tspan x="3.3" y="0" font-family="'ArialMT'" font-size="10">Y</tspan></text>
				</g>
			</g>
		</g>
	</g>
	<g>
		<g>
			<g>
				<g>
					<text transform="matrix(1 0 0 1 144.8345 189.4932)" font-family="'ArialMT'" font-size="9">1</text>
				</g>
			</g>
		</g>
	</g>
	<g>
		<g>
			<g>
				<g>
					<text transform="matrix(1 0 0 1 149.8399 186.4932)" font-family="'ArialMT'" font-size="10"> = 1)</text>
				</g>
			</g>
		</g>
	</g>
	<g>
		<g>
			<g>
				<g>
					<text transform="matrix(1 0 0 1 134.8345 198.4932)" enable-background="new    "><tspan x="0" y="0" font-family="'ArialMT'" font-size="10">(</tspan><tspan x="3.3" y="0" font-family="'ArialMT'" font-size="10">Y</tspan></text>
				</g>
			</g>
		</g>
	</g>
	<g>
		<g>
			<g>
				<g>
					<text transform="matrix(1 0 0 1 144.8345 201.4932)" font-family="'ArialMT'" font-size="9">2</text>
				</g>
			</g>
		</g>
	</g>
	<g>
		<g>
			<g>
				<g>
					<text transform="matrix(1 0 0 1 149.8399 198.4932)" font-family="'ArialMT'" font-size="10"> = 0)</text>
				</g>
			</g>
		</g>
	</g>
	<g>
		<g>
			<g>
				<g>
					<text transform="matrix(1 0 0 1 134.8345 210.4932)" font-family="'ArialMT'" font-size="10">(Z</text>
				</g>
			</g>
		</g>
	</g>
	<g>
		<g>
			<g>
				<g>
					<text transform="matrix(1 0 0 1 144.273 213.4932)" font-family="'ArialMT'" font-size="9">2</text>
				</g>
			</g>
		</g>
	</g>
	<g>
		<g>
			<g>
				<g>
					<text transform="matrix(1 0 0 1 149.2784 210.4932)" font-family="'ArialMT'" font-size="10"> = 0)</text>
				</g>
			</g>
		</g>
	</g>
</g>
<g>
	<g>
		<g>
			<g>
				<g>
					<text transform="matrix(1 0 0 1 -1.525879e-005 154.6592)" enable-background="new    "><tspan x="0" y="0" font-family="'ArialMT'" font-size="10">(</tspan><tspan x="3.3" y="0" font-family="'ArialMT'" font-size="10">Y</tspan></text>
				</g>
			</g>
		</g>
	</g>
	<g>
		<g>
			<g>
				<g>
					<text transform="matrix(1 0 0 1 10 157.6592)" font-family="'ArialMT'" font-size="9">1</text>
				</g>
			</g>
		</g>
	</g>
	<g>
		<g>
			<g>
				<g>
					<text transform="matrix(1 0 0 1 15.0054 154.6592)" font-family="'ArialMT'" font-size="10"> = 0)</text>
				</g>
			</g>
		</g>
	</g>
	<g>
		<g>
			<g>
				<g>
					<text transform="matrix(1 0 0 1 -1.525879e-005 166.6592)" font-family="'ArialMT'" font-size="10">(Z</text>
				</g>
			</g>
		</g>
	</g>
	<g>
		<g>
			<g>
				<g>
					<text transform="matrix(1 0 0 1 9.4385 169.6592)" font-family="'ArialMT'" font-size="9">1</text>
				</g>
			</g>
		</g>
	</g>
	<g>
		<g>
			<g>
				<g>
					<text transform="matrix(1 0 0 1 14.4438 166.6592)" font-family="'ArialMT'" font-size="10"> = 0)</text>
				</g>
			</g>
		</g>
	</g>
</g>
<g>
	<g>
		<polygon fill="#FFFFFF" points="129.7,150.6 125.1,157.6 132.6,153.8 		"/>
	</g>
	<g>
		<line fill="none" stroke="#000000" x1="130.1" y1="153.2" x2="138.8" y2="145.3"/>
		<polygon points="129.7,150.6 125.1,157.6 132.6,153.8 		"/>
	</g>
</g>
<g>
	<g>
		<polygon fill="#FFFFFF" points="157.3,132.3 162.2,125.4 154.5,128.9 		"/>
	</g>
	<g>
		<line fill="none" stroke="#000000" x1="157.1" y1="129.7" x2="150.2" y2="135.4"/>
		<polygon points="157.3,132.3 162.2,125.4 154.5,128.9 		"/>
	</g>
</g>
<g>
	<g>
		<g>
			<g>
				<g>
					<text transform="matrix(1 0 0 1 138.3071 142.2989)" font-family="'ArialMT'" font-size="10">Y</text>
				</g>
			</g>
		</g>
	</g>
	<g>
		<g>
			<g>
				<g>
					<text transform="matrix(1 0 0 1 144.977 145.2989)" font-family="'ArialMT'" font-size="9">2</text>
				</g>
			</g>
		</g>
	</g>
</g>
<g>
	<g>
		<polygon fill="#FFFFFF" points="166.8,113.7 171.3,120.8 170.9,112.4 		"/>
	</g>
	<g>
		<line fill="none" stroke="#000000" x1="169.3" y1="114.5" x2="166.4" y2="105.7"/>
		<polygon points="166.8,113.7 171.3,120.8 170.9,112.4 		"/>
	</g>
</g>
<g>
	<g>
		<polygon fill="#FFFFFF" points="160.6,84.4 155.7,77.6 156.5,85.9 		"/>
	</g>
	<g>
		<line fill="none" stroke="#000000" x1="158" y1="83.8" x2="161.1" y2="91.9"/>
		<polygon points="160.6,84.4 155.7,77.6 156.5,85.9 		"/>
	</g>
</g>
<g>
	<g>
		<g>
			<g>
				<g>
					<text transform="matrix(1 0 0 1 159.0015 101.3262)" font-family="'ArialMT'" font-size="10">Z</text>
				</g>
			</g>
		</g>
	</g>
	<g>
		<g>
			<g>
				<g>
					<text transform="matrix(1 0 0 1 165.1099 104.3262)" font-family="'ArialMT'" font-size="9">2</text>
				</g>
			</g>
		</g>
	</g>
</g>
<path d="M88.6,18.1c0.3-1.6,1.8-2.6,3.4-2.3s2.6,1.8,2.3,3.4c-0.3,1.6-1.8,2.6-3.4,2.3C89.3,21.2,88.3,19.7,88.6,18.1L88.6,18.1z"/>
<path d="M187.6,103.1c0.3-1.6,1.8-2.6,3.4-2.3c1.6,0.3,2.6,1.8,2.3,3.4s-1.8,2.6-3.4,2.3C188.3,106.2,187.3,104.7,187.6,103.1
	L187.6,103.1z"/>
<path d="M10.6,137.1c0.3-1.6,1.8-2.6,3.4-2.3s2.6,1.8,2.3,3.4c-0.3,1.6-1.8,2.6-3.4,2.3S10.3,138.7,10.6,137.1L10.6,137.1z"/>
<path d="M125.8,172.4c0.3-1.6,1.8-2.6,3.4-2.3c1.6,0.3,2.6,1.8,2.3,3.4c-0.3,1.6-1.8,2.6-3.4,2.3C126.5,175.5,125.5,174,125.8,172.4
	L125.8,172.4z"/>
<g>
	<g>
		<g>
			<g>
				<text transform="matrix(1 0 0 1 84.3335 131.8262)" fill="#ED1C24" font-family="'ArialMT'" font-size="10">II</text>
			</g>
		</g>
	</g>
</g>
<g>
	<g>
		<g>
			<g>
				<text transform="matrix(1 0 0 1 159.3325 73.1592)" fill="#ED1C24" font-family="'ArialMT'" font-size="10">JJ</text>
			</g>
		</g>
	</g>
</g>
<g>
	<g>
		<g>
			<g>
				<g>
					<text transform="matrix(1 0 0 1 44.4995 139.6602)" font-family="'ArialMT'" font-size="10">Y</text>
				</g>
			</g>
		</g>
	</g>
	<g>
		<g>
			<g>
				<g>
					<text transform="matrix(1 0 0 1 51.1694 142.6602)" font-family="'ArialMT'" font-size="9">1</text>
				</g>
			</g>
		</g>
	</g>
</g>
<line fill="none" stroke="#000000" stroke-dasharray="5.76" x1="145.9" y1="152.8" x2="65.1" y2="127"/>
<line fill="none" stroke="#000000" stroke-dasharray="5.76" x1="39.7" y1="146.1" x2="177.7" y2="119.2"/>
<g>
	<g>
		<polygon fill="#FFFFFF" points="42.2,133.3 33.8,134.1 41.4,137.6 		"/>
	</g>
	<g>
		<line fill="none" stroke="#000000" stroke-dasharray="5.76" x1="40.4" y1="135.2" x2="43.3" y2="135.7"/>
		<polygon points="42.2,133.3 33.8,134.1 41.4,137.6 		"/>
	</g>
</g>
<g>
	<g>
		<polygon fill="#FFFFFF" points="58.1,139.2 66.5,138.5 58.8,134.9 		"/>
	</g>
	<g>
		<line fill="none" stroke="#000000" stroke-dasharray="5.76" x1="59.9" y1="137.4" x2="56.9" y2="136.9"/>
		<polygon points="58.1,139.2 66.5,138.5 58.8,134.9 		"/>
	</g>
</g>
<g>
	<g>
		<polygon fill="#FFFFFF" points="84.7,153.5 77.2,157.4 85.6,157.8 		"/>
	</g>
	<g>
		<line fill="none" stroke="#000000" x1="83.7" y1="156" x2="92.4" y2="154.1"/>
		<polygon points="84.7,153.5 77.2,157.4 85.6,157.8 		"/>
	</g>
</g>
<g>
	<g>
		<polygon fill="#FFFFFF" points="114.6,150.6 121.9,146.5 113.5,146.4 		"/>
	</g>
	<g>
		<line fill="none" stroke="#000000" x1="115.5" y1="148.2" x2="108.2" y2="150"/>
		<polygon points="114.6,150.6 121.9,146.5 113.5,146.4 		"/>
	</g>
</g>
<g>
	<g>
		<g>
			<g>
				<g>
					<text transform="matrix(1 0 0 1 97.3335 154.8262)" font-family="'ArialMT'" font-size="10">Z</text>
				</g>
			</g>
		</g>
	</g>
	<g>
		<g>
			<g>
				<g>
					<text transform="matrix(1 0 0 1 103.4419 157.8262)" font-family="'ArialMT'" font-size="9">1</text>
				</g>
			</g>
		</g>
	</g>
</g>
<g>
	<g>
		<path fill="none" stroke="#000000" stroke-width="0.6491" stroke-linecap="square" d="M67.9,77.3"/>
		<polyline fill="#ED1C24" stroke="#ED1C24" stroke-width="0.6491" stroke-linecap="square" points="96.3,136.1 153.8,84.2 
			149.5,80.7 91.7,132.2 96.3,136.1 		"/>
	</g>
	<path stroke="#000000" stroke-width="0.6486" d="M153.9,83.8c0.2,1-0.7,1.2-2.1,0.5c-1.4-0.7-2.7-2-2.9-3s0.7-1.2,2.1-0.5
		C152.3,81.5,153.6,82.8,153.9,83.8z"/>
	<path stroke="#000000" stroke-width="0.6486" d="M96.3,135.4c0.2,1-0.7,1.2-2.1,0.5s-2.7-2-2.9-3c-0.2-1,0.7-1.2,2.1-0.5
		C94.7,133,96,134.4,96.3,135.4z"/>
</g>
<path fill="none" stroke="#EF6286" stroke-dasharray="5.76" d="M32.6,142.8"/>
<g>
	<g>
		<g>
			<g>
				<text transform="matrix(1 0 0 1 206.8335 47.3262)" font-family="'ArialMT'" font-size="11">e = 3</text>
			</g>
		</g>
	</g>
</g>
</svg>
