<?xml version="1.0" encoding="utf-8"?>
<!-- Generator: Adobe Illustrator 17.1.0, SVG Export Plug-In . SVG Version: 6.00 Build 0)  -->

<svg version="1.1" id="Layer_1" xmlns="http://www.w3.org/2000/svg" xmlns:xlink="http://www.w3.org/1999/xlink" x="0px" y="0px"
	 width="333.4px" height="252.2px" viewBox="0 1.6 333.4 252.2" enable-background="new 0 1.6 333.4 252.2" xml:space="preserve">
<line fill="none" stroke="#000000" stroke-width="0.9971" stroke-miterlimit="10" x1="250.6" y1="131.6" x2="250.6" y2="39.5"/>
<line fill="none" stroke="#000000" stroke-width="0.9971" stroke-dasharray="5.76,5.76" x1="40.4" y1="145.8" x2="126.3" y2="59"/>
<line fill="none" stroke="#000000" stroke-width="0.9971" stroke-dasharray="5.76,5.76" x1="126.7" y1="111.3" x2="250.6" y2="133"/>
<line fill="none" stroke="#000000" stroke-width="0.9971" stroke-dasharray="5.76,5.76" x1="40.7" y1="197.9" x2="126.7" y2="111.3"/>
<polyline fill="none" stroke="#000000" points="40.7,199.3 164.1,222.6 250.6,133 "/>
<line fill="none" stroke="#000000" stroke-width="0.9971" stroke-miterlimit="10" x1="40.1" y1="105.4" x2="40.9" y2="198.3"/>
<path fill="#FFFFFF" stroke="#000000" stroke-width="0.9971" stroke-miterlimit="10" d="M40,115.4"/>
<polyline fill="#FFFFFF" stroke="#000000" stroke-width="0.9971" stroke-miterlimit="10" points="164.4,129.8 164.4,222.6 
	164.4,139.8 "/>
<path fill="#FFFFFF" stroke="#000000" stroke-width="0.9971" stroke-miterlimit="10" d="M164.4,139.8"/>
<polygon fill="none" stroke="#000000" stroke-width="0.9971" stroke-miterlimit="10" points="251,39.5 164.4,129.8 40,105.4 
	126.7,18 "/>
<line fill="none" stroke="#000000" stroke-width="0.9971" stroke-dasharray="5.76,5.76" x1="126.7" y1="111.3" x2="126.8" y2="18.5"/>
<path fill="none" stroke="#000000" stroke-width="0.9971" stroke-dasharray="5.76,5.76" d="M127.5,41"/>
<g>
	<g>
		<g>
			<g>
				<text transform="matrix(1 0 0 1 32.3896 202.0128)" font-family="'ArialMT'" font-size="11">I</text>
			</g>
		</g>
	</g>
</g>
<g>
	<g>
		<g>
			<g>
				<text transform="matrix(1 0 0 1 164.667 234.5157)" font-family="'ArialMT'" font-size="11">J</text>
			</g>
		</g>
	</g>
</g>
<g>
	<g>
		<g>
			<g>
				<text transform="matrix(1 0 0 1 255.167 137.3145)" font-family="'ArialMT'" font-size="11">K</text>
			</g>
		</g>
	</g>
</g>
<g>
	<g>
		<g>
			<g>
				<text transform="matrix(1 0 0 1 132.9258 106.7745)" font-family="'ArialMT'" font-size="11">L</text>
			</g>
		</g>
	</g>
</g>
<path d="M161.3,221.2c0.3-1.6,1.8-2.6,3.4-2.3c1.6,0.3,2.6,1.8,2.3,3.4c-0.3,1.6-1.8,2.6-3.4,2.3C162.1,224.3,161,222.8,161.3,221.2
	L161.3,221.2z"/>
<path d="M247.3,131.7c0.3-1.6,1.8-2.6,3.4-2.3c1.6,0.3,2.6,1.8,2.3,3.4c-0.3,1.6-1.8,2.6-3.4,2.3C248.1,134.8,247,133.3,247.3,131.7
	L247.3,131.7z"/>
<path d="M123.8,110.2c0.3-1.6,1.8-2.6,3.4-2.3c1.6,0.3,2.6,1.8,2.3,3.4s-1.8,2.6-3.4,2.3C124.6,113.3,123.5,111.8,123.8,110.2
	L123.8,110.2z"/>
<path d="M38.3,198.2c0.3-1.6,1.8-2.6,3.4-2.3c1.6,0.3,2.6,1.8,2.3,3.4c-0.3,1.6-1.8,2.6-3.4,2.3C39.1,201.3,38,199.8,38.3,198.2
	L38.3,198.2z"/>
<g>
	<g>
		<g>
			<g>
				<text transform="matrix(1 0 0 1 28 117.334)" font-family="'ArialMT'" font-size="11">M</text>
			</g>
		</g>
	</g>
</g>
<path d="M160.8,129.9c0.3-1.6,1.8-2.6,3.4-2.3c1.6,0.3,2.6,1.8,2.3,3.4c-0.3,1.6-1.8,2.6-3.4,2.3
	C161.5,132.9,160.5,131.4,160.8,129.9L160.8,129.9z"/>
<path d="M38,104.3c0.3-1.6,1.8-2.6,3.4-2.3c1.6,0.3,2.6,1.8,2.3,3.4s-1.8,2.6-3.4,2.3C38.7,107.4,37.7,105.9,38,104.3L38,104.3z"/>
<path d="M247.3,39.7c0.3-1.6,1.8-2.6,3.4-2.3c1.6,0.3,2.6,1.8,2.3,3.4c-0.3,1.6-1.8,2.6-3.4,2.3C248.1,42.8,247,41.3,247.3,39.7
	L247.3,39.7z"/>
<path d="M123.7,17.3c0.3-1.6,1.8-2.6,3.4-2.3s2.6,1.8,2.3,3.4s-1.8,2.6-3.4,2.3C124.4,20.4,123.4,18.9,123.7,17.3L123.7,17.3z"/>
<g>
	<g>
		<g>
			<g>
				<text transform="matrix(1 0 0 1 122.667 11.0004)" font-family="'ArialMT'" font-size="11">P</text>
			</g>
		</g>
	</g>
</g>
<g>
	<g>
		<g>
			<g>
				<text transform="matrix(1 0 0 1 254.667 41.1675)" font-family="'ArialMT'" font-size="11">O</text>
			</g>
		</g>
	</g>
</g>
<g>
	<g>
		<g>
			<g>
				<text transform="matrix(1 0 0 1 167.666 137.0743)" font-family="'ArialMT'" font-size="11">N</text>
			</g>
		</g>
	</g>
</g>
<g>
	<g>
		<g>
			<g>
				<text transform="matrix(1 0 0 1 69 103.5151)" fill="#ED1C24" font-family="'ArialMT'" font-size="11">II</text>
			</g>
		</g>
	</g>
</g>
<g>
	<g>
		<g>
			<g>
				<text transform="matrix(1 0 0 1 308.667 135.1816)" font-family="'ArialMT'" font-size="11">e = 1</text>
			</g>
		</g>
	</g>
</g>
<line fill="none" stroke="#000000" stroke-width="0.9959" stroke-dasharray="5.7532,5.7532" x1="86.6" y1="151" x2="86.7" y2="58.4"/>
<line fill="none" stroke="#000000" stroke-width="0.9959" stroke-dasharray="5.7532,5.7532" x1="209.3" y1="176.4" x2="209.3" y2="83.9"/>
<line fill="none" stroke="#000000" stroke-width="0.9971" stroke-dasharray="5.76,5.76" x1="164.4" y1="165.8" x2="250.2" y2="79"/>
<g>
	<g>
		<polygon fill="#FFFFFF" points="45.5,175.9 41.3,183.2 48.6,179 		"/>
	</g>
	<g>
		<line fill="none" stroke="#000000" x1="46" y1="178.5" x2="56.2" y2="168.3"/>
		<polygon points="45.5,175.9 41.3,183.2 48.6,179 		"/>
	</g>
</g>
<g>
	<g>
		<polygon fill="#FFFFFF" points="80.5,147.1 84.7,139.8 77.4,144 		"/>
	</g>
	<g>
		<line fill="none" stroke="#000000" x1="80" y1="144.5" x2="69.9" y2="154.7"/>
		<polygon points="80.5,147.1 84.7,139.8 77.4,144 		"/>
	</g>
</g>
<g>
	<g>
		<g>
			<g>
				<g>
					<text transform="matrix(1 0 0 1 57.4395 162.7745)" font-family="'ArialMT'" font-size="10">Y</text>
				</g>
			</g>
		</g>
	</g>
	<g>
		<g>
			<g>
				<g>
					<text transform="matrix(1 0 0 1 64.1094 165.7745)" font-family="'ArialMT'" font-size="9">1</text>
				</g>
			</g>
		</g>
	</g>
</g>
<g>
	<g>
		<polygon fill="#FFFFFF" points="91.5,136.2 93.7,144.4 95.9,136.2 		"/>
	</g>
	<g>
		<line fill="none" stroke="#000000" x1="93.7" y1="137.7" x2="93.7" y2="126.3"/>
		<polygon points="91.5,136.2 93.7,144.4 95.9,136.2 		"/>
	</g>
</g>
<g>
	<g>
		<polygon fill="#FFFFFF" points="95.8,101.1 93.7,93 91.5,101.1 		"/>
	</g>
	<g>
		<line fill="none" stroke="#000000" x1="93.7" y1="99.6" x2="93.7" y2="111"/>
		<polygon points="95.8,101.1 93.7,93 91.5,101.1 		"/>
	</g>
</g>
<g>
	<g>
		<g>
			<g>
				<g>
					<text transform="matrix(1 0 0 1 87.9492 121.5054)" font-family="'ArialMT'" font-size="10">Z</text>
				</g>
			</g>
		</g>
	</g>
	<g>
		<g>
			<g>
				<g>
					<text transform="matrix(1 0 0 1 94.0576 124.5054)" font-family="'ArialMT'" font-size="9">1</text>
				</g>
			</g>
		</g>
	</g>
</g>
<g>
	<g>
		<g>
			<g>
				<g>
					<text transform="matrix(1 0 0 1 0 130.8477)" font-family="'ArialMT'" font-size="10">(Z</text>
				</g>
			</g>
		</g>
	</g>
	<g>
		<g>
			<g>
				<g>
					<text transform="matrix(1 0 0 1 9.4385 133.8477)" font-family="'ArialMT'" font-size="9">1</text>
				</g>
			</g>
		</g>
	</g>
	<g>
		<g>
			<g>
				<g>
					<text transform="matrix(1 0 0 1 14.4438 130.8477)" font-family="'ArialMT'" font-size="11"> </text>
				</g>
			</g>
		</g>
	</g>
	<g>
		<g>
			<g>
				<g>
					<text transform="matrix(1 0 0 1 17.5 130.8477)" font-family="'ArialMT'" font-size="10">= 1)</text>
				</g>
			</g>
		</g>
	</g>
</g>
<g>
	<g>
		<g>
			<g>
				<g>
					<text transform="matrix(1 0 0 1 29.9995 217.5157)" enable-background="new    "><tspan x="0" y="0" font-family="'ArialMT'" font-size="10">(</tspan><tspan x="3.3" y="0" font-family="'ArialMT'" font-size="10">Y</tspan></text>
				</g>
			</g>
		</g>
	</g>
	<g>
		<g>
			<g>
				<g>
					<text transform="matrix(1 0 0 1 39.9995 220.5157)" font-family="'ArialMT'" font-size="9">1</text>
				</g>
			</g>
		</g>
	</g>
	<g>
		<g>
			<g>
				<g>
					<text transform="matrix(1 0 0 1 45.0049 217.5157)" font-family="'ArialMT'" font-size="11"> </text>
				</g>
			</g>
		</g>
	</g>
	<g>
		<g>
			<g>
				<g>
					<text transform="matrix(1 0 0 1 48.061 217.5157)" font-family="'ArialMT'" font-size="10">= 0)</text>
				</g>
			</g>
		</g>
	</g>
	<g>
		<g>
			<g>
				<g>
					<text transform="matrix(1 0 0 1 29.9995 230.5157)" font-family="'ArialMT'" font-size="10">(Z</text>
				</g>
			</g>
		</g>
	</g>
	<g>
		<g>
			<g>
				<g>
					<text transform="matrix(1 0 0 1 39.438 233.5157)" font-family="'ArialMT'" font-size="9">1</text>
				</g>
			</g>
		</g>
	</g>
	<g>
		<g>
			<g>
				<g>
					<text transform="matrix(1 0 0 1 44.4434 230.5157)" font-family="'ArialMT'" font-size="11"> </text>
				</g>
			</g>
		</g>
	</g>
	<g>
		<g>
			<g>
				<g>
					<text transform="matrix(1 0 0 1 47.4995 230.5157)" font-family="'ArialMT'" font-size="10">= 0)</text>
				</g>
			</g>
		</g>
	</g>
</g>
<g>
	<g>
		<polygon fill="#FFFFFF" points="169.2,201.6 165,208.9 172.3,204.7 		"/>
	</g>
	<g>
		<line fill="none" stroke="#000000" x1="169.7" y1="204.2" x2="179.8" y2="194"/>
		<polygon points="169.2,201.6 165,208.9 172.3,204.7 		"/>
	</g>
</g>
<g>
	<g>
		<polygon fill="#FFFFFF" points="204.2,172.7 208.4,165.4 201.1,169.7 		"/>
	</g>
	<g>
		<line fill="none" stroke="#000000" x1="203.7" y1="170.2" x2="193.5" y2="180.3"/>
		<polygon points="204.2,172.7 208.4,165.4 201.1,169.7 		"/>
	</g>
</g>
<g>
	<g>
		<g>
			<g>
				<g>
					<text transform="matrix(1 0 0 1 181.1055 188.4415)" font-family="'ArialMT'" font-size="10">Y</text>
				</g>
			</g>
		</g>
	</g>
	<g>
		<g>
			<g>
				<g>
					<text transform="matrix(1 0 0 1 187.7754 191.4415)" font-family="'ArialMT'" font-size="9">2</text>
				</g>
			</g>
		</g>
	</g>
</g>
<g>
	<g>
		<polygon fill="#FFFFFF" points="215.8,156.9 218,165 220.2,156.9 		"/>
	</g>
	<g>
		<line fill="none" stroke="#000000" x1="218" y1="158.4" x2="218" y2="147"/>
		<polygon points="215.8,156.9 218,165 220.2,156.9 		"/>
	</g>
</g>
<g>
	<g>
		<polygon fill="#FFFFFF" points="220.2,121.8 218,113.7 215.8,121.8 		"/>
	</g>
	<g>
		<line fill="none" stroke="#000000" x1="218" y1="120.3" x2="218" y2="131.7"/>
		<polygon points="220.2,121.8 218,113.7 215.8,121.8 		"/>
	</g>
</g>
<g>
	<g>
		<g>
			<g>
				<g>
					<text transform="matrix(1 0 0 1 212.2646 142.1719)" font-family="'ArialMT'" font-size="10">Z</text>
				</g>
			</g>
		</g>
	</g>
	<g>
		<g>
			<g>
				<g>
					<text transform="matrix(1 0 0 1 218.373 145.1719)" font-family="'ArialMT'" font-size="9">2</text>
				</g>
			</g>
		</g>
	</g>
</g>
<g>
	<g>
		<g>
			<g>
				<text transform="matrix(1 0 0 1 193.333 115.5151)" fill="#ED1C24" font-family="'ArialMT'" font-size="11">JJ</text>
			</g>
		</g>
	</g>
</g>
<g>
	<g>
		<g>
			<g>
				<g>
					<text transform="matrix(1 0 0 1 174.332 234.8497)" enable-background="new    "><tspan x="0" y="0" font-family="'ArialMT'" font-size="10">(</tspan><tspan x="3.3" y="0" font-family="'ArialMT'" font-size="10">Y</tspan></text>
				</g>
			</g>
		</g>
	</g>
	<g>
		<g>
			<g>
				<g>
					<text transform="matrix(1 0 0 1 184.332 237.8497)" font-family="'ArialMT'" font-size="9">2</text>
				</g>
			</g>
		</g>
	</g>
	<g>
		<g>
			<g>
				<g>
					<text transform="matrix(1 0 0 1 189.3374 234.8497)" font-family="'ArialMT'" font-size="11"> </text>
				</g>
			</g>
		</g>
	</g>
	<g>
		<g>
			<g>
				<g>
					<text transform="matrix(1 0 0 1 192.3935 234.8497)" font-family="'ArialMT'" font-size="10">= 0)</text>
				</g>
			</g>
		</g>
	</g>
	<g>
		<g>
			<g>
				<g>
					<text transform="matrix(1 0 0 1 174.332 247.8497)" font-family="'ArialMT'" font-size="10">(Z</text>
				</g>
			</g>
		</g>
	</g>
	<g>
		<g>
			<g>
				<g>
					<text transform="matrix(1 0 0 1 183.7705 250.8497)" font-family="'ArialMT'" font-size="9">2</text>
				</g>
			</g>
		</g>
	</g>
	<g>
		<g>
			<g>
				<g>
					<text transform="matrix(1 0 0 1 188.7758 247.8497)" font-family="'ArialMT'" font-size="11"> </text>
				</g>
			</g>
		</g>
	</g>
	<g>
		<g>
			<g>
				<g>
					<text transform="matrix(1 0 0 1 191.832 247.8497)" font-family="'ArialMT'" font-size="10">= 0)</text>
				</g>
			</g>
		</g>
	</g>
</g>
<g>
	<g>
		<g>
			<g>
				<g>
					<text transform="matrix(1 0 0 1 254 149.5156)" enable-background="new    "><tspan x="0" y="0" font-family="'ArialMT'" font-size="10">(</tspan><tspan x="3.3" y="0" font-family="'ArialMT'" font-size="10">Y</tspan></text>
				</g>
			</g>
		</g>
	</g>
	<g>
		<g>
			<g>
				<g>
					<text transform="matrix(1 0 0 1 264 152.5156)" font-family="'ArialMT'" font-size="9">2</text>
				</g>
			</g>
		</g>
	</g>
	<g>
		<g>
			<g>
				<g>
					<text transform="matrix(1 0 0 1 269.0054 149.5156)" font-family="'ArialMT'" font-size="11"> </text>
				</g>
			</g>
		</g>
	</g>
	<g>
		<g>
			<g>
				<g>
					<text transform="matrix(1 0 0 1 272.0615 149.5156)" font-family="'ArialMT'" font-size="10">= 1)</text>
				</g>
			</g>
		</g>
	</g>
</g>
<g>
	<g>
		<g>
			<g>
				<g>
					<text transform="matrix(1 0 0 1 123.3335 145.5156)" font-family="'ArialMT'" font-size="10">(Z</text>
				</g>
			</g>
		</g>
	</g>
	<g>
		<g>
			<g>
				<g>
					<text transform="matrix(1 0 0 1 132.772 148.5156)" font-family="'ArialMT'" font-size="9">2</text>
				</g>
			</g>
		</g>
	</g>
	<g>
		<g>
			<g>
				<g>
					<text transform="matrix(1 0 0 1 137.7774 145.5156)" font-family="'ArialMT'" font-size="11"> </text>
				</g>
			</g>
		</g>
	</g>
	<g>
		<g>
			<g>
				<g>
					<text transform="matrix(1 0 0 1 140.8335 145.5156)" font-family="'ArialMT'" font-size="10">= 1)</text>
				</g>
			</g>
		</g>
	</g>
</g>
<g>
	<g>
		<path fill="none" stroke="#000000" stroke-width="0.8084" stroke-linecap="square" d="M139.4,52"/>
		<polyline fill="#ED1C24" stroke="#ED1C24" stroke-width="0.8084" stroke-linecap="square" points="87.4,104.2 211.3,124.7 
			212,119.4 88.2,98.6 87.4,104.2 		"/>
	</g>
	<path stroke="#000000" stroke-width="0.8076" d="M211.9,124.5c-1.1,0.7-2.3,0-2.7-1.4s0.2-3.2,1.3-3.8c1.1-0.7,2.3-0.1,2.7,1.4
		C213.5,122.1,213,123.9,211.9,124.5z"/>
	<path stroke="#000000" stroke-width="0.8076" d="M88.3,103.8c-1.1,0.7-2.3,0.1-2.7-1.4c-0.4-1.4,0.2-3.2,1.3-3.8
		c1.1-0.7,2.3-0.1,2.7,1.4C90,101.4,89.4,103.1,88.3,103.8z"/>
</g>
</svg>
