<?xml version="1.0" encoding="utf-8"?>
<!-- Generator: Adobe Illustrator 17.1.0, SVG Export Plug-In . SVG Version: 6.00 Build 0)  -->

<svg version="1.1" id="Layer_1" xmlns="http://www.w3.org/2000/svg" xmlns:xlink="http://www.w3.org/1999/xlink" x="0px" y="0px"
	 width="242.1px" height="241.7px" viewBox="0 1.4 242.1 241.7" enable-background="new 0 1.4 242.1 241.7" xml:space="preserve">
<line fill="none" stroke="#000000" stroke-dasharray="5.76" x1="121.2" y1="47.2" x2="66.8" y2="128.7"/>
<g>
	<g>
		<g>
			<g>
				<text transform="matrix(0.9996 0 0 1 90.27 11)" font-family="'ArialMT'" font-size="10.9995">L</text>
			</g>
		</g>
	</g>
</g>
<g>
	<g>
		<g>
			<g>
				<text transform="matrix(0.9996 0 0 1 195.604 109.6602)" font-family="'ArialMT'" font-size="10.9995">K</text>
			</g>
		</g>
	</g>
</g>
<g>
	<g>
		<g>
			<g>
				<text transform="matrix(0.9996 0 0 1 127.937 172.9932)" font-family="'ArialMT'" font-size="10.9995">J</text>
			</g>
		</g>
	</g>
</g>
<g>
	<g>
		<g>
			<g>
				<text transform="matrix(0.9996 0 0 1 2.2705 144.334)" font-family="'ArialMT'" font-size="10.9995">I</text>
			</g>
		</g>
	</g>
</g>
<g>
	<polyline fill="none" stroke="#000000" points="90.9,21.5 12.9,139.4 129,159.3 190.9,106.1 91.4,20.8 	"/>
	<line fill="none" stroke="#000000" x1="91.2" y1="20.6" x2="129" y2="159.3"/>
</g>
<line fill="none" stroke="#000000" stroke-dasharray="5.76" x1="13.4" y1="138.7" x2="192" y2="105.1"/>
<line fill="none" stroke="#000000" stroke-dasharray="5.76" x1="109.2" y1="86.5" x2="150.4" y2="78.7"/>
<line fill="none" stroke="#000000" stroke-dasharray="5.76" x1="38.5" y1="99.8" x2="109.2" y2="86.5"/>
<line fill="none" stroke="#000000" stroke-width="1.1324" stroke-dasharray="5.76" x1="161.1" y1="81.5" x2="118.6" y2="117.9"/>
<line fill="none" stroke="#000000" stroke-dasharray="5.76" x1="147.8" y1="69.1" x2="164.5" y2="130.7"/>
<g>
	<g>
		<g>
			<g>
				<g>
					<text transform="matrix(1 0 0 1 101.667 10)" font-family="'ArialMT'" font-size="10">(Z</text>
				</g>
			</g>
		</g>
	</g>
	<g>
		<g>
			<g>
				<g>
					<text transform="matrix(1 0 0 1 111.1055 13)" font-family="'ArialMT'" font-size="9">1</text>
				</g>
			</g>
		</g>
	</g>
	<g>
		<g>
			<g>
				<g>
					<text transform="matrix(1 0 0 1 116.1108 10)" font-family="'ArialMT'" font-size="10"> = 1)</text>
				</g>
			</g>
		</g>
	</g>
	<g>
		<g>
			<g>
				<g>
					<text transform="matrix(1 0 0 1 101.667 22)" font-family="'ArialMT'" font-size="10">(Z</text>
				</g>
			</g>
		</g>
	</g>
	<g>
		<g>
			<g>
				<g>
					<text transform="matrix(1 0 0 1 111.1055 25)" font-family="'ArialMT'" font-size="9">2</text>
				</g>
			</g>
		</g>
	</g>
	<g>
		<g>
			<g>
				<g>
					<text transform="matrix(1 0 0 1 116.1108 22)" font-family="'ArialMT'" font-size="10"> = 1)</text>
				</g>
			</g>
		</g>
	</g>
</g>
<g>
	<g>
		<g>
			<g>
				<g>
					<text transform="matrix(1 0 0 1 206.3335 108.6602)" enable-background="new    "><tspan x="0" y="0" font-family="'ArialMT'" font-size="10">(</tspan><tspan x="3.3" y="0" font-family="'ArialMT'" font-size="10">Y</tspan></text>
				</g>
			</g>
		</g>
	</g>
	<g>
		<g>
			<g>
				<g>
					<text transform="matrix(1 0 0 1 216.3335 111.6602)" font-family="'ArialMT'" font-size="9">1</text>
				</g>
			</g>
		</g>
	</g>
	<g>
		<g>
			<g>
				<g>
					<text transform="matrix(1 0 0 1 221.3389 108.6602)" font-family="'ArialMT'" font-size="10"> = 1)</text>
				</g>
			</g>
		</g>
	</g>
	<g>
		<g>
			<g>
				<g>
					<text transform="matrix(1 0 0 1 206.3335 120.6602)" enable-background="new    "><tspan x="0" y="0" font-family="'ArialMT'" font-size="10">(</tspan><tspan x="3.3" y="0" font-family="'ArialMT'" font-size="10">Y</tspan></text>
				</g>
			</g>
		</g>
	</g>
	<g>
		<g>
			<g>
				<g>
					<text transform="matrix(1 0 0 1 216.3335 123.6602)" font-family="'ArialMT'" font-size="9">2</text>
				</g>
			</g>
		</g>
	</g>
	<g>
		<g>
			<g>
				<g>
					<text transform="matrix(1 0 0 1 221.3389 120.6602)" font-family="'ArialMT'" font-size="10"> = 1)</text>
				</g>
			</g>
		</g>
	</g>
</g>
<g>
	<g>
		<g>
			<g>
				<g>
					<text transform="matrix(1 0 0 1 137.3345 171.9932)" enable-background="new    "><tspan x="0" y="0" font-family="'ArialMT'" font-size="10">(</tspan><tspan x="3.3" y="0" font-family="'ArialMT'" font-size="10">Y</tspan></text>
				</g>
			</g>
		</g>
	</g>
	<g>
		<g>
			<g>
				<g>
					<text transform="matrix(1 0 0 1 147.3345 174.9932)" font-family="'ArialMT'" font-size="9">2</text>
				</g>
			</g>
		</g>
	</g>
	<g>
		<g>
			<g>
				<g>
					<text transform="matrix(1 0 0 1 152.3399 171.9932)" font-family="'ArialMT'" font-size="10"> = 0)</text>
				</g>
			</g>
		</g>
	</g>
	<g>
		<g>
			<g>
				<g>
					<text transform="matrix(1 0 0 1 137.3345 183.9932)" font-family="'ArialMT'" font-size="10">(Z</text>
				</g>
			</g>
		</g>
	</g>
	<g>
		<g>
			<g>
				<g>
					<text transform="matrix(1 0 0 1 146.773 186.9932)" font-family="'ArialMT'" font-size="9">2</text>
				</g>
			</g>
		</g>
	</g>
	<g>
		<g>
			<g>
				<g>
					<text transform="matrix(1 0 0 1 151.7784 183.9932)" font-family="'ArialMT'" font-size="10"> = 0)</text>
				</g>
			</g>
		</g>
	</g>
</g>
<g>
	<g>
		<g>
			<g>
				<g>
					<text transform="matrix(1 0 0 1 -1.525879e-005 156.6592)" enable-background="new    "><tspan x="0" y="0" font-family="'ArialMT'" font-size="10">(</tspan><tspan x="3.3" y="0" font-family="'ArialMT'" font-size="10">Y</tspan></text>
				</g>
			</g>
		</g>
	</g>
	<g>
		<g>
			<g>
				<g>
					<text transform="matrix(1 0 0 1 10 159.6592)" font-family="'ArialMT'" font-size="9">1</text>
				</g>
			</g>
		</g>
	</g>
	<g>
		<g>
			<g>
				<g>
					<text transform="matrix(1 0 0 1 15.0054 156.6592)" font-family="'ArialMT'" font-size="10"> = 0)</text>
				</g>
			</g>
		</g>
	</g>
	<g>
		<g>
			<g>
				<g>
					<text transform="matrix(1 0 0 1 -1.525879e-005 168.6592)" font-family="'ArialMT'" font-size="10">(Z</text>
				</g>
			</g>
		</g>
	</g>
	<g>
		<g>
			<g>
				<g>
					<text transform="matrix(1 0 0 1 9.4385 171.6592)" font-family="'ArialMT'" font-size="9">1</text>
				</g>
			</g>
		</g>
	</g>
	<g>
		<g>
			<g>
				<g>
					<text transform="matrix(1 0 0 1 14.4438 168.6592)" font-family="'ArialMT'" font-size="10"> = 0)</text>
				</g>
			</g>
		</g>
	</g>
</g>
<g>
	<g>
		<polygon fill="#FFFFFF" points="26.8,126.5 19.4,130.4 27.8,130.7 		"/>
	</g>
	<g>
		<line fill="none" stroke="#000000" x1="25.8" y1="128.9" x2="49.2" y2="123.7"/>
		<polygon points="26.8,126.5 19.4,130.4 27.8,130.7 		"/>
	</g>
</g>
<g>
	<g>
		<polygon fill="#FFFFFF" points="80.9,119.5 88.4,115.7 80,115.3 		"/>
	</g>
	<g>
		<line fill="none" stroke="#000000" x1="81.9" y1="117.1" x2="66.6" y2="120.4"/>
		<polygon points="80.9,119.5 88.4,115.7 80,115.3 		"/>
	</g>
</g>
<g>
	<g>
		<g>
			<g>
				<g>
					<text transform="matrix(1 0 0 1 52.3335 123.9932)" font-family="'ArialMT'" font-size="10">Y</text>
				</g>
			</g>
		</g>
	</g>
	<g>
		<g>
			<g>
				<g>
					<text transform="matrix(1 0 0 1 59.0034 126.9932)" font-family="'ArialMT'" font-size="9">1</text>
				</g>
			</g>
		</g>
	</g>
</g>
<g>
	<g>
		<polygon fill="#FFFFFF" points="30.9,127.1 29.1,135.3 34.8,129.1 		"/>
	</g>
	<g>
		<line fill="none" stroke="#000000" x1="32.1" y1="129.4" x2="35.9" y2="122.2"/>
		<polygon points="30.9,127.1 29.1,135.3 34.8,129.1 		"/>
	</g>
</g>
<g>
	<g>
		<polygon fill="#FFFFFF" points="47.7,107.8 50,99.7 43.9,105.5 		"/>
	</g>
	<g>
		<line fill="none" stroke="#000000" x1="46.6" y1="105.4" x2="42.8" y2="111.7"/>
		<polygon points="47.7,107.8 50,99.7 43.9,105.5 		"/>
	</g>
</g>
<g>
	<g>
		<g>
			<g>
				<g>
					<text transform="matrix(1 0 0 1 35.001 119.9932)" font-family="'ArialMT'" font-size="10">Z</text>
				</g>
			</g>
		</g>
	</g>
	<g>
		<g>
			<g>
				<g>
					<text transform="matrix(1 0 0 1 41.1094 122.9932)" font-family="'ArialMT'" font-size="9">1</text>
				</g>
			</g>
		</g>
	</g>
</g>
<g>
	<g>
		<polygon fill="#FFFFFF" points="132,143.1 127,149.9 134.7,146.5 		"/>
	</g>
	<g>
		<line fill="none" stroke="#000000" x1="132.2" y1="145.7" x2="139.2" y2="140.2"/>
		<polygon points="132,143.1 127,149.9 134.7,146.5 		"/>
	</g>
</g>
<g>
	<g>
		<polygon fill="#FFFFFF" points="155.8,128.2 160.6,121.3 153,124.9 		"/>
	</g>
	<g>
		<line fill="none" stroke="#000000" x1="155.5" y1="125.6" x2="149.8" y2="130.5"/>
		<polygon points="155.8,128.2 160.6,121.3 153,124.9 		"/>
	</g>
</g>
<g>
	<g>
		<g>
			<g>
				<g>
					<text transform="matrix(1 0 0 1 138.3071 137.2989)" font-family="'ArialMT'" font-size="10">Y</text>
				</g>
			</g>
		</g>
	</g>
	<g>
		<g>
			<g>
				<g>
					<text transform="matrix(1 0 0 1 144.977 140.2989)" font-family="'ArialMT'" font-size="9">2</text>
				</g>
			</g>
		</g>
	</g>
</g>
<g>
	<g>
		<polygon fill="#FFFFFF" points="166.7,114.8 171.6,121.7 170.8,113.3 		"/>
	</g>
	<g>
		<line fill="none" stroke="#000000" x1="169.3" y1="115.5" x2="166.4" y2="107.7"/>
		<polygon points="166.7,114.8 171.6,121.7 170.8,113.3 		"/>
	</g>
</g>
<g>
	<g>
		<polygon fill="#FFFFFF" points="160.6,87.3 155.4,80.7 156.6,89 		"/>
	</g>
	<g>
		<line fill="none" stroke="#000000" x1="158" y1="86.8" x2="161.1" y2="93.9"/>
		<polygon points="160.6,87.3 155.4,80.7 156.6,89 		"/>
	</g>
</g>
<g>
	<g>
		<g>
			<g>
				<g>
					<text transform="matrix(1 0 0 1 159.0015 103.3262)" font-family="'ArialMT'" font-size="10">Z</text>
				</g>
			</g>
		</g>
	</g>
	<g>
		<g>
			<g>
				<g>
					<text transform="matrix(1 0 0 1 165.1099 106.3262)" font-family="'ArialMT'" font-size="9">2</text>
				</g>
			</g>
		</g>
	</g>
</g>
<path d="M88.6,20.1c0.3-1.6,1.8-2.6,3.4-2.3c1.6,0.3,2.6,1.8,2.3,3.4c-0.3,1.6-1.8,2.6-3.4,2.3C89.3,23.2,88.3,21.7,88.6,20.1
	L88.6,20.1z"/>
<path d="M187.6,105.1c0.3-1.6,1.8-2.6,3.4-2.3c1.6,0.3,2.6,1.8,2.3,3.4s-1.8,2.6-3.4,2.3C188.3,108.2,187.3,106.7,187.6,105.1
	L187.6,105.1z"/>
<path d="M10.6,139.1c0.3-1.6,1.8-2.6,3.4-2.3s2.6,1.8,2.3,3.4c-0.3,1.6-1.8,2.6-3.4,2.3S10.3,140.7,10.6,139.1L10.6,139.1z"/>
<path d="M125.8,158.9c0.3-1.6,1.8-2.6,3.4-2.3c1.6,0.3,2.6,1.8,2.3,3.4c-0.3,1.6-1.8,2.6-3.4,2.3C126.5,162,125.5,160.5,125.8,158.9
	L125.8,158.9z"/>
<g>
	<g>
		<g>
			<g>
				<text transform="matrix(1 0 0 1 85.6665 83.1319)" fill="#ED1C24" font-family="'ArialMT'" font-size="10">II</text>
			</g>
		</g>
	</g>
</g>
<g>
	<g>
		<g>
			<g>
				<text transform="matrix(1 0 0 1 159.8325 74.1592)" fill="#ED1C24" font-family="'ArialMT'" font-size="10">JJ</text>
			</g>
		</g>
	</g>
</g>
<path fill="none" stroke="#000000" stroke-width="0.5257" stroke-linecap="square" d="M69.9,243.1"/>
<g>
	<g>
		<path fill="none" stroke="#000000" stroke-width="0.5148" stroke-linecap="square" d="M116.3,35.6"/>
		<polyline fill="#ED1C24" stroke="#ED1C24" stroke-width="0.5148" stroke-linecap="square" points="95.4,88.3 152.3,90.8 152.4,86 
			95.5,83.2 95.4,88.3 		"/>
	</g>
	<path stroke="#000000" stroke-width="0.5144" d="M152.6,90.5c-0.5,0.7-1,0.3-1.3-0.9c-0.2-1.2-0.1-2.8,0.4-3.6
		c0.5-0.7,1-0.3,1.3,0.9C153.2,88.2,153,89.8,152.6,90.5z"/>
	<path stroke="#000000" stroke-width="0.5144" d="M95.8,87.8c-0.5,0.7-1,0.3-1.3-0.9c-0.2-1.2-0.1-2.8,0.4-3.6
		c0.5-0.7,1-0.3,1.3,0.9C96.4,85.5,96.3,87.1,95.8,87.8z"/>
</g>
<g>
	<g>
		<g>
			<g>
				<text transform="matrix(1 0 0 1 217.3335 53.8262)" font-family="'ArialMT'" font-size="11">e = 1</text>
			</g>
		</g>
	</g>
</g>
</svg>
