<?xml version="1.0" encoding="utf-8"?>
<!-- Generator: Adobe Illustrator 17.1.0, SVG Export Plug-In . SVG Version: 6.00 Build 0)  -->

<svg version="1.1" id="Layer_1" xmlns="http://www.w3.org/2000/svg" xmlns:xlink="http://www.w3.org/1999/xlink" x="0px" y="0px"
	 width="211px" height="189.3px" viewBox="0 1.6 211 189.3" enable-background="new 0 1.6 211 189.3" xml:space="preserve">
<g>
	<polygon fill="none" stroke="#000000" points="85.3,173.3 8.3,97.5 84.5,19.2 162.5,96 	"/>
	<line fill="none" stroke="#000000" stroke-dasharray="5.76,5.76" x1="8" y1="97.1" x2="161" y2="96.1"/>
	<line fill="none" stroke="#000000" x1="85.1" y1="173.6" x2="84.8" y2="20.8"/>
	<line fill="none" stroke="#ED1C24" x1="84.2" y1="116.3" x2="131.2" y2="66.9"/>
	<line fill="none" stroke="#ED1C24" x1="83.9" y1="116.4" x2="37.9" y2="68.5"/>
	<line fill="none" stroke="#ED1C24" stroke-dasharray="5.76,5.76" x1="38.6" y1="67.3" x2="131" y2="66.6"/>
	<path d="M158.9,94.7c0.3-1.6,1.8-2.6,3.4-2.2c1.6,0.3,2.6,1.8,2.2,3.4c-0.3,1.6-1.8,2.6-3.4,2.2C159.5,97.8,158.5,96.3,158.9,94.7
		L158.9,94.7z"/>
	<path d="M81.9,115.7c0.3-1.6,1.8-2.6,3.4-2.2c1.6,0.3,2.6,1.8,2.2,3.4c-0.3,1.6-1.8,2.6-3.4,2.2C82.5,118.8,81.5,117.3,81.9,115.7
		L81.9,115.7z"/>
	<path d="M81.9,171.7c0.3-1.6,1.8-2.6,3.4-2.2c1.6,0.3,2.6,1.8,2.2,3.4c-0.3,1.6-1.8,2.6-3.4,2.2C82.5,174.8,81.5,173.3,81.9,171.7
		L81.9,171.7z"/>
	<path d="M128.9,64.7c0.3-1.6,1.8-2.6,3.4-2.2c1.6,0.3,2.6,1.8,2.2,3.4c-0.3,1.6-1.8,2.6-3.4,2.2C129.5,67.8,128.5,66.3,128.9,64.7
		L128.9,64.7z"/>
	<path d="M81.9,18.7c0.3-1.6,1.8-2.6,3.4-2.2c1.6,0.3,2.6,1.8,2.2,3.4c-0.3,1.6-1.8,2.6-3.4,2.2C82.5,21.8,81.5,20.3,81.9,18.7
		L81.9,18.7z"/>
	<path d="M6.9,97.7c0.3-1.6,1.8-2.6,3.4-2.2c1.6,0.3,2.6,1.8,2.2,3.4c-0.3,1.6-1.8,2.6-3.4,2.2C7.5,100.8,6.5,99.3,6.9,97.7
		L6.9,97.7z"/>
	<path d="M34.9,66.7c0.3-1.6,1.8-2.6,3.4-2.2c1.6,0.3,2.6,1.8,2.2,3.4c-0.3,1.6-1.8,2.6-3.4,2.2C35.5,69.8,34.5,68.3,34.9,66.7
		L34.9,66.7z"/>
	<g>
		<g>
			<g>
				<g>
					<text transform="matrix(1 0 0 1 74.334 140.669)" font-family="'ArialMT'" font-size="11">d</text>
				</g>
			</g>
		</g>
	</g>
	<g>
		<g>
			<g>
				<g>
					<text transform="matrix(1 0 0 1 89.6665 121.001)" font-family="'ArialMT'" font-size="11">JJ</text>
				</g>
			</g>
		</g>
	</g>
	<g>
		<g>
			<g>
				<g>
					<text transform="matrix(1 0 0 1 140.0005 67.668)" enable-background="new    "><tspan x="0" y="0" font-family="'ArialMT'" font-size="11">KK, L</tspan><tspan x="26.9" y="0" font-family="'ArialMT'" font-size="11">L</tspan></text>
				</g>
			</g>
		</g>
	</g>
	<g>
		<g>
			<g>
				<g>
					<text transform="matrix(1 0 0 1 167.3325 98.001)" font-family="'ArialMT'" font-size="11">K</text>
				</g>
			</g>
		</g>
	</g>
	<g>
		<g>
			<g>
				<g>
					<text transform="matrix(1 0 0 1 82.334 187.335)" font-family="'ArialMT'" font-size="11">J (d = 0)</text>
				</g>
			</g>
		</g>
	</g>
	<g>
		<g>
			<g>
				<g>
					<text transform="matrix(1 0 0 1 0 100.334)" font-family="'ArialMT'" font-size="11">I</text>
				</g>
			</g>
		</g>
	</g>
	<g>
		<g>
			<g>
				<g>
					<text transform="matrix(1 0 0 1 26 68.334)" font-family="'ArialMT'" font-size="11">II</text>
				</g>
			</g>
		</g>
	</g>
	<g>
		<g>
			<g>
				<g>
					<g>
						<text transform="matrix(1 0 0 1 83 11)" font-family="'ArialMT'" font-size="11">L</text>
					</g>
				</g>
			</g>
		</g>
		<g>
			<g>
				<g>
					<g>
						<text transform="matrix(1 0 0 1 88.7107 11)" font-family="'ArialMT'" font-size="11"> (d = 1)</text>
					</g>
				</g>
			</g>
		</g>
	</g>
	<line fill="none" stroke="#A6A6A6" stroke-width="2" x1="65" y1="80.6" x2="83.7" y2="72.6"/>
	<line fill="none" stroke="#A6A6A6" stroke-width="2" x1="72.4" y1="86.2" x2="95" y2="75.2"/>
	<line fill="none" stroke="#A6A6A6" stroke-width="2" x1="79.7" y1="91.6" x2="100" y2="80.9"/>
	<g>
		<g>
			<g>
				<g>
					<text transform="matrix(1 0 0 1 189.3345 96.668)" font-family="'ArialMT'" font-size="11">f = 1</text>
				</g>
			</g>
		</g>
	</g>
	<g>
		<g>
			<polygon fill="#FFFFFF" points="75.5,156.8 77.7,165 79.9,156.8 			"/>
		</g>
		<g>
			<line fill="none" stroke="#000000" x1="77.7" y1="146" x2="77.7" y2="158.3"/>
			<polygon points="75.5,156.8 77.7,165 79.9,156.8 			"/>
		</g>
	</g>
	<g>
		<g>
			<polygon fill="#FFFFFF" points="79.8,117.5 77.6,109.4 75.5,117.5 			"/>
		</g>
		<g>
			<line fill="none" stroke="#000000" x1="77.7" y1="128.3" x2="77.7" y2="116"/>
			<polygon points="79.8,117.5 77.6,109.4 75.5,117.5 			"/>
		</g>
	</g>
</g>
</svg>
