<?xml version="1.0" encoding="utf-8"?>
<!-- Generator: Adobe Illustrator 17.1.0, SVG Export Plug-In . SVG Version: 6.00 Build 0)  -->

<svg version="1.1" id="Layer_1" xmlns="http://www.w3.org/2000/svg" xmlns:xlink="http://www.w3.org/1999/xlink" x="0px" y="0px"
	 width="168.9px" height="163.5px" viewBox="0 0 168.9 163.5" enable-background="new 0 0 168.9 163.5" xml:space="preserve">
<polyline fill="#B3B3B3" points="10.3,72.2 156,72.2 156,57.7 10.4,57.7 "/>
<line fill="none" stroke="#000000" x1="13.2" y1="72.4" x2="25.5" y2="57.5"/>
<line fill="none" stroke="#000000" x1="31.3" y1="72.3" x2="43.7" y2="57.4"/>
<line fill="none" stroke="#000000" x1="49.6" y1="72.3" x2="62" y2="57.3"/>
<line fill="none" stroke="#000000" x1="67.4" y1="72.6" x2="79.9" y2="57.5"/>
<line fill="none" stroke="#000000" x1="85.3" y1="72.1" x2="97.2" y2="57.6"/>
<line fill="none" stroke="#000000" x1="103.1" y1="72.4" x2="115.6" y2="57.3"/>
<line fill="none" stroke="#000000" x1="121.2" y1="72.1" x2="133.2" y2="57.6"/>
<line fill="none" stroke="#000000" x1="139.1" y1="72.4" x2="151.3" y2="57.5"/>
<polygon fill="none" stroke="#000000" stroke-width="0.9971" stroke-miterlimit="10" stroke-dasharray="5.76,5.76" points="
	155.6,48.4 155.6,148.2 11.1,148.6 10.7,48.4 "/>
<line fill="none" stroke="#ED1C24" stroke-width="1.44" x1="10.5" y1="65.1" x2="155.7" y2="65.1"/>
<line fill="none" stroke="#000000" stroke-width="1.44" x1="10.7" y1="99.4" x2="155.4" y2="99.4"/>
<path d="M7.9,99c0.3-1.6,1.8-2.6,3.4-2.3c1.6,0.3,2.6,1.8,2.3,3.4c-0.3,1.6-1.8,2.6-3.4,2.3C8.6,102,7.6,100.5,7.9,99L7.9,99z"/>
<path d="M7.5,64.4c0.3-1.6,1.8-2.6,3.4-2.3s2.6,1.8,2.3,3.4s-1.8,2.6-3.4,2.3C8.2,67.4,7.2,65.9,7.5,64.4L7.5,64.4z"/>
<path d="M152.5,98.8c0.3-1.6,1.8-2.6,3.4-2.3c1.6,0.3,2.6,1.8,2.3,3.4s-1.8,2.6-3.4,2.3C153.2,101.9,152.2,100.4,152.5,98.8
	L152.5,98.8z"/>
<path d="M152.3,64.6c0.3-1.6,1.8-2.6,3.4-2.3c1.6,0.3,2.6,1.8,2.3,3.4s-1.8,2.6-3.4,2.3C153,67.6,152,66.1,152.3,64.6L152.3,64.6z"
	/>
<text transform="matrix(1 0 0 1 160.0273 68.5835)" font-family="'MyriadPro-Regular'" font-size="12">JJ</text>
<text transform="matrix(1 0 0 1 4.577637e-004 68.8188)" font-family="'MyriadPro-Regular'" font-size="12">II</text>
<text transform="matrix(1 0 0 1 145.0273 113.5835)" font-family="'MyriadPro-Regular'" font-size="12">J</text>
<text transform="matrix(1 0 0 1 14.0376 111.9097)" font-family="'MyriadPro-Regular'" font-size="12">I</text>
<line fill="none" stroke="#000000" x1="10.3" y1="57.4" x2="156" y2="57.4"/>
<line fill="none" stroke="#000000" x1="10.3" y1="72.4" x2="156" y2="72.4"/>
<g>
	<g>
		<g>
			<line fill="none" stroke="#000000" stroke-linecap="square" x1="65" y1="62.2" x2="49" y2="31.9"/>
		</g>
	</g>
	<polyline fill="none" stroke="#000000" stroke-linecap="square" points="65.9,59.4 65.3,62.9 62.1,61.3 	"/>
</g>
<text transform="matrix(1 0 0 1 15.791 29.127)" enable-background="new    "><tspan x="0" y="0" font-family="'MyriadPro-Regular'" font-size="12">R</tspan><tspan x="6.5" y="0" font-family="'MyriadPro-Regular'" font-size="12">ein</tspan><tspan x="22" y="0" font-family="'MyriadPro-Regular'" font-size="12">f</tspan><tspan x="25.3" y="0" font-family="'MyriadPro-Regular'" font-size="12">o</tspan><tspan x="31.9" y="0" font-family="'MyriadPro-Regular'" font-size="12">r</tspan><tspan x="35.7" y="0" font-family="'MyriadPro-Regular'" font-size="12">c</tspan><tspan x="41" y="0" font-family="'MyriadPro-Regular'" font-size="12">eme</tspan><tspan x="63.1" y="0" font-family="'MyriadPro-Regular'" font-size="12">n</tspan><tspan x="69.7" y="0" font-family="'MyriadPro-Regular'" font-size="12">t</tspan></text>
<g>
	<g>
		<g>
			<line fill="none" stroke="#000000" stroke-linecap="square" x1="121.8" y1="54.8" x2="132" y2="22.2"/>
		</g>
	</g>
	<polyline fill="none" stroke="#000000" stroke-linecap="square" points="124.5,53.5 121.6,55.5 120.5,52.2 	"/>
</g>
<text transform="matrix(1 0 0 1 109.2832 18.0791)" enable-background="new    "><tspan x="0" y="0" font-family="'MyriadPro-Regular'" font-size="12">Base L</tspan><tspan x="31.3" y="0" font-family="'MyriadPro-Regular'" font-size="12">a</tspan><tspan x="36.9" y="0" font-family="'MyriadPro-Regular'" font-size="12">y</tspan><tspan x="42.5" y="0" font-family="'MyriadPro-Regular'" font-size="12">er</tspan></text>
<line fill="none" stroke="#000000" x1="136.7" y1="119.4" x2="156" y2="119.4"/>
<line fill="none" stroke="#000000" x1="10.5" y1="119.4" x2="60" y2="119.4"/>
<line fill="none" stroke="#000000" x1="88" y1="136.4" x2="156" y2="136.4"/>
<line fill="none" stroke="#000000" x1="10.5" y1="136.4" x2="38.5" y2="136.4"/>
<line fill="none" x1="86" y1="0" x2="95.5" y2="1.5"/>
<line fill="none" x1="72" y1="162" x2="81.5" y2="163.5"/>
</svg>
