<?xml version="1.0" encoding="utf-8"?>
<!-- Generator: Adobe Illustrator 17.1.0, SVG Export Plug-In . SVG Version: 6.00 Build 0)  -->

<svg version="1.1" id="Layer_1" xmlns="http://www.w3.org/2000/svg" xmlns:xlink="http://www.w3.org/1999/xlink" x="0px" y="0px"
	 width="333.5px" height="241.6px" viewBox="0 1.6 333.5 241.6" enable-background="new 0 1.6 333.5 241.6" xml:space="preserve">
<g>
	<g>
		<g>
			<g>
				<text transform="matrix(1 0 0 1 308.6796 138.921)" font-family="'ArialMT'" font-size="11">e = 2</text>
			</g>
		</g>
	</g>
</g>
<line fill="none" stroke="#000000" stroke-width="0.9971" stroke-miterlimit="10" x1="250.7" y1="134.6" x2="250.9" y2="42.5"/>
<path fill="none" stroke="#000000" stroke-width="0.9971" stroke-dasharray="5.76,5.76" d="M40.4,150.2l123.9,20.3 M126.8,114
	l123.9,22 M40.6,200.4l86.2-86.4"/>
<polyline fill="none" stroke="#000000" points="40.5,201.7 163.9,225.3 250.6,136 "/>
<line fill="none" stroke="#000000" stroke-width="0.9971" stroke-miterlimit="10" x1="40.2" y1="107.9" x2="40.7" y2="200.7"/>
<path fill="#FFFFFF" stroke="#000000" stroke-width="0.9971" stroke-miterlimit="10" d="M40,117.9"/>
<polyline fill="#FFFFFF" stroke="#000000" stroke-width="0.9971" stroke-miterlimit="10" points="164.4,132.6 164.1,225.3 
	164.4,142.6 "/>
<path fill="#FFFFFF" stroke="#000000" stroke-width="0.9971" stroke-miterlimit="10" d="M164.4,142.6"/>
<polygon fill="none" stroke="#000000" stroke-width="0.9971" stroke-miterlimit="10" points="251.3,42.5 164.4,132.6 40.1,107.9 
	127,20.7 "/>
<path fill="none" stroke="#000000" stroke-width="0.9971" stroke-dasharray="5.76,5.76" d="M126.8,114l0.3-92.8"/>
<g>
	<g>
		<g>
			<g>
				<text transform="matrix(1 2.600000e-003 -2.600000e-003 1 32.2108 204.4503)" font-family="'ArialMT'" font-size="11">I</text>
			</g>
		</g>
	</g>
</g>
<g>
	<g>
		<g>
			<g>
				<text transform="matrix(1 2.600000e-003 -2.600000e-003 1 164.4022 237.3019)" font-family="'ArialMT'" font-size="11">J</text>
			</g>
		</g>
	</g>
</g>
<g>
	<g>
		<g>
			<g>
				<text transform="matrix(1 2.600000e-003 -2.600000e-003 1 255.158 140.3412)" font-family="'ArialMT'" font-size="11">K</text>
			</g>
		</g>
	</g>
</g>
<g>
	<g>
		<g>
			<g>
				<text transform="matrix(1 2.600000e-003 -2.600000e-003 1 132.998 109.4773)" font-family="'ArialMT'" font-size="11">L</text>
			</g>
		</g>
	</g>
</g>
<path d="M161.1,224c0.3-1.6,1.8-2.6,3.4-2.3c1.6,0.3,2.6,1.8,2.3,3.4c-0.3,1.6-1.8,2.6-3.4,2.3C161.8,227.1,160.8,225.5,161.1,224
	L161.1,224L161.1,224z"/>
<path d="M247.3,134.7c0.3-1.6,1.8-2.6,3.4-2.3c1.6,0.3,2.6,1.8,2.3,3.4c-0.3,1.6-1.8,2.6-3.4,2.3C248.1,137.8,247,136.3,247.3,134.7
	L247.3,134.7L247.3,134.7z"/>
<path d="M123.9,112.9c0.3-1.6,1.8-2.6,3.4-2.3c1.6,0.3,2.6,1.8,2.3,3.4s-1.8,2.6-3.4,2.3C124.6,116,123.6,114.4,123.9,112.9
	L123.9,112.9L123.9,112.9z"/>
<path d="M38.2,200.7c0.3-1.6,1.8-2.6,3.4-2.3c1.6,0.3,2.6,1.8,2.3,3.4c-0.3,1.6-1.8,2.6-3.4,2.3C38.9,203.7,37.9,202.2,38.2,200.7
	L38.2,200.7L38.2,200.7z"/>
<g>
	<g>
		<g>
			<g>
				<text transform="matrix(1 2.600000e-003 -2.600000e-003 1 28.0438 119.76)" font-family="'ArialMT'" font-size="11">M</text>
			</g>
		</g>
	</g>
</g>
<path d="M160.8,132.6c0.3-1.6,1.8-2.6,3.4-2.3c1.6,0.3,2.6,1.8,2.3,3.4c-0.3,1.6-1.8,2.6-3.4,2.3
	C161.5,135.7,160.5,134.2,160.8,132.6L160.8,132.6L160.8,132.6z"/>
<path d="M38.1,106.8c0.3-1.6,1.8-2.6,3.4-2.3c1.6,0.3,2.6,1.8,2.3,3.4s-1.8,2.6-3.4,2.3C38.8,109.8,37.8,108.3,38.1,106.8
	L38.1,106.8L38.1,106.8z"/>
<path d="M247.6,42.7c0.3-1.6,1.8-2.6,3.4-2.3c1.6,0.3,2.6,1.8,2.3,3.4c-0.3,1.6-1.8,2.6-3.4,2.3C248.3,45.8,247.3,44.3,247.6,42.7
	L247.6,42.7L247.6,42.7z"/>
<path d="M124,20c0.3-1.6,1.8-2.6,3.4-2.3c1.6,0.3,2.6,1.8,2.3,3.4s-1.8,2.6-3.4,2.3C124.7,23.1,123.7,21.6,124,20L124,20L124,20z"/>
<g>
	<g>
		<g>
			<g>
				<text transform="matrix(1 2.600000e-003 -2.600000e-003 1 123.6474 10.9998)" font-family="'ArialMT'" font-size="11">P</text>
			</g>
		</g>
	</g>
</g>
<g>
	<g>
		<g>
			<g>
				<text transform="matrix(1 2.600000e-003 -2.600000e-003 1 254.911 44.192)" font-family="'ArialMT'" font-size="11">O</text>
			</g>
		</g>
	</g>
</g>
<g>
	<g>
		<g>
			<g>
				<text transform="matrix(1 2.600000e-003 -2.600000e-003 1 167.658 139.8684)" font-family="'ArialMT'" font-size="11">N</text>
			</g>
		</g>
	</g>
</g>
<g>
	<g>
		<g>
			<g>
				
					<text transform="matrix(1 2.600000e-003 -2.600000e-003 1 87.7479 170.7179)" fill="#ED1C24" font-family="'ArialMT'" font-size="11">II</text>
			</g>
		</g>
	</g>
</g>
<path fill="none" stroke="#000000" stroke-width="0.9959" stroke-dasharray="5.7532,5.7532" d="M101.9,213.7l0.3-92.6 M187.1,124.6
	l0.3-92.6"/>
<line fill="none" stroke="#000000" stroke-width="0.9971" stroke-dasharray="5.76,5.76" x1="126.9" y1="62.9" x2="250.4" y2="82"/>
<polygon fill="#FFFFFF" points="48.9,189.5 40.5,190.5 48.3,193.8 "/>
<line fill="none" stroke="#000000" x1="47.1" y1="191.4" x2="61.4" y2="193.4"/>
<polygon points="48.9,189.5 40.5,190.5 48.3,193.8 "/>
<polygon fill="#FFFFFF" points="93,199.9 101.3,198.9 93.6,195.6 "/>
<line fill="none" stroke="#000000" x1="94.8" y1="198" x2="80.5" y2="196"/>
<polygon points="93,199.9 101.3,198.9 93.6,195.6 "/>
<g>
	<g>
		<g>
			<g>
				<text transform="matrix(1 2.600000e-003 -2.600000e-003 1 64.3641 194.9445)" font-family="'ArialMT'" font-size="10">Y</text>
			</g>
		</g>
	</g>
</g>
<g>
	<g>
		<g>
			<g>
				<text transform="matrix(1 2.600000e-003 -2.600000e-003 1 71.0262 197.9601)" font-family="'ArialMT'" font-size="9">1</text>
			</g>
		</g>
	</g>
</g>
<polygon fill="#FFFFFF" points="111.5,206.8 113.7,215 115.9,206.8 "/>
<line fill="none" stroke="#000000" x1="113.7" y1="208.3" x2="113.7" y2="196.9"/>
<polygon points="111.5,206.8 113.7,215 115.9,206.8 "/>
<polygon fill="#FFFFFF" points="115.9,171.7 113.8,163.6 111.6,171.7 "/>
<line fill="none" stroke="#000000" x1="113.8" y1="170.2" x2="113.7" y2="181.6"/>
<polygon points="115.9,171.7 113.8,163.6 111.6,171.7 "/>
<g>
	<g>
		<g>
			<g>
				<text transform="matrix(1 2.600000e-003 -2.600000e-003 1 107.9824 192.091)" font-family="'ArialMT'" font-size="10">Z</text>
			</g>
		</g>
	</g>
</g>
<g>
	<g>
		<g>
			<g>
				<text transform="matrix(1 2.600000e-003 -2.600000e-003 1 114.0848 195.1066)" font-family="'ArialMT'" font-size="9">1</text>
			</g>
		</g>
	</g>
</g>
<g>
	<g>
		<g>
			<g>
				<text transform="matrix(1 2.600000e-003 -2.600000e-003 1 8.632801e-003 133.2005)" font-family="'ArialMT'" font-size="10">(Z</text>
			</g>
		</g>
	</g>
</g>
<g>
	<g>
		<g>
			<g>
				<text transform="matrix(1 2.600000e-003 -2.600000e-003 1 9.4423 136.224)" font-family="'ArialMT'" font-size="9">1</text>
			</g>
		</g>
	</g>
</g>
<g>
	<g>
		<g>
			<g>
				<text transform="matrix(1 2.600000e-003 -2.600000e-003 1 14.455 133.2356)" font-family="'ArialMT'" font-size="11"> </text>
			</g>
		</g>
	</g>
</g>
<g>
	<g>
		<g>
			<g>
				<text transform="matrix(1 2.600000e-003 -2.600000e-003 1 17.5126 133.2434)" font-family="'ArialMT'" font-size="10">= 1)</text>
			</g>
		</g>
	</g>
</g>
<g>
	<g>
		<g>
			<g>
				<text transform="matrix(1 2.600000e-003 -2.600000e-003 1 29.7801 219.9464)" enable-background="new    "><tspan x="0" y="0" font-family="'ArialMT'" font-size="10">(</tspan><tspan x="3.3" y="0" font-family="'ArialMT'" font-size="10">Y</tspan></text>
			</g>
		</g>
	</g>
</g>
<g>
	<g>
		<g>
			<g>
				<text transform="matrix(1 2.600000e-003 -2.600000e-003 1 39.7733 222.9718)" font-family="'ArialMT'" font-size="9">1</text>
			</g>
		</g>
	</g>
</g>
<g>
	<g>
		<g>
			<g>
				<text transform="matrix(1 2.600000e-003 -2.600000e-003 1 44.786 219.9836)" font-family="'ArialMT'" font-size="11"> </text>
			</g>
		</g>
	</g>
</g>
<g>
	<g>
		<g>
			<g>
				<text transform="matrix(1 2.600000e-003 -2.600000e-003 1 47.8446 219.9933)" font-family="'ArialMT'" font-size="10">= 0)</text>
			</g>
		</g>
	</g>
</g>
<g>
	<g>
		<g>
			<g>
				<text transform="matrix(1 2.600000e-003 -2.600000e-003 1 29.746 232.9464)" font-family="'ArialMT'" font-size="10">(Z</text>
			</g>
		</g>
	</g>
</g>
<g>
	<g>
		<g>
			<g>
				<text transform="matrix(1 2.600000e-003 -2.600000e-003 1 39.1795 235.9718)" font-family="'ArialMT'" font-size="9">1</text>
			</g>
		</g>
	</g>
</g>
<g>
	<g>
		<g>
			<g>
				<text transform="matrix(1 2.600000e-003 -2.600000e-003 1 44.1922 232.9836)" font-family="'ArialMT'" font-size="11"> </text>
			</g>
		</g>
	</g>
</g>
<g>
	<g>
		<g>
			<g>
				<text transform="matrix(1 2.600000e-003 -2.600000e-003 1 47.2509 232.9914)" font-family="'ArialMT'" font-size="10">= 0)</text>
			</g>
		</g>
	</g>
</g>
<polygon fill="#FFFFFF" points="135.7,31.4 127.4,32.1 135,35.7 "/>
<line fill="none" stroke="#000000" x1="133.9" y1="33.2" x2="148" y2="35.8"/>
<polygon points="135.7,31.4 127.4,32.1 135,35.7 "/>
<polygon fill="#FFFFFF" points="178.3,43.7 186.7,43 179.1,39.4 "/>
<line fill="none" stroke="#000000" x1="180.2" y1="41.9" x2="166" y2="39.3"/>
<polygon points="178.3,43.7 186.7,43 179.1,39.4 "/>
<g>
	<g>
		<g>
			<g>
				<text transform="matrix(1 2.600000e-003 -2.600000e-003 1 149.962 37.9377)" font-family="'ArialMT'" font-size="10">Y</text>
			</g>
		</g>
	</g>
</g>
<g>
	<g>
		<g>
			<g>
				<text transform="matrix(1 2.600000e-003 -2.600000e-003 1 156.6249 40.9549)" font-family="'ArialMT'" font-size="9">2</text>
			</g>
		</g>
	</g>
</g>
<polygon fill="#FFFFFF" points="217.8,121.8 219.9,130 222.1,121.8 "/>
<line fill="none" stroke="#000000" x1="219.9" y1="123.3" x2="220" y2="111.9"/>
<polygon points="217.8,121.8 219.9,130 222.1,121.8 "/>
<polygon fill="#FFFFFF" points="222.2,86.7 220,78.6 217.8,86.7 "/>
<line fill="none" stroke="#000000" x1="220" y1="85.2" x2="220" y2="96.6"/>
<polygon points="222.2,86.7 220,78.6 217.8,86.7 "/>
<g>
	<g>
		<g>
			<g>
				<text transform="matrix(1 2.600000e-003 -2.600000e-003 1 214.2429 107.0847)" font-family="'ArialMT'" font-size="10">Z</text>
			</g>
		</g>
	</g>
</g>
<g>
	<g>
		<g>
			<g>
				<text transform="matrix(1 2.600000e-003 -2.600000e-003 1 220.3464 110.1003)" font-family="'ArialMT'" font-size="9">2</text>
			</g>
		</g>
	</g>
</g>
<g>
	<g>
		<g>
			<g>
				
					<text transform="matrix(1 2.600000e-003 -2.600000e-003 1 193.3817 70.3772)" fill="#ED1C24" font-family="'ArialMT'" font-size="11">JJ</text>
			</g>
		</g>
	</g>
</g>
<g>
	<g>
		<g>
			<g>
				<text transform="matrix(1 2.600000e-003 -2.600000e-003 1 87.2274 100.3289)" enable-background="new    "><tspan x="0" y="0" font-family="'ArialMT'" font-size="10">(</tspan><tspan x="3.3" y="0" font-family="'ArialMT'" font-size="10">Y</tspan></text>
			</g>
		</g>
	</g>
</g>
<g>
	<g>
		<g>
			<g>
				<text transform="matrix(1 2.600000e-003 -2.600000e-003 1 97.2215 103.3543)" font-family="'ArialMT'" font-size="9">2</text>
			</g>
		</g>
	</g>
</g>
<g>
	<g>
		<g>
			<g>
				<text transform="matrix(1 2.600000e-003 -2.600000e-003 1 102.2342 100.3665)" font-family="'ArialMT'" font-size="11"> </text>
			</g>
		</g>
	</g>
</g>
<g>
	<g>
		<g>
			<g>
				<text transform="matrix(1 2.600000e-003 -2.600000e-003 1 105.2918 100.3748)" font-family="'ArialMT'" font-size="10">= 0)</text>
			</g>
		</g>
	</g>
</g>
<g>
	<g>
		<g>
			<g>
				<text transform="matrix(1 2.600000e-003 -2.600000e-003 1 87.1942 113.3289)" font-family="'ArialMT'" font-size="10">(Z</text>
			</g>
		</g>
	</g>
</g>
<g>
	<g>
		<g>
			<g>
				<text transform="matrix(1 2.600000e-003 -2.600000e-003 1 96.6278 116.3528)" font-family="'ArialMT'" font-size="9">2</text>
			</g>
		</g>
	</g>
</g>
<g>
	<g>
		<g>
			<g>
				<text transform="matrix(1 2.600000e-003 -2.600000e-003 1 101.6405 113.365)" font-family="'ArialMT'" font-size="11"> </text>
			</g>
		</g>
	</g>
</g>
<g>
	<g>
		<g>
			<g>
				<text transform="matrix(1 2.600000e-003 -2.600000e-003 1 104.6981 113.3733)" font-family="'ArialMT'" font-size="10">= 0)</text>
			</g>
		</g>
	</g>
</g>
<g>
	<g>
		<g>
			<g>
				<text transform="matrix(1 2.600000e-003 -2.600000e-003 1 253.9589 152.5384)" enable-background="new    "><tspan x="0" y="0" font-family="'ArialMT'" font-size="10">(</tspan><tspan x="3.3" y="0" font-family="'ArialMT'" font-size="10">Y</tspan></text>
			</g>
		</g>
	</g>
</g>
<g>
	<g>
		<g>
			<g>
				<text transform="matrix(1 2.600000e-003 -2.600000e-003 1 263.952 155.5637)" font-family="'ArialMT'" font-size="9">2</text>
			</g>
		</g>
	</g>
</g>
<g>
	<g>
		<g>
			<g>
				<text transform="matrix(1 2.600000e-003 -2.600000e-003 1 268.9647 152.5755)" font-family="'ArialMT'" font-size="11"> </text>
			</g>
		</g>
	</g>
</g>
<g>
	<g>
		<g>
			<g>
				<text transform="matrix(1 2.600000e-003 -2.600000e-003 1 272.0234 152.5833)" font-family="'ArialMT'" font-size="10">= 1)</text>
			</g>
		</g>
	</g>
</g>
<g>
	<g>
		<g>
			<g>
				<text transform="matrix(1 2.600000e-003 -2.600000e-003 1 82.3036 21.8601)" font-family="'ArialMT'" font-size="10">(Z</text>
			</g>
		</g>
	</g>
</g>
<g>
	<g>
		<g>
			<g>
				<text transform="matrix(1 2.600000e-003 -2.600000e-003 1 91.7372 24.8845)" font-family="'ArialMT'" font-size="9">2</text>
			</g>
		</g>
	</g>
</g>
<g>
	<g>
		<g>
			<g>
				<text transform="matrix(1 2.600000e-003 -2.600000e-003 1 96.7489 21.8968)" font-family="'ArialMT'" font-size="11"> </text>
			</g>
		</g>
	</g>
</g>
<g>
	<g>
		<g>
			<g>
				<text transform="matrix(1 2.600000e-003 -2.600000e-003 1 99.8075 21.9051)" font-family="'ArialMT'" font-size="10">= 1)</text>
			</g>
		</g>
	</g>
</g>
<g>
	<g>
		<g>
			<g>
				<text transform="matrix(1 2.600000e-003 -2.600000e-003 1 173.6755 237.2003)" enable-background="new    "><tspan x="0" y="0" font-family="'ArialMT'" font-size="10">(</tspan><tspan x="3.3" y="0" font-family="'ArialMT'" font-size="10">Y</tspan></text>
			</g>
		</g>
	</g>
</g>
<g>
	<g>
		<g>
			<g>
				<text transform="matrix(1 2.600000e-003 -2.600000e-003 1 183.6688 240.2257)" font-family="'ArialMT'" font-size="9">1</text>
			</g>
		</g>
	</g>
</g>
<g>
	<g>
		<g>
			<g>
				<text transform="matrix(1 2.600000e-003 -2.600000e-003 1 188.6815 237.2394)" font-family="'ArialMT'" font-size="11"> </text>
			</g>
		</g>
	</g>
</g>
<g>
	<g>
		<g>
			<g>
				<text transform="matrix(1 2.600000e-003 -2.600000e-003 1 191.7401 237.2473)" font-family="'ArialMT'" font-size="10">= 1)</text>
			</g>
		</g>
	</g>
</g>
<g>
	<g>
		<g>
			<g>
				<text transform="matrix(0.6547 -0.7559 0.7559 0.6547 145.8556 137.444)" font-family="'ArialMT'" font-size="11.0005">Reinforcing</text>
			</g>
		</g>
	</g>
</g>
<path fill="none" stroke="#000000" stroke-width="0.764" stroke-linecap="square" d="M91.9,94.2"/>
<polyline fill="#ED1C24" stroke="#ED1C24" stroke-width="0.764" stroke-linecap="square" points="105.7,160.2 189.3,73.4 
	185.4,70.3 101.7,156.8 105.7,160.2 "/>
<path stroke="#000000" stroke-width="0.7632" d="M189.5,72.9c0,1.2-1.2,1.8-2.6,1.4c-1.4-0.4-2.5-1.7-2.4-2.9c0-1.2,1.2-1.8,2.6-1.4
	C188.5,70.4,189.6,71.7,189.5,72.9L189.5,72.9z"/>
<path stroke="#000000" stroke-width="0.7632" d="M106,159.3c0,1.2-1.2,1.8-2.6,1.4c-1.4-0.4-2.5-1.7-2.4-2.9c0-1.2,1.2-1.8,2.6-1.4
	C104.9,156.9,106,158.1,106,159.3L106,159.3z"/>
</svg>
