<?xml version="1.0" encoding="utf-8"?>
<!-- Generator: Adobe Illustrator 17.1.0, SVG Export Plug-In . SVG Version: 6.00 Build 0)  -->

<svg version="1.1" id="Layer_1" xmlns="http://www.w3.org/2000/svg" xmlns:xlink="http://www.w3.org/1999/xlink" x="0px" y="0px"
	 width="465.4px" height="473.5px" viewBox="0 0 465.4 473.5" enable-background="new 0 0 465.4 473.5" xml:space="preserve">
<line fill="none" stroke="#ED1C24" stroke-width="3" x1="54.2" y1="130.8" x2="154.4" y2="113.6"/>
<path d="M151.2,112.9c0.3-1.6,1.8-2.6,3.4-2.3c1.6,0.3,2.6,1.8,2.3,3.4s-1.8,2.6-3.4,2.3C151.9,116,150.9,114.5,151.2,112.9
	L151.2,112.9z"/>
<path d="M51,130.6c0.3-1.6,1.8-2.6,3.4-2.3c1.6,0.3,2.6,1.8,2.3,3.4c-0.3,1.6-1.8,2.6-3.4,2.3C51.7,133.6,50.7,132.1,51,130.6
	L51,130.6z"/>
<polygon fill="none" stroke="#000000" points="196.4,185.6 109,35.4 22.4,185.6 "/>
<line fill="none" stroke="#ED1C24" stroke-width="3" x1="266.1" y1="426.4" x2="201.2" y2="348.1"/>
<path d="M202.1,351.3c-1.5,0.5-3.1-0.3-3.7-1.8c-0.5-1.5,0.3-3.1,1.8-3.7c1.5-0.5,3.1,0.3,3.7,1.8
	C204.4,349.1,203.7,350.7,202.1,351.3L202.1,351.3z"/>
<path d="M267.5,429.3c-1.5,0.5-3.1-0.3-3.7-1.8c-0.5-1.5,0.3-3.1,1.8-3.7c1.5-0.5,3.1,0.3,3.7,1.8
	C269.8,427.1,269,428.8,267.5,429.3L267.5,429.3z"/>
<polygon fill="none" stroke="#000000" points="242.6,275.8 156.1,426.6 329.5,426.6 "/>
<line fill="none" stroke="#ED1C24" stroke-width="3" x1="334.9" y1="185.7" x2="399.8" y2="107.5"/>
<path d="M398.9,110.6c1.5,0.5,3.1-0.3,3.7-1.8c0.5-1.5-0.3-3.1-1.8-3.7c-1.5-0.5-3.1,0.3-3.7,1.8
	C396.6,108.4,397.4,110.1,398.9,110.6L398.9,110.6z"/>
<path d="M333.5,188.6c1.5,0.5,3.1-0.3,3.7-1.8c0.5-1.5-0.3-3.1-1.8-3.7c-1.5-0.5-3.1,0.3-3.7,1.8C331.2,186.5,332,188.1,333.5,188.6
	L333.5,188.6z"/>
<polygon fill="none" stroke="#000000" points="358.4,35.1 444.9,185.9 271.5,185.9 "/>
<text transform="matrix(1 0 0 1 115.4106 31.394)" enable-background="new    "><tspan x="0" y="0" font-family="'MyriadPro-Regular'" font-size="12">K</tspan><tspan x="6.5" y="0" font-family="'MyriadPro-Regular'" font-size="12">(</tspan><tspan x="10.4" y="0" font-family="'MyriadPro-Regular'" font-size="12">Y  = 1</tspan></text>
<text transform="matrix(1 0 0 1 115.4106 45.794)" font-family="'MyriadPro-Regular'" font-size="12">  </text>
<text transform="matrix(1 0 0 1 132.0776 33.3105)" font-family="'MyriadPro-Regular'" font-size="8">1</text>
<text transform="matrix(1 0 0 1 115.4106 46.394)" enable-background="new    "><tspan x="0" y="0" font-family="'MyriadPro-Regular'" font-size="12">   </tspan><tspan x="7.6" y="0" font-family="'MyriadPro-Regular'" font-size="12"> </tspan><tspan x="9.6" y="0" font-family="'MyriadPro-Regular'" font-size="12">Y  = 1)</tspan></text>
<text transform="matrix(1 0 0 1 131.5776 47.8105)" font-family="'MyriadPro-Regular'" font-size="8">2</text>
<line fill="none" stroke="#000000" x1="159.5" y1="112.1" x2="174.8" y2="103.4"/>
<line fill="none" stroke="#000000" x1="201.6" y1="183.9" x2="217" y2="175.2"/>
<g>
	<line fill="none" stroke="#000000" x1="171" y1="115.1" x2="181.8" y2="133.5"/>
	<polygon stroke="#000000" points="172.8,115.2 168.6,111.1 170.1,116.8 	"/>
</g>
<g>
	<polygon stroke="#000000" points="203.4,172.5 207.6,176.7 206.1,171 	"/>
</g>
<g>
	<line fill="none" stroke="#000000" x1="205.2" y1="172.7" x2="192.4" y2="151.6"/>
	<polygon stroke="#000000" points="203.4,172.5 207.6,176.7 206.1,171 	"/>
</g>
<text transform="matrix(0.8694 -0.4941 0.4941 0.8694 185.4084 147.8542)" font-family="'MyriadPro-Regular'" font-size="12">Y</text>
<text transform="matrix(0.8694 -0.4941 0.4941 0.8694 192.5222 146.8781)" font-family="'MyriadPro-Regular'" font-size="8">2</text>
<line fill="none" stroke="#000000" x1="33.1" y1="120.8" x2="48.2" y2="130"/>
<line fill="none" stroke="#000000" x1="0.3" y1="175.3" x2="15.3" y2="184.5"/>
<g>
	<polygon stroke="#000000" points="37.7,133.5 39.4,127.8 35.1,131.9 	"/>
</g>
<g>
	<line fill="none" stroke="#000000" x1="37" y1="131.8" x2="29.7" y2="143.7"/>
	<polygon stroke="#000000" points="37.7,133.5 39.4,127.8 35.1,131.9 	"/>
</g>
<g>
	<polygon stroke="#000000" points="11.1,171.4 9.4,177 13.7,173 	"/>
</g>
<g>
	<line fill="none" stroke="#000000" x1="11.8" y1="173" x2="19.6" y2="160.2"/>
	<polygon stroke="#000000" points="11.1,171.4 9.4,177 13.7,173 	"/>
</g>
<text transform="matrix(0.8539 0.5204 -0.5204 0.8539 17.7527 151.6364)" font-family="'MyriadPro-Regular'" font-size="12">Y</text>
<text transform="matrix(0.8539 0.5204 -0.5204 0.8539 22.0584 157.3825)" font-family="'MyriadPro-Regular'" font-size="8">1</text>
<text transform="matrix(1 0 0 1 146.6606 129.394)" font-family="'MyriadPro-Regular'" font-size="12">JJ</text>
<text transform="matrix(1 0 0 1 213.4946 193.144)" enable-background="new    "><tspan x="0" y="0" font-family="'MyriadPro-Regular'" font-size="12">J</tspan><tspan x="4.4" y="0" font-family="'MyriadPro-Regular'" font-size="12">(</tspan><tspan x="8.3" y="0" font-family="'MyriadPro-Regular'" font-size="12">Y  = 0)</tspan></text>
<text transform="matrix(1 0 0 1 228.1615 195.0605)" font-family="'MyriadPro-Regular'" font-size="8">2</text>
<text transform="matrix(1 0 0 1 7.4106 199.644)" enable-background="new    "><tspan x="0" y="0" font-family="'MyriadPro-Regular'" font-size="12">I</tspan><tspan x="2.9" y="0" font-family="'MyriadPro-Regular'" font-size="12">(</tspan><tspan x="6.8" y="0" font-family="'MyriadPro-Regular'" font-size="12">Y  = 0)</tspan></text>
<text transform="matrix(1 0 0 1 20.0776 201.5605)" font-family="'MyriadPro-Regular'" font-size="8">1</text>
<text transform="matrix(1 0 0 1 202.4106 108.2275)" font-family="'MyriadPro-Regular'" font-size="12">e=1</text>
<text transform="matrix(1 0 0 1 299.9936 205.478)" font-family="'MyriadPro-Regular'" font-size="12">Y</text>
<text transform="matrix(1 0 0 1 306.6606 208.1445)" font-family="'MyriadPro-Regular'" font-size="8">1</text>
<line fill="none" stroke="#000000" x1="334.9" y1="210.5" x2="334.9" y2="192.8"/>
<line fill="none" stroke="#000000" x1="271.2" y1="210.1" x2="271.2" y2="192.5"/>
<g>
	<line fill="none" stroke="#000000" x1="327.5" y1="201.4" x2="312.5" y2="201.4"/>
	<polygon stroke="#000000" points="326.5,199.9 332.2,201.5 326.5,203 	"/>
</g>
<g>
	<polygon stroke="#000000" points="280.2,203 274.5,201.5 280.2,199.9 	"/>
</g>
<g>
	<line fill="none" stroke="#000000" x1="279.2" y1="201.5" x2="295.2" y2="201.5"/>
	<polygon stroke="#000000" points="280.2,203 274.5,201.5 280.2,199.9 	"/>
</g>
<text transform="matrix(1 0 0 1 270.7436 222.978)" enable-background="new    "><tspan x="0" y="0" font-family="'MyriadPro-Regular'" font-size="12">I</tspan><tspan x="2.9" y="0" font-family="'MyriadPro-Regular'" font-size="12">(</tspan><tspan x="6.8" y="0" font-family="'MyriadPro-Regular'" font-size="12">Y  = 0)</tspan></text>
<text transform="matrix(1 0 0 1 283.4106 224.8945)" font-family="'MyriadPro-Regular'" font-size="8">1</text>
<line fill="none" stroke="#000000" x1="362.8" y1="32.8" x2="378.1" y2="24.1"/>
<line fill="none" stroke="#000000" x1="405" y1="104.5" x2="420.3" y2="95.8"/>
<g>
	<line fill="none" stroke="#000000" x1="374.3" y1="35.8" x2="385.2" y2="54.1"/>
	<polygon stroke="#000000" points="376.1,35.9 372,31.7 373.5,37.4 	"/>
</g>
<g>
	<polygon stroke="#000000" points="406.8,93.2 410.9,97.4 409.4,91.7 	"/>
</g>
<g>
	<line fill="none" stroke="#000000" x1="408.6" y1="93.4" x2="395.7" y2="72.2"/>
	<polygon stroke="#000000" points="406.8,93.2 410.9,97.4 409.4,91.7 	"/>
</g>
<text transform="matrix(0.8694 -0.4941 0.4941 0.8694 388.7415 68.5212)" font-family="'MyriadPro-Regular'" font-size="12">Y</text>
<text transform="matrix(0.8694 -0.4941 0.4941 0.8694 395.8542 67.5451)" font-family="'MyriadPro-Regular'" font-size="8">2</text>
<text transform="matrix(1 0 0 1 52.8276 145.561)" font-family="'MyriadPro-Regular'" font-size="12">II</text>
<text transform="matrix(1 0 0 1 384.9936 108.728)" font-family="'MyriadPro-Regular'" font-size="12">JJ</text>
<text transform="matrix(1 0 0 1 324.4936 179.895)" font-family="'MyriadPro-Regular'" font-size="12">II</text>
<text transform="matrix(1 0 0 1 446.0766 109.8935)" font-family="'MyriadPro-Regular'" font-size="12">e=2</text>
<text transform="matrix(1 0 0 1 315.0766 31.5601)" enable-background="new    "><tspan x="0" y="0" font-family="'MyriadPro-Regular'" font-size="12">K</tspan><tspan x="6.5" y="0" font-family="'MyriadPro-Regular'" font-size="12">(</tspan><tspan x="10.4" y="0" font-family="'MyriadPro-Regular'" font-size="12">Y  = 0)</tspan></text>
<text transform="matrix(1 0 0 1 331.7436 33.4766)" font-family="'MyriadPro-Regular'" font-size="8">2</text>
<text transform="matrix(1 0 0 1 424.4106 198.7271)" enable-background="new    "><tspan x="0" y="0" font-family="'MyriadPro-Regular'" font-size="12">J</tspan><tspan x="4.4" y="0" font-family="'MyriadPro-Regular'" font-size="12">(</tspan><tspan x="8.3" y="0" font-family="'MyriadPro-Regular'" font-size="12">Y  = 1</tspan></text>
<text transform="matrix(1 0 0 1 424.4106 213.1271)" font-family="'MyriadPro-Regular'" font-size="12">  </text>
<text transform="matrix(1 0 0 1 439.0775 200.6436)" font-family="'MyriadPro-Regular'" font-size="8">1</text>
<text transform="matrix(1 0 0 1 424.4106 213.7271)" enable-background="new    "><tspan x="0" y="0" font-family="'MyriadPro-Regular'" font-size="12">   </tspan><tspan x="7.6" y="0" font-family="'MyriadPro-Regular'" font-size="12"> </tspan><tspan x="9.6" y="0" font-family="'MyriadPro-Regular'" font-size="12">Y  = 1)</tspan></text>
<text transform="matrix(1 0 0 1 440.5775 215.1436)" font-family="'MyriadPro-Regular'" font-size="8">2</text>
<line fill="none" stroke="#000000" x1="237.8" y1="272.9" x2="222.3" y2="264.5"/>
<line fill="none" stroke="#000000" x1="196.9" y1="345.5" x2="181.4" y2="337"/>
<g>
	<line fill="none" stroke="#000000" x1="226.3" y1="276.1" x2="215.8" y2="294.7"/>
	<polygon stroke="#000000" points="224.5,276.3 228.6,272 227.2,277.8 	"/>
</g>
<g>
	<polygon stroke="#000000" points="194.9,334.1 190.9,338.4 192.3,332.7 	"/>
</g>
<g>
	<line fill="none" stroke="#000000" x1="193.1" y1="334.3" x2="205.6" y2="313"/>
	<polygon stroke="#000000" points="194.9,334.1 190.9,338.4 192.3,332.7 	"/>
</g>
<text transform="matrix(0.8635 0.5043 -0.5043 0.8635 206.573 304.1602)" font-family="'MyriadPro-Regular'" font-size="12">Y</text>
<text transform="matrix(0.8635 0.5043 -0.5043 0.8635 210.9856 309.8248)" font-family="'MyriadPro-Regular'" font-size="8">2</text>
<text transform="matrix(1 0 0 1 295.036 445.1577)" font-family="'MyriadPro-Regular'" font-size="12">Y</text>
<text transform="matrix(1 0 0 1 301.703 447.8242)" font-family="'MyriadPro-Regular'" font-size="8">1</text>
<line fill="none" stroke="#000000" x1="329.9" y1="450.2" x2="329.9" y2="432.5"/>
<line fill="none" stroke="#000000" x1="266.3" y1="449.8" x2="266.3" y2="432.2"/>
<g>
	<line fill="none" stroke="#000000" x1="322.5" y1="441.1" x2="307.6" y2="441.1"/>
	<polygon stroke="#000000" points="321.5,439.6 327.2,441.1 321.5,442.7 	"/>
</g>
<g>
	<polygon stroke="#000000" points="275.3,442.7 269.6,441.1 275.3,439.6 	"/>
</g>
<g>
	<line fill="none" stroke="#000000" x1="274.2" y1="441.2" x2="290.2" y2="441.2"/>
	<polygon stroke="#000000" points="275.3,442.7 269.6,441.1 275.3,439.6 	"/>
</g>
<text transform="matrix(1 0 0 1 335.119 430.6577)" enable-background="new    "><tspan x="0" y="0" font-family="'MyriadPro-Regular'" font-size="12">J</tspan><tspan x="4.4" y="0" font-family="'MyriadPro-Regular'" font-size="12">(</tspan><tspan x="8.3" y="0" font-family="'MyriadPro-Regular'" font-size="12">Y  = 0)</tspan></text>
<text transform="matrix(1 0 0 1 349.786 432.5742)" font-family="'MyriadPro-Regular'" font-size="8">1</text>
<text transform="matrix(1 0 0 1 156.4526 440.4058)" enable-background="new    "><tspan x="0" y="0" font-family="'MyriadPro-Regular'" font-size="12">I</tspan><tspan x="2.9" y="0" font-family="'MyriadPro-Regular'" font-size="12">(</tspan><tspan x="6.8" y="0" font-family="'MyriadPro-Regular'" font-size="12">Y  = 1</tspan></text>
<text transform="matrix(1 0 0 1 156.4526 454.8058)" font-family="'MyriadPro-Regular'" font-size="12">  </text>
<text transform="matrix(1 0 0 1 170.1196 442.3223)" font-family="'MyriadPro-Regular'" font-size="8">1</text>
<text transform="matrix(1 0 0 1 156.4526 455.4058)" enable-background="new    "><tspan x="0" y="0" font-family="'MyriadPro-Regular'" font-size="12">  </tspan><tspan x="5.1" y="0" font-family="'MyriadPro-Regular'" font-size="12"> </tspan><tspan x="7.1" y="0" font-family="'MyriadPro-Regular'" font-size="12">Y  = 1)</tspan></text>
<text transform="matrix(1 0 0 1 172.6196 456.8223)" font-family="'MyriadPro-Regular'" font-size="8">2</text>
<text transform="matrix(1 0 0 1 207.3705 347.4077)" font-family="'MyriadPro-Regular'" font-size="12">JJ</text>
<text transform="matrix(1 0 0 1 268.536 420.5737)" font-family="'MyriadPro-Regular'" font-size="12">II</text>
<text transform="matrix(1 0 0 1 238.1186 265.5718)" enable-background="new    "><tspan x="0" y="0" font-family="'MyriadPro-Regular'" font-size="12">K</tspan><tspan x="6.5" y="0" font-family="'MyriadPro-Regular'" font-size="12">(</tspan><tspan x="10.4" y="0" font-family="'MyriadPro-Regular'" font-size="12">Y  = 0)</tspan></text>
<text transform="matrix(1 0 0 1 254.7856 267.4883)" font-family="'MyriadPro-Regular'" font-size="8">2</text>
<text transform="matrix(1 0 0 1 326.1186 349.9063)" font-family="'MyriadPro-Regular'" font-size="12">e=3</text>
<line fill="none" x1="210.2" y1="0" x2="219.7" y2="1.5"/>
<line fill="none" x1="243.2" y1="472" x2="252.7" y2="473.5"/>
<path d="M106,34.6c0.3-1.6,1.8-2.6,3.4-2.3c1.6,0.3,2.6,1.8,2.3,3.4c-0.3,1.6-1.8,2.6-3.4,2.3C106.7,37.7,105.6,36.2,106,34.6
	L106,34.6z"/>
<path d="M193.4,185c0.3-1.6,1.8-2.6,3.4-2.3c1.6,0.3,2.6,1.8,2.3,3.4c-0.3,1.6-1.8,2.6-3.4,2.3C194.1,188.1,193.1,186.6,193.4,185
	L193.4,185z"/>
<path d="M19.7,185.1c0.3-1.6,1.8-2.6,3.4-2.3s2.6,1.8,2.3,3.4c-0.3,1.6-1.8,2.6-3.4,2.3S19.4,186.7,19.7,185.1L19.7,185.1z"/>
<path d="M355.4,34.6c0.3-1.6,1.8-2.6,3.4-2.3c1.6,0.3,2.6,1.8,2.3,3.4c-0.3,1.6-1.8,2.6-3.4,2.3C356.1,37.6,355.1,36.1,355.4,34.6
	L355.4,34.6z"/>
<path d="M441.9,185.2c0.3-1.6,1.8-2.6,3.4-2.3s2.6,1.8,2.3,3.4c-0.3,1.6-1.8,2.6-3.4,2.3C442.6,188.3,441.6,186.8,441.9,185.2
	L441.9,185.2z"/>
<path d="M268.7,185.4c0.3-1.6,1.8-2.6,3.4-2.3s2.6,1.8,2.3,3.4c-0.3,1.6-1.8,2.6-3.4,2.3C269.4,188.5,268.4,187,268.7,185.4
	L268.7,185.4z"/>
<path d="M239.8,275.5c0.3-1.6,1.8-2.6,3.4-2.3c1.6,0.3,2.6,1.8,2.3,3.4s-1.8,2.6-3.4,2.3S239.5,277,239.8,275.5L239.8,275.5z"/>
<path d="M153.2,425.8c0.3-1.6,1.8-2.6,3.4-2.3c1.6,0.3,2.6,1.8,2.3,3.4s-1.8,2.6-3.4,2.3C154,428.9,152.9,427.4,153.2,425.8
	L153.2,425.8z"/>
<path d="M326.5,426c0.3-1.6,1.8-2.6,3.4-2.3c1.6,0.3,2.6,1.8,2.3,3.4c-0.3,1.6-1.8,2.6-3.4,2.3C327.2,429.1,326.2,427.6,326.5,426
	L326.5,426z"/>
</svg>
