<?xml version="1.0" encoding="utf-8"?>
<!-- Generator: Adobe Illustrator 17.1.0, SVG Export Plug-In . SVG Version: 6.00 Build 0)  -->

<svg version="1.1" id="Layer_1" xmlns="http://www.w3.org/2000/svg" xmlns:xlink="http://www.w3.org/1999/xlink" x="0px" y="0px"
	 width="152.5px" height="152.8px" viewBox="0 0 152.5 152.8" enable-background="new 0 0 152.5 152.8" xml:space="preserve">
<line fill="none" x1="115.2" y1="145.7" x2="128.6" y2="16.8"/>
<polyline fill="none" points="115.2,145.7 128.6,16.8 11.3,43.5 "/>
<polyline fill="none" points="115.2,145.7 128.6,16.8 11.3,43.5 5.8,134.2 "/>
<polygon fill="#00BDF2" stroke="#000000" stroke-linecap="square" points="115.2,145.7 128.6,16.8 11.3,43.5 5.8,134.2 "/>
<g>
	<g>
		<g>
			<g>
				<text transform="matrix(0.9975 0 0 1 0 144.23)" font-family="'ArialMT'" font-size="11.0004">I</text>
			</g>
		</g>
	</g>
</g>
<g>
	<g>
		<g>
			<g>
				<text transform="matrix(0.9975 0 0 1 119.7617 149.23)" font-family="'ArialMT'" font-size="11.0004">J</text>
			</g>
		</g>
	</g>
</g>
<g>
	<g>
		<g>
			<g>
				<text transform="matrix(0.9975 0 0 1 128.3994 15.2637)" font-family="'ArialMT'" font-size="11.0004"> K</text>
			</g>
		</g>
	</g>
</g>
<g>
	<g>
		<g>
			<g>
				<text transform="matrix(0.9975 0 0 1 4.5991 40.9991)" font-family="'ArialMT'" font-size="11.0004">L</text>
			</g>
		</g>
	</g>
</g>
<g>
	<g>
		<g>
			<g>
				<text transform="matrix(0.9975 0 0 1 113.0439 78.126)" font-family="'ArialMT'" font-size="11.0004">g</text>
			</g>
		</g>
	</g>
</g>
<g>
	<g>
		<g>
			<g>
				<text transform="matrix(0.9975 0 0 1 74.4165 41.4799)" font-family="'ArialMT'" font-size="11.0004">h</text>
			</g>
		</g>
	</g>
</g>
<g>
	<g>
		<g>
			<g>
				<text transform="matrix(0.9975 0 0 1 133.0527 94.4624)" font-family="'ArialMT'" font-size="11.0004">y</text>
			</g>
		</g>
	</g>
</g>
<g>
	<g>
		<g>
			<g>
				<text transform="matrix(0.9975 0 0 1 70.0195 20.168)" font-family="'ArialMT'" font-size="11.0004">z</text>
			</g>
		</g>
	</g>
</g>
<g>
	<g>
		<polygon fill="#FFFFFF" points="69.4,10.8 66.5,0 63.6,10.8 		"/>
	</g>
	<g>
		<line fill="none" stroke="#666666" stroke-linecap="square" x1="66.5" y1="8.9" x2="66.5" y2="83.9"/>
		<polygon fill="#666666" points="69.4,10.8 66.5,0 63.6,10.8 		"/>
	</g>
</g>
<g>
	<g>
		<polygon fill="#FFFFFF" points="141.7,87 152.5,84.1 141.7,81.2 		"/>
	</g>
	<g>
		<line fill="none" stroke="#666666" stroke-linecap="square" x1="67.5" y1="84.2" x2="143.7" y2="84.2"/>
		<polygon fill="#666666" points="141.7,87 152.5,84.1 141.7,81.2 		"/>
	</g>
</g>
<path stroke="#000000" d="M69.6,84.6c-0.4,1.7-2.1,2.8-3.8,2.4c-1.7-0.4-2.8-2.1-2.4-3.8c0.4-1.7,2.1-2.8,3.8-2.4S70,82.9,69.6,84.6
	z"/>
<line fill="none" stroke="#000000" stroke-width="2" x1="73.1" y1="29.5" x2="60.5" y2="139.7"/>
<line fill="none" stroke="#000000" stroke-width="2" x1="121.7" y1="81.7" x2="8.4" y2="87.4"/>
</svg>
