<?xml version="1.0" encoding="utf-8"?>
<!-- Generator: Adobe Illustrator 17.1.0, SVG Export Plug-In . SVG Version: 6.00 Build 0)  -->

<svg version="1.1" id="Layer_1" xmlns="http://www.w3.org/2000/svg" xmlns:xlink="http://www.w3.org/1999/xlink" x="0px" y="0px"
	 width="214px" height="190.3px" viewBox="0 1.6 214 190.3" enable-background="new 0 1.6 214 190.3" xml:space="preserve">
<g>
	<polygon fill="none" stroke="#000000" points="86.1,19.3 163.1,95.1 86.9,173.4 8.9,96.6 	"/>
	<line fill="none" stroke="#000000" stroke-dasharray="5.76,5.76" x1="163.3" y1="95.5" x2="10.3" y2="96.5"/>
	<line fill="none" stroke="#000000" x1="86.3" y1="19" x2="86.6" y2="171.8"/>
	<line fill="none" stroke="#ED1C24" x1="87.2" y1="76.3" x2="40.2" y2="125.7"/>
	<line fill="none" stroke="#ED1C24" x1="87.5" y1="76.2" x2="133.5" y2="124.1"/>
	<line fill="none" stroke="#ED1C24" stroke-dasharray="5.76,5.76" x1="132.8" y1="125.2" x2="40.4" y2="126"/>
	<path d="M12.5,97.9c-0.3,1.6-1.8,2.6-3.4,2.2c-1.6-0.3-2.6-1.8-2.2-3.4c0.3-1.6,1.8-2.6,3.4-2.2C11.8,94.8,12.8,96.3,12.5,97.9
		L12.5,97.9z"/>
	<path d="M89.5,76.9c-0.3,1.6-1.8,2.6-3.4,2.2c-1.6-0.3-2.6-1.8-2.2-3.4c0.3-1.6,1.8-2.6,3.4-2.2C88.8,73.8,89.8,75.3,89.5,76.9
		L89.5,76.9z"/>
	<path d="M89.5,20.9c-0.3,1.6-1.8,2.6-3.4,2.2c-1.6-0.3-2.6-1.8-2.2-3.4c0.3-1.6,1.8-2.6,3.4-2.2C88.8,17.8,89.8,19.3,89.5,20.9
		L89.5,20.9z"/>
	<path d="M42.5,127.9c-0.3,1.6-1.8,2.6-3.4,2.2c-1.6-0.3-2.6-1.8-2.2-3.4c0.3-1.6,1.8-2.6,3.4-2.2C41.8,124.8,42.8,126.3,42.5,127.9
		L42.5,127.9z"/>
	<path d="M89.5,173.9c-0.3,1.6-1.8,2.6-3.4,2.2c-1.6-0.3-2.6-1.8-2.2-3.4c0.3-1.6,1.8-2.6,3.4-2.2C88.8,170.8,89.8,172.3,89.5,173.9
		L89.5,173.9z"/>
	<path d="M164.5,94.9c-0.3,1.6-1.8,2.6-3.4,2.2c-1.6-0.3-2.6-1.8-2.2-3.4c0.3-1.6,1.8-2.6,3.4-2.2C163.8,91.8,164.8,93.3,164.5,94.9
		L164.5,94.9z"/>
	<path d="M136.5,125.9c-0.3,1.6-1.8,2.6-3.4,2.2c-1.6-0.3-2.6-1.8-2.2-3.4c0.3-1.6,1.8-2.6,3.4-2.2
		C135.8,122.8,136.8,124.3,136.5,125.9L136.5,125.9z"/>
	<g>
		<g>
			<g>
				<g>
					<text transform="matrix(1 0 0 1 72.334 62.669)" font-family="'ArialMT'" font-size="11">d</text>
				</g>
			</g>
		</g>
	</g>
	<g>
		<g>
			<g>
				<g>
					<text transform="matrix(1 0 0 1 139 133.001)" font-family="'ArialMT'" font-size="11">JJ</text>
				</g>
			</g>
		</g>
	</g>
	<g>
		<g>
			<g>
				<g>
					<text transform="matrix(1 0 0 1 96.001 79.668)" enable-background="new    "><tspan x="0" y="0" font-family="'ArialMT'" font-size="11">KK, L</tspan><tspan x="26.9" y="0" font-family="'ArialMT'" font-size="11">L</tspan></text>
				</g>
			</g>
		</g>
	</g>
	<g>
		<g>
			<g>
				<g>
					<text transform="matrix(1 0 0 1 167.333 97.001)" font-family="'ArialMT'" font-size="11">K</text>
				</g>
			</g>
		</g>
	</g>
	<g>
		<g>
			<g>
				<g>
					<text transform="matrix(1 0 0 1 84.334 188.335)" font-family="'ArialMT'" font-size="11">J (d = 1)</text>
				</g>
			</g>
		</g>
	</g>
	<g>
		<g>
			<g>
				<g>
					<text transform="matrix(1 0 0 1 0 101.334)" font-family="'ArialMT'" font-size="11">I</text>
				</g>
			</g>
		</g>
	</g>
	<g>
		<g>
			<g>
				<g>
					<text transform="matrix(1 0 0 1 29.333 136)" font-family="'ArialMT'" font-size="11">II</text>
				</g>
			</g>
		</g>
	</g>
	<g>
		<g>
			<g>
				<g>
					<g>
						<text transform="matrix(1 0 0 1 85 11)" font-family="'ArialMT'" font-size="11">L</text>
					</g>
				</g>
			</g>
		</g>
		<g>
			<g>
				<g>
					<g>
						<text transform="matrix(1 0 0 1 90.7107 11)" font-family="'ArialMT'" font-size="11"> (d = 0)</text>
					</g>
				</g>
			</g>
		</g>
	</g>
	<line fill="none" stroke="#A6A6A6" stroke-width="2" x1="106.3" y1="112" x2="87.7" y2="120"/>
	<line fill="none" stroke="#A6A6A6" stroke-width="2" x1="99" y1="106.3" x2="76.3" y2="117.3"/>
	<line fill="none" stroke="#A6A6A6" stroke-width="2" x1="91.7" y1="101" x2="71.3" y2="111.7"/>
	<g>
		<g>
			<g>
				<g>
					<text transform="matrix(1 0 0 1 192.334 91.668)" font-family="'ArialMT'" font-size="11">f = 2</text>
				</g>
			</g>
		</g>
	</g>
	<g>
		<g>
			<polygon fill="#FFFFFF" points="73.5,80.8 75.7,89 77.9,80.8 			"/>
		</g>
		<g>
			<line fill="none" stroke="#000000" x1="75.7" y1="67" x2="75.7" y2="82.3"/>
			<polygon points="73.5,80.8 75.7,89 77.9,80.8 			"/>
		</g>
	</g>
	<g>
		<g>
			<polygon fill="#FFFFFF" points="77.8,37.5 75.6,29.4 73.5,37.5 			"/>
		</g>
		<g>
			<line fill="none" stroke="#000000" x1="75.7" y1="51.3" x2="75.7" y2="36"/>
			<polygon points="77.8,37.5 75.6,29.4 73.5,37.5 			"/>
		</g>
	</g>
</g>
</svg>
