<?xml version="1.0" encoding="utf-8"?>
<!-- Generator: Adobe Illustrator 17.1.0, SVG Export Plug-In . SVG Version: 6.00 Build 0)  -->

<svg version="1.1" id="Layer_1" xmlns="http://www.w3.org/2000/svg" xmlns:xlink="http://www.w3.org/1999/xlink" x="0px" y="0px"
	 width="162.6px" height="193.1px" viewBox="0 1.6 162.6 193.1" enable-background="new 0 1.6 162.6 193.1" xml:space="preserve">
<line fill="none" x1="132.5" y1="167.2" x2="36.7" y2="167.2"/>
<polyline fill="none" points="132.5,167.2 36.7,167.2 36.7,20.2 "/>
<polyline fill="none" points="132.5,167.2 36.7,167.2 36.7,20.2 148.9,20.2 "/>
<polyline fill="none" points="132.5,167.2 36.7,167.2 36.7,20.2 148.9,20.2 148.9,36.6 "/>
<polyline fill="none" points="132.5,167.2 36.7,167.2 36.7,20.2 148.9,20.2 148.9,36.6 49.9,36.6 "/>
<polyline fill="none" points="132.5,167.2 36.7,167.2 36.7,20.2 148.9,20.2 148.9,36.6 49.9,36.6 49.9,151.6 "/>
<polyline fill="none" points="132.5,167.2 36.7,167.2 36.7,20.2 148.9,20.2 148.9,36.6 49.9,36.6 49.9,151.6 132.5,151.6 "/>
<polygon fill="#00BDF2" stroke="#000000" stroke-linecap="square" stroke-miterlimit="10" points="132.5,167.2 36.7,167.2 
	36.7,20.2 148.9,20.2 148.9,36.6 49.9,36.6 49.9,151.6 132.5,151.6 "/>
<g>
	<g>
		<polygon fill="#FFFFFF" points="122.4,182.6 133.2,179.7 122.4,176.8 		"/>
		<polygon fill="#FFFFFF" points="46.8,176.9 35.9,179.8 46.8,182.7 		"/>
	</g>
	<g>
		<line fill="none" stroke="#000000" stroke-linecap="square" x1="44.8" y1="179.8" x2="124.4" y2="179.8"/>
		<polygon points="122.4,182.6 133.2,179.7 122.4,176.8 		"/>
		<polygon points="46.8,176.9 35.9,179.8 46.8,182.7 		"/>
	</g>
</g>
<g>
	<g>
		<g>
			<g>
				<text transform="matrix(1.0001 0 0 1 77.5195 191.1172)" font-family="'ArialMT'" font-size="11">W1</text>
			</g>
		</g>
	</g>
</g>
<g>
	<g>
		<polygon fill="#FFFFFF" points="138.2,15.9 149,13 138.2,10.1 		"/>
		<polygon fill="#FFFFFF" points="46.9,10.2 36,13.1 46.9,16 		"/>
	</g>
	<g>
		<line fill="none" stroke="#000000" stroke-linecap="square" x1="44.9" y1="13" x2="140.1" y2="13"/>
		<polygon points="138.2,15.9 149,13 138.2,10.1 		"/>
		<polygon points="46.9,10.2 36,13.1 46.9,16 		"/>
	</g>
</g>
<g>
	<g>
		<g>
			<g>
				<text transform="matrix(1.0001 0 0 1 84.2461 11)" font-family="'ArialMT'" font-size="11">W2</text>
			</g>
		</g>
	</g>
</g>
<g>
	<g>
		<polygon fill="#FFFFFF" points="16.8,156.5 19.7,167.3 22.6,156.5 		"/>
		<polygon fill="#FFFFFF" points="22.5,29.9 19.6,19.1 16.7,29.9 		"/>
	</g>
	<g>
		<line fill="none" stroke="#000000" stroke-linecap="square" x1="19.7" y1="28" x2="19.7" y2="158.4"/>
		<polygon points="16.8,156.5 19.7,167.3 22.6,156.5 		"/>
		<polygon points="22.5,29.9 19.6,19.1 16.7,29.9 		"/>
	</g>
</g>
<g>
	<g>
		<g>
			<g>
				<text transform="matrix(1.0001 0 0 1 0 93.6294)" font-family="'ArialMT'" font-size="11">W3</text>
			</g>
		</g>
	</g>
</g>
<g>
	<g>
		<g>
			<g>
				<text transform="matrix(1.0001 0 0 1 136.375 164.4893)" font-family="'ArialMT'" font-size="11">t1</text>
			</g>
		</g>
	</g>
</g>
<g>
	<g>
		<g>
			<g>
				<text transform="matrix(1.0001 0 0 1 153.4307 31.417)" font-family="'ArialMT'" font-size="11">t2</text>
			</g>
		</g>
	</g>
</g>
<g>
	<g>
		<g>
			<g>
				<text transform="matrix(1.0001 0 0 1 55.8994 93.6294)" font-family="'ArialMT'" font-size="11">t3</text>
			</g>
		</g>
	</g>
</g>
<line fill="none" stroke="#000000" stroke-linecap="square" x1="91.2" y1="21.3" x2="91.2" y2="36.7"/>
<g>
	<g>
		<g>
			<g>
				<text transform="matrix(1.0001 0 0 1 52.335 116.0811)" font-family="'ArialMT'" font-size="11">z</text>
			</g>
		</g>
	</g>
</g>
<g>
	<g>
		<g>
			<g>
				<text transform="matrix(1.0001 0 0 1 80.4551 147.2314)" font-family="'ArialMT'" font-size="11">y</text>
			</g>
		</g>
	</g>
</g>
<g>
	<g>
		<polygon fill="#FFFFFF" points="39.3,117.2 36.4,106.3 33.5,117.2 		"/>
	</g>
	<g>
		<line fill="none" stroke="#000000" stroke-linecap="square" x1="36.4" y1="166.8" x2="36.4" y2="115.2"/>
		<polygon points="39.3,117.2 36.4,106.3 33.5,117.2 		"/>
	</g>
</g>
<g>
	<g>
		<polygon fill="#FFFFFF" points="76.2,169.8 87,166.9 76.2,164 		"/>
	</g>
	<g>
		<line fill="none" stroke="#000000" stroke-linecap="square" x1="36.8" y1="167" x2="78.2" y2="167"/>
		<polygon points="76.2,169.8 87,166.9 76.2,164 		"/>
	</g>
</g>
<ellipse stroke="#000000" cx="36.7" cy="167.2" rx="4.2" ry="4"/>
<line fill="none" stroke="#000000" stroke-linecap="square" x1="37" y1="36.9" x2="49.4" y2="36.9"/>
<line fill="none" stroke="#000000" stroke-linecap="square" x1="50.1" y1="21.3" x2="50.1" y2="36.7"/>
<line fill="none" stroke="#000000" stroke-linecap="square" x1="87.4" y1="152.2" x2="87.4" y2="166.7"/>
<line fill="none" stroke="#000000" stroke-linecap="square" x1="50.2" y1="152.2" x2="50.2" y2="166.7"/>
<line fill="none" stroke="#000000" stroke-linecap="square" x1="37" y1="96.6" x2="49.4" y2="96.6"/>
<line fill="none" stroke="#000000" stroke-linecap="square" x1="37" y1="151.6" x2="49.4" y2="151.6"/>
</svg>
