<?xml version="1.0" encoding="utf-8"?>
<!-- Generator: Adobe Illustrator 17.1.0, SVG Export Plug-In . SVG Version: 6.00 Build 0)  -->

<svg version="1.1" id="Layer_1" xmlns="http://www.w3.org/2000/svg" xmlns:xlink="http://www.w3.org/1999/xlink" x="0px" y="0px"
	 width="291.1px" height="216px" viewBox="0 0 291.1 216" enable-background="new 0 0 291.1 216" xml:space="preserve">
<line fill="none" stroke="#ED1C24" stroke-width="0.9971" stroke-dasharray="5.76,5.76" x1="34.8" y1="141.6" x2="120.9" y2="53.7"/>
<path d="M117.5,87c0.3-1.6,1.8-2.6,3.4-2.3c1.6,0.3,2.6,1.8,2.3,3.4c-0.3,1.6-1.8,2.6-3.4,2.3C118.2,90,117.2,88.5,117.5,87
	L117.5,87z"/>
<line fill="none" stroke="#000000" x1="101.9" y1="54.6" x2="114.9" y2="54.6"/>
<line fill="none" stroke="#000000" x1="102.5" y1="87.4" x2="115.5" y2="87.4"/>
<g>
	<g>
		<line fill="none" stroke="#000000" x1="108.7" y1="62.2" x2="108.7" y2="79.8"/>
		<polygon points="106.5,78.3 108.7,86.5 110.9,78.3 		"/>
		<polygon points="110.8,63.7 108.6,55.6 106.5,63.7 		"/>
	</g>
</g>
<line fill="none" stroke="#000000" stroke-width="0.9971" stroke-dasharray="5.76,5.76" x1="121.7" y1="88.7" x2="244.3" y2="110.2"/>
<line fill="none" stroke="#000000" stroke-width="0.9971" stroke-dasharray="5.76,5.76" x1="34.3" y1="176.5" x2="120.4" y2="88.6"/>
<path fill="none" stroke="#000000" stroke-miterlimit="10" d="M244.8,36.4L120.6,15.2l-87.3,88"/>
<line fill="none" stroke="#000000" stroke-width="0.9971" stroke-miterlimit="10" x1="244.3" y1="36.7" x2="120.6" y2="15.2"/>
<line fill="none" stroke="#000000" stroke-width="0.9971" stroke-miterlimit="10" x1="244.3" y1="71.9" x2="244.3" y2="36.7"/>
<line fill="none" stroke="#000000" stroke-width="0.9971" stroke-miterlimit="10" x1="244.3" y1="110.2" x2="244.3" y2="71.9"/>
<polyline fill="none" stroke="#000000" stroke-width="0.9971" stroke-miterlimit="10" points="34.3,176.5 157.8,199.8 244.3,110.2 
	"/>
<line fill="none" stroke="#000000" stroke-width="0.9971" stroke-miterlimit="10" x1="33.8" y1="102.7" x2="34.3" y2="176.5"/>
<line fill="none" stroke="#000000" stroke-width="0.9971" stroke-miterlimit="10" x1="243.7" y1="37.9" x2="158.1" y2="127"/>
<polygon fill="none" stroke="#000000" stroke-width="0.9971" stroke-miterlimit="10" points="244.7,36.7 158.1,127 33.7,102.7 
	120.4,15.3 "/>
<line fill="none" stroke="#ED1C24" x1="34.2" y1="142.2" x2="157.6" y2="166.5"/>
<line fill="none" stroke="#ED1C24" x1="243.9" y1="76.9" x2="158.6" y2="165.5"/>
<line fill="none" stroke="#000000" stroke-width="0.9971" stroke-dasharray="5.76,5.76" x1="120.4" y1="88.6" x2="120.4" y2="15.8"/>
<line fill="none" stroke="#ED1C24" stroke-width="0.9971" stroke-dasharray="5.76,5.76" x1="243.7" y1="75" x2="120.9" y2="53.7"/>
<path fill="none" stroke="#000000" stroke-width="0.9971" stroke-dasharray="5.76,5.76" d="M121.2,28.2"/>
<text transform="matrix(0.8269 0 0 1 26.7168 177.104)" font-family="'ArialMT'" font-size="11">I</text>
<text transform="matrix(0.8269 0 0 1 24.1899 143.5923)" font-family="'ArialMT'" font-size="11">II</text>
<text transform="matrix(0.8269 0 0 1 159.251 212.4355)" font-family="'ArialMT'" font-size="11">J (d = 0)</text>
<text transform="matrix(0.8269 0 0 1 247 122.4888)" font-family="'ArialMT'" font-size="11">K</text>
<text transform="matrix(0.8269 0 0 1 247.75 71.2656)" font-family="'ArialMT'" font-size="11">KK</text>
<text transform="matrix(0.8269 0 0 1 124.667 85.7734)" font-family="'ArialMT'" font-size="11">L</text>
<text transform="matrix(0.8269 0 0 1 124.667 50.2427)" enable-background="new    "><tspan x="0" y="0" font-family="'ArialMT'" font-size="11">L</tspan><tspan x="6.1" y="0" font-family="'ArialMT'" font-size="11">L</tspan></text>
<g>
	<line fill="none" stroke="#A6A6A6" stroke-width="2.16" x1="99" y1="84.3" x2="147.1" y2="69.4"/>
	<line fill="none" stroke="#A6A6A6" stroke-width="2" x1="79.2" y1="125.4" x2="190.8" y2="89.2"/>
	<line fill="none" stroke="#A6A6A6" stroke-width="2.16" x1="82.3" y1="103" x2="175.7" y2="72.7"/>
	<line fill="none" stroke="#A6A6A6" stroke-width="2.16" x1="73.8" y1="117.7" x2="186.7" y2="80.2"/>
</g>
<path d="M154.5,165c0.3-1.6,1.8-2.6,3.4-2.3c1.6,0.3,2.6,1.8,2.3,3.4c-0.3,1.6-1.8,2.6-3.4,2.3C155.2,168,154.2,166.5,154.5,165
	L154.5,165z"/>
<path d="M154.5,199c0.3-1.6,1.8-2.6,3.4-2.3c1.6,0.3,2.6,1.8,2.3,3.4c-0.3,1.6-1.8,2.6-3.4,2.3C155.2,202,154.2,200.5,154.5,199
	L154.5,199z"/>
<text transform="matrix(0.8269 0 0 1 160.001 174.4399)" font-family="'ArialMT'" font-size="11">JJ</text>
<path d="M241.5,76c0.3-1.6,1.8-2.6,3.4-2.3c1.6,0.3,2.6,1.8,2.3,3.4s-1.8,2.6-3.4,2.3C242.2,79,241.2,77.5,241.5,76L241.5,76z"/>
<path d="M241.5,110c0.3-1.6,1.8-2.6,3.4-2.3c1.6,0.3,2.6,1.8,2.3,3.4s-1.8,2.6-3.4,2.3C242.2,113,241.2,111.5,241.5,110L241.5,110z"
	/>
<path d="M117.5,54c0.3-1.6,1.8-2.6,3.4-2.3s2.6,1.8,2.3,3.4c-0.3,1.6-1.8,2.6-3.4,2.3C118.2,57,117.2,55.5,117.5,54L117.5,54z"/>
<path d="M31.5,141c0.3-1.6,1.8-2.6,3.4-2.3c1.6,0.3,2.6,1.8,2.3,3.4c-0.3,1.6-1.8,2.6-3.4,2.3C32.2,144,31.2,142.5,31.5,141
	L31.5,141z"/>
<path d="M31.5,103c0.3-1.6,1.8-2.6,3.4-2.3c1.6,0.3,2.6,1.8,2.3,3.4s-1.8,2.6-3.4,2.3C32.2,106,31.2,104.5,31.5,103L31.5,103z"/>
<path d="M31.5,176c0.3-1.6,1.8-2.6,3.4-2.3c1.6,0.3,2.6,1.8,2.3,3.4c-0.3,1.6-1.8,2.6-3.4,2.3C32.2,179,31.2,177.5,31.5,176
	L31.5,176z"/>
<text transform="matrix(0.8269 0 0 1 21.667 104.4399)" font-family="'ArialMT'" font-size="11">M</text>
<path d="M117.5,15c0.3-1.6,1.8-2.6,3.4-2.3s2.6,1.8,2.3,3.4c-0.3,1.6-1.8,2.6-3.4,2.3C118.2,18,117.2,16.5,117.5,15L117.5,15z"/>
<text transform="matrix(0.8269 0 0 1 124.667 9.4399)" font-family="'ArialMT'" font-size="11">P</text>
<text transform="matrix(0.8269 0 0 1 249.667 37.4399)" font-family="'ArialMT'" font-size="11">O</text>
<path d="M241.5,36c0.3-1.6,1.8-2.6,3.4-2.3c1.6,0.3,2.6,1.8,2.3,3.4c-0.3,1.6-1.8,2.6-3.4,2.3C242.2,39,241.2,37.5,241.5,36
	L241.5,36z"/>
<line fill="none" stroke="#000000" x1="171.3" y1="165.7" x2="184.3" y2="165.7"/>
<line fill="none" stroke="#000000" x1="171.3" y1="200.1" x2="184.3" y2="200.1"/>
<g>
	<g>
		<line fill="none" stroke="#000000" x1="177.7" y1="172.4" x2="177.7" y2="192.4"/>
		<polygon points="175.5,191 177.7,199.1 179.9,191 		"/>
		<polygon points="179.8,173.9 177.6,165.8 175.5,173.9 		"/>
	</g>
</g>
<text transform="matrix(0.8269 0 0 1 182.5 184.7729)" font-family="'ArialMT'" font-size="11">d2</text>
<text transform="matrix(0.8269 0 0 1 162.001 134.4399)" font-family="'ArialMT'" font-size="11">N (d = 1)</text>
<text transform="matrix(0.8269 0 0 1 273.167 71.6064)" font-family="'ArialMT'" font-size="11">f = 1</text>
<polyline fill="#FFFFFF" stroke="#000000" stroke-width="0.9971" stroke-miterlimit="10" points="158.1,127 158,199.8 158.1,127 
	33.7,102.7 "/>
<path d="M154.5,127c0.3-1.6,1.8-2.6,3.4-2.3c1.6,0.3,2.6,1.8,2.3,3.4c-0.3,1.6-1.8,2.6-3.4,2.3C155.2,130,154.2,128.5,154.5,127
	L154.5,127z"/>
<line fill="none" stroke="#000000" x1="8.3" y1="141.7" x2="21.3" y2="141.7"/>
<line fill="none" stroke="#000000" x1="8.3" y1="177.1" x2="21.3" y2="177.1"/>
<g>
	<g>
		<polygon fill="#FFFFFF" points="12.5,168 14.7,176.1 16.9,168 		"/>
		<polygon fill="#FFFFFF" points="16.8,150.9 14.6,142.8 12.5,150.9 		"/>
	</g>
	<g>
		<line fill="none" stroke="#000000" x1="14.7" y1="149.4" x2="14.7" y2="169.4"/>
		<polygon points="12.5,168 14.7,176.1 16.9,168 		"/>
		<polygon points="16.8,150.9 14.6,142.8 12.5,150.9 		"/>
	</g>
</g>
<text transform="matrix(0.8269 0 0 1 -3.051758e-005 162.7729)" font-family="'ArialMT'" font-size="11">d1</text>
<text transform="matrix(0.8269 0 0 1 94.3149 69.8306)" font-family="'ArialMT'" font-size="11">d1</text>
<line fill="none" stroke="#000000" x1="254.3" y1="75.7" x2="267.3" y2="75.7"/>
<line fill="none" stroke="#000000" x1="254.3" y1="110.1" x2="267.3" y2="110.1"/>
<g>
	<g>
		<line fill="none" stroke="#000000" x1="260.7" y1="82.4" x2="260.7" y2="102.4"/>
		<polygon points="258.5,101 260.7,109.1 262.9,101 		"/>
		<polygon points="262.8,83.9 260.6,75.8 258.5,83.9 		"/>
	</g>
</g>
<text transform="matrix(0.8269 0 0 1 268 95.0229)" font-family="'ArialMT'" font-size="11">d2</text>
</svg>
