<?xml version="1.0" encoding="utf-8"?>
<!-- Generator: Adobe Illustrator 17.1.0, SVG Export Plug-In . SVG Version: 6.00 Build 0)  -->

<svg version="1.1" id="Layer_1" xmlns="http://www.w3.org/2000/svg" xmlns:xlink="http://www.w3.org/1999/xlink" x="0px" y="0px"
	 width="260px" height="207.7px" viewBox="0 0 260 207.7" enable-background="new 0 0 260 207.7" xml:space="preserve">
<line fill="none" x1="180.4" y1="30.7" x2="42.4" y2="30.7"/>
<polyline fill="none" points="180.4,30.7 42.4,30.7 42.4,193.6 "/>
<polyline fill="none" points="180.4,30.7 42.4,30.7 42.4,193.6 160,193.6 "/>
<polyline fill="none" points="180.4,30.7 42.4,30.7 42.4,193.6 160,193.6 160,176.5 "/>
<polyline fill="none" points="180.4,30.7 42.4,30.7 42.4,193.6 160,193.6 160,176.5 58.2,176.5 "/>
<polyline fill="none" points="180.4,30.7 42.4,30.7 42.4,193.6 160,193.6 160,176.5 58.2,176.5 58.2,49.2 "/>
<polyline fill="none" points="180.4,30.7 42.4,30.7 42.4,193.6 160,193.6 160,176.5 58.2,176.5 58.2,49.2 180.4,49.2 "/>
<polygon fill="#72C0EB" stroke="#000000" stroke-linecap="square" points="180.4,30.7 42.4,30.7 42.4,193.6 160,193.6 160,176.5 
	58.2,176.5 58.2,49.2 180.4,49.2 "/>
<g>
	<g>
		<polygon fill="#FFFFFF" points="168.9,183.4 171.8,194.2 174.7,183.4 		"/>
		<polygon fill="#FFFFFF" points="174.6,169.3 171.7,158.5 168.8,169.3 		"/>
	</g>
	<g>
		<line fill="none" stroke="#000000" stroke-linecap="square" x1="171.7" y1="167.3" x2="171.7" y2="185.4"/>
		<polygon points="168.9,183.4 171.8,194.2 174.7,183.4 		"/>
		<polygon points="174.6,169.3 171.7,158.5 168.8,169.3 		"/>
	</g>
</g>
<g>
	<g>
		<g>
			<g>
				<g enable-background="new    ">
					<path d="M61.9,163.3c0-1.3,0.4-2.3,1.1-3.1c0.7-0.7,1.6-1.1,2.7-1.1c0.7,0,1.4,0.2,2,0.5s1,0.8,1.3,1.5s0.5,1.3,0.5,2.1
						c0,0.8-0.2,1.5-0.5,2.1c-0.3,0.6-0.8,1.1-1.4,1.4c-0.6,0.3-1.2,0.5-1.9,0.5c-0.7,0-1.4-0.2-2-0.5c-0.6-0.4-1-0.8-1.3-1.5
						C62.1,164.6,61.9,164,61.9,163.3z M63,163.3c0,0.9,0.3,1.7,0.8,2.2c0.5,0.5,1.1,0.8,1.9,0.8c0.8,0,1.4-0.3,1.9-0.8
						c0.5-0.6,0.8-1.3,0.8-2.3c0-0.6-0.1-1.2-0.3-1.7s-0.5-0.8-0.9-1.1c-0.4-0.3-0.9-0.4-1.4-0.4c-0.7,0-1.4,0.3-1.9,0.8
						C63.3,161.3,63,162.1,63,163.3z"/>
					<path d="M70.9,167.1v-7.9h5.3v0.9h-4.3v2.4h3.7v0.9h-3.7v3.6H70.9z"/>
					<path d="M77.6,167.1v-7.9h5.3v0.9h-4.3v2.4h3.7v0.9h-3.7v3.6H77.6z"/>
					<path d="M83.9,164.6l1-0.1c0,0.4,0.2,0.7,0.3,1s0.4,0.5,0.8,0.6c0.4,0.2,0.8,0.2,1.2,0.2c0.4,0,0.7-0.1,1.1-0.2
						c0.3-0.1,0.5-0.3,0.7-0.5c0.1-0.2,0.2-0.4,0.2-0.7c0-0.2-0.1-0.5-0.2-0.6s-0.4-0.3-0.7-0.5c-0.2-0.1-0.7-0.2-1.4-0.4
						c-0.7-0.2-1.2-0.3-1.5-0.5c-0.4-0.2-0.7-0.4-0.8-0.7c-0.2-0.3-0.3-0.6-0.3-1c0-0.4,0.1-0.8,0.3-1.1c0.2-0.3,0.6-0.6,1-0.8
						c0.4-0.2,0.9-0.3,1.4-0.3c0.6,0,1.1,0.1,1.5,0.3c0.4,0.2,0.8,0.5,1,0.8s0.4,0.8,0.4,1.2l-1,0.1c-0.1-0.5-0.2-0.9-0.5-1.1
						c-0.3-0.3-0.8-0.4-1.4-0.4c-0.6,0-1.1,0.1-1.4,0.3c-0.3,0.2-0.4,0.5-0.4,0.8c0,0.3,0.1,0.5,0.3,0.7c0.2,0.2,0.7,0.4,1.6,0.6
						s1.4,0.4,1.7,0.5c0.5,0.2,0.8,0.5,1,0.8c0.2,0.3,0.3,0.7,0.3,1.1c0,0.4-0.1,0.8-0.4,1.2c-0.2,0.4-0.6,0.7-1,0.9
						c-0.4,0.2-1,0.3-1.5,0.3c-0.7,0-1.3-0.1-1.8-0.3c-0.5-0.2-0.9-0.5-1.1-0.9C84,165.6,83.9,165.1,83.9,164.6z"/>
					<path d="M91.6,167.1v-7.9h5.7v0.9h-4.6v2.4H97v0.9h-4.4v2.7h4.8v0.9H91.6z"/>
				</g>
				<g enable-background="new    ">
					<path d="M100.9,167.1v-6.9h-2.6v-0.9h6.2v0.9H102v6.9H100.9z"/>
				</g>
				<g enable-background="new    ">
					<path d="M104.5,164.8v-1h3v1H104.5z"/>
				</g>
				<g enable-background="new    ">
					<path d="M110.8,167.1v-3.3l-3-4.5h1.3l1.6,2.4c0.3,0.4,0.6,0.9,0.8,1.3c0.2-0.4,0.5-0.9,0.9-1.4l1.5-2.3h1.2l-3.1,4.5v3.3
						H110.8z"/>
				</g>
			</g>
		</g>
	</g>
</g>
<g>
	<g>
		<g>
			<g>
				<g enable-background="new    ">
					<path d="M180.4,162.8c0-1.3,0.3-2.3,1.1-3.1c0.7-0.7,1.6-1.1,2.7-1.1c0.7,0,1.4,0.2,2,0.5s1,0.8,1.3,1.5s0.5,1.3,0.5,2.1
						c0,0.8-0.2,1.5-0.5,2.1s-0.8,1.1-1.4,1.4c-0.6,0.3-1.2,0.5-1.9,0.5c-0.7,0-1.4-0.2-2-0.5c-0.6-0.4-1-0.8-1.3-1.5
						C180.6,164.1,180.4,163.4,180.4,162.8z M181.5,162.8c0,0.9,0.3,1.7,0.8,2.2c0.5,0.5,1.1,0.8,1.9,0.8c0.8,0,1.4-0.3,1.9-0.8
						c0.5-0.6,0.8-1.3,0.8-2.3c0-0.6-0.1-1.2-0.3-1.7c-0.2-0.5-0.5-0.8-0.9-1.1c-0.4-0.3-0.9-0.4-1.4-0.4c-0.7,0-1.4,0.3-1.9,0.8
						C181.8,160.7,181.5,161.6,181.5,162.8z"/>
					<path d="M189.3,166.6v-7.9h5.3v0.9h-4.3v2.4h3.7v0.9h-3.7v3.6H189.3z"/>
					<path d="M196,166.6v-7.9h5.3v0.9h-4.3v2.4h3.7v0.9h-3.7v3.6H196z"/>
					<path d="M202.3,164.1l1-0.1c0,0.4,0.2,0.7,0.3,1s0.4,0.5,0.8,0.6c0.4,0.2,0.8,0.2,1.2,0.2c0.4,0,0.7-0.1,1.1-0.2
						c0.3-0.1,0.5-0.3,0.7-0.5c0.1-0.2,0.2-0.4,0.2-0.7c0-0.2-0.1-0.5-0.2-0.6c-0.1-0.2-0.4-0.3-0.7-0.5c-0.2-0.1-0.7-0.2-1.4-0.4
						s-1.2-0.3-1.5-0.5c-0.4-0.2-0.7-0.4-0.8-0.7c-0.2-0.3-0.3-0.6-0.3-1c0-0.4,0.1-0.8,0.3-1.1c0.2-0.3,0.6-0.6,1-0.8
						c0.4-0.2,0.9-0.3,1.4-0.3c0.6,0,1.1,0.1,1.5,0.3s0.8,0.5,1,0.8s0.4,0.8,0.4,1.2l-1,0.1c-0.1-0.5-0.2-0.9-0.5-1.1
						c-0.3-0.3-0.8-0.4-1.4-0.4c-0.6,0-1.1,0.1-1.4,0.3c-0.3,0.2-0.4,0.5-0.4,0.8c0,0.3,0.1,0.5,0.3,0.7c0.2,0.2,0.7,0.4,1.6,0.6
						s1.4,0.4,1.7,0.5c0.5,0.2,0.8,0.5,1,0.8c0.2,0.3,0.3,0.7,0.3,1.1c0,0.4-0.1,0.8-0.4,1.2c-0.2,0.4-0.6,0.7-1,0.9
						c-0.4,0.2-1,0.3-1.5,0.3c-0.7,0-1.3-0.1-1.8-0.3c-0.5-0.2-0.9-0.5-1.1-0.9C202.5,165.1,202.4,164.6,202.3,164.1z"/>
					<path d="M210,166.6v-7.9h5.7v0.9h-4.6v2.4h4.4v0.9h-4.4v2.7h4.8v0.9H210z"/>
				</g>
				<g enable-background="new    ">
					<path d="M219.4,166.6v-6.9h-2.6v-0.9h6.2v0.9h-2.6v6.9H219.4z"/>
				</g>
				<g enable-background="new    ">
					<path d="M223,164.2v-1h3v1H223z"/>
					<path d="M226.5,166.6v-1l4-5c0.3-0.4,0.6-0.7,0.8-0.9H227v-0.9h5.6v0.9l-4.4,5.5l-0.5,0.6h5v0.9H226.5z"/>
				</g>
			</g>
		</g>
	</g>
</g>
<g>
	<g>
		<g>
			<g>
				<g enable-background="new    ">
					<path d="M1.7,90.8l1-0.1c0,0.4,0.2,0.7,0.3,1s0.4,0.5,0.8,0.6c0.4,0.2,0.8,0.2,1.2,0.2c0.4,0,0.7-0.1,1.1-0.2
						c0.3-0.1,0.5-0.3,0.7-0.5c0.1-0.2,0.2-0.4,0.2-0.7c0-0.2-0.1-0.5-0.2-0.6c-0.1-0.2-0.4-0.3-0.7-0.5c-0.2-0.1-0.7-0.2-1.4-0.4
						c-0.7-0.2-1.2-0.3-1.5-0.5c-0.4-0.2-0.7-0.4-0.8-0.7c-0.2-0.3-0.3-0.6-0.3-1c0-0.4,0.1-0.8,0.3-1.1c0.2-0.3,0.6-0.6,1-0.8
						c0.4-0.2,0.9-0.3,1.4-0.3c0.6,0,1.1,0.1,1.5,0.3c0.4,0.2,0.8,0.5,1,0.8s0.4,0.8,0.4,1.2l-1,0.1c-0.1-0.5-0.2-0.9-0.5-1.1
						c-0.3-0.3-0.8-0.4-1.4-0.4c-0.6,0-1.1,0.1-1.4,0.3C3.1,86.9,3,87.1,3,87.5c0,0.3,0.1,0.5,0.3,0.7c0.2,0.2,0.7,0.4,1.6,0.6
						s1.4,0.4,1.7,0.5c0.5,0.2,0.8,0.5,1,0.8c0.2,0.3,0.3,0.7,0.3,1.1c0,0.4-0.1,0.8-0.4,1.2c-0.2,0.4-0.6,0.7-1,0.9
						c-0.4,0.2-1,0.3-1.5,0.3c-0.7,0-1.3-0.1-1.8-0.3s-0.9-0.5-1.1-0.9C1.8,91.8,1.7,91.4,1.7,90.8z"/>
					<path d="M9.4,93.4v-7.9h1v3.2h4.1v-3.2h1v7.9h-1v-3.7h-4.1v3.7H9.4z"/>
					<path d="M17.3,93.4v-7.9h3.5c0.7,0,1.2,0.1,1.6,0.2s0.7,0.4,0.9,0.7c0.2,0.4,0.3,0.8,0.3,1.2c0,0.6-0.2,1-0.5,1.4
						c-0.4,0.4-0.9,0.6-1.7,0.7c0.3,0.1,0.5,0.3,0.6,0.4c0.3,0.3,0.6,0.6,0.9,1l1.4,2.1h-1.3l-1-1.6c-0.3-0.5-0.6-0.8-0.8-1.1
						s-0.4-0.4-0.5-0.5c-0.2-0.1-0.3-0.2-0.5-0.2c-0.1,0-0.3,0-0.6,0h-1.2v3.5H17.3z M18.4,89h2.2c0.5,0,0.8,0,1.1-0.1
						c0.3-0.1,0.5-0.3,0.6-0.5s0.2-0.5,0.2-0.7c0-0.4-0.1-0.7-0.4-0.9c-0.3-0.2-0.7-0.4-1.3-0.4h-2.5V89z"/>
					<path d="M30.8,90.6l1,0.3c-0.2,0.9-0.6,1.5-1.2,2c-0.6,0.4-1.3,0.7-2.1,0.7c-0.8,0-1.5-0.2-2.1-0.5c-0.5-0.3-0.9-0.8-1.2-1.5
						s-0.4-1.4-0.4-2.1c0-0.8,0.2-1.5,0.5-2.1s0.8-1.1,1.3-1.4c0.6-0.3,1.2-0.5,1.9-0.5c0.8,0,1.4,0.2,2,0.6c0.5,0.4,0.9,1,1.1,1.7
						l-1,0.2c-0.2-0.6-0.4-1-0.8-1.3c-0.3-0.3-0.8-0.4-1.3-0.4c-0.6,0-1.1,0.1-1.5,0.4c-0.4,0.3-0.7,0.7-0.9,1.2s-0.2,1-0.2,1.5
						c0,0.7,0.1,1.3,0.3,1.8c0.2,0.5,0.5,0.9,0.9,1.1c0.4,0.2,0.9,0.4,1.3,0.4c0.6,0,1.1-0.2,1.5-0.5C30.4,91.8,30.7,91.3,30.8,90.6
						z"/>
				</g>
			</g>
		</g>
	</g>
</g>
<g>
	<g>
		<g>
			<g>
				<g enable-background="new    ">
					<path d="M101.5,90.6l1,0.3c-0.2,0.9-0.6,1.5-1.2,2c-0.6,0.4-1.3,0.7-2.1,0.7c-0.8,0-1.5-0.2-2.1-0.5c-0.5-0.3-0.9-0.8-1.2-1.5
						s-0.4-1.4-0.4-2.1c0-0.8,0.2-1.5,0.5-2.1s0.8-1.1,1.3-1.4c0.6-0.3,1.2-0.5,1.9-0.5c0.8,0,1.4,0.2,2,0.6c0.5,0.4,0.9,1,1.1,1.7
						l-1,0.2c-0.2-0.6-0.4-1-0.8-1.3c-0.3-0.3-0.8-0.4-1.3-0.4c-0.6,0-1.1,0.1-1.5,0.4c-0.4,0.3-0.7,0.7-0.9,1.2s-0.2,1-0.2,1.5
						c0,0.7,0.1,1.3,0.3,1.8c0.2,0.5,0.5,0.9,0.9,1.1c0.4,0.2,0.9,0.4,1.3,0.4c0.6,0,1.1-0.2,1.5-0.5
						C101,91.8,101.3,91.3,101.5,90.6z"/>
					<path d="M103.8,93.4v-7.9h5.7v0.9h-4.6v2.4h4.4v0.9h-4.4v2.7h4.8v0.9H103.8z"/>
					<path d="M111.1,93.4v-7.9h1.1l4.1,6.2v-6.2h1v7.9h-1.1l-4.1-6.2v6.2H111.1z"/>
				</g>
				<g enable-background="new    ">
					<path d="M121,93.4v-6.9h-2.6v-0.9h6.2v0.9h-2.6v6.9H121z"/>
				</g>
			</g>
		</g>
	</g>
</g>
<g>
	<g>
		<g>
			<g>
				<g enable-background="new    ">
					<path d="M164.1,134.3h1v4.5c0,0.8-0.1,1.4-0.3,1.9s-0.5,0.8-1,1.1c-0.5,0.3-1.1,0.4-1.8,0.4c-0.7,0-1.3-0.1-1.8-0.4
						c-0.5-0.3-0.8-0.6-1-1.1c-0.2-0.5-0.3-1.1-0.3-2v-4.5h1v4.5c0,0.7,0.1,1.2,0.2,1.5c0.1,0.3,0.3,0.6,0.7,0.7
						c0.3,0.2,0.7,0.3,1.1,0.3c0.8,0,1.3-0.2,1.6-0.5c0.3-0.3,0.5-1,0.5-2V134.3z"/>
					<path d="M166.5,139.6l1-0.1c0,0.4,0.2,0.7,0.3,1s0.4,0.5,0.8,0.6c0.4,0.2,0.8,0.2,1.2,0.2c0.4,0,0.7-0.1,1.1-0.2
						c0.3-0.1,0.5-0.3,0.7-0.5c0.1-0.2,0.2-0.4,0.2-0.7c0-0.2-0.1-0.5-0.2-0.6s-0.4-0.3-0.7-0.5c-0.2-0.1-0.7-0.2-1.4-0.4
						s-1.2-0.3-1.5-0.5c-0.4-0.2-0.7-0.4-0.8-0.7c-0.2-0.3-0.3-0.6-0.3-1c0-0.4,0.1-0.8,0.3-1.1s0.6-0.6,1-0.8
						c0.4-0.2,0.9-0.3,1.4-0.3c0.6,0,1.1,0.1,1.5,0.3c0.4,0.2,0.8,0.5,1,0.8c0.2,0.4,0.4,0.8,0.4,1.2l-1,0.1
						c-0.1-0.5-0.2-0.9-0.5-1.1c-0.3-0.3-0.8-0.4-1.4-0.4c-0.6,0-1.1,0.1-1.4,0.3c-0.3,0.2-0.4,0.5-0.4,0.8c0,0.3,0.1,0.5,0.3,0.7
						c0.2,0.2,0.7,0.4,1.6,0.6s1.4,0.4,1.7,0.5c0.5,0.2,0.8,0.5,1,0.8c0.2,0.3,0.3,0.7,0.3,1.1c0,0.4-0.1,0.8-0.4,1.2
						c-0.2,0.4-0.6,0.7-1,0.9c-0.4,0.2-1,0.3-1.5,0.3c-0.7,0-1.3-0.1-1.8-0.3c-0.5-0.2-0.9-0.5-1.1-0.9
						C166.7,140.6,166.6,140.1,166.5,139.6z"/>
					<path d="M174.2,142.1v-7.9h5.7v0.9h-4.6v2.4h4.4v0.9h-4.4v2.7h4.8v0.9H174.2z"/>
					<path d="M181.6,142.1v-7.9h3.5c0.7,0,1.2,0.1,1.6,0.2s0.7,0.4,0.9,0.7c0.2,0.4,0.3,0.8,0.3,1.2c0,0.6-0.2,1-0.5,1.4
						s-0.9,0.6-1.7,0.7c0.3,0.1,0.5,0.3,0.6,0.4c0.3,0.3,0.6,0.6,0.9,1l1.4,2.1h-1.3l-1-1.6c-0.3-0.5-0.6-0.8-0.8-1.1
						c-0.2-0.3-0.4-0.4-0.5-0.5c-0.2-0.1-0.3-0.2-0.5-0.2c-0.1,0-0.3,0-0.6,0h-1.2v3.5H181.6z M182.6,137.7h2.2c0.5,0,0.8,0,1.1-0.1
						c0.3-0.1,0.5-0.3,0.6-0.5c0.1-0.2,0.2-0.5,0.2-0.7c0-0.4-0.1-0.7-0.4-0.9c-0.3-0.2-0.7-0.4-1.3-0.4h-2.5V137.7z"/>
				</g>
			</g>
		</g>
	</g>
</g>
<g>
	<g>
		<g>
			<g>
				<g enable-background="new    ">
					<path d="M0.5,169.8c0-1.3,0.4-2.3,1.1-3.1c0.7-0.7,1.6-1.1,2.7-1.1c0.7,0,1.4,0.2,2,0.5s1,0.8,1.3,1.5s0.5,1.3,0.5,2.1
						c0,0.8-0.2,1.5-0.5,2.1c-0.3,0.6-0.8,1.1-1.4,1.4c-0.6,0.3-1.2,0.5-1.9,0.5c-0.7,0-1.4-0.2-2-0.5c-0.6-0.4-1-0.8-1.3-1.5
						C0.7,171.1,0.5,170.5,0.5,169.8z M1.6,169.8c0,0.9,0.3,1.7,0.8,2.2c0.5,0.5,1.1,0.8,1.9,0.8c0.8,0,1.4-0.3,1.9-0.8
						c0.5-0.6,0.8-1.3,0.8-2.3c0-0.6-0.1-1.2-0.3-1.7s-0.5-0.8-0.9-1.1c-0.4-0.3-0.9-0.4-1.4-0.4c-0.7,0-1.4,0.3-1.9,0.8
						C1.9,167.7,1.6,168.6,1.6,169.8z"/>
					<path d="M9.4,173.6v-7.9h3.5c0.7,0,1.2,0.1,1.6,0.2s0.7,0.4,0.9,0.7c0.2,0.4,0.3,0.8,0.3,1.2c0,0.6-0.2,1-0.5,1.4
						s-0.9,0.6-1.7,0.7c0.3,0.1,0.5,0.3,0.6,0.4c0.3,0.3,0.6,0.6,0.9,1l1.4,2.1H15l-1-1.6c-0.3-0.5-0.6-0.8-0.8-1.1
						c-0.2-0.3-0.4-0.4-0.5-0.5c-0.2-0.1-0.3-0.2-0.5-0.2c-0.1,0-0.3,0-0.6,0h-1.2v3.5H9.4z M10.4,169.2h2.2c0.5,0,0.8,0,1.1-0.1
						c0.3-0.1,0.5-0.3,0.6-0.5s0.2-0.5,0.2-0.7c0-0.4-0.1-0.7-0.4-0.9c-0.3-0.2-0.7-0.4-1.3-0.4h-2.5V169.2z"/>
					<path d="M17.5,173.6v-7.9h1v7.9H17.5z"/>
					<path d="M24.1,170.5v-0.9l3.3,0v2.9c-0.5,0.4-1,0.7-1.6,0.9c-0.5,0.2-1.1,0.3-1.7,0.3c-0.8,0-1.5-0.2-2.1-0.5
						c-0.6-0.3-1.1-0.8-1.4-1.4c-0.3-0.6-0.5-1.3-0.5-2.1c0-0.8,0.2-1.5,0.5-2.1c0.3-0.7,0.8-1.2,1.4-1.5c0.6-0.3,1.3-0.5,2.1-0.5
						c0.6,0,1.1,0.1,1.5,0.3c0.5,0.2,0.8,0.4,1.1,0.8c0.3,0.3,0.5,0.8,0.6,1.3l-0.9,0.3c-0.1-0.4-0.3-0.7-0.4-0.9
						c-0.2-0.2-0.4-0.4-0.8-0.5c-0.3-0.1-0.7-0.2-1.1-0.2c-0.5,0-0.9,0.1-1.2,0.2c-0.3,0.1-0.6,0.3-0.8,0.6s-0.4,0.5-0.5,0.8
						c-0.2,0.5-0.3,1-0.3,1.6c0,0.7,0.1,1.3,0.4,1.8c0.2,0.5,0.6,0.8,1.1,1.1s1,0.3,1.5,0.3c0.5,0,0.9-0.1,1.3-0.3
						c0.4-0.2,0.8-0.4,1-0.6v-1.5H24.1z"/>
					<path d="M29.1,173.6v-7.9h1v7.9H29.1z"/>
					<path d="M32,173.6v-7.9H33l4.1,6.2v-6.2h1v7.9h-1.1l-4.1-6.2v6.2H32z"/>
				</g>
			</g>
		</g>
	</g>
</g>
<g>
	<g>
		<polygon fill="#FFFFFF" points="45.3,10.8 42.4,0 39.5,10.8 		"/>
	</g>
	<g>
		<line fill="none" stroke="#000000" x1="42.4" y1="8.9" x2="42.4" y2="192.5"/>
		<polygon points="45.3,10.8 42.4,0 39.5,10.8 		"/>
	</g>
</g>
<g>
	<g>
		<polygon fill="#FFFFFF" points="249.2,196.5 260,193.6 249.2,190.7 		"/>
	</g>
	<g>
		<line fill="none" stroke="#000000" stroke-linecap="square" x1="251.1" y1="193.6" x2="42.4" y2="193.6"/>
		<polygon points="249.2,196.5 260,193.6 249.2,190.7 		"/>
	</g>
</g>
<g>
	<g>
		<polygon fill="#FFFFFF" points="153,153.2 163.9,150.3 153,147.4 		"/>
		<polygon fill="#FFFFFF" points="55.1,147.5 44.3,150.4 55.1,153.3 		"/>
	</g>
	<g>
		<line fill="none" stroke="#000000" stroke-linecap="square" x1="53.2" y1="150.4" x2="155" y2="150.4"/>
		<polygon points="153,153.2 163.9,150.3 153,147.4 		"/>
		<polygon points="55.1,147.5 44.3,150.4 55.1,153.3 		"/>
	</g>
</g>
<g>
	<g>
		<g>
			<g>
				<g enable-background="new    ">
					<path d="M47.4,20.6v-0.8l3.6-4.2c-0.4,0-0.8,0-1.1,0h-2.3v-0.8h4.7v0.6l-3.1,3.6l-0.6,0.7c0.4,0,0.8,0,1.2,0h2.6v0.8H47.4z"/>
				</g>
			</g>
		</g>
	</g>
</g>
<g>
	<g>
		<g>
			<g>
				<g enable-background="new    ">
					<path d="M239.7,206.3l-0.1-0.9c0.2,0.1,0.4,0.1,0.6,0.1c0.2,0,0.4,0,0.5-0.1s0.2-0.2,0.3-0.3c0.1-0.1,0.2-0.3,0.3-0.7
						c0-0.1,0-0.1,0.1-0.2l-2.2-5.7h1l1.2,3.3c0.2,0.4,0.3,0.9,0.4,1.3c0.1-0.4,0.2-0.9,0.4-1.3l1.2-3.3h1l-2.2,5.8
						c-0.2,0.6-0.4,1.1-0.5,1.3c-0.2,0.3-0.4,0.6-0.6,0.7c-0.2,0.1-0.5,0.2-0.8,0.2C240.2,206.4,240,206.4,239.7,206.3z"/>
				</g>
			</g>
		</g>
	</g>
</g>
<g>
	<ellipse fill="none" stroke="#000000" stroke-width="2" stroke-linecap="square" cx="13.9" cy="104.2" rx="6.5" ry="6.3"/>
</g>
<g>
	<g>
		<ellipse cx="42.4" cy="193.6" rx="6.5" ry="6.3"/>
	</g>
	<g>
		<ellipse fill="none" stroke="#000000" cx="42.4" cy="193.6" rx="6.5" ry="6.3"/>
	</g>
</g>
<ellipse stroke="#000000" cx="171.9" cy="150.7" rx="6.5" ry="6.3"/>
<g>
	<line fill="none" stroke="#000000" stroke-width="2" x1="101.9" y1="98.8" x2="113.2" y2="110"/>
	<line fill="none" stroke="#000000" stroke-width="2" x1="112.9" y1="98.3" x2="102.7" y2="110.5"/>
</g>
</svg>
