<?xml version="1.0" encoding="utf-8"?>
<!-- Generator: Adobe Illustrator 17.1.0, SVG Export Plug-In . SVG Version: 6.00 Build 0)  -->

<svg version="1.1" id="Layer_1" xmlns="http://www.w3.org/2000/svg" xmlns:xlink="http://www.w3.org/1999/xlink" x="0px" y="0px"
	 width="176.5px" height="190.2px" viewBox="0 1.6 176.5 190.2" enable-background="new 0 1.6 176.5 190.2" xml:space="preserve">
<line fill="none" x1="80.2" y1="162.8" x2="80.2" y2="15.3"/>
<polyline fill="none" points="80.2,162.8 80.2,15.3 68.7,15.3 "/>
<polyline fill="none" points="80.2,162.8 80.2,15.3 68.7,15.3 68.7,139.5 "/>
<polyline fill="none" points="80.2,162.8 80.2,15.3 68.7,15.3 68.7,139.5 12.2,139.5 "/>
<polyline fill="none" points="80.2,162.8 80.2,15.3 68.7,15.3 68.7,139.5 12.2,139.5 12.2,162.3 "/>
<polyline fill="none" points="80.2,162.8 80.2,15.3 68.7,15.3 68.7,139.5 12.2,139.5 12.2,162.3 148.2,162.3 "/>
<polyline fill="none" points="80.2,162.8 80.2,15.3 68.7,15.3 68.7,139.5 12.2,139.5 12.2,162.3 148.2,162.3 148.2,139.5 "/>
<polyline fill="none" points="80.2,162.8 80.2,15.3 68.7,15.3 68.7,139.5 12.2,139.5 12.2,162.3 148.2,162.3 148.2,139.5 
	80.2,139.5 "/>
<polygon fill="#00BDF2" stroke="#000000" stroke-linecap="square" stroke-miterlimit="10" points="80.2,162.8 80.2,15.3 68.7,15.3 
	68.7,139.5 12.2,139.5 12.2,162.3 148.2,162.3 148.2,139.5 80.2,139.5 "/>
<g>
	<g>
		<polygon fill="#FFFFFF" points="137.9,176 148.7,173.1 137.9,170.2 		"/>
		<polygon fill="#FFFFFF" points="21.9,170.3 11.1,173.2 21.9,176.1 		"/>
	</g>
	<g>
		<line fill="none" stroke="#000000" stroke-linecap="square" stroke-miterlimit="10" x1="20" y1="173.1" x2="139.9" y2="173.1"/>
		<polygon points="137.9,176 148.7,173.1 137.9,170.2 		"/>
		<polygon points="21.9,170.3 11.1,173.2 21.9,176.1 		"/>
	</g>
</g>
<g>
	<g>
		<polygon fill="#FFFFFF" points="151.8,152.3 154.7,163.2 157.6,152.3 		"/>
		<polygon fill="#FFFFFF" points="157.5,26.3 154.6,15.4 151.7,26.3 		"/>
	</g>
	<g>
		<line fill="none" stroke="#000000" stroke-linecap="square" stroke-miterlimit="6" x1="154.6" y1="24.3" x2="154.6" y2="154.3"/>
		<polygon points="151.8,152.3 154.7,163.2 157.6,152.3 		"/>
		<polygon points="157.5,26.3 154.6,15.4 151.7,26.3 		"/>
	</g>
</g>
<g>
	<g>
		<g>
			<g>
				<text transform="matrix(0.9994 0 0 1 70.1167 188.1543)" font-family="'ArialMT'" font-size="11.0001">W1</text>
			</g>
		</g>
	</g>
</g>
<g>
	<g>
		<g>
			<g>
				<text transform="matrix(0.9994 0 0 1 159.9634 91.0869)" font-family="'ArialMT'" font-size="11.0001">W2</text>
			</g>
		</g>
	</g>
</g>
<g>
	<g>
		<g>
			<g>
				<text transform="matrix(0.9994 0 0 1 0 155.4785)" font-family="'ArialMT'" font-size="11.0001">t1</text>
			</g>
		</g>
	</g>
</g>
<line fill="none" stroke="#000000" stroke-linecap="square" stroke-miterlimit="6" x1="68.7" y1="140" x2="80.2" y2="140"/>
<line fill="none" stroke="#000000" stroke-linecap="square" stroke-miterlimit="6" x1="68.7" y1="140" x2="68.7" y2="162.3"/>
<line fill="none" stroke="#000000" stroke-linecap="square" stroke-miterlimit="10" x1="68.7" y1="77.7" x2="80.2" y2="77.7"/>
<g>
	<g>
		<g>
			<g>
				<text transform="matrix(0.9994 0 0 1 70.8369 10.9995)" font-family="'ArialMT'" font-size="11.0001">t2</text>
			</g>
		</g>
	</g>
</g>
<g>
	<g>
		<polygon fill="#FFFFFF" points="77.5,104.2 74.6,93.4 71.7,104.2 		"/>
	</g>
	<g>
		<line fill="none" stroke="#000000" stroke-linecap="square" stroke-miterlimit="6" x1="74.7" y1="149.9" x2="74.7" y2="102.2"/>
		<polygon points="77.5,104.2 74.6,93.4 71.7,104.2 		"/>
	</g>
</g>
<g>
	<g>
		<polygon fill="#FFFFFF" points="117.4,153.2 128.2,150.3 117.4,147.4 		"/>
	</g>
	<g>
		<line fill="none" stroke="#000000" stroke-linecap="square" stroke-miterlimit="6" x1="74.4" y1="150.3" x2="119.3" y2="150.3"/>
		<polygon points="117.4,153.2 128.2,150.3 117.4,147.4 		"/>
	</g>
</g>
<g>
	<g>
		<g>
			<g>
				<text transform="matrix(0.9994 0 0 1 109.0991 135.6982)" font-family="'ArialMT'" font-size="11.0001">y</text>
			</g>
		</g>
	</g>
</g>
<g>
	<g>
		<g>
			<g>
				<text transform="matrix(0.9994 0 0 1 83.8828 113.5088)" font-family="'ArialMT'" font-size="11.0001">z</text>
			</g>
		</g>
	</g>
</g>
<ellipse stroke="#000000" cx="74.4" cy="150.3" rx="4.2" ry="4"/>
</svg>
