<?xml version="1.0" encoding="utf-8"?>
<!-- Generator: Adobe Illustrator 17.1.0, SVG Export Plug-In . SVG Version: 6.00 Build 0)  -->

<svg version="1.1" id="Layer_1" xmlns="http://www.w3.org/2000/svg" xmlns:xlink="http://www.w3.org/1999/xlink" x="0px" y="0px"
	 width="188.1px" height="148.9px" viewBox="0 0 188.1 148.9" enable-background="new 0 0 188.1 148.9" xml:space="preserve">
<line fill="none" x1="176.5" y1="122.5" x2="176.5" y2="11.5"/>
<polyline fill="none" points="176.5,122.5 176.5,11.5 24.9,11.5 "/>
<polyline fill="none" points="176.5,122.5 176.5,11.5 24.9,11.5 24.9,122.5 "/>
<polygon fill="#72C0EB" stroke="#000000" stroke-linecap="square" points="176.5,122.5 176.5,11.5 24.9,11.5 24.9,122.5 "/>
<line fill="none" x1="39.3" y1="112.7" x2="39.3" y2="23"/>
<polyline fill="none" points="39.3,112.7 39.3,23 159,23 "/>
<polyline fill="none" points="39.3,112.7 39.3,23 159,23 159,112.7 "/>
<polygon fill="#FFFFFF" stroke="#000000" stroke-linecap="square" points="39.3,112.7 39.3,23 159,23 159,112.7 "/>
<line fill="none" x1="39.3" y1="112.7" x2="159" y2="112.7"/>
<line fill="none" stroke="#000000" stroke-linecap="square" x1="159" y1="112.9" x2="159" y2="122.5"/>
<line fill="none" stroke="#000000" stroke-linecap="square" x1="159" y1="23" x2="176.5" y2="23"/>
<g>
	<g>
		<polygon fill="#FFFFFF" points="166.6,143.1 177.4,140.2 166.6,137.3 		"/>
	</g>
	<g>
		<line fill="none" stroke="#000000" stroke-linecap="square" x1="109.5" y1="140.2" x2="168.6" y2="140.2"/>
		<polygon points="166.6,143.1 177.4,140.2 166.6,137.3 		"/>
	</g>
</g>
<path fill="none" stroke="#000000" stroke-linecap="square" d="M109.5,140.2"/>
<path fill="none" stroke="#000000" stroke-linecap="square" d="M89.5,140.2"/>
<g>
	<g>
		<polygon fill="#FFFFFF" points="34.9,137.4 24.1,140.3 34.9,143.2 		"/>
	</g>
	<g>
		<line fill="none" stroke="#000000" stroke-linecap="square" x1="32.9" y1="140.2" x2="89.5" y2="140.2"/>
		<polygon points="34.9,137.4 24.1,140.3 34.9,143.2 		"/>
	</g>
</g>
<g>
	<g>
		<polygon fill="#FFFFFF" points="6.4,112.2 9.3,123 12.2,112.2 		"/>
	</g>
	<g>
		<line fill="none" stroke="#000000" stroke-linecap="square" x1="9.2" y1="79.2" x2="9.2" y2="114.2"/>
		<polygon points="6.4,112.2 9.3,123 12.2,112.2 		"/>
	</g>
</g>
<g>
	<g>
		<polygon fill="#FFFFFF" points="12.1,22.2 9.2,11.4 6.3,22.2 		"/>
	</g>
	<g>
		<line fill="none" stroke="#000000" stroke-linecap="square" x1="9.2" y1="20.2" x2="9.2" y2="63.5"/>
		<polygon points="12.1,22.2 9.2,11.4 6.3,22.2 		"/>
	</g>
</g>
<line fill="none" stroke="#000000" stroke-linecap="square" stroke-dasharray="12" x1="159" y1="22.5" x2="159" y2="11.5"/>
<polyline fill="none" stroke="#000000" stroke-linecap="square" points="25.6,23 39.3,23 39.3,12 "/>
<line fill="none" stroke="#000000" stroke-linecap="square" x1="24.9" y1="112.7" x2="39.8" y2="112.7"/>
<line fill="none" stroke="#000000" stroke-linecap="square" x1="39.3" y1="112.9" x2="39.3" y2="122.5"/>
<line fill="none" stroke="#000000" stroke-linecap="square" x1="159.7" y1="112.7" x2="176" y2="112.7"/>
<g>
	<g>
		<g>
			<g>
				<text transform="matrix(1.001 0 0 1 91.4976 145.2891)" font-family="'ArialMT'" font-size="11">W1</text>
			</g>
		</g>
	</g>
</g>
<g>
	<g>
		<g>
			<g>
				<g>
					<text transform="matrix(1.001 0 0 1 0 76.4731)" font-family="'ArialMT'" font-size="11">W</text>
				</g>
			</g>
		</g>
	</g>
	<g>
		<g>
			<g>
				<g>
					<text transform="matrix(1.001 0 0 1 10.2271 76.4731)" font-family="'ArialMT'" font-size="11">2</text>
				</g>
			</g>
		</g>
	</g>
</g>
<g>
	<g>
		<g>
			<g>
				<text transform="matrix(1.001 0 0 1 27.7593 64.5503)" font-family="'ArialMT'" font-size="11">t1</text>
			</g>
		</g>
	</g>
</g>
<g>
	<g>
		<g>
			<g>
				<text transform="matrix(1.001 0 0 1 95.8911 20.6719)" font-family="'ArialMT'" font-size="11">t4</text>
			</g>
		</g>
	</g>
</g>
<g>
	<g>
		<polygon fill="#FFFFFF" points="27.7,85 24.8,74.2 21.9,85 		"/>
	</g>
	<g>
		<line fill="none" stroke="#000000" stroke-linecap="square" x1="24.9" y1="122.1" x2="24.9" y2="83"/>
		<polygon points="27.7,85 24.8,74.2 21.9,85 		"/>
	</g>
</g>
<g>
	<g>
		<polygon fill="#FFFFFF" points="66.8,125.4 77.7,122.5 66.8,119.6 		"/>
	</g>
	<g>
		<line fill="none" stroke="#000000" x1="24.5" y1="122.5" x2="68.8" y2="122.5"/>
		<polygon points="66.8,125.4 77.7,122.5 66.8,119.6 		"/>
	</g>
</g>
<g>
	<g>
		<g>
			<g>
				<text transform="matrix(1.001 0 0 1 62.2046 119.8848)" font-family="'ArialMT'" font-size="11">y</text>
			</g>
		</g>
	</g>
</g>
<g>
	<g>
		<g>
			<g>
				<text transform="matrix(1.001 0 0 1 29.1411 83.8984)" font-family="'ArialMT'" font-size="11">z</text>
			</g>
		</g>
	</g>
</g>
<ellipse stroke="#000000" cx="24.5" cy="122.5" rx="4.2" ry="4"/>
<g>
	<g>
		<line fill="none" x1="49.6" y1="60.5" x2="45.9" y2="60.5"/>
		<polygon fill="#FFFFFF" points="47.4,58.3 39.3,60.5 47.4,62.7 		"/>
	</g>
	<g>
		<line fill="none" stroke="#000000" stroke-linecap="square" x1="49.6" y1="60.5" x2="45.9" y2="60.5"/>
		<polygon points="47.4,58.3 39.3,60.5 47.4,62.7 		"/>
	</g>
</g>
<g>
	<g>
		<line fill="none" x1="13.5" y1="60.7" x2="17.2" y2="60.7"/>
		<polygon fill="#FFFFFF" points="15.7,62.8 23.8,60.6 15.7,58.5 		"/>
	</g>
	<g>
		<line fill="none" stroke="#000000" stroke-linecap="square" x1="13.5" y1="60.7" x2="17.2" y2="60.7"/>
		<polygon points="15.7,62.8 23.8,60.6 15.7,58.5 		"/>
	</g>
</g>
<g>
	<g>
		<g>
			<g>
				<text transform="matrix(1.001 0 0 1 164.7593 64.2173)" font-family="'ArialMT'" font-size="11">t2</text>
			</g>
		</g>
	</g>
</g>
<g>
	<g>
		<line fill="none" x1="187.6" y1="60.2" x2="183.9" y2="60.2"/>
		<polygon fill="#FFFFFF" points="185.4,58 177.3,60.2 185.4,62.4 		"/>
	</g>
	<g>
		<line fill="none" stroke="#000000" stroke-linecap="square" x1="187.6" y1="60.2" x2="183.9" y2="60.2"/>
		<polygon points="185.4,58 177.3,60.2 185.4,62.4 		"/>
	</g>
</g>
<g>
	<g>
		<line fill="none" x1="147.5" y1="60.3" x2="151.2" y2="60.3"/>
		<polygon fill="#FFFFFF" points="149.7,62.5 157.8,60.3 149.7,58.1 		"/>
	</g>
	<g>
		<line fill="none" stroke="#000000" stroke-linecap="square" x1="147.5" y1="60.3" x2="151.2" y2="60.3"/>
		<polygon points="149.7,62.5 157.8,60.3 149.7,58.1 		"/>
	</g>
</g>
<g>
	<g>
		<line fill="none" x1="100.5" y1="0.5" x2="100.5" y2="4.2"/>
		<polygon fill="#FFFFFF" points="98.4,2.7 100.5,10.8 102.7,2.7 		"/>
	</g>
	<g>
		<line fill="none" stroke="#000000" stroke-linecap="square" x1="100.5" y1="0.5" x2="100.5" y2="4.2"/>
		<polygon points="98.4,2.7 100.5,10.8 102.7,2.7 		"/>
	</g>
</g>
<g>
	<g>
		<line fill="none" x1="100.7" y1="34.5" x2="100.7" y2="30.9"/>
		<polygon fill="#FFFFFF" points="102.8,32.4 100.7,24.2 98.5,32.4 		"/>
	</g>
	<g>
		<line fill="none" stroke="#000000" stroke-linecap="square" x1="100.7" y1="34.5" x2="100.7" y2="30.9"/>
		<polygon points="102.8,32.4 100.7,24.2 98.5,32.4 		"/>
	</g>
</g>
<g>
	<g>
		<g>
			<g>
				<text transform="matrix(1.001 0 0 1 95.8911 121.0957)" font-family="'ArialMT'" font-size="11">t3</text>
			</g>
		</g>
	</g>
</g>
<g>
	<g>
		<line fill="none" x1="100.5" y1="101.5" x2="100.5" y2="105.2"/>
		<polygon fill="#FFFFFF" points="98.4,103.7 100.5,111.8 102.7,103.7 		"/>
	</g>
	<g>
		<line fill="none" stroke="#000000" stroke-linecap="square" x1="100.5" y1="101.5" x2="100.5" y2="105.2"/>
		<polygon points="98.4,103.7 100.5,111.8 102.7,103.7 		"/>
	</g>
</g>
<g>
	<g>
		<line fill="none" x1="100.7" y1="133.5" x2="100.7" y2="129.9"/>
		<polygon fill="#FFFFFF" points="102.8,131.4 100.7,123.2 98.5,131.4 		"/>
	</g>
	<g>
		<line fill="none" stroke="#000000" stroke-linecap="square" x1="100.7" y1="133.5" x2="100.7" y2="129.9"/>
		<polygon points="102.8,131.4 100.7,123.2 98.5,131.4 		"/>
	</g>
</g>
</svg>
