<?xml version="1.0" encoding="utf-8"?>
<!-- Generator: Adobe Illustrator 17.1.0, SVG Export Plug-In . SVG Version: 6.00 Build 0)  -->

<svg version="1.1" id="Layer_1" xmlns="http://www.w3.org/2000/svg" xmlns:xlink="http://www.w3.org/1999/xlink" x="0px" y="0px"
	 width="246px" height="190.3px" viewBox="0 1.6 246 190.3" enable-background="new 0 1.6 246 190.3" xml:space="preserve">
<g>
	<polygon fill="none" stroke="#000000" points="86.1,19.3 163.1,95.1 86.9,173.4 8.9,96.6 	"/>
	<line fill="none" stroke="#000000" stroke-dasharray="5.76,5.76" x1="163.3" y1="95.5" x2="10.3" y2="96.5"/>
	<line fill="none" stroke="#000000" x1="86.3" y1="19" x2="86.6" y2="171.8"/>
	<line fill="none" stroke="#ED1C24" stroke-dasharray="5.76,5.76" x1="117.1" y1="50.7" x2="74.7" y2="95"/>
	<line fill="none" stroke="#ED1C24" x1="117.3" y1="142.3" x2="117.1" y2="50.7"/>
	<line fill="none" stroke="#ED1C24" stroke-dasharray="5.76,5.76" x1="117.3" y1="142.3" x2="75.3" y2="97"/>
	<path d="M12.5,97.9c-0.3,1.6-1.8,2.6-3.4,2.2c-1.6-0.3-2.6-1.8-2.2-3.4c0.3-1.6,1.8-2.6,3.4-2.2C11.8,94.8,12.8,96.3,12.5,97.9
		L12.5,97.9z"/>
	<path d="M89.5,20.9c-0.3,1.6-1.8,2.6-3.4,2.2c-1.6-0.3-2.6-1.8-2.2-3.4c0.3-1.6,1.8-2.6,3.4-2.2C88.8,17.8,89.8,19.3,89.5,20.9
		L89.5,20.9z"/>
	<path d="M77.8,95.2c-0.3,1.6-1.8,2.6-3.4,2.2c-1.6-0.3-2.6-1.8-2.2-3.4c0.3-1.6,1.8-2.6,3.4-2.2C77.2,92.1,78.2,93.7,77.8,95.2
		L77.8,95.2z"/>
	<path d="M89.5,173.9c-0.3,1.6-1.8,2.6-3.4,2.2c-1.6-0.3-2.6-1.8-2.2-3.4c0.3-1.6,1.8-2.6,3.4-2.2C88.8,170.8,89.8,172.3,89.5,173.9
		L89.5,173.9z"/>
	<path d="M164.5,94.9c-0.3,1.6-1.8,2.6-3.4,2.2c-1.6-0.3-2.6-1.8-2.2-3.4c0.3-1.6,1.8-2.6,3.4-2.2C163.8,91.8,164.8,93.3,164.5,94.9
		L164.5,94.9z"/>
	<path d="M120,142.3c-0.3,1.6-1.8,2.6-3.4,2.2c-1.6-0.3-2.6-1.8-2.2-3.4c0.3-1.6,1.8-2.6,3.4-2.2C119.3,139.3,120.3,140.8,120,142.3
		L120,142.3z"/>
	<g>
		<g>
			<g>
				<g>
					<text transform="matrix(1 0 0 1 100.3345 147.335)" font-family="'ArialMT'" font-size="11">d</text>
				</g>
			</g>
		</g>
	</g>
	<g>
		<g>
			<g>
				<g>
					<text transform="matrix(1 0 0 1 121 148.334)" font-family="'ArialMT'" font-size="11">JJ</text>
				</g>
			</g>
		</g>
	</g>
	<g>
		<g>
			<g>
				<g>
					<text transform="matrix(1 0 0 1 132.001 56.3345)" enable-background="new    "><tspan x="0" y="0" font-family="'ArialMT'" font-size="11">KK, L</tspan><tspan x="26.9" y="0" font-family="'ArialMT'" font-size="11">L</tspan></text>
				</g>
			</g>
		</g>
	</g>
	<g>
		<g>
			<g>
				<g>
					<text transform="matrix(1 0 0 1 167.333 97.001)" font-family="'ArialMT'" font-size="11">K (d = 1)</text>
				</g>
			</g>
		</g>
	</g>
	<g>
		<g>
			<g>
				<g>
					<text transform="matrix(1 0 0 1 84.334 188.335)" font-family="'ArialMT'" font-size="11">J (d = 0)</text>
				</g>
			</g>
		</g>
	</g>
	<g>
		<g>
			<g>
				<g>
					<text transform="matrix(1 0 0 1 0 101.334)" font-family="'ArialMT'" font-size="11">I</text>
				</g>
			</g>
		</g>
	</g>
	<g>
		<g>
			<g>
				<g>
					<text transform="matrix(1 0 0 1 65.333 92.666)" font-family="'ArialMT'" font-size="11">II</text>
				</g>
			</g>
		</g>
	</g>
	<g>
		<g>
			<g>
				<g>
					<text transform="matrix(1 0 0 1 85 11)" font-family="'ArialMT'" font-size="11">L</text>
				</g>
			</g>
		</g>
	</g>
	<line fill="none" stroke="#A6A6A6" stroke-width="2" x1="113" y1="100.7" x2="94.3" y2="108.7"/>
	<line fill="none" stroke="#A6A6A6" stroke-width="2" x1="113" y1="89" x2="90.3" y2="100"/>
	<line fill="none" stroke="#A6A6A6" stroke-width="2" x1="110.3" y1="78.3" x2="90" y2="89"/>
	<g>
		<g>
			<g>
				<g>
					<text transform="matrix(1 0 0 1 224.334 97.668)" font-family="'ArialMT'" font-size="11">f = 3</text>
				</g>
			</g>
		</g>
	</g>
	<g>
		<g>
			<polygon fill="#FFFFFF" points="91.8,152.6 87.6,159.9 94.9,155.7 			"/>
		</g>
		<g>
			<line fill="none" stroke="#000000" x1="98.6" y1="148.8" x2="92.3" y2="155.2"/>
			<polygon points="91.8,152.6 87.6,159.9 94.9,155.7 			"/>
		</g>
	</g>
	<g>
		<g>
			<polygon fill="#FFFFFF" points="112.9,136.4 117.1,129.1 109.8,133.3 			"/>
		</g>
		<g>
			<line fill="none" stroke="#000000" x1="107.1" y1="139.2" x2="112.4" y2="133.8"/>
			<polygon points="112.9,136.4 117.1,129.1 109.8,133.3 			"/>
		</g>
	</g>
	<path d="M120,51.7c-0.3,1.6-1.8,2.6-3.4,2.2c-1.6-0.3-2.6-1.8-2.2-3.4c0.3-1.6,1.8-2.6,3.4-2.2C119.3,48.6,120.3,50.1,120,51.7
		L120,51.7z"/>
</g>
</svg>
