<?xml version="1.0" encoding="utf-8"?>
<!-- Generator: Adobe Illustrator 17.1.0, SVG Export Plug-In . SVG Version: 6.00 Build 0)  -->

<svg version="1.1" id="Layer_1" xmlns="http://www.w3.org/2000/svg" xmlns:xlink="http://www.w3.org/1999/xlink" x="0px" y="0px"
	 width="242.2px" height="200.5px" viewBox="0 1.4 242.2 200.5" enable-background="new 0 1.4 242.2 200.5" xml:space="preserve">
<line fill="none" stroke="#000000" stroke-dasharray="5.76" x1="47.4" y1="143.1" x2="101.7" y2="58.9"/>
<g>
	<g>
		<g>
			<g>
				<text transform="matrix(0.9996 0 0 1 90.27 10.9995)" font-family="'ArialMT'" font-size="9.9996">L</text>
			</g>
		</g>
	</g>
</g>
<g>
	<g>
		<g>
			<g>
				<text transform="matrix(0.9996 0 0 1 195.604 109.6602)" font-family="'ArialMT'" font-size="9.9996">K</text>
			</g>
		</g>
	</g>
</g>
<g>
	<g>
		<g>
			<g>
				<text transform="matrix(0.9996 0 0 1 127.937 172.9922)" font-family="'ArialMT'" font-size="9.9996">J</text>
			</g>
		</g>
	</g>
</g>
<g>
	<g>
		<g>
			<g>
				<text transform="matrix(0.9996 0 0 1 2.2705 144.334)" font-family="'ArialMT'" font-size="9.9996">I</text>
			</g>
		</g>
	</g>
</g>
<g>
	<polyline fill="none" stroke="#000000" points="90.9,21.5 12.9,139.4 129,159.3 190.9,106.1 91.4,20.8 	"/>
	<line fill="none" stroke="#000000" x1="91.2" y1="20.6" x2="129" y2="159.3"/>
</g>
<line fill="none" stroke="#000000" stroke-dasharray="5.76" x1="13.4" y1="138.7" x2="192" y2="105.1"/>
<line fill="none" stroke="#000000" stroke-dasharray="5.76" x1="49.7" y1="85" x2="112.1" y2="97.1"/>
<line fill="none" stroke="#000000" stroke-dasharray="5.76" x1="147.8" y1="69.1" x2="164.5" y2="130.7"/>
<g>
	<g>
		<g>
			<g>
				<g>
					<text transform="matrix(1 0 0 1 101.667 9.9997)" font-family="'ArialMT'" font-size="10">(Z</text>
				</g>
			</g>
		</g>
	</g>
	<g>
		<g>
			<g>
				<g>
					<text transform="matrix(1 0 0 1 111.1055 12.9997)" font-family="'ArialMT'" font-size="9">1</text>
				</g>
			</g>
		</g>
	</g>
	<g>
		<g>
			<g>
				<g>
					<text transform="matrix(1 0 0 1 116.1108 9.9997)" font-family="'ArialMT'" font-size="10"> = 1)</text>
				</g>
			</g>
		</g>
	</g>
	<g>
		<g>
			<g>
				<g>
					<text transform="matrix(1 0 0 1 101.667 21.9997)" font-family="'ArialMT'" font-size="10">(Z</text>
				</g>
			</g>
		</g>
	</g>
	<g>
		<g>
			<g>
				<g>
					<text transform="matrix(1 0 0 1 111.1055 24.9997)" font-family="'ArialMT'" font-size="9">2</text>
				</g>
			</g>
		</g>
	</g>
	<g>
		<g>
			<g>
				<g>
					<text transform="matrix(1 0 0 1 116.1108 21.9997)" font-family="'ArialMT'" font-size="10"> = 1)</text>
				</g>
			</g>
		</g>
	</g>
</g>
<g>
	<g>
		<g>
			<g>
				<g>
					<text transform="matrix(1 0 0 1 206.3335 108.6601)" enable-background="new    "><tspan x="0" y="0" font-family="'ArialMT'" font-size="10">(</tspan><tspan x="3.3" y="0" font-family="'ArialMT'" font-size="10">Y</tspan></text>
				</g>
			</g>
		</g>
	</g>
	<g>
		<g>
			<g>
				<g>
					<text transform="matrix(1 0 0 1 216.3335 111.6601)" font-family="'ArialMT'" font-size="9">2</text>
				</g>
			</g>
		</g>
	</g>
	<g>
		<g>
			<g>
				<g>
					<text transform="matrix(1 0 0 1 221.3389 108.6601)" font-family="'ArialMT'" font-size="10"> = 1)</text>
				</g>
			</g>
		</g>
	</g>
</g>
<g>
	<g>
		<g>
			<g>
				<g>
					<text transform="matrix(1 0 0 1 137.3345 171.9922)" enable-background="new    "><tspan x="0" y="0" font-family="'ArialMT'" font-size="10">(</tspan><tspan x="3.3" y="0" font-family="'ArialMT'" font-size="10">Y</tspan></text>
				</g>
			</g>
		</g>
	</g>
	<g>
		<g>
			<g>
				<g>
					<text transform="matrix(1 0 0 1 147.3345 174.9922)" font-family="'ArialMT'" font-size="9">1</text>
				</g>
			</g>
		</g>
	</g>
	<g>
		<g>
			<g>
				<g>
					<text transform="matrix(1 0 0 1 152.3399 171.9922)" font-family="'ArialMT'" font-size="10"> = 1)</text>
				</g>
			</g>
		</g>
	</g>
	<g>
		<g>
			<g>
				<g>
					<text transform="matrix(1 0 0 1 137.3345 183.9922)" enable-background="new    "><tspan x="0" y="0" font-family="'ArialMT'" font-size="10">(</tspan><tspan x="3.3" y="0" font-family="'ArialMT'" font-size="10">Y</tspan></text>
				</g>
			</g>
		</g>
	</g>
	<g>
		<g>
			<g>
				<g>
					<text transform="matrix(1 0 0 1 147.3345 186.9922)" font-family="'ArialMT'" font-size="9">2</text>
				</g>
			</g>
		</g>
	</g>
	<g>
		<g>
			<g>
				<g>
					<text transform="matrix(1 0 0 1 152.3399 183.9922)" font-family="'ArialMT'" font-size="10"> = 0)</text>
				</g>
			</g>
		</g>
	</g>
	<g>
		<g>
			<g>
				<g>
					<text transform="matrix(1 0 0 1 137.3345 195.9922)" font-family="'ArialMT'" font-size="10">(Z</text>
				</g>
			</g>
		</g>
	</g>
	<g>
		<g>
			<g>
				<g>
					<text transform="matrix(1 0 0 1 146.773 198.9922)" font-family="'ArialMT'" font-size="9">2</text>
				</g>
			</g>
		</g>
	</g>
	<g>
		<g>
			<g>
				<g>
					<text transform="matrix(1 0 0 1 151.7783 195.9922)" font-family="'ArialMT'" font-size="10"> = 0)</text>
				</g>
			</g>
		</g>
	</g>
</g>
<g>
	<g>
		<g>
			<g>
				<g>
					<text transform="matrix(1 0 0 1 0 156.6583)" enable-background="new    "><tspan x="0" y="0" font-family="'ArialMT'" font-size="10">(</tspan><tspan x="3.3" y="0" font-family="'ArialMT'" font-size="10">Y</tspan></text>
				</g>
			</g>
		</g>
	</g>
	<g>
		<g>
			<g>
				<g>
					<text transform="matrix(1 0 0 1 10 159.6583)" font-family="'ArialMT'" font-size="9">1</text>
				</g>
			</g>
		</g>
	</g>
	<g>
		<g>
			<g>
				<g>
					<text transform="matrix(1 0 0 1 15.0054 156.6583)" font-family="'ArialMT'" font-size="10"> = 0)</text>
				</g>
			</g>
		</g>
	</g>
</g>
<g>
	<g>
		<polygon fill="#FFFFFF" points="57.1,137 54.5,145 60.8,139.4 		"/>
	</g>
	<g>
		<line fill="none" stroke="#000000" x1="58.1" y1="139.4" x2="68.9" y2="123.2"/>
		<polygon points="57.1,137 54.5,145 60.8,139.4 		"/>
	</g>
</g>
<g>
	<g>
		<polygon fill="#FFFFFF" points="85.6,99.8 88.1,91.8 81.9,97.5 		"/>
	</g>
	<g>
		<line fill="none" stroke="#000000" x1="84.6" y1="97.4" x2="76.8" y2="109.7"/>
		<polygon points="85.6,99.8 88.1,91.8 81.9,97.5 		"/>
	</g>
</g>
<g>
	<g>
		<g>
			<g>
				<g>
					<text transform="matrix(1 0 0 1 68.001 118.9922)" font-family="'ArialMT'" font-size="10">Z</text>
				</g>
			</g>
		</g>
	</g>
	<g>
		<g>
			<g>
				<g>
					<text transform="matrix(1 0 0 1 74.1094 121.9922)" font-family="'ArialMT'" font-size="9">1</text>
				</g>
			</g>
		</g>
	</g>
</g>
<g>
	<g>
		<polygon fill="#FFFFFF" points="132,143.1 127,149.9 134.7,146.5 		"/>
	</g>
	<g>
		<line fill="none" stroke="#000000" x1="132.2" y1="145.7" x2="139.2" y2="140.2"/>
		<polygon points="132,143.1 127,149.9 134.7,146.5 		"/>
	</g>
</g>
<g>
	<g>
		<polygon fill="#FFFFFF" points="155.8,128.2 160.6,121.3 153,124.9 		"/>
	</g>
	<g>
		<line fill="none" stroke="#000000" x1="155.5" y1="125.6" x2="149.8" y2="130.5"/>
		<polygon points="155.8,128.2 160.6,121.3 153,124.9 		"/>
	</g>
</g>
<g>
	<g>
		<g>
			<g>
				<g>
					<text transform="matrix(1 0 0 1 138.3071 137.2988)" font-family="'ArialMT'" font-size="10">Y</text>
				</g>
			</g>
		</g>
	</g>
	<g>
		<g>
			<g>
				<g>
					<text transform="matrix(1 0 0 1 144.977 140.2988)" font-family="'ArialMT'" font-size="9">2</text>
				</g>
			</g>
		</g>
	</g>
</g>
<g>
	<g>
		<polygon fill="#FFFFFF" points="166.7,114.8 171.6,121.7 170.8,113.3 		"/>
	</g>
	<g>
		<line fill="none" stroke="#000000" x1="169.3" y1="115.5" x2="166.4" y2="107.7"/>
		<polygon points="166.7,114.8 171.6,121.7 170.8,113.3 		"/>
	</g>
</g>
<g>
	<g>
		<polygon fill="#FFFFFF" points="160.6,87.3 155.4,80.7 156.6,89 		"/>
	</g>
	<g>
		<line fill="none" stroke="#000000" x1="158" y1="86.8" x2="161.1" y2="93.9"/>
		<polygon points="160.6,87.3 155.4,80.7 156.6,89 		"/>
	</g>
</g>
<g>
	<g>
		<g>
			<g>
				<g>
					<text transform="matrix(1 0 0 1 159.0015 103.3263)" font-family="'ArialMT'" font-size="10">Z</text>
				</g>
			</g>
		</g>
	</g>
	<g>
		<g>
			<g>
				<g>
					<text transform="matrix(1 0 0 1 165.1099 106.3263)" font-family="'ArialMT'" font-size="9">2</text>
				</g>
			</g>
		</g>
	</g>
</g>
<path d="M88.6,20.1c0.3-1.6,1.8-2.6,3.4-2.3c1.6,0.3,2.6,1.8,2.3,3.4c-0.3,1.6-1.8,2.6-3.4,2.3C89.3,23.2,88.3,21.7,88.6,20.1
	L88.6,20.1z"/>
<path d="M187.6,105.1c0.3-1.6,1.8-2.6,3.4-2.3c1.6,0.3,2.6,1.8,2.3,3.4s-1.8,2.6-3.4,2.3C188.3,108.2,187.3,106.7,187.6,105.1
	L187.6,105.1z"/>
<path d="M10.6,139.1c0.3-1.6,1.8-2.6,3.4-2.3s2.6,1.8,2.3,3.4c-0.3,1.6-1.8,2.6-3.4,2.3S10.3,140.7,10.6,139.1L10.6,139.1z"/>
<path d="M125.8,158.9c0.3-1.6,1.8-2.6,3.4-2.3c1.6,0.3,2.6,1.8,2.3,3.4c-0.3,1.6-1.8,2.6-3.4,2.3C126.5,162,125.5,160.5,125.8,158.9
	L125.8,158.9z"/>
<g>
	<g>
		<g>
			<g>
				<text transform="matrix(1 0 0 1 77.6665 85.3258)" fill="#ED1C24" font-family="'ArialMT'" font-size="10">II</text>
			</g>
		</g>
	</g>
</g>
<g>
	<g>
		<g>
			<g>
				<text transform="matrix(1 0 0 1 157.3325 74.6587)" fill="#ED1C24" font-family="'ArialMT'" font-size="10">JJ</text>
			</g>
		</g>
	</g>
</g>
<g>
	<g>
		<polygon fill="#FFFFFF" points="67.8,97.8 76.2,97.8 68.9,93.6 		"/>
	</g>
	<g>
		<line fill="none" stroke="#000000" x1="69.8" y1="96.1" x2="66.7" y2="95.3"/>
		<polygon points="67.8,97.8 76.2,97.8 68.9,93.6 		"/>
	</g>
</g>
<g>
	<g>
		<polygon fill="#FFFFFF" points="54.9,90.2 46.5,90.3 53.8,94.5 		"/>
	</g>
	<g>
		<line fill="none" stroke="#000000" x1="52.9" y1="91.9" x2="56.4" y2="92.9"/>
		<polygon points="54.9,90.2 46.5,90.3 53.8,94.5 		"/>
	</g>
</g>
<g>
	<g>
		<g>
			<g>
				<g>
					<text transform="matrix(1 0 0 1 55.8335 97.3263)" font-family="'ArialMT'" font-size="10">Y</text>
				</g>
			</g>
		</g>
	</g>
	<g>
		<g>
			<g>
				<g>
					<text transform="matrix(1 0 0 1 62.5034 100.3263)" font-family="'ArialMT'" font-size="9">1</text>
				</g>
			</g>
		</g>
	</g>
</g>
<line fill="none" stroke="#000000" stroke-width="1.1324" stroke-dasharray="5.76" x1="161.3" y1="80.8" x2="117.2" y2="118.8"/>
<g>
	<g>
		<path fill="none" stroke="#000000" stroke-width="0.5612" stroke-linecap="square" d="M103,38.6"/>
		<polyline fill="#ED1C24" stroke="#ED1C24" stroke-width="0.5612" stroke-linecap="square" points="83.7,92.5 151.4,91.1 151,86.4 
			83.3,87.5 83.7,92.5 		"/>
	</g>
	<path stroke="#000000" stroke-width="0.5607" d="M151.7,90.9c-0.5,0.8-1.2,0.4-1.6-0.8c-0.4-1.2-0.4-2.8,0.1-3.6
		c0.5-0.8,1.2-0.4,1.6,0.8C152.2,88.5,152.2,90.1,151.7,90.9z"/>
	<path stroke="#000000" stroke-width="0.5607" d="M84.1,92c-0.5,0.8-1.2,0.4-1.6-0.8c-0.4-1.2-0.4-2.8,0.1-3.6
		c0.5-0.8,1.2-0.4,1.6,0.8C84.6,89.7,84.6,91.3,84.1,92z"/>
</g>
<g>
	<g>
		<g>
			<g>
				<text transform="matrix(1 0 0 1 217.3872 56.2949)" font-family="'ArialMT'" font-size="11">e = 2</text>
			</g>
		</g>
	</g>
</g>
</svg>
