<?xml version="1.0" encoding="utf-8"?>
<!-- Generator: Adobe Illustrator 17.1.0, SVG Export Plug-In . SVG Version: 6.00 Build 0)  -->

<svg version="1.1" id="Layer_1" xmlns="http://www.w3.org/2000/svg" xmlns:xlink="http://www.w3.org/1999/xlink" x="0px" y="0px"
	 width="273px" height="216.2px" viewBox="0 0 273 216.2" enable-background="new 0 0 273 216.2" xml:space="preserve">
<line fill="none" stroke="#000000" stroke-width="0.9971" stroke-dasharray="5.76,5.76" x1="101.5" y1="84.7" x2="222.6" y2="106.9"/>
<line fill="none" stroke="#000000" stroke-width="0.9971" stroke-dasharray="5.76,5.76" x1="12.7" y1="173.2" x2="98.7" y2="85.2"/>
<path fill="none" stroke="#000000" stroke-miterlimit="10" d="M223.1,33.1L98.9,11.9l-87.3,88"/>
<line fill="none" stroke="#000000" stroke-width="0.9971" stroke-miterlimit="10" x1="222.6" y1="33.4" x2="98.9" y2="11.9"/>
<line fill="none" stroke="#000000" stroke-width="0.9971" stroke-miterlimit="10" x1="222.6" y1="68.5" x2="222.6" y2="33.4"/>
<line fill="none" stroke="#000000" stroke-width="0.9971" stroke-miterlimit="10" x1="222.6" y1="106.9" x2="222.6" y2="68.5"/>
<polyline fill="none" stroke="#000000" stroke-width="0.9971" stroke-miterlimit="10" points="14.1,173.1 137.6,196.4 222.6,106.9 
	"/>
<line fill="none" stroke="#000000" stroke-width="0.9971" stroke-miterlimit="10" x1="12.4" y1="99.4" x2="12.5" y2="173.2"/>
<line fill="none" stroke="#000000" stroke-width="0.9971" stroke-miterlimit="10" x1="222" y1="34.6" x2="136.4" y2="123.7"/>
<polygon fill="none" stroke="#000000" stroke-width="0.9971" stroke-miterlimit="10" points="223,33.4 136.4,123.7 12,99.4 98.7,12 
	"/>
<line fill="none" stroke="#000000" stroke-width="0.9971" stroke-dasharray="5.76,5.76" x1="98.7" y1="85.2" x2="98.8" y2="12.4"/>
<path fill="none" stroke="#000000" stroke-width="0.9971" stroke-dasharray="5.76,5.76" d="M99.5,24.9"/>
<text transform="matrix(0.8269 0 0 1 4.3838 177.7715)" font-family="'ArialMT'" font-size="11">I </text>
<text transform="matrix(0.8269 0 0 1 44.0044 133.0342)" font-family="'ArialMT'" font-size="11">II</text>
<text transform="matrix(0.8269 0 0 1 132.293 212.6504)" font-family="'ArialMT'" font-size="11">J (d = 0)</text>
<text transform="matrix(0.8269 0 0 1 228 111.0723)" font-family="'ArialMT'" font-size="11">K (d = 1)</text>
<text transform="matrix(0.8269 0 0 1 165.667 76.6816)" font-family="'ArialMT'" font-size="11">KK</text>
<text transform="matrix(0.8269 0 0 1 89 79.7734)" font-family="'ArialMT'" font-size="11">L</text>
<text transform="matrix(0.8269 0 0 1 37.9409 56.5742)" enable-background="new    "><tspan x="0" y="0" font-family="'ArialMT'" font-size="11">L</tspan><tspan x="6.1" y="0" font-family="'ArialMT'" font-size="11">L</tspan></text>
<g>
	<line fill="none" stroke="#A6A6A6" stroke-width="2.16" x1="83.9" y1="96.2" x2="111.1" y2="83.1"/>
	<line fill="none" stroke="#A6A6A6" stroke-width="2" x1="72.9" y1="132" x2="136" y2="100.1"/>
	<line fill="none" stroke="#A6A6A6" stroke-width="2.16" x1="74.6" y1="112.6" x2="127.3" y2="85.8"/>
	<line fill="none" stroke="#A6A6A6" stroke-width="2.16" x1="69.9" y1="125.4" x2="130.6" y2="93.3"/>
</g>
<path d="M132.8,195.6c0.3-1.6,1.8-2.6,3.4-2.3c1.6,0.3,2.6,1.8,2.3,3.4c-0.3,1.6-1.8,2.6-3.4,2.3
	C133.6,198.7,132.5,197.2,132.8,195.6L132.8,195.6z"/>
<text transform="matrix(0.8269 0 0 1 162.8447 153.3369)" font-family="'ArialMT'" font-size="11">JJ</text>
<path d="M219.8,106.6c0.3-1.6,1.8-2.6,3.4-2.3c1.6,0.3,2.6,1.8,2.3,3.4s-1.8,2.6-3.4,2.3C220.6,109.7,219.5,108.2,219.8,106.6
	L219.8,106.6z"/>
<path d="M95.8,83.6c0.3-1.6,1.8-2.6,3.4-2.3c1.6,0.3,2.6,1.8,2.3,3.4c-0.3,1.6-1.8,2.6-3.4,2.3C96.6,86.7,95.5,85.2,95.8,83.6
	L95.8,83.6z"/>
<path d="M9.8,99.6c0.3-1.6,1.8-2.6,3.4-2.3c1.6,0.3,2.6,1.8,2.3,3.4s-1.8,2.6-3.4,2.3C10.6,102.7,9.5,101.2,9.8,99.6L9.8,99.6z"/>
<path d="M9.8,172.6c0.3-1.6,1.8-2.6,3.4-2.3s2.6,1.8,2.3,3.4c-0.3,1.6-1.8,2.6-3.4,2.3C10.6,175.7,9.5,174.2,9.8,172.6L9.8,172.6z"
	/>
<text transform="matrix(0.8269 0 0 1 -3.051758e-005 101.1064)" font-family="'ArialMT'" font-size="11">M</text>
<path d="M95.8,11.6c0.3-1.6,1.8-2.6,3.4-2.3s2.6,1.8,2.3,3.4c-0.3,1.6-1.8,2.6-3.4,2.3C96.6,14.7,95.5,13.2,95.8,11.6L95.8,11.6z"/>
<text transform="matrix(0.8269 0 0 1 88.333 9.4395)" font-family="'ArialMT'" font-size="11">P</text>
<text transform="matrix(0.8269 0 0 1 228 34.1064)" font-family="'ArialMT'" font-size="11">O</text>
<path d="M219.8,32.6c0.3-1.6,1.8-2.6,3.4-2.3c1.6,0.3,2.6,1.8,2.3,3.4c-0.3,1.6-1.8,2.6-3.4,2.3C220.6,35.7,219.5,34.2,219.8,32.6
	L219.8,32.6z"/>
<text transform="matrix(0.8269 0 0 1 140.334 131.1064)" font-family="'ArialMT'" font-size="11">N </text>
<text transform="matrix(0.8269 0 0 1 255 73.7725)" font-family="'ArialMT'" font-size="11">f = 3</text>
<polyline fill="#FFFFFF" stroke="#000000" stroke-width="0.9971" stroke-miterlimit="10" points="136.4,123.7 136.4,196.5 
	136.4,123.7 12,99.4 "/>
<path d="M132.8,123.6c0.3-1.6,1.8-2.6,3.4-2.3c1.6,0.3,2.6,1.8,2.3,3.4s-1.8,2.6-3.4,2.3C133.6,126.7,132.5,125.2,132.8,123.6
	L132.8,123.6z"/>
<g>
	<line fill="none" stroke="#ED1C24" stroke-width="0.9971" stroke-miterlimit="10" x1="174.3" y1="82.6" x2="52.3" y2="58.8"/>
	
		<line fill="none" stroke="#ED1C24" stroke-width="0.9971" stroke-miterlimit="10" stroke-dasharray="5.76,5.76" x1="53.3" y1="133.3" x2="53.1" y2="59.4"/>
	<line fill="none" stroke="#ED1C24" stroke-width="0.9971" stroke-miterlimit="10" x1="174.3" y1="83.6" x2="174.7" y2="158.5"/>
	
		<line fill="none" stroke="#ED1C24" stroke-width="0.9971" stroke-miterlimit="10" stroke-dasharray="5.76,5.76" x1="52.3" y1="132.8" x2="171.7" y2="158.1"/>
</g>
<path d="M50.5,57.6c0.3-1.6,1.8-2.6,3.4-2.3c1.6,0.3,2.6,1.8,2.3,3.4c-0.3,1.6-1.8,2.6-3.4,2.3C51.2,60.7,50.2,59.2,50.5,57.6
	L50.5,57.6z"/>
<path d="M170.6,158c0.3-1.6,1.8-2.6,3.4-2.3c1.6,0.3,2.6,1.8,2.3,3.4c-0.3,1.6-1.8,2.6-3.4,2.3C171.3,161.1,170.3,159.6,170.6,158
	L170.6,158z"/>
<path d="M50.7,131.4c0.3-1.6,1.8-2.6,3.4-2.3c1.6,0.3,2.6,1.8,2.3,3.4c-0.3,1.6-1.8,2.6-3.4,2.3C51.4,134.5,50.4,133,50.7,131.4
	L50.7,131.4z"/>
<path d="M170.8,83.3c0.3-1.6,1.8-2.6,3.4-2.3c1.6,0.3,2.6,1.8,2.3,3.4s-1.8,2.6-3.4,2.3C171.6,86.4,170.5,84.9,170.8,83.3
	L170.8,83.3z"/>
<g>
	<g>
		<line fill="none" stroke="#000000" x1="154.4" y1="96.9" x2="163.7" y2="87.8"/>
		<polygon points="164.1,90.4 168.5,83.1 161.1,87.2 		"/>
	</g>
</g>
<g>
	<g>
		<line fill="none" stroke="#000000" x1="134.6" y1="115.4" x2="144.2" y2="106.1"/>
		<polygon points="134.2,112.8 129.8,120 137.2,115.9 		"/>
	</g>
</g>
<text transform="matrix(0.8269 0 0 1 143.666 104.1064)" font-family="'ArialMT'" font-size="11">d2</text>
<g>
	<g>
		<line fill="none" stroke="#000000" x1="53.3" y1="152.1" x2="61.4" y2="143.1"/>
		<polygon points="62,145.6 65.8,138.1 58.7,142.7 		"/>
	</g>
</g>
<text transform="matrix(0.8269 0 0 1 42.9653 159.8789)" font-family="'ArialMT'" font-size="11">d1</text>
<g>
	<g>
		<line fill="none" stroke="#000000" x1="166.3" y1="176.9" x2="175.8" y2="167.7"/>
		<polygon points="176.3,170.3 180.6,163.1 173.2,167.1 		"/>
	</g>
</g>
<g>
	<g>
		<line fill="none" stroke="#000000" x1="146.8" y1="196.4" x2="156.8" y2="186.7"/>
		<polygon points="146.4,193.9 142.1,201.1 149.5,197 		"/>
	</g>
</g>
<text transform="matrix(0.8269 0 0 1 156.5322 185.7568)" font-family="'ArialMT'" font-size="11">d2</text>
<g>
	<g>
		<line fill="none" stroke="#000000" x1="44.2" y1="161" x2="36.2" y2="169.9"/>
		<polygon points="35.6,167.4 31.8,174.9 38.9,170.3 		"/>
	</g>
</g>
<g>
	<g>
		<line fill="none" stroke="#000000" x1="49.3" y1="77.1" x2="57.9" y2="67.3"/>
		<polygon points="58.5,69.9 62.3,62.3 55.3,67 		"/>
	</g>
</g>
<text transform="matrix(0.8269 0 0 1 38.9653 84.8789)" font-family="'ArialMT'" font-size="11">d1</text>
<g>
	<g>
		<line fill="none" stroke="#000000" x1="39.6" y1="86.3" x2="31.3" y2="95.6"/>
		<polygon points="30.7,93.1 27,100.6 34,96 		"/>
	</g>
</g>
</svg>
