<?xml version="1.0" encoding="utf-8"?>
<!-- Generator: Adobe Illustrator 17.1.0, SVG Export Plug-In . SVG Version: 6.00 Build 0)  -->

<svg version="1.1" id="Layer_1" xmlns="http://www.w3.org/2000/svg" xmlns:xlink="http://www.w3.org/1999/xlink" x="0px" y="0px"
	 width="344.5px" height="252.6px" viewBox="0 0 344.5 252.6" enable-background="new 0 0 344.5 252.6" xml:space="preserve">
<line fill="none" stroke="#000000" stroke-width="0.9971" stroke-miterlimit="10" x1="254" y1="87.3" x2="254" y2="22"/>
<line fill="none" stroke="#000000" stroke-width="0.9971" stroke-miterlimit="10" stroke-dasharray="5.76,5.76" x1="254" y1="162.1" x2="254" y2="87.3"/>
<line fill="none" stroke="#000000" stroke-width="0.9971" stroke-dasharray="5.76,5.76" x1="43.5" y1="116.4" x2="129.3" y2="29.7"/>
<line fill="none" stroke="#000000" stroke-width="0.9971" stroke-dasharray="5.76,5.76" x1="253.8" y1="50" x2="130.8" y2="29.5"/>
<line fill="none" stroke="#000000" stroke-width="0.9971" stroke-dasharray="5.76,5.76" x1="254.1" y1="64.8" x2="131.1" y2="44.3"/>
<line fill="none" stroke="#000000" stroke-width="0.9971" stroke-dasharray="5.76,5.76" x1="43.8" y1="131.2" x2="129.6" y2="44.5"/>
<g>
	<g>
		<g>
			<g>
				<text transform="matrix(1 0 0 1 283.3325 94.0036)" font-family="'ArialMT'" font-size="11">Base layer n</text>
			</g>
		</g>
	</g>
</g>
<line fill="none" stroke="#000000" stroke-width="0.9971" stroke-dasharray="5.76,5.76" x1="129.5" y1="141" x2="253.4" y2="163.7"/>
<line fill="none" stroke="#000000" stroke-width="0.9971" stroke-miterlimit="10" stroke-dasharray="5.76,5.76" x1="44" y1="150.4" x2="44.2" y2="228.8"/>
<line fill="none" stroke="#000000" stroke-width="0.9971" stroke-miterlimit="10" x1="43.5" y1="87.9" x2="44" y2="150.4"/>
<path fill="#FFFFFF" stroke="#000000" stroke-width="0.9971" stroke-miterlimit="10" d="M43.3,97.9"/>
<polyline fill="#FFFFFF" stroke="#000000" stroke-width="0.9971" stroke-miterlimit="10" stroke-dasharray="5.76,5.76" points="
	167.7,175.8 167.7,252 167.7,122.3 "/>
<line fill="none" stroke="#000000" stroke-width="0.9971" stroke-miterlimit="10" x1="167.7" y1="112.3" x2="167.7" y2="175.8"/>
<path fill="#FFFFFF" stroke="#000000" stroke-width="0.9971" stroke-miterlimit="10" d="M167.7,122.3"/>
<polygon fill="none" stroke="#000000" stroke-width="0.9971" stroke-miterlimit="10" stroke-dasharray="5.76,5.76" points="
	254.3,21 167.7,112.3 43.3,87.9 130.1,0.5 "/>
<line fill="none" stroke="#000000" x1="135.9" y1="178.9" x2="167.2" y2="185.1"/>
<line fill="none" stroke="#000000" x1="43.9" y1="162.3" x2="65.3" y2="166.5"/>
<g>
	
		<line fill="none" stroke="#000000" stroke-width="0.9971" stroke-dasharray="5.76,5.76" x1="44.1" y1="227.4" x2="130.1" y2="140.8"/>
	<polyline fill="none" stroke="#000000" stroke-dasharray="5.76,5.76" points="44,228.8 167.5,252 254,162.5 	"/>
</g>
<line fill="none" stroke="#000000" x1="63.3" y1="159.8" x2="95.3" y2="166.1"/>
<polygon fill="#B3B3B3" stroke="#000000" stroke-width="1.44" stroke-linecap="round" stroke-linejoin="round" points="167.2,155.3 
	253.7,64.2 254.2,44.1 167.2,135.2 "/>
<polygon fill="#B3B3B3" stroke="#000000" stroke-width="1.44" points="167.2,135 43.9,110.6 43.9,130.7 167.2,155 "/>
<line fill="none" stroke="#000000" stroke-width="0.9971" stroke-dasharray="5.76,5.76" x1="130.1" y1="141.8" x2="130.1" y2="1"/>
<path fill="none" stroke="#000000" stroke-width="0.9971" stroke-dasharray="5.76,5.76" d="M130.8,23.5"/>
<g>
	<g>
		<g>
			<g>
				<text transform="matrix(1 0 0 1 35.7231 157.5003)" font-family="'ArialMT'" font-size="11">I</text>
			</g>
		</g>
	</g>
</g>
<g>
	<g>
		<g>
			<g>
				<text transform="matrix(1 0 0 1 170.0005 185.6701)" font-family="'ArialMT'" font-size="11">J</text>
			</g>
		</g>
	</g>
</g>
<g>
	<g>
		<g>
			<g>
				<text transform="matrix(1 0 0 1 258.5005 92.8019)" font-family="'ArialMT'" font-size="11">K</text>
			</g>
		</g>
	</g>
</g>
<g>
	<g>
		<g>
			<g>
				<text transform="matrix(1 0 0 1 134.2593 85.2619)" font-family="'ArialMT'" font-size="11">L</text>
			</g>
		</g>
	</g>
</g>
<path d="M164.2,143.2c0.3-1.6,1.8-2.6,3.4-2.3c1.6,0.3,2.6,1.8,2.3,3.4c-0.3,1.6-1.8,2.6-3.4,2.3
	C164.9,146.3,163.9,144.8,164.2,143.2L164.2,143.2z"/>
<path d="M164.7,174.7c0.3-1.6,1.8-2.6,3.4-2.3c1.6,0.3,2.6,1.8,2.3,3.4c-0.3,1.6-1.8,2.6-3.4,2.3
	C165.4,177.8,164.4,176.3,164.7,174.7L164.7,174.7z"/>
<path d="M251.2,54.2c0.3-1.6,1.8-2.6,3.4-2.3s2.6,1.8,2.3,3.4c-0.3,1.6-1.8,2.6-3.4,2.3C251.9,57.3,250.9,55.8,251.2,54.2
	L251.2,54.2z"/>
<path d="M250.7,87.2c0.3-1.6,1.8-2.6,3.4-2.3c1.6,0.3,2.6,1.8,2.3,3.4s-1.8,2.6-3.4,2.3C251.4,90.3,250.4,88.8,250.7,87.2
	L250.7,87.2z"/>
<path d="M127.2,85.7c0.3-1.6,1.8-2.6,3.4-2.3c1.6,0.3,2.6,1.8,2.3,3.4s-1.8,2.6-3.4,2.3C127.9,88.8,126.9,87.3,127.2,85.7
	L127.2,85.7z"/>
<path d="M41.7,152.7c0.3-1.6,1.8-2.6,3.4-2.3c1.6,0.3,2.6,1.8,2.3,3.4c-0.3,1.6-1.8,2.6-3.4,2.3C42.4,155.8,41.4,154.3,41.7,152.7
	L41.7,152.7z"/>
<path d="M40.5,120.8c0.3-1.6,1.8-2.6,3.4-2.3c1.6,0.3,2.6,1.8,2.3,3.4s-1.8,2.6-3.4,2.3C41.2,123.9,40.2,122.4,40.5,120.8
	L40.5,120.8z"/>
<g>
	<g>
		<g>
			<g>
				<g>
					<text transform="matrix(1 0 0 1 171.8638 160.8078)" enable-background="new    "><tspan x="0" y="0" font-family="'ArialMT'" font-size="10">(</tspan><tspan x="3.3" y="0" font-family="'ArialMT'" font-size="10">Y</tspan></text>
				</g>
			</g>
		</g>
	</g>
	<g>
		<g>
			<g>
				<g>
					<text transform="matrix(1 0 0 1 181.8638 163.8078)" font-family="'ArialMT'" font-size="9">1</text>
				</g>
			</g>
		</g>
	</g>
	<g>
		<g>
			<g>
				<g>
					<text transform="matrix(1 0 0 1 186.8692 160.8078)" font-family="'ArialMT'" font-size="11"> </text>
				</g>
			</g>
		</g>
	</g>
	<g>
		<g>
			<g>
				<g>
					<text transform="matrix(1 0 0 1 189.9253 160.8078)" font-family="'ArialMT'" font-size="10">= 1)</text>
				</g>
			</g>
		</g>
	</g>
</g>
<g>
	<g>
		<g>
			<g>
				<g>
					<text transform="matrix(1 0 0 1 260.6675 58.3362)" enable-background="new    "><tspan x="0" y="0" font-family="'ArialMT'" font-size="10">(</tspan><tspan x="3.3" y="0" font-family="'ArialMT'" font-size="10">Y</tspan></text>
				</g>
			</g>
		</g>
	</g>
	<g>
		<g>
			<g>
				<g>
					<text transform="matrix(1 0 0 1 270.6675 61.3362)" font-family="'ArialMT'" font-size="9">2</text>
				</g>
			</g>
		</g>
	</g>
	<g>
		<g>
			<g>
				<g>
					<text transform="matrix(1 0 0 1 275.6729 58.3362)" font-family="'ArialMT'" font-size="11"> </text>
				</g>
			</g>
		</g>
	</g>
	<g>
		<g>
			<g>
				<g>
					<text transform="matrix(1 0 0 1 278.729 58.3362)" font-family="'ArialMT'" font-size="10">= 1)</text>
				</g>
			</g>
		</g>
	</g>
</g>
<g>
	<g>
		<g>
			<g>
				<g>
					<text transform="matrix(1 0 0 1 0 124.6691)" enable-background="new    "><tspan x="0" y="0" font-family="'ArialMT'" font-size="10">(</tspan><tspan x="3.3" y="0" font-family="'ArialMT'" font-size="10">Y</tspan></text>
				</g>
			</g>
		</g>
	</g>
	<g>
		<g>
			<g>
				<g>
					<text transform="matrix(1 0 0 1 10 127.6691)" font-family="'ArialMT'" font-size="9">1</text>
				</g>
			</g>
		</g>
	</g>
	<g>
		<g>
			<g>
				<g>
					<text transform="matrix(1 0 0 1 15.0054 124.6691)" font-family="'ArialMT'" font-size="11"> </text>
				</g>
			</g>
		</g>
	</g>
	<g>
		<g>
			<g>
				<g>
					<text transform="matrix(1 0 0 1 18.0615 124.6691)" font-family="'ArialMT'" font-size="10">= 0)</text>
				</g>
			</g>
		</g>
	</g>
</g>
<g>
	<g>
		<g>
			<g>
				<g>
					<text transform="matrix(1 0 0 1 153.3848 22.4298)" font-family="'ArialMT'" font-size="10">Y</text>
				</g>
			</g>
		</g>
	</g>
	<g>
		<g>
			<g>
				<g>
					<text transform="matrix(1 0 0 1 160.0547 25.4298)" font-family="'ArialMT'" font-size="9">2</text>
				</g>
			</g>
		</g>
	</g>
</g>
<g>
	<g>
		<polygon fill="#FFFFFF" points="102.3,112.9 110.7,112.5 103.2,108.7 		"/>
	</g>
	<g>
		<line fill="none" stroke="#000000" x1="104.2" y1="111.1" x2="87.4" y2="107.5"/>
		<polygon points="102.3,112.9 110.7,112.5 103.2,108.7 		"/>
	</g>
</g>
<g>
	<g>
		<g>
			<g>
				<g>
					<text transform="matrix(1 0 0 1 93.4453 44.4446)" enable-background="new    "><tspan x="0" y="0" font-family="'ArialMT'" font-size="10">(</tspan><tspan x="3.3" y="0" font-family="'ArialMT'" font-size="10">Y</tspan></text>
				</g>
			</g>
		</g>
	</g>
	<g>
		<g>
			<g>
				<g>
					<text transform="matrix(1 0 0 1 103.4453 47.4446)" font-family="'ArialMT'" font-size="9">2</text>
				</g>
			</g>
		</g>
	</g>
	<g>
		<g>
			<g>
				<g>
					<text transform="matrix(1 0 0 1 108.4507 44.4446)" font-family="'ArialMT'" font-size="11"> </text>
				</g>
			</g>
		</g>
	</g>
	<g>
		<g>
			<g>
				<g>
					<text transform="matrix(1 0 0 1 111.5068 44.4446)" font-family="'ArialMT'" font-size="10">= 0)</text>
				</g>
			</g>
		</g>
	</g>
</g>
<path d="M127.3,37.5c0.3-1.6,1.8-2.6,3.4-2.3c1.6,0.3,2.6,1.8,2.3,3.4c-0.3,1.6-1.8,2.6-3.4,2.3C128,40.6,127,39.1,127.3,37.5
	L127.3,37.5z"/>
<g>
	<g>
		<polygon fill="#FFFFFF" points="52.9,98.3 44.5,98.8 52,102.6 		"/>
	</g>
	<g>
		<line fill="none" stroke="#000000" x1="51" y1="100.1" x2="67.8" y2="103.8"/>
		<polygon points="52.9,98.3 44.5,98.8 52,102.6 		"/>
	</g>
</g>
<g>
	<g>
		<g>
			<g>
				<g>
					<text transform="matrix(1 0 0 1 72.6221 109.4446)" font-family="'ArialMT'" font-size="10">Y</text>
				</g>
			</g>
		</g>
	</g>
	<g>
		<g>
			<g>
				<g>
					<text transform="matrix(1 0 0 1 79.292 112.4446)" font-family="'ArialMT'" font-size="9">1</text>
				</g>
			</g>
		</g>
	</g>
</g>
<g>
	<g>
		<g>
			<g>
				<text transform="matrix(1 0 0 1 101.6465 140.053)" fill="#ED1C24" font-family="'ArialMT'" font-size="11">II</text>
			</g>
		</g>
	</g>
</g>
<line fill="none" stroke="#000000" stroke-linecap="round" x1="140" y1="149.7" x2="156.3" y2="133.3"/>
<line fill="none" stroke="#000000" stroke-linecap="round" x1="117.8" y1="145.2" x2="134.2" y2="128.8"/>
<line fill="none" stroke="#000000" stroke-linecap="round" x1="53" y1="133" x2="69.3" y2="116.7"/>
<line fill="none" stroke="#000000" stroke-linecap="round" x1="94.5" y1="139.8" x2="110.8" y2="123.5"/>
<line fill="none" stroke="#000000" stroke-linecap="round" x1="73.2" y1="135.7" x2="89.5" y2="119.3"/>
<line fill="none" stroke="#000000" stroke-linecap="round" x1="184.3" y1="118.4" x2="180.3" y2="140.4"/>
<line fill="none" stroke="#000000" stroke-linecap="round" x1="202.4" y1="99.6" x2="198.4" y2="121.6"/>
<line fill="none" stroke="#000000" stroke-linecap="round" x1="222.6" y1="78.5" x2="218.6" y2="100.5"/>
<line fill="none" stroke="#000000" stroke-linecap="round" x1="242.3" y1="58.4" x2="238.3" y2="80.4"/>
<g>
	<g>
		<g>
			<g>
				<text transform="matrix(1.1213 0 0 1 194.834 52.8335)" fill="#ED1C24" font-family="'ArialMT'" font-size="11">JJ</text>
			</g>
		</g>
	</g>
</g>
<g>
	<g>
		<polygon fill="#FFFFFF" points="139.1,15.3 130.8,16 138.4,19.6 		"/>
	</g>
	<g>
		<line fill="none" stroke="#000000" x1="137.3" y1="17.1" x2="151.8" y2="19.8"/>
		<polygon points="139.1,15.3 130.8,16 138.4,19.6 		"/>
	</g>
</g>
<g>
	<g>
		<line fill="none" x1="254.3" y1="75" x2="280.7" y2="88.7"/>
		<polygon fill="#FFFFFF" points="256.6,73.8 248.4,72 254.6,77.6 		"/>
	</g>
	<g>
		<line fill="none" stroke="#000000" x1="254.3" y1="75" x2="280.7" y2="88.7"/>
		<polygon points="256.6,73.8 248.4,72 254.6,77.6 		"/>
	</g>
</g>
<g>
	<g>
		<g>
			<g>
				<text transform="matrix(1 0 0 1 284.6665 111.6691)" font-family="'ArialMT'" font-size="11">e = 2</text>
			</g>
		</g>
	</g>
</g>
<g>
	<g>
		<polygon fill="#FFFFFF" points="180.9,26.7 189.3,25.9 181.7,22.4 		"/>
	</g>
	<g>
		<line fill="none" stroke="#000000" x1="182.8" y1="24.9" x2="167.3" y2="22.2"/>
		<polygon points="180.9,26.7 189.3,25.9 181.7,22.4 		"/>
	</g>
</g>
<line fill="none" stroke="#000000" x1="189.7" y1="20.7" x2="189.7" y2="30.7"/>
<line fill="none" stroke="#000000" x1="111.3" y1="107" x2="111.3" y2="117"/>
<line fill="none" stroke="#000000" stroke-width="0.9971" stroke-dasharray="5.76,5.76" x1="130.1" y1="64.8" x2="254" y2="86.5"/>
<line fill="none" stroke="#000000" stroke-width="0.9971" stroke-dasharray="5.76,5.76" x1="44.1" y1="151.4" x2="130.1" y2="64.8"/>
<polyline fill="none" stroke="#000000" points="44,152.8 167.5,176 254,86.5 "/>
<g>
	<g>
		<g>
			<g>
				<text transform="matrix(0.6264 -0.7795 0.7795 0.6264 154.8664 110.3021)" font-family="'ArialMT'" font-size="11.0004">Reinforcing</text>
			</g>
		</g>
	</g>
</g>
<g>
	<g>
		<path fill="none" stroke="#000000" stroke-width="0.7558" stroke-linecap="square" d="M97.2,73.5"/>
		<polyline fill="#ED1C24" stroke="#ED1C24" stroke-width="0.7558" stroke-linecap="square" points="115.6,136.9 193,46.6 
			188.9,43.9 111.3,133.9 115.6,136.9 		"/>
	</g>
	<path stroke="#000000" stroke-width="0.755" d="M193.1,46.1c0,1.2-1.1,1.8-2.5,1.5S188,46.1,188,45c0-1.2,1.1-1.8,2.5-1.5
		S193.1,44.9,193.1,46.1z"/>
	<path stroke="#000000" stroke-width="0.755" d="M115.7,136.1c0,1.2-1.1,1.8-2.5,1.5s-2.6-1.5-2.6-2.6c0-1.2,1.1-1.8,2.5-1.5
		C114.5,133.7,115.7,134.9,115.7,136.1z"/>
</g>
<line fill="none" stroke="#000000" x1="135.9" y1="178.9" x2="167.2" y2="185.1"/>
<line fill="none" stroke="#000000" x1="109.2" y1="208.3" x2="167.2" y2="218.4"/>
<line fill="none" stroke="#000000" x1="44.3" y1="208.1" x2="76.3" y2="214.5"/>
<line fill="none" stroke="#000000" x1="168.3" y1="205.9" x2="182.7" y2="189.3"/>
<line fill="none" stroke="#000000" x1="167.3" y1="235.2" x2="201" y2="198.6"/>
<line fill="none" stroke="#000000" x1="218.7" y1="146.9" x2="252.3" y2="110.3"/>
<line fill="none" stroke="#000000" x1="238.7" y1="154.9" x2="253" y2="138.3"/>
</svg>
