<?xml version="1.0" encoding="utf-8"?>
<!-- Generator: Adobe Illustrator 17.1.0, SVG Export Plug-In . SVG Version: 6.00 Build 0)  -->

<svg version="1.1" id="Layer_1" xmlns="http://www.w3.org/2000/svg" xmlns:xlink="http://www.w3.org/1999/xlink" x="0px" y="0px"
	 width="344.5px" height="232.5px" viewBox="0 1.6 344.5 232.5" enable-background="new 0 1.6 344.5 232.5" xml:space="preserve">
<line fill="none" stroke="#000000" stroke-width="0.9971" stroke-miterlimit="10" x1="254" y1="127.6" x2="254" y2="35.5"/>
<line fill="none" stroke="#000000" stroke-width="0.9971" stroke-dasharray="5.76,5.76" x1="43.5" y1="129.9" x2="129.3" y2="43.2"/>
<line fill="none" stroke="#000000" stroke-width="0.9971" stroke-dasharray="5.76,5.76" x1="253.8" y1="63.5" x2="130.8" y2="43"/>
<line fill="none" stroke="#000000" stroke-width="0.9971" stroke-dasharray="5.76,5.76" x1="254.1" y1="78.4" x2="131.1" y2="57.8"/>
<line fill="none" stroke="#000000" stroke-width="0.9971" stroke-dasharray="5.76,5.76" x1="43.8" y1="144.8" x2="129.6" y2="58"/>
<g>
	<g>
		<g>
			<g>
				<g>
					<text transform="matrix(1 0 0 1 283.3325 107.5161)" font-family="'ArialMT'" font-size="11">Base layer n</text>
				</g>
			</g>
		</g>
	</g>
</g>
<line fill="none" stroke="#000000" stroke-width="0.9971" stroke-dasharray="5.76,5.76" x1="130.1" y1="107.3" x2="254" y2="129"/>
<line fill="none" stroke="#000000" stroke-width="0.9971" stroke-dasharray="5.76,5.76" x1="44.1" y1="193.9" x2="130.1" y2="107.3"/>
<polyline fill="none" stroke="#000000" points="44,195.3 167.5,218.6 254,129 "/>
<line fill="none" stroke="#000000" stroke-width="0.9971" stroke-miterlimit="10" x1="43.5" y1="101.4" x2="44.2" y2="194.3"/>
<path fill="#FFFFFF" stroke="#000000" stroke-width="0.9971" stroke-miterlimit="10" d="M43.3,111.4"/>
<polyline fill="#FFFFFF" stroke="#000000" stroke-width="0.9971" stroke-miterlimit="10" points="167.7,125.8 167.7,218.6 
	167.7,135.8 "/>
<path fill="#FFFFFF" stroke="#000000" stroke-width="0.9971" stroke-miterlimit="10" d="M167.7,135.8"/>
<polygon fill="none" stroke="#000000" stroke-width="0.9971" stroke-miterlimit="10" points="254.3,34.5 167.7,125.8 43.3,101.4 
	130.1,14 "/>
<line fill="none" stroke="#000000" x1="135.9" y1="192.4" x2="167.2" y2="198.6"/>
<line fill="none" stroke="#000000" x1="43.9" y1="175.8" x2="65.3" y2="180"/>
<line fill="none" stroke="#000000" x1="179.8" y1="186.7" x2="168.2" y2="198.6"/>
<line fill="none" stroke="#000000" x1="253.6" y1="106.5" x2="234.9" y2="125.9"/>
<line fill="none" stroke="#000000" x1="119.6" y1="177.4" x2="166.7" y2="186.7"/>
<line fill="none" stroke="#000000" x1="63.3" y1="173.3" x2="95.3" y2="179.6"/>
<line fill="none" stroke="#000000" x1="177.3" y1="177.4" x2="166.7" y2="187.8"/>
<line fill="none" stroke="#000000" x1="253.1" y1="98.6" x2="243.3" y2="108.9"/>
<polygon fill="#B3B3B3" stroke="#000000" stroke-width="1.44" stroke-linecap="round" stroke-linejoin="round" points="167.2,168.8 
	253.7,77.7 254.2,57.6 167.2,148.7 "/>
<polygon fill="#B3B3B3" stroke="#000000" stroke-width="1.44" points="167.2,148.5 43.9,124.1 43.9,144.2 167.2,168.6 "/>
<line fill="none" stroke="#000000" stroke-width="0.9971" stroke-dasharray="5.76,5.76" x1="130.1" y1="107.3" x2="130.1" y2="14.5"/>
<path fill="none" stroke="#000000" stroke-width="0.9971" stroke-dasharray="5.76,5.76" d="M130.8,37"/>
<g>
	<g>
		<g>
			<g>
				<g>
					<text transform="matrix(1 0 0 1 35.7231 198.0128)" font-family="'ArialMT'" font-size="11">I</text>
				</g>
			</g>
		</g>
	</g>
</g>
<g>
	<g>
		<g>
			<g>
				<g>
					<text transform="matrix(1 0 0 1 168.0005 230.5157)" font-family="'ArialMT'" font-size="11">J</text>
				</g>
			</g>
		</g>
	</g>
</g>
<g>
	<g>
		<g>
			<g>
				<g>
					<text transform="matrix(1 0 0 1 258.5005 133.3145)" font-family="'ArialMT'" font-size="11">K</text>
				</g>
			</g>
		</g>
	</g>
</g>
<g>
	<g>
		<g>
			<g>
				<g>
					<text transform="matrix(1 0 0 1 136.2593 102.7745)" font-family="'ArialMT'" font-size="11">L</text>
				</g>
			</g>
		</g>
	</g>
</g>
<path d="M164.2,156.7c0.3-1.6,1.8-2.6,3.4-2.3c1.6,0.3,2.6,1.8,2.3,3.4c-0.3,1.6-1.8,2.6-3.4,2.3
	C164.9,159.8,163.9,158.3,164.2,156.7L164.2,156.7z"/>
<path d="M164.7,217.2c0.3-1.6,1.8-2.6,3.4-2.3c1.6,0.3,2.6,1.8,2.3,3.4c-0.3,1.6-1.8,2.6-3.4,2.3
	C165.4,220.3,164.4,218.8,164.7,217.2L164.7,217.2z"/>
<path d="M251.2,67.7c0.3-1.6,1.8-2.6,3.4-2.3c1.6,0.3,2.6,1.8,2.3,3.4s-1.8,2.6-3.4,2.3C251.9,70.8,250.9,69.3,251.2,67.7
	L251.2,67.7z"/>
<path d="M250.7,127.7c0.3-1.6,1.8-2.6,3.4-2.3c1.6,0.3,2.6,1.8,2.3,3.4c-0.3,1.6-1.8,2.6-3.4,2.3
	C251.4,130.8,250.4,129.3,250.7,127.7L250.7,127.7z"/>
<path d="M127.2,106.2c0.3-1.6,1.8-2.6,3.4-2.3c1.6,0.3,2.6,1.8,2.3,3.4s-1.8,2.6-3.4,2.3C127.9,109.3,126.9,107.8,127.2,106.2
	L127.2,106.2z"/>
<path d="M41.7,194.2c0.3-1.6,1.8-2.6,3.4-2.3c1.6,0.3,2.6,1.8,2.3,3.4c-0.3,1.6-1.8,2.6-3.4,2.3C42.4,197.3,41.4,195.8,41.7,194.2
	L41.7,194.2z"/>
<path d="M40.5,134.3c0.3-1.6,1.8-2.6,3.4-2.3c1.6,0.3,2.6,1.8,2.3,3.4c-0.3,1.6-1.8,2.6-3.4,2.3C41.2,137.4,40.2,135.9,40.5,134.3
	L40.5,134.3z"/>
<g>
	<g>
		<g>
			<g>
				<g>
					<text transform="matrix(1 0 0 1 31.3335 113.334)" font-family="'ArialMT'" font-size="11">M</text>
				</g>
			</g>
		</g>
	</g>
</g>
<path d="M164.2,125.9c0.3-1.6,1.8-2.6,3.4-2.3c1.6,0.3,2.6,1.8,2.3,3.4c-0.3,1.6-1.8,2.6-3.4,2.3
	C164.9,128.9,163.9,127.4,164.2,125.9L164.2,125.9z"/>
<path d="M41.3,100.3c0.3-1.6,1.8-2.6,3.4-2.3c1.6,0.3,2.6,1.8,2.3,3.4s-1.8,2.6-3.4,2.3C42,103.4,41,101.9,41.3,100.3L41.3,100.3z"
	/>
<path d="M250.7,34.7c0.3-1.6,1.8-2.6,3.4-2.3c1.6,0.3,2.6,1.8,2.3,3.4c-0.3,1.6-1.8,2.6-3.4,2.3C251.4,37.8,250.4,36.3,250.7,34.7
	L250.7,34.7z"/>
<path d="M127.1,13.3c0.3-1.6,1.8-2.6,3.4-2.3c1.6,0.3,2.6,1.8,2.3,3.4s-1.8,2.6-3.4,2.3C127.8,16.4,126.7,14.9,127.1,13.3
	L127.1,13.3z"/>
<g>
	<g>
		<g>
			<g>
				<g>
					<text transform="matrix(1 0 0 1 122.0005 11.0005)" font-family="'ArialMT'" font-size="11">P</text>
				</g>
			</g>
		</g>
	</g>
</g>
<g>
	<g>
		<g>
			<g>
				<g>
					<text transform="matrix(1 0 0 1 260.0005 37.1674)" font-family="'ArialMT'" font-size="11">O</text>
				</g>
			</g>
		</g>
	</g>
</g>
<g>
	<g>
		<g>
			<g>
				<g>
					<text transform="matrix(1 0 0 1 170.9995 133.0742)" font-family="'ArialMT'" font-size="11">N</text>
				</g>
			</g>
		</g>
	</g>
</g>
<g>
	<g>
		<g>
			<g>
				<g>
					<g>
						<text transform="matrix(1 0 0 1 171.8638 174.3204)" enable-background="new    "><tspan x="0" y="0" font-family="'ArialMT'" font-size="10">(</tspan><tspan x="3.3" y="0" font-family="'ArialMT'" font-size="10">Y</tspan></text>
					</g>
				</g>
			</g>
		</g>
	</g>
	<g>
		<g>
			<g>
				<g>
					<g>
						<text transform="matrix(1 0 0 1 181.8638 177.3204)" font-family="'ArialMT'" font-size="9">1</text>
					</g>
				</g>
			</g>
		</g>
	</g>
	<g>
		<g>
			<g>
				<g>
					<g>
						<text transform="matrix(1 0 0 1 186.8692 174.3204)" font-family="'ArialMT'" font-size="11"> </text>
					</g>
				</g>
			</g>
		</g>
	</g>
	<g>
		<g>
			<g>
				<g>
					<g>
						<text transform="matrix(1 0 0 1 189.9253 174.3204)" font-family="'ArialMT'" font-size="10">= 1)</text>
					</g>
				</g>
			</g>
		</g>
	</g>
</g>
<g>
	<g>
		<g>
			<g>
				<g>
					<g>
						<text transform="matrix(1 0 0 1 260.6675 71.8486)" enable-background="new    "><tspan x="0" y="0" font-family="'ArialMT'" font-size="10">(</tspan><tspan x="3.3" y="0" font-family="'ArialMT'" font-size="10">Y</tspan></text>
					</g>
				</g>
			</g>
		</g>
	</g>
	<g>
		<g>
			<g>
				<g>
					<g>
						<text transform="matrix(1 0 0 1 270.6675 74.8486)" font-family="'ArialMT'" font-size="9">2</text>
					</g>
				</g>
			</g>
		</g>
	</g>
	<g>
		<g>
			<g>
				<g>
					<g>
						<text transform="matrix(1 0 0 1 275.6729 71.8486)" font-family="'ArialMT'" font-size="11"> </text>
					</g>
				</g>
			</g>
		</g>
	</g>
	<g>
		<g>
			<g>
				<g>
					<g>
						<text transform="matrix(1 0 0 1 278.729 71.8486)" font-family="'ArialMT'" font-size="10">= 1)</text>
					</g>
				</g>
			</g>
		</g>
	</g>
</g>
<g>
	<g>
		<g>
			<g>
				<g>
					<g>
						<text transform="matrix(1 0 0 1 0 138.1817)" enable-background="new    "><tspan x="0" y="0" font-family="'ArialMT'" font-size="10">(</tspan><tspan x="3.3" y="0" font-family="'ArialMT'" font-size="10">Y</tspan></text>
					</g>
				</g>
			</g>
		</g>
	</g>
	<g>
		<g>
			<g>
				<g>
					<g>
						<text transform="matrix(1 0 0 1 10 141.1817)" font-family="'ArialMT'" font-size="9">1</text>
					</g>
				</g>
			</g>
		</g>
	</g>
	<g>
		<g>
			<g>
				<g>
					<g>
						<text transform="matrix(1 0 0 1 15.0054 138.1817)" font-family="'ArialMT'" font-size="11"> </text>
					</g>
				</g>
			</g>
		</g>
	</g>
	<g>
		<g>
			<g>
				<g>
					<g>
						<text transform="matrix(1 0 0 1 18.0615 138.1817)" font-family="'ArialMT'" font-size="10">= 0)</text>
					</g>
				</g>
			</g>
		</g>
	</g>
</g>
<g>
	<g>
		<g>
			<g>
				<g>
					<g>
						<text transform="matrix(1 0 0 1 153.3848 35.9424)" font-family="'ArialMT'" font-size="10">Y</text>
					</g>
				</g>
			</g>
		</g>
	</g>
	<g>
		<g>
			<g>
				<g>
					<g>
						<text transform="matrix(1 0 0 1 160.0547 38.9424)" font-family="'ArialMT'" font-size="9">2</text>
					</g>
				</g>
			</g>
		</g>
	</g>
</g>
<g>
	<g>
		<polygon fill="#FFFFFF" points="101.3,167.4 109.7,167 102.2,163.2 		"/>
	</g>
	<g>
		<line fill="none" stroke="#000000" x1="103.2" y1="165.6" x2="86.4" y2="162"/>
		<polygon points="101.3,167.4 109.7,167 102.2,163.2 		"/>
	</g>
</g>
<g>
	<g>
		<g>
			<g>
				<g>
					<g>
						<text transform="matrix(1 0 0 1 134.1118 57.0694)" enable-background="new    "><tspan x="0" y="0" font-family="'ArialMT'" font-size="10">(</tspan><tspan x="3.3" y="0" font-family="'ArialMT'" font-size="10">Y</tspan></text>
					</g>
				</g>
			</g>
		</g>
	</g>
	<g>
		<g>
			<g>
				<g>
					<g>
						<text transform="matrix(1 0 0 1 144.1118 60.0694)" font-family="'ArialMT'" font-size="9">2</text>
					</g>
				</g>
			</g>
		</g>
	</g>
	<g>
		<g>
			<g>
				<g>
					<g>
						<text transform="matrix(1 0 0 1 149.1172 57.0694)" font-family="'ArialMT'" font-size="11"> </text>
					</g>
				</g>
			</g>
		</g>
	</g>
	<g>
		<g>
			<g>
				<g>
					<g>
						<text transform="matrix(1 0 0 1 152.1733 57.0694)" font-family="'ArialMT'" font-size="10">= 0)</text>
					</g>
				</g>
			</g>
		</g>
	</g>
</g>
<path d="M127.3,51c0.3-1.6,1.8-2.6,3.4-2.3c1.6,0.3,2.6,1.8,2.3,3.4c-0.3,1.6-1.8,2.6-3.4,2.3C128,54.1,127,52.6,127.3,51L127.3,51z
	"/>
<g>
	<g>
		<polygon fill="#FFFFFF" points="53.9,152.9 45.5,153.3 53,157.1 		"/>
	</g>
	<g>
		<line fill="none" stroke="#000000" x1="52" y1="154.6" x2="68.8" y2="158.3"/>
		<polygon points="53.9,152.9 45.5,153.3 53,157.1 		"/>
	</g>
</g>
<g>
	<g>
		<g>
			<g>
				<g>
					<g>
						<text transform="matrix(1 0 0 1 71.6221 163.9571)" font-family="'ArialMT'" font-size="10">Y</text>
					</g>
				</g>
			</g>
		</g>
	</g>
	<g>
		<g>
			<g>
				<g>
					<g>
						<text transform="matrix(1 0 0 1 78.292 166.9571)" font-family="'ArialMT'" font-size="8">1</text>
					</g>
				</g>
			</g>
		</g>
	</g>
</g>
<g>
	<g>
		<g>
			<g>
				<g>
					<text transform="matrix(1 0 0 1 105.8872 150.955)" fill="#ED1C24" font-family="'ArialMT'" font-size="11">II</text>
				</g>
			</g>
		</g>
	</g>
</g>
<line fill="none" stroke="#000000" stroke-linecap="round" x1="140" y1="163.2" x2="156.3" y2="146.8"/>
<line fill="none" stroke="#000000" stroke-linecap="round" x1="117.8" y1="158.7" x2="134.2" y2="142.3"/>
<line fill="none" stroke="#000000" stroke-linecap="round" x1="53" y1="146.5" x2="69.3" y2="130.2"/>
<line fill="none" stroke="#000000" stroke-linecap="round" x1="94.5" y1="153.4" x2="110.8" y2="137"/>
<line fill="none" stroke="#000000" stroke-linecap="round" x1="73.2" y1="149.2" x2="89.5" y2="132.8"/>
<line fill="none" stroke="#000000" stroke-linecap="round" x1="184.3" y1="131.9" x2="180.3" y2="153.9"/>
<line fill="none" stroke="#000000" stroke-linecap="round" x1="202.4" y1="113.1" x2="198.4" y2="135.1"/>
<line fill="none" stroke="#000000" stroke-linecap="round" x1="222.6" y1="92" x2="218.6" y2="114"/>
<line fill="none" stroke="#000000" stroke-linecap="round" x1="242.3" y1="71.9" x2="238.3" y2="93.9"/>
<g>
	<g>
		<g>
			<g>
				<g>
					<text transform="matrix(1 0 0 1 188.6665 64.5146)" fill="#ED1C24" font-family="'ArialMT'" font-size="11">JJ</text>
				</g>
			</g>
		</g>
	</g>
</g>
<g>
	<g>
		<polygon fill="#FFFFFF" points="139.1,28.8 130.8,29.5 138.4,33.1 		"/>
	</g>
	<g>
		<line fill="none" stroke="#000000" x1="137.3" y1="30.7" x2="151.8" y2="33.3"/>
		<polygon points="139.1,28.8 130.8,29.5 138.4,33.1 		"/>
	</g>
</g>
<g>
	<g>
		<line fill="none" x1="254.3" y1="88.5" x2="280.7" y2="102.2"/>
		<polygon fill="#FFFFFF" points="256.6,87.3 248.4,85.5 254.6,91.2 		"/>
	</g>
	<g>
		<line fill="none" stroke="#000000" x1="254.3" y1="88.5" x2="280.7" y2="102.2"/>
		<polygon points="256.6,87.3 248.4,85.5 254.6,91.2 		"/>
	</g>
</g>
<g>
	<g>
		<g>
			<g>
				<g>
					<text transform="matrix(1 0 0 1 284.6665 125.1817)" font-family="'ArialMT'" font-size="11">e = 2</text>
				</g>
			</g>
		</g>
	</g>
</g>
<g>
	<g>
		<polygon fill="#FFFFFF" points="180.9,40.2 189.3,39.4 181.7,35.9 		"/>
	</g>
	<g>
		<line fill="none" stroke="#000000" x1="182.8" y1="38.4" x2="167.3" y2="35.8"/>
		<polygon points="180.9,40.2 189.3,39.4 181.7,35.9 		"/>
	</g>
</g>
<line fill="none" stroke="#000000" x1="189.7" y1="34.2" x2="189.7" y2="44.2"/>
<line fill="none" stroke="#000000" x1="110.3" y1="161.6" x2="110.3" y2="171.6"/>
<g>
	<g>
		<g>
			<g>
				<g>
					<text transform="matrix(0.573 -0.8196 0.8196 0.573 154.8359 122.7273)" font-family="'ArialMT'" font-size="11.0008">Reinforcing</text>
				</g>
			</g>
		</g>
	</g>
</g>
<g>
	<g>
		<path fill="none" stroke="#000000" stroke-width="0.7301" stroke-linecap="square" d="M97.8,89.8"/>
		<polyline fill="#ED1C24" stroke="#ED1C24" stroke-width="0.7301" stroke-linecap="square" points="117.3,151.8 187.8,60.7 
			183.8,58.1 113.1,149 117.3,151.8 		"/>
	</g>
	<path stroke="#000000" stroke-width="0.7294" d="M187.9,60.2c0.1,1.1-1,1.8-2.3,1.6c-1.3-0.3-2.5-1.4-2.5-2.5
		c-0.1-1.1,0.9-1.8,2.3-1.6C186.7,57.9,187.8,59.1,187.9,60.2z"/>
	<path stroke="#000000" stroke-width="0.7294" d="M117.4,150.9c0.1,1.1-1,1.8-2.3,1.6c-1.3-0.3-2.5-1.4-2.5-2.5
		c-0.1-1.1,0.9-1.8,2.3-1.6C116.2,148.7,117.3,149.8,117.4,150.9z"/>
</g>
</svg>
