<?xml version="1.0" encoding="utf-8"?>
<!-- Generator: Adobe Illustrator 17.1.0, SVG Export Plug-In . SVG Version: 6.00 Build 0)  -->

<svg version="1.1" id="Layer_1" xmlns="http://www.w3.org/2000/svg" xmlns:xlink="http://www.w3.org/1999/xlink" x="0px" y="0px"
	 width="393.3px" height="219.6px" viewBox="0 0 393.3 219.6" enable-background="new 0 0 393.3 219.6" xml:space="preserve">
<polygon points="0.5,0.3 0.3,0.3 0.3,0.7 0.3,1 392.8,1 392.8,0.7 393.1,0.7 393.1,0.3 392.8,0.3 392.6,0.3 "/>
<polygon points="0.5,0.3 0.3,0.3 0.3,0.7 0.3,1 392.6,1 392.3,0.5 392.3,219.3 392.6,219.3 392.6,219.6 392.8,219.6 392.8,219.3 
	393.1,219.3 393.1,219.1 393.1,0.5 393.1,0.3 392.8,0.3 392.6,0.3 "/>
<polygon points="0.5,0.3 0.3,0.3 0.3,0.7 0.3,1 392.6,1 392.3,0.5 392.3,219.1 392.6,218.9 0.3,218.9 0.3,219.3 0.3,219.6 
	0.5,219.6 392.6,219.6 392.8,219.6 392.8,219.3 393.1,219.3 393.1,219.1 393.1,0.5 393.1,0.3 392.8,0.3 392.6,0.3 "/>
<polygon fill="#72C0EB" stroke="#000000" points="0.5,0.5 392.8,0.5 392.8,219.1 0.5,219.1 "/>
<g>
	<g>
		<polygon fill="#FFFFFF" points="213.1,199.5 202.2,202.4 213.1,205.3 		"/>
		<polygon fill="#FFFFFF" points="381.8,205.3 392.7,202.4 381.8,199.5 		"/>
	</g>
	<g>
		<line fill="none" stroke="#000000" stroke-linecap="square" x1="383.8" y1="202.4" x2="211.1" y2="202.4"/>
		<polygon points="213.1,199.5 202.2,202.4 213.1,205.3 		"/>
		<polygon points="381.8,205.3 392.7,202.4 381.8,199.5 		"/>
	</g>
</g>
<g>
	<g>
		<polygon fill="#FFFFFF" points="12.3,98.8 4.1,101 12.3,103.1 		"/>
		<polygon fill="#FFFFFF" points="31.1,103.1 39.2,100.9 31.1,98.7 		"/>
	</g>
	<g>
		<line fill="none" stroke="#000000" stroke-linecap="square" x1="32.6" y1="100.9" x2="10.8" y2="100.9"/>
		<polygon points="12.3,98.8 4.1,101 12.3,103.1 		"/>
		<polygon points="31.1,103.1 39.2,100.9 31.1,98.7 		"/>
	</g>
</g>
<g>
	<g>
		<polygon fill="#FFFFFF" points="12.5,199.5 1.6,202.4 12.5,205.3 		"/>
		<polygon fill="#FFFFFF" points="191.1,205.3 202,202.4 191.1,199.5 		"/>
	</g>
	<g>
		<line fill="none" stroke="#000000" stroke-linecap="square" x1="193.1" y1="202.4" x2="10.5" y2="202.4"/>
		<polygon points="12.5,199.5 1.6,202.4 12.5,205.3 		"/>
		<polygon points="191.1,205.3 202,202.4 191.1,199.5 		"/>
	</g>
</g>
<g>
	<g>
		<polygon fill="#FFFFFF" points="375,98.8 366.8,101 375,103.1 		"/>
		<polygon fill="#FFFFFF" points="384.3,103.1 392.5,100.9 384.3,98.7 		"/>
	</g>
	<g>
		<line fill="none" stroke="#000000" stroke-linecap="square" x1="385.8" y1="100.9" x2="373.5" y2="100.9"/>
		<polygon points="375,98.8 366.8,101 375,103.1 		"/>
		<polygon points="384.3,103.1 392.5,100.9 384.3,98.7 		"/>
	</g>
</g>
<g>
	<g>
		<polygon fill="#FFFFFF" points="207.6,103.1 215.8,100.9 207.6,98.7 		"/>
		<polygon fill="#FFFFFF" points="197.7,98.8 189.6,101 197.7,103.1 		"/>
	</g>
	<g>
		<line fill="none" stroke="#000000" stroke-linecap="square" x1="196.2" y1="100.9" x2="209.1" y2="100.9"/>
		<polygon points="207.6,103.1 215.8,100.9 207.6,98.7 		"/>
		<polygon points="197.7,98.8 189.6,101 197.7,103.1 		"/>
	</g>
</g>
<polygon fill="#FFFFFF" stroke="#000000" stroke-linecap="square" points="217.3,24.5 365,24.5 365,194.2 217.3,194.2 "/>
<g>
	<g>
		<g>
			<g>
				<text transform="matrix(1.0017 0 0 1 9.9854 93.4692)" font-family="'ArialMT'" font-size="11">0.05&quot;</text>
			</g>
		</g>
	</g>
</g>
<g>
	<g>
		<g>
			<g>
				<text transform="matrix(1.0017 0 0 1 244.8032 15.8506)" font-family="'ArialMT'" font-size="11">0.03&quot;</text>
			</g>
		</g>
	</g>
</g>
<g>
	<g>
		<g>
			<g>
				<text transform="matrix(1.0017 0 0 1 190.7808 93.4692)" font-family="'ArialMT'" font-size="11">0.03&quot;</text>
			</g>
		</g>
	</g>
</g>
<g>
	<g>
		<g>
			<g>
				<text transform="matrix(1.0017 0 0 1 366.5742 93.4692)" font-family="'ArialMT'" font-size="11">0.04&quot;</text>
			</g>
		</g>
	</g>
</g>
<g>
	<g>
		<g>
			<g>
				<text transform="matrix(1.0017 0 0 1 85.2554 213.6787)" font-family="'ArialMT'" font-size="11">10&quot;</text>
			</g>
		</g>
	</g>
</g>
<g>
	<g>
		<g>
			<g>
				<text transform="matrix(1.0017 0 0 1 295.5835 213.6797)" font-family="'ArialMT'" font-size="11">10&quot;</text>
			</g>
		</g>
	</g>
</g>
<polygon fill="#FFFFFF" stroke="#000000" stroke-linecap="square" points="40.1,193.7 187.8,193.7 187.8,24.5 40.1,24.5 40.1,24.5 
	"/>
<g>
	<g>
		<polygon fill="#FFFFFF" points="239.3,202.3 237.2,194.1 235,202.3 		"/>
		<polygon fill="#FFFFFF" points="235,208.6 237.2,216.7 239.4,208.6 		"/>
	</g>
	<g>
		<line fill="none" stroke="#000000" stroke-linecap="square" x1="237.2" y1="210.1" x2="237.2" y2="200.8"/>
		<polygon points="239.3,202.3 237.2,194.1 235,202.3 		"/>
		<polygon points="235,208.6 237.2,216.7 239.4,208.6 		"/>
	</g>
</g>
<g>
	<g>
		<g>
			<g>
				<text transform="matrix(1.0017 0 0 1 244.8032 213.6797)" font-family="'ArialMT'" font-size="11">0.03&quot;</text>
			</g>
		</g>
	</g>
</g>
<g>
	<g>
		<polygon fill="#FFFFFF" points="239.3,8.6 237.2,0.5 235,8.6 		"/>
		<polygon fill="#FFFFFF" points="235,14.9 237.2,23.1 239.4,14.9 		"/>
	</g>
	<g>
		<line fill="none" stroke="#000000" stroke-linecap="square" x1="237.2" y1="16.4" x2="237.2" y2="7.1"/>
		<polygon points="239.3,8.6 237.2,0.5 235,8.6 		"/>
		<polygon points="235,14.9 237.2,23.1 239.4,14.9 		"/>
	</g>
</g>
</svg>
