<?xml version="1.0" encoding="utf-8"?>
<!-- Generator: Adobe Illustrator 17.1.0, SVG Export Plug-In . SVG Version: 6.00 Build 0)  -->

<svg version="1.1" id="Layer_1" xmlns="http://www.w3.org/2000/svg" xmlns:xlink="http://www.w3.org/1999/xlink" x="0px" y="0px"
	 width="299.5px" height="225.3px" viewBox="0 0 299.5 225.3" enable-background="new 0 0 299.5 225.3" xml:space="preserve">
<text transform="matrix(1 0 0 1 238.333 88.0005)" font-family="'ArialMT'" font-size="11">Base layer n</text>
<line fill="none" stroke="#000000" stroke-width="0.9971" stroke-dasharray="5.76,5.76" x1="100" y1="93.3" x2="222.6" y2="114.8"/>
<line fill="none" stroke="#000000" stroke-width="0.9971" stroke-dasharray="5.76,5.76" x1="12.7" y1="181.1" x2="98.7" y2="93.1"/>
<path fill="none" stroke="#000000" stroke-miterlimit="10" d="M223.1,40.9L98.9,19.8l-87.3,88"/>
<line fill="none" stroke="#000000" stroke-width="0.9971" stroke-miterlimit="10" x1="222.6" y1="41.3" x2="98.9" y2="19.8"/>
<line fill="none" stroke="#000000" stroke-width="0.9971" stroke-miterlimit="10" x1="222.6" y1="76.4" x2="222.6" y2="41.3"/>
<line fill="none" stroke="#000000" stroke-width="0.9971" stroke-miterlimit="10" stroke-dasharray="5.76,5.76" x1="222.6" y1="114.8" x2="222.6" y2="76.4"/>
<polyline fill="#FFFFFF" stroke="#000000" points="12.7,181.1 136.1,204.4 222.6,114.8 "/>
<line fill="none" stroke="#000000" stroke-width="0.9971" stroke-miterlimit="10" x1="12.1" y1="107.3" x2="12.7" y2="181.1"/>
<polyline fill="#FFFFFF" stroke="#000000" stroke-width="0.9971" stroke-miterlimit="10" points="136.4,131.6 136.4,204.4 
	136.4,131.6 12,107.3 "/>
<line fill="none" stroke="#000000" stroke-width="0.9971" stroke-miterlimit="10" x1="222" y1="42.5" x2="136.4" y2="131.6"/>
<polygon fill="none" stroke="#000000" stroke-width="0.9971" stroke-miterlimit="10" points="223,41.3 136.4,131.6 12,107.3 
	98.7,19.9 "/>
<line fill="none" stroke="#000000" x1="104.6" y1="188.2" x2="135.9" y2="194.4"/>
<line fill="none" stroke="#000000" x1="12.6" y1="171.6" x2="33.9" y2="175.8"/>
<line fill="none" stroke="#000000" x1="148.4" y1="182.5" x2="136.9" y2="194.5"/>
<line fill="none" stroke="#000000" x1="222.2" y1="102.3" x2="203.6" y2="121.7"/>
<line fill="none" stroke="#000000" x1="88.2" y1="169.2" x2="135.4" y2="178.5"/>
<line fill="none" stroke="#000000" x1="32" y1="158.1" x2="64" y2="164.5"/>
<line fill="none" stroke="#000000" x1="155" y1="159.2" x2="135.4" y2="179.6"/>
<line fill="none" stroke="#000000" x1="221.7" y1="89.4" x2="206" y2="105.7"/>
<polygon fill="#B3B3B3" stroke="#000000" stroke-width="1.44" points="135.9,156.6 222.4,65.5 222.9,53.4 135.9,144.5 "/>
<polygon fill="#B3B3B3" stroke="#000000" stroke-width="1.44" points="135.9,144.3 12.6,120 12.6,132 135.9,156.4 "/>
<g>
	<line fill="none" stroke="#000000" x1="134.4" y1="144.5" x2="126.3" y2="153.7"/>
	<line fill="none" stroke="#000000" x1="107.5" y1="139.3" x2="99.4" y2="148.5"/>
	<line fill="none" stroke="#000000" x1="114.3" y1="140.6" x2="106.1" y2="149.8"/>
	<line fill="none" stroke="#000000" x1="121" y1="141.9" x2="112.8" y2="151.1"/>
	<line fill="none" stroke="#000000" x1="127.7" y1="143.2" x2="119.6" y2="152.4"/>
	<line fill="none" stroke="#000000" x1="94.1" y1="136.7" x2="86" y2="145.9"/>
	<line fill="none" stroke="#000000" x1="100.8" y1="138" x2="92.7" y2="147.2"/>
	<line fill="none" stroke="#000000" x1="80.7" y1="134.1" x2="72.6" y2="143.3"/>
	<line fill="none" stroke="#000000" x1="87.4" y1="135.4" x2="79.3" y2="144.6"/>
	<line fill="none" stroke="#000000" x1="53.8" y1="128.9" x2="45.7" y2="138.2"/>
	<line fill="none" stroke="#000000" x1="60.5" y1="130.2" x2="52.4" y2="139.5"/>
	<line fill="none" stroke="#000000" x1="67.3" y1="131.5" x2="59.1" y2="140.7"/>
	<line fill="none" stroke="#000000" x1="74" y1="132.8" x2="65.8" y2="142"/>
	<line fill="none" stroke="#000000" x1="40.4" y1="126.3" x2="32.3" y2="135.6"/>
	<line fill="none" stroke="#000000" x1="47.1" y1="127.6" x2="39" y2="136.9"/>
	<line fill="none" stroke="#000000" x1="34.8" y1="124.4" x2="25.6" y2="134.9"/>
	<line fill="none" stroke="#000000" x1="21.3" y1="121.8" x2="13.2" y2="131.1"/>
	<line fill="none" stroke="#000000" x1="28.1" y1="123.1" x2="18.9" y2="133.6"/>
</g>
<line fill="none" stroke="#C9252C" stroke-width="1.44" x1="12.6" y1="126" x2="135.9" y2="150.3"/>
<g>
	<line fill="none" stroke="#000000" x1="141.4" y1="151" x2="143.8" y2="137.6"/>
	<line fill="none" stroke="#000000" x1="161.9" y1="129.4" x2="164.2" y2="115.9"/>
	<line fill="none" stroke="#000000" x1="156.8" y1="134.8" x2="159.1" y2="121.3"/>
	<line fill="none" stroke="#000000" x1="151.7" y1="140.2" x2="154" y2="126.7"/>
	<line fill="none" stroke="#000000" x1="146.5" y1="145.6" x2="148.9" y2="132.2"/>
	<line fill="none" stroke="#000000" x1="172.1" y1="118.5" x2="174.5" y2="105.1"/>
	<line fill="none" stroke="#000000" x1="167" y1="123.9" x2="169.3" y2="110.5"/>
	<line fill="none" stroke="#000000" x1="182.4" y1="107.7" x2="184.7" y2="94.2"/>
	<line fill="none" stroke="#000000" x1="177.2" y1="113.1" x2="179.6" y2="99.6"/>
	<line fill="none" stroke="#000000" x1="202.8" y1="86" x2="205.1" y2="72.6"/>
	<line fill="none" stroke="#000000" x1="197.7" y1="91.4" x2="200" y2="78"/>
	<line fill="none" stroke="#000000" x1="192.6" y1="96.8" x2="194.9" y2="83.4"/>
	<line fill="none" stroke="#000000" x1="187.5" y1="102.3" x2="189.8" y2="88.8"/>
	<line fill="none" stroke="#000000" x1="213" y1="75.2" x2="215.4" y2="61.7"/>
	<line fill="none" stroke="#000000" x1="207.9" y1="80.6" x2="210.3" y2="67.1"/>
	<line fill="none" stroke="#000000" x1="218.9" y1="71.2" x2="220.1" y2="56"/>
</g>
<line fill="none" stroke="#C9252C" stroke-width="1.44" x1="222.2" y1="60.7" x2="136.9" y2="149.4"/>
<line fill="none" stroke="#000000" stroke-width="0.9971" stroke-dasharray="5.76,5.76" x1="98.7" y1="93.1" x2="98.8" y2="20.3"/>
<line fill="none" stroke="#000000" stroke-width="0.9971" stroke-dasharray="5.76,5.76" x1="12.2" y1="125.8" x2="98" y2="39"/>
<path fill="none" stroke="#000000" stroke-width="0.9971" stroke-dasharray="5.76,5.76" d="M99.5,32.8"/>
<line fill="none" stroke="#000000" stroke-width="0.9971" stroke-dasharray="5.76,5.76" x1="222.5" y1="59.4" x2="99.5" y2="38.8"/>
<text transform="matrix(1 0 0 1 6.3896 185.8311)" font-family="'ArialMT'" font-size="11">I</text>
<text transform="matrix(1 0 0 1 0.5 130.1523)" font-family="'ArialMT'" font-size="11">II</text>
<text transform="matrix(1 0 0 1 132.5 215.7451)" font-family="'ArialMT'" font-size="11">J</text>
<text transform="matrix(1 0 0 1 227.167 119.1323)" font-family="'ArialMT'" font-size="11">K</text>
<text transform="matrix(1 0 0 1 226.167 63.6587)" font-family="'ArialMT'" font-size="11">KK</text>
<text transform="matrix(1 0 0 1 98.6665 103.3335)" font-family="'ArialMT'" font-size="11">L</text>
<text transform="matrix(1 0 0 1 102.3818 36.1362)" enable-background="new    "><tspan x="0" y="0" font-family="'ArialMT'" font-size="11">L</tspan><tspan x="6.1" y="0" font-family="'ArialMT'" font-size="11">L</tspan></text>
<g>
	<line fill="none" stroke="#A6A6A6" stroke-width="2.16" x1="82.7" y1="78.6" x2="131.7" y2="67.3"/>
	<line fill="none" stroke="#A6A6A6" stroke-width="2" x1="62.1" y1="115.3" x2="176.1" y2="87.5"/>
	<line fill="none" stroke="#A6A6A6" stroke-width="2.16" x1="65.7" y1="95.2" x2="161.1" y2="71.8"/>
	<line fill="none" stroke="#A6A6A6" stroke-width="2.16" x1="56.3" y1="107.2" x2="171.7" y2="78.1"/>
</g>
<path d="M132.8,148.5c0.3-1.6,1.8-2.6,3.4-2.3c1.6,0.3,2.6,1.8,2.3,3.4c-0.3,1.6-1.8,2.6-3.4,2.3
	C133.6,151.6,132.5,150.1,132.8,148.5L132.8,148.5z"/>
<path d="M133.3,202c0.3-1.6,1.8-2.6,3.4-2.3c1.6,0.3,2.6,1.8,2.3,3.4c-0.3,1.6-1.8,2.6-3.4,2.3C134.1,205.1,133,203.6,133.3,202
	L133.3,202z"/>
<text transform="matrix(1 0 0 1 142.834 156)" font-family="'ArialMT'" font-size="11">JJ</text>
<path d="M219.8,59.5c0.3-1.6,1.8-2.6,3.4-2.3c1.6,0.3,2.6,1.8,2.3,3.4c-0.3,1.6-1.8,2.6-3.4,2.3C220.6,62.6,219.5,61.1,219.8,59.5
	L219.8,59.5z"/>
<path d="M219.3,113.5c0.3-1.6,1.8-2.6,3.4-2.3c1.6,0.3,2.6,1.8,2.3,3.4s-1.8,2.6-3.4,2.3C220.1,116.6,219,115.1,219.3,113.5
	L219.3,113.5z"/>
<path d="M95.8,92c0.3-1.6,1.8-2.6,3.4-2.3c1.6,0.3,2.6,1.8,2.3,3.4c-0.3,1.6-1.8,2.6-3.4,2.3C96.6,95.1,95.5,93.6,95.8,92L95.8,92z"
	/>
<path d="M95.8,39.2c0.3-1.6,1.8-2.6,3.4-2.3s2.6,1.8,2.3,3.4c-0.3,1.6-1.8,2.6-3.4,2.3C96.6,42.3,95.5,40.8,95.8,39.2L95.8,39.2z"/>
<path d="M10.3,179c0.3-1.6,1.8-2.6,3.4-2.3s2.6,1.8,2.3,3.4c-0.3,1.6-1.8,2.6-3.4,2.3C11.1,182.1,10,180.6,10.3,179L10.3,179z"/>
<path d="M9.1,125.1c0.3-1.6,1.8-2.6,3.4-2.3c1.6,0.3,2.6,1.8,2.3,3.4s-1.8,2.6-3.4,2.3C9.9,128.2,8.8,126.7,9.1,125.1L9.1,125.1z"/>
<text transform="matrix(1 0 0 1 0 109.1523)" font-family="'ArialMT'" font-size="11">M</text>
<path d="M132.8,131.7c0.3-1.6,1.8-2.6,3.4-2.3c1.6,0.3,2.6,1.8,2.3,3.4c-0.3,1.6-1.8,2.6-3.4,2.3
	C133.5,134.7,132.5,133.2,132.8,131.7L132.8,131.7z"/>
<path d="M10,106.1c0.3-1.6,1.8-2.6,3.4-2.3c1.6,0.3,2.6,1.8,2.3,3.4s-1.8,2.6-3.4,2.3C10.7,109.2,9.7,107.7,10,106.1L10,106.1z"/>
<path d="M219.3,41.5c0.3-1.6,1.8-2.6,3.4-2.3c1.6,0.3,2.6,1.8,2.3,3.4c-0.3,1.6-1.8,2.6-3.4,2.3C220.1,44.6,219,43.1,219.3,41.5
	L219.3,41.5z"/>
<path d="M95.7,19.1c0.3-1.6,1.8-2.6,3.4-2.3c1.6,0.3,2.6,1.8,2.3,3.4c-0.3,1.6-1.8,2.6-3.4,2.3C96.4,22.2,95.4,20.7,95.7,19.1
	L95.7,19.1z"/>
<text transform="matrix(1 0 0 1 92 18.1523)" font-family="'ArialMT'" font-size="11">P</text>
<text transform="matrix(1 0 0 1 224 39.6523)" font-family="'ArialMT'" font-size="11">O</text>
<text transform="matrix(1 0 0 1 131 127.1523)" font-family="'ArialMT'" font-size="11">N</text>
<g>
	<line fill="none" stroke="#000000" x1="217.5" y1="80.3" x2="237.4" y2="83.6"/>
	<path d="M215.2,81c1.5,0.8,2.4,1.4,3.5,2.1l0.7-5c-0.5,0.1-2.4,0.6-4,0.8c-1.7,0.3-3.3,0.4-4.2,0.3C212.2,79.5,213.6,80.2,215.2,81
		z"/>
</g>
<text transform="matrix(1 0 0 1 203.666 146.3359)" font-family="'ArialMT'" font-size="11">Reinforcement</text>
<line fill="none" x1="174.7" y1="24" x2="125.6" y2="76.7"/>
<line fill="none" x1="125.6" y1="76.7" x2="195.3" y2="87.3"/>
<g>
	<line fill="none" stroke="#000000" x1="164.7" y1="128.3" x2="202.7" y2="142.3"/>
	<path d="M162.1,128.4c1.4,1,2.2,1.8,3.3,2.8l1.8-4.7c-0.5,0-2.6,0.1-4.3,0c-1.8-0.1-3.5-0.3-4.5-0.6
		C159.3,126.4,160.6,127.3,162.1,128.4z"/>
</g>
<line fill="none" x1="111" y1="0" x2="118.7" y2="1.3"/>
<line fill="none" x1="116" y1="224" x2="123.7" y2="225.3"/>
</svg>
