<?xml version="1.0" encoding="utf-8"?>
<!-- Generator: Adobe Illustrator 17.1.0, SVG Export Plug-In . SVG Version: 6.00 Build 0)  -->

<svg version="1.1" id="Layer_1" xmlns="http://www.w3.org/2000/svg" xmlns:xlink="http://www.w3.org/1999/xlink" x="0px" y="0px"
	 width="118.9px" height="161.7px" viewBox="0 0 118.9 161.7" enable-background="new 0 0 118.9 161.7" xml:space="preserve">
<line fill="none" x1="85.2" y1="136.1" x2="85.2" y2="37.2"/>
<polyline fill="none" points="85.2,136.1 85.2,37.2 20.3,37.2 "/>
<polyline fill="none" points="85.2,136.1 85.2,37.2 20.3,37.2 20.3,136.1 "/>
<polygon fill="#00BDF2" stroke="#000000" points="85.2,136.1 85.2,37.2 20.3,37.2 20.3,136.1 "/>
<g>
	<g>
		<g>
			<g>
				<text transform="matrix(0.9953 0 0 1 22.4844 95.8018)" font-family="'ArialMT'" font-size="11">B</text>
			</g>
		</g>
	</g>
</g>
<g>
	<g>
		<g>
			<g>
				<text transform="matrix(0.9953 0 0 1 39.9561 52.7592)" font-family="'ArialMT'" font-size="11">H</text>
			</g>
		</g>
	</g>
</g>
<g>
	<g>
		<g>
			<g>
				<text transform="matrix(0.9953 0 0 1 98.9609 94.3213)" font-family="'ArialMT'" font-size="11">y</text>
			</g>
		</g>
	</g>
</g>
<g>
	<g>
		<g>
			<g>
				<text transform="matrix(0.9953 0 0 1 55.667 22.0679)" font-family="'ArialMT'" font-size="11">z</text>
			</g>
		</g>
	</g>
</g>
<path stroke="#000000" d="M55,84.6c-0.4,1.7-2.1,2.8-3.8,2.4s-2.8-2.1-2.4-3.8c0.4-1.7,2.1-2.8,3.8-2.4C54.4,81.2,55.4,82.9,55,84.6
	z"/>
<path stroke="#00AD4D" stroke-miterlimit="10" d="M51.7,155.9"/>
<path stroke="#00AD4D" stroke-miterlimit="10" d="M4,23.5"/>
<g>
	<g>
		<polygon fill="#FFFFFF" points="108.1,87 118.9,84.1 108.1,81.2 		"/>
	</g>
	<g>
		<line fill="none" stroke="#666666" x1="52.9" y1="84.2" x2="110.1" y2="84.2"/>
		<polygon fill="#666666" points="108.1,87 118.9,84.1 108.1,81.2 		"/>
	</g>
</g>
<g>
	<g>
		<polygon fill="#FFFFFF" points="54.6,10.8 51.7,0 48.8,10.8 		"/>
	</g>
	<g>
		<line fill="none" stroke="#666666" x1="51.8" y1="8.9" x2="51.8" y2="83.9"/>
		<polygon fill="#666666" points="54.6,10.8 51.7,0 48.8,10.8 		"/>
	</g>
</g>
<line fill="none" stroke="#000000" stroke-width="2" x1="51.8" y1="37.2" x2="51.8" y2="136.1"/>
<line fill="none" stroke="#000000" stroke-width="2" x1="85.2" y1="84.2" x2="20.3" y2="84.2"/>
<g>
	<g>
		<polygon fill="#FFFFFF" points="8.8,125.4 11.7,136.2 14.6,125.4 		"/>
		<polygon fill="#FFFFFF" points="14.6,46.5 11.7,35.7 8.8,46.5 		"/>
	</g>
	<g>
		<line fill="none" stroke="#000000" stroke-linecap="square" x1="11.7" y1="44.5" x2="11.7" y2="127.4"/>
		<polygon points="8.8,125.4 11.7,136.2 14.6,125.4 		"/>
		<polygon points="14.6,46.5 11.7,35.7 8.8,46.5 		"/>
	</g>
</g>
<g>
	<g>
		<g>
			<g>
				<text transform="matrix(0.9953 0 0 1 0 89.0674)" font-family="'ArialMT'" font-size="11">H</text>
			</g>
		</g>
	</g>
</g>
<g>
	<g>
		<polygon fill="#FFFFFF" points="74.1,147.6 84.9,144.7 74.1,141.8 		"/>
		<polygon fill="#FFFFFF" points="30.1,141.8 19.3,144.7 30.1,147.6 		"/>
	</g>
	<g>
		<line fill="none" stroke="#000000" stroke-linecap="square" x1="28.2" y1="144.7" x2="76.1" y2="144.7"/>
		<polygon points="74.1,147.6 84.9,144.7 74.1,141.8 		"/>
		<polygon points="30.1,141.8 19.3,144.7 30.1,147.6 		"/>
	</g>
</g>
<g>
	<g>
		<g>
			<g>
				<text transform="matrix(0.9953 0 0 1 47.9561 158.0927)" font-family="'ArialMT'" font-size="11">B</text>
			</g>
		</g>
	</g>
</g>
</svg>
