<?xml version="1.0" encoding="utf-8"?>
<!-- Generator: Adobe Illustrator 17.1.0, SVG Export Plug-In . SVG Version: 6.00 Build 0)  -->

<svg version="1.1" id="Layer_1" xmlns="http://www.w3.org/2000/svg" xmlns:xlink="http://www.w3.org/1999/xlink" x="0px" y="0px"
	 width="187.2px" height="213.1px" viewBox="0 1.6 187.2 213.1" enable-background="new 0 1.6 187.2 213.1" xml:space="preserve">
<line fill="none" x1="173.2" y1="185.7" x2="173.2" y2="171.4"/>
<polyline fill="none" points="173.2,185.7 173.2,171.4 98.4,171.4 "/>
<polyline fill="none" points="173.2,185.7 173.2,171.4 98.4,171.4 98.4,26.2 "/>
<polyline fill="none" points="173.2,185.7 173.2,171.4 98.4,171.4 98.4,26.2 21.7,26.2 "/>
<polyline fill="none" points="173.2,185.7 173.2,171.4 98.4,171.4 98.4,26.2 21.7,26.2 21.7,38.5 "/>
<polyline fill="none" points="173.2,185.7 173.2,171.4 98.4,171.4 98.4,26.2 21.7,26.2 21.7,38.5 89.5,38.5 "/>
<polyline fill="none" points="173.2,185.7 173.2,171.4 98.4,171.4 98.4,26.2 21.7,26.2 21.7,38.5 89.5,38.5 89.5,185.7 "/>
<polygon fill="#00BDF2" stroke="#000000" stroke-linecap="square" points="173.2,185.7 173.2,171.4 98.4,171.4 98.4,26.2 21.7,26.2 
	21.7,38.5 89.5,38.5 89.5,185.7 "/>
<g>
	<g>
		<polygon fill="#FFFFFF" points="162.2,200.1 173.1,197.2 162.2,194.3 		"/>
		<polygon fill="#FFFFFF" points="98.8,194.4 87.9,197.3 98.8,200.2 		"/>
	</g>
	<g>
		<line fill="none" stroke="#000000" stroke-linecap="square" x1="96.8" y1="197.3" x2="164.2" y2="197.3"/>
		<polygon points="162.2,200.1 173.1,197.2 162.2,194.3 		"/>
		<polygon points="98.8,194.4 87.9,197.3 98.8,200.2 		"/>
	</g>
</g>
<g>
	<g>
		<polygon fill="#FFFFFF" points="88.8,17.8 99.6,14.9 88.8,12 		"/>
		<polygon fill="#FFFFFF" points="32.9,12.1 22,15 32.9,17.9 		"/>
	</g>
	<g>
		<line fill="none" stroke="#000000" stroke-linecap="square" x1="30.9" y1="14.9" x2="90.8" y2="14.9"/>
		<polygon points="88.8,17.8 99.6,14.9 88.8,12 		"/>
		<polygon points="32.9,12.1 22,15 32.9,17.9 		"/>
	</g>
</g>
<g>
	<g>
		<polygon fill="#FFFFFF" points="0.1,173.7 3,184.5 5.9,173.7 		"/>
		<polygon fill="#FFFFFF" points="5.8,37.4 2.9,26.6 0,37.4 		"/>
	</g>
	<g>
		<line fill="none" stroke="#000000" stroke-linecap="square" x1="2.9" y1="35.4" x2="2.9" y2="175.7"/>
		<polygon points="0.1,173.7 3,184.5 5.9,173.7 		"/>
		<polygon points="5.8,37.4 2.9,26.6 0,37.4 		"/>
	</g>
</g>
<g>
	<g>
		<g>
			<g>
				<g>
					<text transform="matrix(1.0022 0 0 1 126.5176 211.0693)" font-family="'ArialMT'" font-size="11">W</text>
				</g>
			</g>
		</g>
	</g>
	<g>
		<g>
			<g>
				<g>
					<text transform="matrix(1.0022 0 0 1 136.7573 211.0693)" font-family="'ArialMT'" font-size="11">1</text>
				</g>
			</g>
		</g>
	</g>
</g>
<g>
	<g>
		<g>
			<g>
				<text transform="matrix(1.0022 0 0 1 55.3525 10.9995)" font-family="'ArialMT'" font-size="11">W2</text>
			</g>
		</g>
	</g>
</g>
<g>
	<g>
		<g>
			<g>
				<text transform="matrix(1.0022 0 0 1 9.6719 100.959)" font-family="'ArialMT'" font-size="11">W3</text>
			</g>
		</g>
	</g>
</g>
<g>
	<g>
		<g>
			<g>
				<text transform="matrix(1.0022 0 0 1 177.9688 182.9619)" font-family="'ArialMT'" font-size="11">t1</text>
			</g>
		</g>
	</g>
</g>
<g>
	<g>
		<g>
			<g>
				<text transform="matrix(1.0022 0 0 1 9.6719 36.8672)" font-family="'ArialMT'" font-size="11">t2</text>
			</g>
		</g>
	</g>
</g>
<g>
	<g>
		<g>
			<g>
				<text transform="matrix(1.0022 0 0 1 103.7539 109.835)" font-family="'ArialMT'" font-size="11">t3</text>
			</g>
		</g>
	</g>
</g>
<line fill="none" stroke="#000000" stroke-linecap="square" x1="89.5" y1="38.5" x2="89.5" y2="26.2"/>
<line fill="none" stroke="#000000" stroke-linecap="square" x1="89.5" y1="38.5" x2="98.4" y2="38.5"/>
<polyline fill="none" stroke="#000000" stroke-linecap="square" points="89.5,171.4 98.4,171.4 98.4,185.7 "/>
<line fill="none" stroke="#000000" stroke-linecap="square" x1="89.5" y1="106.6" x2="98.4" y2="106.6"/>
<line fill="none" stroke="#000000" stroke-linecap="square" x1="134.5" y1="171.4" x2="134.5" y2="185.7"/>
<line fill="none" stroke="#000000" stroke-linecap="square" x1="53.9" y1="26.2" x2="53.9" y2="38.5"/>
<g>
	<g>
		<g>
			<g>
				<text transform="matrix(1.0022 0 0 1 103.7539 148.2178)" font-family="'ArialMT'" font-size="11">z</text>
			</g>
		</g>
	</g>
</g>
<g>
	<g>
		<g>
			<g>
				<text transform="matrix(1.0022 0 0 1 122.6709 165.3691)" font-family="'ArialMT'" font-size="11">y</text>
			</g>
		</g>
	</g>
</g>
<ellipse stroke="#000000" stroke-width="0.9" cx="93.9" cy="177.8" rx="3.7" ry="3.6"/>
<g>
	<g>
		<polygon fill="#FFFFFF" points="96.4,141.4 93.5,130.5 90.6,141.4 		"/>
	</g>
	<g>
		<line fill="none" stroke="#000000" stroke-linecap="square" x1="93.6" y1="177.4" x2="93.6" y2="139.4"/>
		<polygon points="96.4,141.4 93.5,130.5 90.6,141.4 		"/>
	</g>
</g>
<g>
	<g>
		<polygon fill="#FFFFFF" points="123.2,180.7 134,177.8 123.2,174.9 		"/>
	</g>
	<g>
		<line fill="none" stroke="#000000" stroke-linecap="square" x1="93.5" y1="177.8" x2="125.2" y2="177.8"/>
		<polygon points="123.2,180.7 134,177.8 123.2,174.9 		"/>
	</g>
</g>
</svg>
