<?xml version="1.0" encoding="utf-8"?>
<!-- Generator: Adobe Illustrator 17.1.0, SVG Export Plug-In . SVG Version: 6.00 Build 0)  -->

<svg version="1.1" id="Layer_1" xmlns="http://www.w3.org/2000/svg" xmlns:xlink="http://www.w3.org/1999/xlink" x="0px" y="0px"
	 width="406.6px" height="189.7px" viewBox="0 0 406.6 189.7" enable-background="new 0 0 406.6 189.7" xml:space="preserve">
<path fill="none" stroke="#000000" stroke-miterlimit="10" d="M0,189.7"/>
<g>
	<g>
		<g>
			<g>
				<text transform="matrix(1 0 0 1 403.5552 160.5789)" font-family="'ArialMT'" font-size="11"> </text>
			</g>
		</g>
	</g>
</g>
<g>
	<line fill="none" stroke="#000000" stroke-dasharray="5.76" x1="166.9" y1="40.2" x2="50.8" y2="123.4"/>
	<g>
		<g>
			<line fill="none" stroke="#A6A6A6" stroke-width="2.16" x1="137.3" y1="99" x2="202.8" y2="56"/>
			<line fill="none" stroke="#A6A6A6" stroke-width="2.16" x1="119.8" y1="89.5" x2="167.9" y2="58.6"/>
			<line fill="none" stroke="#A6A6A6" stroke-width="2" x1="150.6" y1="101" x2="215.8" y2="56.6"/>
			<line fill="none" stroke="#A6A6A6" stroke-width="2.16" x1="123.2" y1="97.2" x2="182" y2="58.6"/>
		</g>
		<line fill="none" stroke="#A6A6A6" stroke-width="2.16" x1="166.8" y1="99.5" x2="214.9" y2="68.6"/>
	</g>
	<line fill="none" stroke="#000000" stroke-dasharray="5.76" x1="167.4" y1="40.6" x2="273.7" y2="36.3"/>
	<line fill="none" stroke="#000000" stroke-dasharray="5.76" x1="168" y1="70.5" x2="273.9" y2="66.3"/>
	<line fill="none" stroke="#000000" stroke-dasharray="5.76" x1="51.5" y1="153.1" x2="168" y2="70.5"/>
	<path fill="none" stroke="#000000" stroke-miterlimit="10" stroke-dasharray="3,3" d="M239,162.5"/>
	<path fill="none" stroke="#000000" stroke-miterlimit="10" stroke-dasharray="3,3" d="M51,146.2"/>
	<g>
		<g>
			<g>
				<g>
					<text transform="matrix(1 0 0 1 170.8462 39.2933)" fill="#363639" font-family="'ArialMT'" font-size="11">L</text>
				</g>
			</g>
		</g>
	</g>
	<g>
		<g>
			<g>
				<g>
					<text transform="matrix(1 0 0 1 278.5552 41.5603)" fill="#363639" font-family="'ArialMT'" font-size="11">K</text>
				</g>
			</g>
		</g>
	</g>
	<g>
		<g>
			<g>
				<g>
					<text transform="matrix(1 0 0 1 186.0469 133.4266)" fill="#363639" font-family="'ArialMT'" font-size="11">J</text>
				</g>
			</g>
		</g>
	</g>
	<path fill="none" stroke="#000000" stroke-miterlimit="10" d="M18.6,171.3"/>
	<g>
		<g>
			<g>
				<g>
					<text transform="matrix(1 0 0 1 42.9795 127.9266)" fill="#363639" font-family="'ArialMT'" font-size="11">I</text>
				</g>
			</g>
		</g>
	</g>
	<path fill="none" stroke="#000000" stroke-miterlimit="10" d="M235.8,108.4"/>
	<line fill="none" stroke="#000000" stroke-dasharray="5.76" x1="194.4" y1="165.7" x2="51.1" y2="153.1"/>
	<line fill="none" stroke="#000000" stroke-miterlimit="10" stroke-dasharray="5.76" x1="273.9" y1="65.9" x2="195.9" y2="165.7"/>
	<path fill="none" stroke="#000000" stroke-dasharray="5.76,5.76,5.76" d="M273.9,65.9"/>
	<path fill="none" stroke="#000000" stroke-dasharray="5.76,5.76,5.76" d="M195.9,165.7"/>
	<path fill="none" stroke="#000000" d="M169.2,32"/>
	<g>
		<g>
			<line fill="none" x1="167.7" y1="28.7" x2="274.1" y2="24.5"/>
			<g>
				
					<line fill="none" stroke="#C9252C" stroke-linecap="round" stroke-linejoin="round" x1="167.7" y1="28.7" x2="173.7" y2="28.5"/>
			</g>
			<g>
				<line fill="none" stroke="#C9252C" stroke-linecap="round" stroke-linejoin="round" x1="180.3" y1="28.2" x2="186.3" y2="28"/>
			</g>
			<g>
				
					<line fill="none" stroke="#C9252C" stroke-linecap="round" stroke-linejoin="round" x1="192.8" y1="27.7" x2="198.8" y2="27.5"/>
			</g>
			<g>
				<line fill="none" stroke="#C9252C" stroke-linecap="round" stroke-linejoin="round" x1="205.3" y1="27.2" x2="211.3" y2="27"/>
			</g>
			<g>
				
					<line fill="none" stroke="#C9252C" stroke-linecap="round" stroke-linejoin="round" x1="217.9" y1="26.7" x2="223.9" y2="26.5"/>
			</g>
			<g>
				<line fill="none" stroke="#C9252C" stroke-linecap="round" stroke-linejoin="round" x1="230.4" y1="26.2" x2="236.4" y2="26"/>
			</g>
			<g>
				<line fill="none" stroke="#C9252C" stroke-linecap="round" stroke-linejoin="round" x1="243" y1="25.7" x2="249" y2="25.5"/>
			</g>
			<g>
				<line fill="none" stroke="#C9252C" stroke-linecap="round" stroke-linejoin="round" x1="255.5" y1="25.2" x2="261.5" y2="25"/>
			</g>
			<g>
				
					<line fill="none" stroke="#C9252C" stroke-linecap="round" stroke-linejoin="round" x1="268.1" y1="24.7" x2="274.1" y2="24.5"/>
			</g>
		</g>
	</g>
	<line fill="none" stroke="#C9252C" x1="195.4" y1="123.1" x2="50.6" y2="112.2"/>
	<line fill="none" stroke="#C9252C" x1="273.9" y1="25.2" x2="195.5" y2="124.2"/>
	<line fill="none" stroke="#000000" stroke-dasharray="5.76" x1="167.7" y1="4.7" x2="274.1" y2="0.5"/>
	<line fill="none" stroke="#000000" stroke-dasharray="5.76" x1="195.8" y1="100.8" x2="51.3" y2="88.9"/>
	<line fill="none" stroke="#000000" stroke-dasharray="5.76" x1="273.9" y1="1.2" x2="196.2" y2="100.9"/>
	<g>
		<g>
			<line fill="none" x1="167.7" y1="28.7" x2="51.2" y2="112.4"/>
			<g>
				
					<line fill="none" stroke="#C9252C" stroke-linecap="round" stroke-linejoin="round" x1="167.7" y1="28.7" x2="162.8" y2="32.2"/>
			</g>
			<g>
				<line fill="none" stroke="#C9252C" stroke-linecap="round" stroke-linejoin="round" x1="157.6" y1="36" x2="152.7" y2="39.5"/>
			</g>
			<g>
				
					<line fill="none" stroke="#C9252C" stroke-linecap="round" stroke-linejoin="round" x1="147.4" y1="43.3" x2="142.5" y2="46.8"/>
			</g>
			<g>
				
					<line fill="none" stroke="#C9252C" stroke-linecap="round" stroke-linejoin="round" x1="137.3" y1="50.6" x2="132.4" y2="54.1"/>
			</g>
			<g>
				
					<line fill="none" stroke="#C9252C" stroke-linecap="round" stroke-linejoin="round" x1="127.1" y1="57.9" x2="122.2" y2="61.4"/>
			</g>
			<g>
				<line fill="none" stroke="#C9252C" stroke-linecap="round" stroke-linejoin="round" x1="117" y1="65.2" x2="112.1" y2="68.7"/>
			</g>
			<g>
				<line fill="none" stroke="#C9252C" stroke-linecap="round" stroke-linejoin="round" x1="106.8" y1="72.5" x2="101.9" y2="76"/>
			</g>
			<g>
				<line fill="none" stroke="#C9252C" stroke-linecap="round" stroke-linejoin="round" x1="96.7" y1="79.7" x2="91.8" y2="83.2"/>
			</g>
			<g>
				<line fill="none" stroke="#C9252C" stroke-linecap="round" stroke-linejoin="round" x1="86.5" y1="87" x2="81.6" y2="90.5"/>
			</g>
			<g>
				<line fill="none" stroke="#C9252C" stroke-linecap="round" stroke-linejoin="round" x1="76.4" y1="94.3" x2="71.5" y2="97.8"/>
			</g>
			<g>
				
					<line fill="none" stroke="#C9252C" stroke-linecap="round" stroke-linejoin="round" x1="66.2" y1="101.6" x2="61.3" y2="105.1"/>
			</g>
			<g>
				<line fill="none" stroke="#C9252C" stroke-linecap="round" stroke-linejoin="round" x1="56" y1="108.9" x2="51.2" y2="112.4"/>
			</g>
		</g>
	</g>
	<line fill="none" stroke="#000000" stroke-dasharray="5.76" x1="167.7" y1="4.7" x2="51.7" y2="87.9"/>
	<path d="M48,124c0-1.6,1.3-2.9,2.9-2.9c1.6,0,2.9,1.3,2.9,2.9s-1.3,2.9-2.9,2.9C49.2,126.8,48,125.6,48,124L48,124z"/>
	<path d="M192.8,134.6c0-1.6,1.3-2.9,2.9-2.9c1.6,0,2.9,1.3,2.9,2.9c0,1.6-1.3,2.9-2.9,2.9S192.8,136.2,192.8,134.6L192.8,134.6z"/>
	<path d="M271,36.2c0-1.6,1.3-2.9,2.9-2.9s2.9,1.3,2.9,2.9c0,1.6-1.3,2.9-2.9,2.9C272.3,39.1,271,37.8,271,36.2L271,36.2z"/>
	<path d="M164.6,40.2c0-1.6,1.3-2.9,2.9-2.9c1.6,0,2.9,1.3,2.9,2.9c0,1.6-1.3,2.9-2.9,2.9C165.9,43.1,164.6,41.8,164.6,40.2
		L164.6,40.2z"/>
	<g>
		<g>
			<g>
				<g>
					<text transform="matrix(1 0 0 1 170.5132 25.0789)" enable-background="new    "><tspan x="0" y="0" font-family="'ArialMT'" font-size="11">L</tspan><tspan x="6.1" y="0" font-family="'ArialMT'" font-size="11">L</tspan></text>
				</g>
			</g>
		</g>
	</g>
	<g>
		<g>
			<g>
				<g>
					<text transform="matrix(1 0 0 1 181.7134 119.0789)" font-family="'ArialMT'" font-size="11">JJ</text>
				</g>
			</g>
		</g>
	</g>
	<g>
		<g>
			<g>
				<g>
					<text transform="matrix(1 0 0 1 278.5552 28.0789)" font-family="'ArialMT'" font-size="11">KK</text>
				</g>
			</g>
		</g>
	</g>
	<g>
		<g>
			<g>
				<g>
					<text transform="matrix(1 0 0 1 39.7569 114.0789)" font-family="'ArialMT'" font-size="11">II</text>
				</g>
			</g>
		</g>
	</g>
	<g>
		<g>
			<g>
				<g>
					<text transform="matrix(1 0 0 1 184.0552 177.0789)" fill="#0083C8" font-family="'ArialMT'" font-size="11">d = 0</text>
				</g>
			</g>
		</g>
	</g>
	<g>
		<g>
			<g>
				<g>
					<text transform="matrix(1 0 0 1 184.0552 98.5789)" fill="#0080C6" font-family="'ArialMT'" font-size="11">d = 1</text>
				</g>
			</g>
		</g>
	</g>
	<g>
		<g>
			<line fill="none" x1="165.1" y1="136.4" x2="165.1" y2="127.7"/>
			<polygon fill="#057DC2" points="167.2,129.2 165,121.1 162.9,129.2 			"/>
		</g>
		<g>
			<line fill="none" stroke="#0083C8" x1="165.1" y1="136.4" x2="165.1" y2="127.7"/>
			<polygon fill="#0083C8" points="167.2,129.2 165,121.1 162.9,129.2 			"/>
		</g>
	</g>
	<path d="M48.1,112c0-1.6,1.3-2.9,2.9-2.9c1.6,0,2.9,1.3,2.9,2.9s-1.3,2.9-2.9,2.9C49.4,114.8,48.1,113.6,48.1,112L48.1,112z"/>
	<path d="M192.7,123.5c0-1.6,1.3-2.9,2.9-2.9c1.6,0,2.9,1.3,2.9,2.9s-1.3,2.9-2.9,2.9C194,126.3,192.7,125.1,192.7,123.5
		L192.7,123.5z"/>
	<path d="M271.2,24.9c0-1.6,1.3-2.9,2.9-2.9s2.9,1.3,2.9,2.9s-1.3,2.9-2.9,2.9C272.4,27.8,271.2,26.5,271.2,24.9L271.2,24.9z"/>
	<path d="M164.6,28.6c0-1.6,1.3-2.9,2.9-2.9c1.6,0,2.9,1.3,2.9,2.9s-1.3,2.9-2.9,2.9C165.9,31.5,164.6,30.2,164.6,28.6L164.6,28.6z"
		/>
	<line fill="none" stroke="#000000" x1="196.1" y1="124.1" x2="196.1" y2="135.7"/>
	<line fill="none" stroke="#000000" x1="274.1" y1="25.6" x2="274.1" y2="36.1"/>
	<line fill="none" stroke="#000000" x1="51.1" y1="111.6" x2="51.1" y2="124.6"/>
	<g>
		<g>
			<line fill="none" x1="50.8" y1="126.6" x2="50.8" y2="150.6"/>
			<g>
				
					<line fill="none" stroke="#000000" stroke-linecap="round" stroke-linejoin="round" x1="50.8" y1="126.6" x2="50.8" y2="131.4"/>
			</g>
			<g>
				<line fill="none" stroke="#000000" stroke-linecap="round" stroke-linejoin="round" x1="50.8" y1="136.2" x2="50.8" y2="141"/>
			</g>
			<g>
				
					<line fill="none" stroke="#000000" stroke-linecap="round" stroke-linejoin="round" x1="50.8" y1="145.8" x2="50.8" y2="150.6"/>
			</g>
		</g>
	</g>
	<g>
		<g>
			<line fill="none" x1="196.1" y1="141.2" x2="196.1" y2="163.6"/>
			<g>
				
					<line fill="none" stroke="#000000" stroke-linecap="round" stroke-linejoin="round" x1="196.1" y1="141.2" x2="196.1" y2="145.7"/>
			</g>
			<g>
				
					<line fill="none" stroke="#000000" stroke-linecap="round" stroke-linejoin="round" x1="196.1" y1="150.2" x2="196.1" y2="154.6"/>
			</g>
			<g>
				
					<line fill="none" stroke="#000000" stroke-linecap="round" stroke-linejoin="round" x1="196.1" y1="159.1" x2="196.1" y2="163.6"/>
			</g>
		</g>
	</g>
	<g>
		<g>
			<line fill="none" x1="51.3" y1="88.6" x2="51.3" y2="107.6"/>
			<g>
				<line fill="none" stroke="#000000" stroke-linecap="round" stroke-linejoin="round" x1="51.3" y1="88.6" x2="51.3" y2="92.4"/>
			</g>
			<g>
				<line fill="none" stroke="#000000" stroke-linecap="round" stroke-linejoin="round" x1="51.3" y1="96.2" x2="51.3" y2="100"/>
			</g>
			<g>
				
					<line fill="none" stroke="#000000" stroke-linecap="round" stroke-linejoin="round" x1="51.3" y1="103.8" x2="51.3" y2="107.6"/>
			</g>
		</g>
	</g>
	<g>
		<g>
			<line fill="none" x1="167.3" y1="6.6" x2="167.3" y2="25.6"/>
			<g>
				<line fill="none" stroke="#000000" stroke-linecap="round" stroke-linejoin="round" x1="167.3" y1="6.6" x2="167.3" y2="10.4"/>
			</g>
			<g>
				<line fill="none" stroke="#000000" stroke-linecap="round" stroke-linejoin="round" x1="167.3" y1="14.2" x2="167.3" y2="18"/>
			</g>
			<g>
				
					<line fill="none" stroke="#000000" stroke-linecap="round" stroke-linejoin="round" x1="167.3" y1="21.8" x2="167.3" y2="25.6"/>
			</g>
		</g>
	</g>
	<g>
		<g>
			<line fill="none" x1="274.3" y1="3.6" x2="274.3" y2="22.6"/>
			<g>
				<line fill="none" stroke="#000000" stroke-linecap="round" stroke-linejoin="round" x1="274.3" y1="3.6" x2="274.3" y2="7.4"/>
			</g>
			<g>
				<line fill="none" stroke="#000000" stroke-linecap="round" stroke-linejoin="round" x1="274.3" y1="11.2" x2="274.3" y2="15"/>
			</g>
			<g>
				
					<line fill="none" stroke="#000000" stroke-linecap="round" stroke-linejoin="round" x1="274.3" y1="18.8" x2="274.3" y2="22.6"/>
			</g>
		</g>
	</g>
	<g>
		<g>
			<line fill="none" x1="273.8" y1="39.3" x2="273.8" y2="65.6"/>
			<g>
				
					<line fill="none" stroke="#000000" stroke-linecap="round" stroke-linejoin="round" x1="273.8" y1="39.3" x2="273.8" y2="44.5"/>
			</g>
			<g>
				
					<line fill="none" stroke="#000000" stroke-linecap="round" stroke-linejoin="round" x1="273.8" y1="49.8" x2="273.8" y2="55.1"/>
			</g>
			<g>
				
					<line fill="none" stroke="#000000" stroke-linecap="round" stroke-linejoin="round" x1="273.8" y1="60.3" x2="273.8" y2="65.6"/>
			</g>
		</g>
	</g>
	<line fill="none" stroke="#000000" x1="50.7" y1="124.2" x2="193.7" y2="135.4"/>
	<line fill="none" stroke="#000000" x1="272.7" y1="37.2" x2="195.4" y2="136.1"/>
	<g>
		<g>
			<line fill="none" x1="195.8" y1="101.6" x2="195.8" y2="120.6"/>
			<g>
				
					<line fill="none" stroke="#000000" stroke-linecap="round" stroke-linejoin="round" x1="195.8" y1="101.6" x2="195.8" y2="105.4"/>
			</g>
			<g>
				
					<line fill="none" stroke="#000000" stroke-linecap="round" stroke-linejoin="round" x1="195.8" y1="109.2" x2="195.8" y2="113"/>
			</g>
			<g>
				
					<line fill="none" stroke="#000000" stroke-linecap="round" stroke-linejoin="round" x1="195.8" y1="116.8" x2="195.8" y2="120.6"/>
			</g>
		</g>
	</g>
	<line fill="none" stroke="#000000" x1="167.6" y1="28.1" x2="167.6" y2="40.1"/>
	<g>
		<g>
			<line fill="none" x1="167.8" y1="41.9" x2="167.8" y2="68.6"/>
			<g>
				
					<line fill="none" stroke="#000000" stroke-linecap="round" stroke-linejoin="round" x1="167.8" y1="41.9" x2="167.8" y2="47.2"/>
			</g>
			<g>
				
					<line fill="none" stroke="#000000" stroke-linecap="round" stroke-linejoin="round" x1="167.8" y1="52.6" x2="167.8" y2="57.9"/>
			</g>
			<g>
				
					<line fill="none" stroke="#000000" stroke-linecap="round" stroke-linejoin="round" x1="167.8" y1="63.2" x2="167.8" y2="68.6"/>
			</g>
		</g>
	</g>
	<g>
		<g>
			<g>
				<g>
					<text transform="matrix(0.9776 0 0 1 160.3887 147.33)" fill="#0083C8" font-family="'ArialMT'" font-size="11.2519">d</text>
				</g>
			</g>
		</g>
	</g>
	<g>
		<g>
			<line fill="none" x1="164.7" y1="149.1" x2="164.7" y2="155.4"/>
			<polygon fill="#057DC2" points="162.6,153.9 164.7,162.1 166.9,153.9 			"/>
		</g>
		<g>
			<line fill="none" stroke="#0083C8" x1="164.7" y1="149.1" x2="164.7" y2="155.4"/>
			<polygon fill="#0083C8" points="162.6,153.9 164.7,162.1 166.9,153.9 			"/>
		</g>
	</g>
</g>
</svg>
