<?xml version="1.0" encoding="utf-8"?>
<!-- Generator: Adobe Illustrator 17.1.0, SVG Export Plug-In . SVG Version: 6.00 Build 0)  -->

<svg version="1.1" id="Layer_1" xmlns="http://www.w3.org/2000/svg" xmlns:xlink="http://www.w3.org/1999/xlink" x="0px" y="0px"
	 width="215.5px" height="141.5px" viewBox="0 0 215.5 141.5" enable-background="new 0 0 215.5 141.5" xml:space="preserve">
<polygon fill="none" stroke="#000000" stroke-width="0.9971" stroke-miterlimit="10" stroke-dasharray="5.76,5.76" points="
	178.3,16.4 178.3,116.2 33.8,116.6 33.4,16.4 "/>
<line fill="none" stroke="#ED1C24" stroke-width="1.44" x1="33.2" y1="49.1" x2="177.9" y2="49.1"/>
<line fill="none" stroke="#000000" stroke-width="1.44" x1="33.5" y1="83.4" x2="178.1" y2="83.4"/>
<path d="M30.6,83c0.3-1.6,1.8-2.6,3.4-2.3c1.6,0.3,2.6,1.8,2.3,3.4s-1.8,2.6-3.4,2.3C31.3,86,30.3,84.5,30.6,83L30.6,83z"/>
<path d="M30.2,48.4c0.3-1.6,1.8-2.6,3.4-2.3c1.6,0.3,2.6,1.8,2.3,3.4c-0.3,1.6-1.8,2.6-3.4,2.3C31,51.4,29.9,49.9,30.2,48.4
	L30.2,48.4z"/>
<path d="M175.2,82.8c0.3-1.6,1.8-2.6,3.4-2.3c1.6,0.3,2.6,1.8,2.3,3.4s-1.8,2.6-3.4,2.3C175.9,85.9,174.9,84.4,175.2,82.8
	L175.2,82.8z"/>
<path d="M175,48.6c0.3-1.6,1.8-2.6,3.4-2.3c1.6,0.3,2.6,1.8,2.3,3.4c-0.3,1.6-1.8,2.6-3.4,2.3C175.7,51.6,174.7,50.1,175,48.6
	L175,48.6z"/>
<text transform="matrix(1 0 0 1 0 131.3335)" enable-background="new    "><tspan x="0" y="0" font-family="'MyriadPro-Regular'" font-size="12"> </tspan><tspan x="2.5" y="0" font-family="'MyriadPro-Regular'" font-size="12">(</tspan><tspan x="6.4" y="0" font-family="'MyriadPro-Regular'" font-size="12">Y  = 0)</tspan></text>
<text transform="matrix(1 0 0 1 12.667 133.25)" font-family="'MyriadPro-Regular'" font-size="8">1</text>
<line fill="none" stroke="#000000" x1="183.8" y1="49.5" x2="201.5" y2="49.5"/>
<line fill="none" stroke="#000000" x1="184.2" y1="116.2" x2="201.8" y2="116.2"/>
<g>
	<polygon stroke="#000000" points="194.4,57.9 192.8,52.2 191.3,57.9 	"/>
</g>
<g>
	<line fill="none" stroke="#000000" x1="192.9" y1="56.9" x2="192.9" y2="72.9"/>
	<polygon stroke="#000000" points="194.4,57.9 192.8,52.2 191.3,57.9 	"/>
</g>
<g>
	<polygon stroke="#000000" points="191.3,107.2 192.8,112.9 194.4,107.2 	"/>
</g>
<g>
	<line fill="none" stroke="#000000" x1="192.8" y1="108.2" x2="192.8" y2="90.2"/>
	<polygon stroke="#000000" points="191.3,107.2 192.8,112.9 194.4,107.2 	"/>
</g>
<text transform="matrix(1 0 0 1 186.75 84.8335)" font-family="'MyriadPro-Regular'" font-size="12">Y</text>
<text transform="matrix(1 0 0 1 193.417 87.5)" font-family="'MyriadPro-Regular'" font-size="8">2</text>
<text transform="matrix(1 0 0 1 163.75 46.5835)" font-family="'MyriadPro-Regular'" font-size="12">JJ</text>
<line fill="none" stroke="#000000" x1="9.8" y1="49.5" x2="27.5" y2="49.5"/>
<line fill="none" stroke="#000000" x1="10.2" y1="116.2" x2="27.8" y2="116.2"/>
<g>
	<polygon stroke="#000000" points="20.4,57.9 18.8,52.2 17.3,57.9 	"/>
</g>
<g>
	<line fill="none" stroke="#000000" x1="18.9" y1="56.9" x2="18.9" y2="72.9"/>
	<polygon stroke="#000000" points="20.4,57.9 18.8,52.2 17.3,57.9 	"/>
</g>
<g>
	<polygon stroke="#000000" points="17.3,107.2 18.8,112.9 20.4,107.2 	"/>
</g>
<g>
	<line fill="none" stroke="#000000" x1="18.8" y1="108.2" x2="18.8" y2="90.2"/>
	<polygon stroke="#000000" points="17.3,107.2 18.8,112.9 20.4,107.2 	"/>
</g>
<text transform="matrix(1 0 0 1 12.75 84.8335)" font-family="'MyriadPro-Regular'" font-size="12">Y</text>
<text transform="matrix(1 0 0 1 19.417 87.5)" font-family="'MyriadPro-Regular'" font-size="8">1</text>
<text transform="matrix(1 0 0 1 15.75 46.5835)" font-family="'MyriadPro-Regular'" font-size="12">II</text>
<text transform="matrix(1 0 0 1 174 131.3335)" enable-background="new    "><tspan x="0" y="0" font-family="'MyriadPro-Regular'" font-size="12"> </tspan><tspan x="2.5" y="0" font-family="'MyriadPro-Regular'" font-size="12">(</tspan><tspan x="6.4" y="0" font-family="'MyriadPro-Regular'" font-size="12">Y  = 0)</tspan></text>
<text transform="matrix(1 0 0 1 186.667 133.25)" font-family="'MyriadPro-Regular'" font-size="8">2</text>
<text transform="matrix(1 0 0 1 39.0098 44.6597)" font-family="'MyriadPro-Regular'" font-size="12">II</text>
<text transform="matrix(1 0 0 1 167.75 97.5835)" font-family="'MyriadPro-Regular'" font-size="12">J</text>
<text transform="matrix(1 0 0 1 39.0098 95.6597)" font-family="'MyriadPro-Regular'" font-size="12">I</text>
<text transform="matrix(1 0 0 1 198.75 84.8335)" font-family="'MyriadPro-Regular'" font-size="12">=Y</text>
<text transform="matrix(1 0 0 1 211.417 87.5)" font-family="'MyriadPro-Regular'" font-size="8">1</text>
<line fill="none" x1="101.8" y1="0" x2="111.3" y2="1.5"/>
<line fill="none" x1="101.8" y1="140" x2="111.3" y2="141.5"/>
</svg>
