<?xml version="1.0" encoding="utf-8"?>
<!-- Generator: Adobe Illustrator 17.1.0, SVG Export Plug-In . SVG Version: 6.00 Build 0)  -->

<svg version="1.1" id="Layer_1" xmlns="http://www.w3.org/2000/svg" xmlns:xlink="http://www.w3.org/1999/xlink" x="0px" y="0px"
	 width="313.6px" height="241.6px" viewBox="0 1.6 313.6 241.6" enable-background="new 0 1.6 313.6 241.6" xml:space="preserve">
<g>
	<polygon fill="#FFFFFF" points="96.8,156.1 88.4,156.6 95.9,160.4 	"/>
	<line fill="none" stroke="#000000" x1="94.9" y1="157.9" x2="107.8" y2="160.7"/>
	<polygon points="96.8,156.1 88.4,156.6 95.9,160.4 	"/>
	<g>
		<g>
			<g>
				<g>
					<text transform="matrix(1 0 0 1 288.8265 137.5879)" font-family="'ArialMT'" font-size="11">e = 3</text>
				</g>
			</g>
		</g>
	</g>
	<line fill="none" stroke="#000000" stroke-width="0.9971" stroke-miterlimit="10" x1="252.1" y1="134.6" x2="252.4" y2="42.5"/>
	<path fill="none" stroke="#000000" stroke-width="0.9971" stroke-dasharray="5.76,5.76" d="M128.3,114l123.9,22 M42,200.4
		l86.2-86.4"/>
	<polyline fill="none" stroke="#000000" points="42,201.7 165.4,225.3 252.1,136 	"/>
	<line fill="none" stroke="#000000" stroke-width="0.9971" stroke-miterlimit="10" x1="41.7" y1="107.9" x2="42.2" y2="200.7"/>
	<path fill="#FFFFFF" stroke="#000000" stroke-width="0.9971" stroke-miterlimit="10" d="M41.5,117.9"/>
	<polyline fill="#FFFFFF" stroke="#000000" stroke-width="0.9971" stroke-miterlimit="10" points="165.9,132.6 165.6,225.3 
		165.9,142.6 	"/>
	<path fill="#FFFFFF" stroke="#000000" stroke-width="0.9971" stroke-miterlimit="10" d="M165.9,142.6"/>
	<polygon fill="none" stroke="#000000" stroke-width="0.9971" stroke-miterlimit="10" points="252.7,42.5 165.9,132.6 41.6,107.9 
		128.5,20.7 	"/>
	<path fill="none" stroke="#000000" stroke-width="0.9971" stroke-dasharray="5.76,5.76" d="M128.3,114l0.3-92.8"/>
	<g>
		<g>
			<g>
				<g>
					<text transform="matrix(1 2.600000e-003 -2.600000e-003 1 33.6897 204.4512)" font-family="'ArialMT'" font-size="11">I</text>
				</g>
			</g>
		</g>
	</g>
	<g>
		<g>
			<g>
				<g>
					<text transform="matrix(1 2.600000e-003 -2.600000e-003 1 165.8811 237.3027)" font-family="'ArialMT'" font-size="11">J</text>
				</g>
			</g>
		</g>
	</g>
	<g>
		<g>
			<g>
				<g>
					<text transform="matrix(1 2.600000e-003 -2.600000e-003 1 256.638 140.3408)" font-family="'ArialMT'" font-size="11">K</text>
				</g>
			</g>
		</g>
	</g>
	<g>
		<g>
			<g>
				<g>
					<text transform="matrix(1 2.600000e-003 -2.600000e-003 1 134.4768 109.4785)" font-family="'ArialMT'" font-size="11">L</text>
				</g>
			</g>
		</g>
	</g>
	<path d="M162.6,224c0.3-1.6,1.8-2.6,3.4-2.3c1.6,0.3,2.6,1.8,2.3,3.4c-0.3,1.6-1.8,2.6-3.4,2.3C163.3,227,162.3,225.5,162.6,224
		L162.6,224L162.6,224z"/>
	<path d="M248.8,134.7c0.3-1.6,1.8-2.6,3.4-2.3c1.6,0.3,2.6,1.8,2.3,3.4c-0.3,1.6-1.8,2.6-3.4,2.3
		C249.5,137.8,248.5,136.3,248.8,134.7L248.8,134.7L248.8,134.7z"/>
	<path d="M125.4,112.9c0.3-1.6,1.8-2.6,3.4-2.3c1.6,0.3,2.6,1.8,2.3,3.4s-1.8,2.6-3.4,2.3C126.1,116,125.1,114.4,125.4,112.9
		L125.4,112.9L125.4,112.9z"/>
	<path d="M39.7,200.7c0.3-1.6,1.8-2.6,3.4-2.3c1.6,0.3,2.6,1.8,2.3,3.4c-0.3,1.6-1.8,2.6-3.4,2.3C40.4,203.7,39.3,202.2,39.7,200.7
		L39.7,200.7L39.7,200.7z"/>
	<g>
		<g>
			<g>
				<g>
					<text transform="matrix(1 2.600000e-003 -2.600000e-003 1 29.5237 119.7607)" font-family="'ArialMT'" font-size="11">M</text>
				</g>
			</g>
		</g>
	</g>
	<path d="M162.3,132.6c0.3-1.6,1.8-2.6,3.4-2.3c1.6,0.3,2.6,1.8,2.3,3.4c-0.3,1.6-1.8,2.6-3.4,2.3C163,135.7,162,134.2,162.3,132.6
		L162.3,132.6L162.3,132.6z"/>
	<path d="M39.5,106.8c0.3-1.6,1.8-2.6,3.4-2.3c1.6,0.3,2.6,1.8,2.3,3.4s-1.8,2.6-3.4,2.3C40.2,109.8,39.2,108.3,39.5,106.8
		L39.5,106.8L39.5,106.8z"/>
	<path d="M249.1,42.7c0.3-1.6,1.8-2.6,3.4-2.3c1.6,0.3,2.6,1.8,2.3,3.4c-0.3,1.6-1.8,2.6-3.4,2.3C249.8,45.8,248.8,44.3,249.1,42.7
		L249.1,42.7L249.1,42.7z"/>
	<path d="M125.5,20c0.3-1.6,1.8-2.6,3.4-2.3c1.6,0.3,2.6,1.8,2.3,3.4s-1.8,2.6-3.4,2.3C126.2,23.1,125.2,21.6,125.5,20L125.5,20
		L125.5,20z"/>
	<g>
		<g>
			<g>
				<g>
					<text transform="matrix(1 2.600000e-003 -2.600000e-003 1 125.1272 11)" font-family="'ArialMT'" font-size="11">P</text>
				</g>
			</g>
		</g>
	</g>
	<g>
		<g>
			<g>
				<g>
					<text transform="matrix(1 2.600000e-003 -2.600000e-003 1 256.3909 44.1924)" font-family="'ArialMT'" font-size="11">O</text>
				</g>
			</g>
		</g>
	</g>
	<g>
		<g>
			<g>
				<g>
					<text transform="matrix(1 2.600000e-003 -2.600000e-003 1 169.137 140.8691)" font-family="'ArialMT'" font-size="11">N</text>
				</g>
			</g>
		</g>
	</g>
	<g>
		<g>
			<g>
				<g>
					
						<text transform="matrix(1 2.600000e-003 -2.600000e-003 1 157.1595 176.2539)" fill="#ED1C24" font-family="'ArialMT'" font-size="11">II</text>
				</g>
			</g>
		</g>
	</g>
	
		<line fill="none" stroke="#000000" stroke-width="0.9959" stroke-dasharray="5.7532,5.7532" x1="103.4" y1="213.7" x2="188.4" y2="123.8"/>
	<g>
		<g>
			<g>
				<g>
					<text transform="matrix(1 2.600000e-003 -2.600000e-003 1 110.1761 165.2773)" font-family="'ArialMT'" font-size="10">Y</text>
				</g>
			</g>
		</g>
	</g>
	<g>
		<g>
			<g>
				<g>
					<text transform="matrix(1 2.600000e-003 -2.600000e-003 1 116.8391 168.2949)" font-family="'ArialMT'" font-size="9">1</text>
				</g>
			</g>
		</g>
	</g>
	<g>
		<g>
			<g>
				<g>
					<text transform="matrix(1 2.600000e-003 -2.600000e-003 1 143.1751 108.8877)" font-family="'ArialMT'" font-size="11">(</text>
				</g>
			</g>
		</g>
	</g>
	<g>
		<g>
			<g>
				<g>
					<text transform="matrix(1 2.600000e-003 -2.600000e-003 1 146.8391 108.8975)" font-family="'ArialMT'" font-size="10">Z</text>
				</g>
			</g>
		</g>
	</g>
	<g>
		<g>
			<g>
				<g>
					<text transform="matrix(1 2.600000e-003 -2.600000e-003 1 152.9417 111.9141)" font-family="'ArialMT'" font-size="9">1</text>
				</g>
			</g>
		</g>
	</g>
	<g>
		<g>
			<g>
				<g>
					<text transform="matrix(1 2.600000e-003 -2.600000e-003 1 157.9544 108.9258)" font-family="'ArialMT'" font-size="11"> </text>
				</g>
			</g>
		</g>
	</g>
	<g>
		<g>
			<g>
				<g>
					<text transform="matrix(1 2.600000e-003 -2.600000e-003 1 161.012 108.9336)" font-family="'ArialMT'" font-size="10">= 1)</text>
				</g>
			</g>
		</g>
	</g>
	<g>
		<g>
			<g>
				<g>
					<text transform="matrix(1 2.600000e-003 -2.600000e-003 1 31.2591 219.9473)" enable-background="new    "><tspan x="0" y="0" font-family="'ArialMT'" font-size="10">(</tspan><tspan x="3.3" y="0" font-family="'ArialMT'" font-size="10">Y</tspan></text>
				</g>
			</g>
		</g>
	</g>
	<g>
		<g>
			<g>
				<g>
					<text transform="matrix(1 2.600000e-003 -2.600000e-003 1 41.2522 222.9727)" font-family="'ArialMT'" font-size="9">1</text>
				</g>
			</g>
		</g>
	</g>
	<g>
		<g>
			<g>
				<g>
					<text transform="matrix(1 2.600000e-003 -2.600000e-003 1 46.2659 219.9853)" font-family="'ArialMT'" font-size="11"> </text>
				</g>
			</g>
		</g>
	</g>
	<g>
		<g>
			<g>
				<g>
					<text transform="matrix(1 2.600000e-003 -2.600000e-003 1 49.3235 219.9932)" font-family="'ArialMT'" font-size="10">= 0)</text>
				</g>
			</g>
		</g>
	</g>
	<g>
		<g>
			<g>
				<g>
					<text transform="matrix(1 2.600000e-003 -2.600000e-003 1 31.2249 232.9473)" font-family="'ArialMT'" font-size="10">(Z</text>
				</g>
			</g>
		</g>
	</g>
	<g>
		<g>
			<g>
				<g>
					<text transform="matrix(1 2.600000e-003 -2.600000e-003 1 40.6585 235.9717)" font-family="'ArialMT'" font-size="9">1</text>
				</g>
			</g>
		</g>
	</g>
	<g>
		<g>
			<g>
				<g>
					<text transform="matrix(1 2.600000e-003 -2.600000e-003 1 45.6722 232.9844)" font-family="'ArialMT'" font-size="11"> </text>
				</g>
			</g>
		</g>
	</g>
	<g>
		<g>
			<g>
				<g>
					<text transform="matrix(1 2.600000e-003 -2.600000e-003 1 48.7298 232.9922)" font-family="'ArialMT'" font-size="10">= 0)</text>
				</g>
			</g>
		</g>
	</g>
	<g>
		<g>
			<g>
				<g>
					
						<text transform="matrix(1 2.600000e-003 -2.600000e-003 1 157.5286 74.3779)" fill="#ED1C24" font-family="'ArialMT'" font-size="11">JJ</text>
				</g>
			</g>
		</g>
	</g>
	<g>
		<g>
			<g>
				<g>
					<text transform="matrix(1 2.600000e-003 -2.600000e-003 1 4.131713e-002 132.3291)" enable-background="new    "><tspan x="0" y="0" font-family="'ArialMT'" font-size="10">(</tspan><tspan x="3.3" y="0" font-family="'ArialMT'" font-size="10">Y</tspan></text>
				</g>
			</g>
		</g>
	</g>
	<g>
		<g>
			<g>
				<g>
					<text transform="matrix(1 2.600000e-003 -2.600000e-003 1 10.0354 135.3555)" font-family="'ArialMT'" font-size="9">2</text>
				</g>
			</g>
		</g>
	</g>
	<g>
		<g>
			<g>
				<g>
					<text transform="matrix(1 2.600000e-003 -2.600000e-003 1 15.0472 132.3672)" font-family="'ArialMT'" font-size="10"> = 0</text>
				</g>
			</g>
		</g>
	</g>
	<g>
		<g>
			<g>
				<g>
					<text transform="matrix(1 2.600000e-003 -2.600000e-003 1 32.01 132.4111)" font-family="'ArialMT'" font-size="10">)</text>
				</g>
			</g>
		</g>
	</g>
	<g>
		<g>
			<g>
				<g>
					<text transform="matrix(1 2.600000e-003 -2.600000e-003 1 8.114002e-003 145.3291)" font-family="'ArialMT'" font-size="10">(Z</text>
				</g>
			</g>
		</g>
	</g>
	<g>
		<g>
			<g>
				<g>
					<text transform="matrix(1 2.600000e-003 -2.600000e-003 1 9.4417 148.3535)" font-family="'ArialMT'" font-size="9">2</text>
				</g>
			</g>
		</g>
	</g>
	<g>
		<g>
			<g>
				<g>
					<text transform="matrix(1 2.600000e-003 -2.600000e-003 1 14.4534 145.3662)" font-family="'ArialMT'" font-size="11"> </text>
				</g>
			</g>
		</g>
	</g>
	<g>
		<g>
			<g>
				<g>
					<text transform="matrix(1 2.600000e-003 -2.600000e-003 1 17.512 145.374)" font-family="'ArialMT'" font-size="10">= 0)</text>
				</g>
			</g>
		</g>
	</g>
	<g>
		<g>
			<g>
				<g>
					<text transform="matrix(1 2.600000e-003 -2.600000e-003 1 180.1058 141.2041)" enable-background="new    "><tspan x="0" y="0" font-family="'ArialMT'" font-size="10">(</tspan><tspan x="3.3" y="0" font-family="'ArialMT'" font-size="10">Y</tspan></text>
				</g>
			</g>
		</g>
	</g>
	<g>
		<g>
			<g>
				<g>
					<text transform="matrix(1 2.600000e-003 -2.600000e-003 1 190.0989 144.2305)" font-family="'ArialMT'" font-size="9">2</text>
				</g>
			</g>
		</g>
	</g>
	<g>
		<g>
			<g>
				<g>
					<text transform="matrix(1 2.600000e-003 -2.600000e-003 1 195.1116 141.2422)" font-family="'ArialMT'" font-size="11"> </text>
				</g>
			</g>
		</g>
	</g>
	<g>
		<g>
			<g>
				<g>
					<text transform="matrix(1 2.600000e-003 -2.600000e-003 1 198.1702 141.25)" font-family="'ArialMT'" font-size="10">= 1)</text>
				</g>
			</g>
		</g>
	</g>
	<g>
		<g>
			<g>
				<g>
					<text transform="matrix(1 2.600000e-003 -2.600000e-003 1 83.7825 21.8613)" font-family="'ArialMT'" font-size="10">(Z</text>
				</g>
			</g>
		</g>
	</g>
	<g>
		<g>
			<g>
				<g>
					<text transform="matrix(1 2.600000e-003 -2.600000e-003 1 93.2161 24.8848)" font-family="'ArialMT'" font-size="9">2</text>
				</g>
			</g>
		</g>
	</g>
	<g>
		<g>
			<g>
				<g>
					<text transform="matrix(1 2.600000e-003 -2.600000e-003 1 98.2288 21.8975)" font-family="'ArialMT'" font-size="11"> </text>
				</g>
			</g>
		</g>
	</g>
	<g>
		<g>
			<g>
				<g>
					<text transform="matrix(1 2.600000e-003 -2.600000e-003 1 101.2874 21.9062)" font-family="'ArialMT'" font-size="10">= 1)</text>
				</g>
			</g>
		</g>
	</g>
	<g>
		<g>
			<g>
				<g>
					<text transform="matrix(1 2.600000e-003 -2.600000e-003 1 175.1556 237.2012)" font-family="'ArialMT'" font-size="11">(</text>
				</g>
			</g>
		</g>
	</g>
	<g>
		<g>
			<g>
				<g>
					<text transform="matrix(1 2.600000e-003 -2.600000e-003 1 178.8186 237.2109)" font-family="'ArialMT'" font-size="10">Y</text>
				</g>
			</g>
		</g>
	</g>
	<g>
		<g>
			<g>
				<g>
					<text transform="matrix(1 2.600000e-003 -2.600000e-003 1 185.4817 240.2285)" font-family="'ArialMT'" font-size="9">1</text>
				</g>
			</g>
		</g>
	</g>
	<g>
		<g>
			<g>
				<g>
					<text transform="matrix(1 2.600000e-003 -2.600000e-003 1 190.4944 237.2402)" font-family="'ArialMT'" font-size="11"> </text>
				</g>
			</g>
		</g>
	</g>
	<g>
		<g>
			<g>
				<g>
					<text transform="matrix(1 2.600000e-003 -2.600000e-003 1 193.552 237.249)" font-family="'ArialMT'" font-size="10">= 1)</text>
				</g>
			</g>
		</g>
	</g>
	
		<line fill="none" stroke="#000000" stroke-width="0.9971" stroke-dasharray="5.76,5.76" x1="91.9" y1="150.6" x2="213.7" y2="176.4"/>
	<polygon fill="#FFFFFF" points="136.4,169.3 144.8,168.9 137.3,165 	"/>
	<line fill="none" stroke="#000000" x1="138.3" y1="167.5" x2="125.4" y2="164.8"/>
	<polygon points="136.4,169.3 144.8,168.9 137.3,165 	"/>
	<polygon fill="#FFFFFF" points="119.3,207.3 115.7,214.9 122.6,210.1 	"/>
	<line fill="none" stroke="#000000" x1="120" y1="209.8" x2="128.6" y2="199.8"/>
	<polygon points="119.3,207.3 115.7,214.9 122.6,210.1 	"/>
	<polygon fill="#FFFFFF" points="150,178.9 153.7,171.3 146.7,176.1 	"/>
	<line fill="none" stroke="#000000" x1="149.4" y1="176.4" x2="140.7" y2="186.4"/>
	<polygon points="150,178.9 153.7,171.3 146.7,176.1 	"/>
	<line fill="none" stroke="#000000" stroke-width="0.9971" stroke-dasharray="5.76,5.76" x1="86" y1="64.3" x2="207.9" y2="90.1"/>
	
		<line fill="none" stroke="#000000" stroke-width="0.9959" stroke-dasharray="5.7532,5.7532" x1="105" y1="120.5" x2="190" y2="30.7"/>
	<polygon fill="#FFFFFF" points="102.8,56.8 94.4,57.3 101.9,61.1 	"/>
	<line fill="none" stroke="#000000" x1="100.9" y1="58.6" x2="113.9" y2="61.3"/>
	<polygon points="102.8,56.8 94.4,57.3 101.9,61.1 	"/>
	<g>
		<g>
			<g>
				<g>
					<text transform="matrix(1 2.600000e-003 -2.600000e-003 1 116.2278 65.9414)" font-family="'ArialMT'" font-size="10">Y</text>
				</g>
			</g>
		</g>
	</g>
	<g>
		<g>
			<g>
				<g>
					<text transform="matrix(1 2.600000e-003 -2.600000e-003 1 122.8909 68.959)" font-family="'ArialMT'" font-size="9">2</text>
				</g>
			</g>
		</g>
	</g>
	<polygon fill="#FFFFFF" points="142.5,70 150.9,69.5 143.4,65.7 	"/>
	<line fill="none" stroke="#000000" x1="144.4" y1="68.2" x2="131.5" y2="65.4"/>
	<polygon points="142.5,70 150.9,69.5 143.4,65.7 	"/>
	<polygon fill="#FFFFFF" points="102,110.6 98.3,118.2 105.3,113.5 	"/>
	<line fill="none" stroke="#000000" x1="102.7" y1="113.2" x2="111.3" y2="103.2"/>
	<polygon points="102,110.6 98.3,118.2 105.3,113.5 	"/>
	<polygon fill="#FFFFFF" points="132.7,82.3 136.3,74.7 129.4,79.4 	"/>
	<line fill="none" stroke="#000000" x1="132" y1="79.7" x2="123.4" y2="89.7"/>
	<polygon points="132.7,82.3 136.3,74.7 129.4,79.4 	"/>
	<g>
		<g>
			<g>
				<g>
					<text transform="matrix(1 0 0 1 111.8255 96.2549)" font-family="'ArialMT'" font-size="10">Z</text>
				</g>
			</g>
		</g>
	</g>
	<g>
		<g>
			<g>
				<g>
					<text transform="matrix(1 0 0 1 117.9358 99.2549)" font-family="'ArialMT'" font-size="9">2</text>
				</g>
			</g>
		</g>
	</g>
	<g>
		<g>
			<g>
				<g>
					<text transform="matrix(1 0 0 1 129.4612 195.2861)" font-family="'ArialMT'" font-size="10">Z</text>
				</g>
			</g>
		</g>
	</g>
	<g>
		<g>
			<g>
				<g>
					<text transform="matrix(1 0 0 1 135.5716 198.2861)" font-family="'ArialMT'" font-size="9">1</text>
				</g>
			</g>
		</g>
	</g>
	<path fill="none" stroke="#000000" stroke-width="0.6634" stroke-linecap="square" d="M207.3,106.4"/>
	<polyline fill="#ED1C24" stroke="#ED1C24" stroke-width="0.6634" stroke-linecap="square" points="146.2,76.3 150.8,161.5 
		156.1,161.5 151.8,76.3 146.2,76.3 	"/>
	<path stroke="#000000" stroke-width="0.6627" d="M151.1,161.9c-0.9-0.7-0.5-1.5,0.8-1.9s3.1-0.2,4,0.5s0.5,1.5-0.8,1.9
		C153.8,162.8,152,162.6,151.1,161.9L151.1,161.9z"/>
	<path stroke="#000000" stroke-width="0.6627" d="M146.8,76.9c-0.9-0.7-0.5-1.5,0.8-1.9s3.1-0.2,4,0.5s0.5,1.5-0.8,1.9
		C149.4,77.8,147.6,77.6,146.8,76.9L146.8,76.9z"/>
</g>
</svg>
