<?xml version="1.0" encoding="utf-8"?>
<!-- Generator: Adobe Illustrator 17.1.0, SVG Export Plug-In . SVG Version: 6.00 Build 0)  -->

<svg version="1.1" id="Layer_1" xmlns="http://www.w3.org/2000/svg" xmlns:xlink="http://www.w3.org/1999/xlink" x="0px" y="0px"
	 width="309.3px" height="256.2px" viewBox="0 0 309.3 256.2" enable-background="new 0 0 309.3 256.2" xml:space="preserve">
<g>
	<g>
		<polygon fill="#FFFFFF" points="106.1,62.1 104,54 101.8,62.1 		"/>
	</g>
	<g>
		<line fill="none" stroke="#000000" x1="104" y1="60.7" x2="103.8" y2="101.9"/>
		<polygon points="106.1,62.1 104,54 101.8,62.1 		"/>
	</g>
</g>
<line fill="none" stroke="#000000" stroke-width="0.9971" stroke-miterlimit="10" x1="258" y1="100.9" x2="258" y2="32.1"/>
<line fill="none" stroke="#000000" stroke-width="0.9971" stroke-miterlimit="10" stroke-dasharray="5.76,5.76" x1="258" y1="165.2" x2="258" y2="100.9"/>
<g>
	
		<line fill="none" stroke="#000000" stroke-width="0.9971" stroke-dasharray="5.76,5.76" x1="134.1" y1="142.9" x2="258" y2="164.6"/>
	
		<line fill="none" stroke="#000000" stroke-width="0.9971" stroke-dasharray="5.76,5.76" x1="49.1" y1="230.5" x2="134.1" y2="142.9"/>
	<polyline fill="none" stroke="#000000" stroke-dasharray="5.76,5.76" points="48,231.9 171.5,254.2 258,164.6 	"/>
</g>
<line fill="none" stroke="#000000" stroke-width="0.9971" stroke-miterlimit="10" stroke-dasharray="5.76,5.76" x1="48" y1="167.2" x2="48.2" y2="231.9"/>
<line fill="none" stroke="#000000" stroke-width="0.9971" stroke-miterlimit="10" x1="47.5" y1="98" x2="48" y2="167.2"/>
<path fill="#FFFFFF" stroke="#000000" stroke-width="0.9971" stroke-miterlimit="10" d="M47.3,108"/>
<polyline fill="#FFFFFF" stroke="#000000" stroke-width="0.9971" stroke-miterlimit="10" stroke-dasharray="5.76,5.76" points="
	171.7,190.3 171.7,256.2 171.7,132.4 "/>
<line fill="none" stroke="#000000" stroke-width="0.9971" stroke-miterlimit="10" x1="171.7" y1="122.4" x2="171.7" y2="190.3"/>
<path fill="#FFFFFF" stroke="#000000" stroke-width="0.9971" stroke-miterlimit="10" d="M171.7,132.4"/>
<polygon fill="none" stroke="#000000" stroke-width="0.9971" stroke-miterlimit="10" stroke-dasharray="5.76,5.76" points="
	258.3,32.1 171.7,122.4 47.3,98 134.1,10.6 "/>
<line fill="none" stroke="#000000" stroke-width="0.9971" stroke-dasharray="5.76,5.76" x1="134.1" y1="143.9" x2="134.1" y2="11.1"/>
<path fill="none" stroke="#000000" stroke-width="0.9971" stroke-dasharray="5.76,5.76" d="M134.8,33.6"/>
<g>
	<g>
		<g>
			<g>
				<text transform="matrix(1 0 0 1 39.7231 170.1123)" font-family="'ArialMT'" font-size="11">I</text>
			</g>
		</g>
	</g>
</g>
<g>
	<g>
		<g>
			<g>
				<text transform="matrix(1 0 0 1 175.0166 192.4297)" font-family="'ArialMT'" font-size="11">J</text>
			</g>
		</g>
	</g>
</g>
<g>
	<g>
		<g>
			<g>
				<text transform="matrix(1 0 0 1 262.5005 103.4463)" font-family="'ArialMT'" font-size="11">K</text>
			</g>
		</g>
	</g>
</g>
<g>
	<g>
		<g>
			<g>
				<text transform="matrix(1 0 0 1 138.667 72.1128)" font-family="'ArialMT'" font-size="11">L</text>
			</g>
		</g>
	</g>
</g>
<path d="M168.7,185.3c0.3-1.6,1.8-2.6,3.4-2.3c1.6,0.3,2.6,1.8,2.3,3.4c-0.3,1.6-1.8,2.6-3.4,2.3
	C169.4,188.3,168.4,186.8,168.7,185.3L168.7,185.3z"/>
<path d="M254.7,97.6c0.3-1.6,1.8-2.6,3.4-2.3c1.6,0.3,2.6,1.8,2.3,3.4c-0.3,1.6-1.8,2.6-3.4,2.3C255.4,100.7,254.4,99.2,254.7,97.6
	L254.7,97.6z"/>
<path d="M131.2,74.1c0.3-1.6,1.8-2.6,3.4-2.3c1.6,0.3,2.6,1.8,2.3,3.4s-1.8,2.6-3.4,2.3C131.9,77.2,130.9,75.7,131.2,74.1
	L131.2,74.1z"/>
<path d="M45.5,161.8c0.3-1.6,1.8-2.6,3.4-2.3c1.6,0.3,2.6,1.8,2.3,3.4c-0.3,1.6-1.8,2.6-3.4,2.3C46.2,164.9,45.2,163.4,45.5,161.8
	L45.5,161.8z"/>
<g>
	<g>
		<g>
			<g>
				<g>
					<text transform="matrix(1 0 0 1 148.4956 71.2642)" enable-background="new    "><tspan x="0" y="0" font-family="'ArialMT'" font-size="10">(</tspan><tspan x="3.3" y="0" font-family="'ArialMT'" font-size="10">Y</tspan></text>
				</g>
			</g>
		</g>
	</g>
	<g>
		<g>
			<g>
				<g>
					<text transform="matrix(1 0 0 1 158.4956 74.2642)" font-family="'ArialMT'" font-size="9">1</text>
				</g>
			</g>
		</g>
	</g>
	<g>
		<g>
			<g>
				<g>
					<text transform="matrix(1 0 0 1 163.5009 71.2642)" font-family="'ArialMT'" font-size="11"> </text>
				</g>
			</g>
		</g>
	</g>
	<g>
		<g>
			<g>
				<g>
					<text transform="matrix(1 0 0 1 166.5571 71.2642)" font-family="'ArialMT'" font-size="10">= 1)</text>
				</g>
			</g>
		</g>
	</g>
</g>
<g>
	<g>
		<g>
			<g>
				<g>
					<text transform="matrix(1 0 0 1 272.6675 102.4463)" enable-background="new    "><tspan x="0" y="0" font-family="'ArialMT'" font-size="10">(</tspan><tspan x="3.3" y="0" font-family="'ArialMT'" font-size="10">Y</tspan></text>
				</g>
			</g>
		</g>
	</g>
	<g>
		<g>
			<g>
				<g>
					<text transform="matrix(1 0 0 1 282.6675 105.4463)" font-family="'ArialMT'" font-size="9">2</text>
				</g>
			</g>
		</g>
	</g>
	<g>
		<g>
			<g>
				<g>
					<text transform="matrix(1 0 0 1 287.6729 102.4463)" font-family="'ArialMT'" font-size="11"> </text>
				</g>
			</g>
		</g>
	</g>
	<g>
		<g>
			<g>
				<g>
					<text transform="matrix(1 0 0 1 290.729 102.4463)" font-family="'ArialMT'" font-size="10">= 1)</text>
				</g>
			</g>
		</g>
	</g>
</g>
<g>
	<g>
		<g>
			<g>
				<g>
					<text transform="matrix(1 0 0 1 0 167.7793)" enable-background="new    "><tspan x="0" y="0" font-family="'ArialMT'" font-size="10">(</tspan><tspan x="3.3" y="0" font-family="'ArialMT'" font-size="10">Y</tspan></text>
				</g>
			</g>
		</g>
	</g>
	<g>
		<g>
			<g>
				<g>
					<text transform="matrix(1 0 0 1 10 170.7793)" font-family="'ArialMT'" font-size="9">1</text>
				</g>
			</g>
		</g>
	</g>
	<g>
		<g>
			<g>
				<g>
					<text transform="matrix(1 0 0 1 15.0054 167.7793)" font-family="'ArialMT'" font-size="11"> </text>
				</g>
			</g>
		</g>
	</g>
	<g>
		<g>
			<g>
				<g>
					<text transform="matrix(1 0 0 1 18.0615 167.7793)" font-family="'ArialMT'" font-size="10">= 0)</text>
				</g>
			</g>
		</g>
	</g>
</g>
<g>
	<g>
		<g>
			<g>
				<g>
					<text transform="matrix(1 0 0 1 201.145 142.1123)" font-family="'ArialMT'" font-size="10">Y</text>
				</g>
			</g>
		</g>
	</g>
	<g>
		<g>
			<g>
				<g>
					<text transform="matrix(1 0 0 1 207.8149 145.1123)" font-family="'ArialMT'" font-size="9">2</text>
				</g>
			</g>
		</g>
	</g>
</g>
<g>
	<g>
		<line fill="none" x1="53.5" y1="106.9" x2="65.7" y2="94.8"/>
		<polygon fill="#EB3B90" points="53.1,104.4 48.9,111.7 56.1,107.5 		"/>
	</g>
	<g>
		<line fill="none" stroke="#000000" x1="53.5" y1="106.9" x2="65.7" y2="94.8"/>
		<polygon points="53.1,104.4 48.9,111.7 56.1,107.5 		"/>
	</g>
</g>
<g>
	<g>
		<g>
			<g>
				<g>
					<text transform="matrix(1 0 0 1 182.9409 190.8389)" enable-background="new    "><tspan x="0" y="0" font-family="'ArialMT'" font-size="10">(</tspan><tspan x="3.3" y="0" font-family="'ArialMT'" font-size="10">Y</tspan></text>
				</g>
			</g>
		</g>
	</g>
	<g>
		<g>
			<g>
				<g>
					<text transform="matrix(1 0 0 1 192.9409 193.8389)" font-family="'ArialMT'" font-size="9">2</text>
				</g>
			</g>
		</g>
	</g>
	<g>
		<g>
			<g>
				<g>
					<text transform="matrix(1 0 0 1 197.9463 190.8389)" font-family="'ArialMT'" font-size="11"> </text>
				</g>
			</g>
		</g>
	</g>
	<g>
		<g>
			<g>
				<g>
					<text transform="matrix(1 0 0 1 201.0024 190.8389)" font-family="'ArialMT'" font-size="10">= 0)</text>
				</g>
			</g>
		</g>
	</g>
</g>
<g>
	<g>
		<line fill="none" x1="90.5" y1="69.9" x2="78.4" y2="82.1"/>
		<polygon fill="#EB3B90" points="91,72.5 95.2,65.2 87.9,69.4 		"/>
	</g>
	<g>
		<line fill="none" stroke="#000000" x1="90.5" y1="69.9" x2="78.4" y2="82.1"/>
		<polygon points="91,72.5 95.2,65.2 87.9,69.4 		"/>
	</g>
</g>
<g>
	<g>
		<g>
			<g>
				<g>
					<text transform="matrix(1 0 0 1 67.9551 90.2207)" font-family="'ArialMT'" font-size="10">Y</text>
				</g>
			</g>
		</g>
	</g>
	<g>
		<g>
			<g>
				<g>
					<text transform="matrix(1 0 0 1 74.625 93.2207)" font-family="'ArialMT'" font-size="9">1</text>
				</g>
			</g>
		</g>
	</g>
</g>
<g>
	<g>
		<g>
			<g>
				<text transform="matrix(1 0 0 1 81.3106 43.4463)" fill="#ED1C24" font-family="'ArialMT'" font-size="11">II</text>
			</g>
		</g>
	</g>
</g>
<g>
	<g>
		<g>
			<g>
				<text transform="matrix(1 0 0 1 220.939 49.5078)" fill="#ED1C24" font-family="'ArialMT'" font-size="11">JJ</text>
			</g>
		</g>
	</g>
</g>
<g>
	<g>
		<line fill="none" x1="177.2" y1="169.9" x2="200.3" y2="146.8"/>
		<polygon fill="#EB3B90" points="176.7,167.4 172.5,174.6 179.8,170.4 		"/>
	</g>
	<g>
		<line fill="none" stroke="#000000" x1="177.2" y1="169.9" x2="200.3" y2="146.8"/>
		<polygon points="176.7,167.4 172.5,174.6 179.8,170.4 		"/>
	</g>
</g>
<line fill="none" stroke="#000000" x1="241.3" y1="101.8" x2="241.3" y2="112.4"/>
<g>
	<g>
		<line fill="none" x1="236.3" y1="110.8" x2="213.1" y2="134"/>
		<polygon fill="#EB3B90" points="236.7,113.4 241,106.1 233.7,110.3 		"/>
	</g>
	<g>
		<line fill="none" stroke="#000000" x1="236.3" y1="110.8" x2="213.1" y2="134"/>
		<polygon points="236.7,113.4 241,106.1 233.7,110.3 		"/>
	</g>
</g>
<g>
	<g>
		<g>
			<g>
				<text transform="matrix(1 0 0 1 140.7676 94.6787)" font-family="'ArialMT'" font-size="11">Reinforcing</text>
			</g>
		</g>
	</g>
</g>
<line fill="none" stroke="#000000" stroke-width="0.9971" stroke-dasharray="5.76,5.76" x1="134.1" y1="74.2" x2="258" y2="95.9"/>
<line fill="none" stroke="#000000" stroke-width="0.9971" stroke-dasharray="5.76,5.76" x1="48.1" y1="160.9" x2="134.1" y2="74.2"/>
<polyline fill="none" stroke="#000000" points="48,162.2 171.5,185.5 258,95.9 "/>
<line fill="none" stroke="#000000" x1="96.3" y1="60.1" x2="96.3" y2="70.8"/>
<g>
	<g>
		<path fill="none" stroke="#000000" stroke-width="0.8624" stroke-linecap="square" d="M152.4,0"/>
		<polyline fill="#ED1C24" stroke="#ED1C24" stroke-width="0.8624" stroke-linecap="square" points="101.5,59.9 238.3,67.1 
			238.4,61.6 101.8,54.1 101.5,59.9 		"/>
	</g>
	<path stroke="#000000" stroke-width="0.8616" d="M238.9,66.9c-1.1,0.8-2.5,0.3-3-1.1c-0.6-1.5-0.1-3.3,1-4.1s2.5-0.3,3,1.1
		C240.4,64.2,240,66,238.9,66.9z"/>
	<path stroke="#000000" stroke-width="0.8616" d="M102.4,59.5c-1.1,0.8-2.5,0.3-3-1.1c-0.6-1.5-0.1-3.3,1-4.1s2.5-0.3,3,1.1
		C104,56.8,103.5,58.6,102.4,59.5z"/>
</g>
<g>
	<g>
		<g>
			<g>
				<g>
					<text transform="matrix(1 0 0 1 23.9995 244.7793)" font-family="'ArialMT'" font-size="10">(Z</text>
				</g>
			</g>
		</g>
	</g>
	<g>
		<g>
			<g>
				<g>
					<text transform="matrix(1 0 0 1 33.438 247.7793)" font-family="'ArialMT'" font-size="9">1</text>
				</g>
			</g>
		</g>
	</g>
	<g>
		<g>
			<g>
				<g>
					<text transform="matrix(1 0 0 1 38.4433 244.7793)" font-family="'ArialMT'" font-size="11"> </text>
				</g>
			</g>
		</g>
	</g>
	<g>
		<g>
			<g>
				<g>
					<text transform="matrix(1 0 0 1 41.4995 244.7793)" font-family="'ArialMT'" font-size="10">= 0)</text>
				</g>
			</g>
		</g>
	</g>
</g>
<g>
	<g>
		<g>
			<g>
				<g>
					<text transform="matrix(1 0 0 1 7.999 97.4458)" font-family="'ArialMT'" font-size="10">(Z</text>
				</g>
			</g>
		</g>
	</g>
	<g>
		<g>
			<g>
				<g>
					<text transform="matrix(1 0 0 1 17.4375 100.4458)" font-family="'ArialMT'" font-size="9">1</text>
				</g>
			</g>
		</g>
	</g>
	<g>
		<g>
			<g>
				<g>
					<text transform="matrix(1 0 0 1 22.4428 97.4458)" font-family="'ArialMT'" font-size="11"> </text>
				</g>
			</g>
		</g>
	</g>
	<g>
		<g>
			<g>
				<g>
					<text transform="matrix(1 0 0 1 25.499 97.4458)" font-family="'ArialMT'" font-size="10">= 1)</text>
				</g>
			</g>
		</g>
	</g>
</g>
<g>
	<g>
		<polygon fill="#FFFFFF" points="101,165.5 103.1,173.6 105.3,165.5 		"/>
	</g>
	<g>
		<line fill="none" stroke="#000000" x1="103.1" y1="167" x2="103.3" y2="124.8"/>
		<polygon points="101,165.5 103.1,173.6 105.3,165.5 		"/>
	</g>
</g>
<line fill="none" stroke="#000000" x1="98.7" y1="57.4" x2="107.3" y2="49.4"/>
<g>
	<g>
		<g>
			<g>
				<g>
					<text transform="matrix(1 0 0 1 99.8003 117.9805)" font-family="'ArialMT'" font-size="10">Z</text>
				</g>
			</g>
		</g>
	</g>
	<g>
		<g>
			<g>
				<g>
					<text transform="matrix(1 0 0 1 105.9087 120.9805)" font-family="'ArialMT'" font-size="9">1</text>
				</g>
			</g>
		</g>
	</g>
</g>
<g>
	<g>
		<polygon fill="#FFFFFF" points="242.4,168.4 244.5,176.6 246.7,168.5 		"/>
	</g>
	<g>
		<line fill="none" stroke="#000000" x1="244.5" y1="169.9" x2="244.7" y2="129.7"/>
		<polygon points="242.4,168.4 244.5,176.6 246.7,168.5 		"/>
	</g>
</g>
<g>
	<g>
		<polygon fill="#FFFFFF" points="247.5,65.1 245.4,57 243.2,65.1 		"/>
	</g>
	<g>
		<line fill="none" stroke="#000000" x1="245.4" y1="63.6" x2="245.2" y2="106.8"/>
		<polygon points="247.5,65.1 245.4,57 243.2,65.1 		"/>
	</g>
</g>
<line fill="none" stroke="#000000" x1="240.1" y1="60.4" x2="248.7" y2="52.4"/>
<g>
	<g>
		<g>
			<g>
				<g>
					<text transform="matrix(1 0 0 1 238.2085 124.9453)" font-family="'ArialMT'" font-size="10">Z</text>
				</g>
			</g>
		</g>
	</g>
	<g>
		<g>
			<g>
				<g>
					<text transform="matrix(1 0 0 1 244.3169 127.9453)" font-family="'ArialMT'" font-size="9">2 </text>
				</g>
			</g>
		</g>
	</g>
	<g>
		<g>
			<g>
				<g>
					<text transform="matrix(1 0 0 1 251.8228 124.9453)" font-family="'ArialMT'" font-size="10">= Z</text>
				</g>
			</g>
		</g>
	</g>
	<g>
		<g>
			<g>
				<g>
					<text transform="matrix(1 0 0 1 266.5493 127.9453)" font-family="'ArialMT'" font-size="9">1</text>
				</g>
			</g>
		</g>
	</g>
</g>
<g>
	<g>
		<g>
			<g>
				<text transform="matrix(1 0 0 1 284.5005 63.1123)" font-family="'ArialMT'" font-size="11">e = 1</text>
			</g>
		</g>
	</g>
</g>
</svg>
