<?xml version="1.0" encoding="utf-8"?>
<!-- Generator: Adobe Illustrator 14.0.0, SVG Export Plug-In . SVG Version: 6.00 Build 43363)  -->

<svg version="1.1" id="Layer_1" xmlns="http://www.w3.org/2000/svg" xmlns:xlink="http://www.w3.org/1999/xlink" x="0px" y="0px"
	 width="481.3px" height="379.7px" viewBox="0 0 481.3 379.7" enable-background="new 0 0 481.3 379.7" xml:space="preserve">
<circle fill="none" stroke="#000000" stroke-width="1.4025" cx="193.9" cy="198.2" r="111.1"/>
<circle fill="none" stroke="#000000" cx="193.9" cy="198.2" r="144"/>
<circle fill="none" stroke="#000000" cx="193.9" cy="198.2" r="126"/>
<circle fill="none" stroke="#0073BC" stroke-width="1.02" stroke-dasharray="12.96" cx="193.9" cy="198.2" r="123"/>
<circle fill="none" stroke="#0073BC" stroke-width="1.35" stroke-dasharray="12.96" cx="193.9" cy="198.2" r="114.2"/>
<line fill="none" stroke="#000000" stroke-dasharray="11.664" x1="49.7" y1="196.299" x2="337.701" y2="196.299"/>
<line fill="none" stroke="#000000" stroke-dasharray="11.664" x1="91.3" y1="298.9" x2="294.8" y2="95.4"/>
<line fill="none" stroke="#000000" stroke-dasharray="11.664" x1="93.4" y1="95.6" x2="296.9" y2="299.1"/>
<line fill="none" stroke="#000000" stroke-dasharray="11.664" x1="194.2" y1="342.299" x2="194.2" y2="53.3"/>
<g>
	<g>
		<g>
			<g>
				<g enable-background="new    ">
					<path d="M343.437,281.461v-7.873h1.042v7.873H343.437z"/>
					<path d="M346.193,281.461v-5.703h0.869v0.812c0.42-0.627,1.023-0.94,1.816-0.94c0.344,0,0.658,0.063,0.947,0.187
						c0.288,0.123,0.504,0.285,0.646,0.485c0.145,0.201,0.242,0.439,0.301,0.715c0.036,0.179,0.055,0.492,0.055,0.939v3.508h-0.968
						v-3.471c0-0.394-0.037-0.688-0.112-0.884c-0.074-0.194-0.209-0.351-0.4-0.467s-0.416-0.175-0.674-0.175
						c-0.412,0-0.768,0.131-1.066,0.392c-0.299,0.263-0.447,0.759-0.447,1.488v3.114H346.193L346.193,281.461z"/>
					<path d="M354.421,280.597l0.139,0.854c-0.271,0.057-0.516,0.086-0.73,0.086c-0.351,0-0.623-0.057-0.815-0.168
						c-0.193-0.109-0.329-0.257-0.408-0.438c-0.078-0.182-0.117-0.561-0.117-1.141v-3.283h-0.709v-0.752h0.709v-1.412l0.962-0.58
						v1.992h0.973v0.752h-0.973v3.336c0,0.275,0.018,0.453,0.051,0.531c0.033,0.08,0.09,0.143,0.166,0.188
						c0.078,0.046,0.188,0.069,0.33,0.069C354.104,280.635,354.246,280.624,354.421,280.597z"/>
					<path d="M359.271,279.625l0.999,0.123c-0.157,0.584-0.449,1.037-0.876,1.358c-0.426,0.322-0.971,0.483-1.633,0.483
						c-0.834,0-1.496-0.258-1.984-0.771s-0.732-1.234-0.732-2.162c0-0.959,0.246-1.703,0.74-2.234
						c0.494-0.529,1.137-0.795,1.924-0.795c0.763,0,1.385,0.261,1.869,0.779c0.482,0.52,0.725,1.25,0.725,2.19
						c0,0.058-0.002,0.144-0.006,0.258h-4.254c0.037,0.627,0.213,1.106,0.533,1.438c0.318,0.334,0.715,0.5,1.191,0.5
						c0.354,0,0.656-0.092,0.908-0.278C358.925,280.331,359.125,280.034,359.271,279.625z M356.097,278.062h3.186
						c-0.044-0.479-0.166-0.839-0.365-1.079c-0.309-0.372-0.707-0.559-1.199-0.559c-0.442,0-0.815,0.148-1.118,0.445
						C356.296,277.167,356.128,277.565,356.097,278.062z"/>
					<path d="M361.473,281.461v-5.703h0.87v0.863c0.223-0.404,0.428-0.67,0.615-0.799c0.187-0.13,0.395-0.193,0.619-0.193
						c0.325,0,0.657,0.104,0.993,0.312l-0.332,0.896c-0.235-0.139-0.473-0.209-0.709-0.209c-0.212,0-0.401,0.063-0.569,0.19
						s-0.287,0.304-0.359,0.529c-0.107,0.344-0.161,0.72-0.161,1.128v2.986H361.473L361.473,281.461z"/>
					<path d="M365.147,281.461v-5.703h0.87v0.812c0.419-0.627,1.023-0.94,1.814-0.94c0.344,0,0.66,0.063,0.948,0.187
						c0.288,0.123,0.505,0.285,0.646,0.485c0.145,0.201,0.244,0.439,0.302,0.715c0.036,0.179,0.056,0.492,0.056,0.939v3.508h-0.968
						v-3.471c0-0.394-0.038-0.688-0.112-0.884c-0.076-0.196-0.209-0.351-0.4-0.467s-0.416-0.175-0.674-0.175
						c-0.412,0-0.769,0.131-1.066,0.392c-0.299,0.263-0.448,0.759-0.448,1.488v3.114H365.147L365.147,281.461z"/>
					<path d="M374.987,280.758c-0.358,0.305-0.702,0.52-1.034,0.646c-0.33,0.125-0.687,0.188-1.065,0.188
						c-0.626,0-1.107-0.153-1.444-0.459c-0.337-0.307-0.505-0.697-0.505-1.174c0-0.279,0.063-0.535,0.19-0.767
						c0.127-0.229,0.293-0.416,0.498-0.556c0.207-0.141,0.438-0.245,0.697-0.317c0.189-0.05,0.475-0.098,0.858-0.146
						c0.78-0.092,1.354-0.203,1.724-0.332c0.004-0.133,0.006-0.217,0.006-0.254c0-0.394-0.092-0.67-0.272-0.832
						c-0.248-0.219-0.615-0.327-1.103-0.327c-0.455,0-0.791,0.079-1.008,0.239c-0.216,0.158-0.376,0.44-0.48,0.847l-0.944-0.13
						c0.086-0.404,0.229-0.73,0.425-0.979c0.196-0.249,0.48-0.44,0.854-0.575c0.373-0.134,0.804-0.201,1.295-0.201
						c0.486,0,0.883,0.059,1.188,0.172c0.305,0.115,0.528,0.26,0.672,0.434c0.143,0.174,0.243,0.393,0.301,0.658
						c0.031,0.164,0.049,0.461,0.049,0.891v1.289c0,0.899,0.02,1.469,0.061,1.706c0.043,0.238,0.123,0.466,0.245,0.685h-1.01
						C375.08,281.262,375.015,281.027,374.987,280.758z M374.906,278.599c-0.351,0.144-0.877,0.267-1.578,0.364
						c-0.397,0.059-0.68,0.123-0.844,0.193c-0.164,0.072-0.292,0.178-0.381,0.314c-0.09,0.138-0.135,0.291-0.135,0.459
						c0,0.258,0.098,0.473,0.293,0.645s0.48,0.258,0.855,0.258c0.372,0,0.704-0.08,0.993-0.244c0.291-0.162,0.504-0.385,0.64-0.668
						c0.104-0.219,0.155-0.541,0.155-0.967L374.906,278.599L374.906,278.599z"/>
					<path d="M377.361,281.461v-7.873h0.967v7.873H377.361z"/>
					<path d="M383.113,281.461v-4.951h-0.854v-0.752h0.854v-0.606c0-0.384,0.035-0.668,0.104-0.854
						c0.093-0.25,0.257-0.453,0.49-0.608c0.234-0.155,0.563-0.233,0.986-0.233c0.271,0,0.572,0.031,0.902,0.096l-0.146,0.845
						c-0.199-0.036-0.39-0.054-0.568-0.054c-0.293,0-0.502,0.063-0.623,0.188s-0.184,0.359-0.184,0.703v0.525h1.112v0.753h-1.112
						v4.952h-0.961V281.461z"/>
					<path d="M385.917,281.461v-7.873h0.967v7.873H385.917z"/>
					<path d="M392.121,281.461v-0.838c-0.442,0.646-1.047,0.967-1.811,0.967c-0.336,0-0.65-0.063-0.941-0.192
						c-0.293-0.129-0.51-0.291-0.65-0.485c-0.141-0.195-0.24-0.435-0.299-0.718c-0.039-0.188-0.059-0.489-0.059-0.901v-3.535h0.967
						v3.164c0,0.506,0.021,0.846,0.06,1.021c0.062,0.254,0.19,0.453,0.387,0.599c0.197,0.146,0.44,0.219,0.729,0.219
						c0.291,0,0.563-0.075,0.816-0.225c0.256-0.147,0.436-0.351,0.541-0.605c0.105-0.256,0.158-0.629,0.158-1.115v-3.057h0.967
						v5.705h-0.865V281.461z"/>
					<path d="M394.505,274.702v-1.113h0.967v1.113H394.505z M394.505,281.461v-5.703h0.967v5.703H394.505z"/>
					<path d="M400.644,281.461v-0.719c-0.361,0.564-0.893,0.848-1.596,0.848c-0.453,0-0.871-0.125-1.254-0.375
						c-0.381-0.252-0.676-0.602-0.885-1.051c-0.211-0.449-0.314-0.965-0.314-1.549c0-0.57,0.094-1.087,0.283-1.551
						c0.191-0.464,0.475-0.818,0.855-1.066c0.379-0.246,0.803-0.369,1.271-0.369c0.344,0,0.648,0.072,0.918,0.218
						s0.486,0.334,0.654,0.565v-2.824h0.963v7.873H400.644z M397.587,278.616c0,0.73,0.154,1.276,0.463,1.639
						c0.309,0.361,0.672,0.543,1.09,0.543c0.422,0,0.781-0.174,1.078-0.52c0.295-0.346,0.441-0.872,0.441-1.581
						c0-0.78-0.15-1.354-0.451-1.719c-0.301-0.365-0.67-0.549-1.111-0.549c-0.43,0-0.789,0.176-1.076,0.526
						C397.732,277.307,397.587,277.86,397.587,278.616z"/>
				</g>
			</g>
		</g>
	</g>
</g>
<g>
	<g>
		<g>
			<g>
				<g enable-background="new    ">
					<path d="M367.183,257.667v-7.873h2.97c0.522,0,0.923,0.024,1.198,0.074c0.387,0.064,0.711,0.188,0.973,0.368
						c0.26,0.181,0.471,0.435,0.631,0.761c0.158,0.325,0.238,0.684,0.238,1.073c0,0.671-0.213,1.236-0.639,1.7
						c-0.428,0.464-1.196,0.695-2.311,0.695h-2.021v3.201H367.183L367.183,257.667z M368.224,253.536h2.035
						c0.674,0,1.152-0.125,1.436-0.375c0.282-0.25,0.424-0.604,0.424-1.059c0-0.329-0.084-0.611-0.25-0.846
						c-0.166-0.235-0.386-0.391-0.658-0.465c-0.174-0.047-0.498-0.07-0.971-0.07h-2.016V253.536L368.224,253.536z"/>
					<path d="M374.402,250.905v-1.111h0.967v1.111H374.402z M374.402,257.667v-5.703h0.967v5.703H374.402z"/>
					<path d="M376.839,259.852v-7.891h0.881v0.742c0.208-0.291,0.443-0.509,0.703-0.652c0.262-0.146,0.578-0.219,0.951-0.219
						c0.486,0,0.916,0.125,1.289,0.377c0.373,0.25,0.653,0.604,0.844,1.061c0.188,0.457,0.285,0.957,0.285,1.502
						c0,0.583-0.105,1.107-0.314,1.576c-0.209,0.467-0.514,0.824-0.914,1.074c-0.398,0.248-0.818,0.373-1.259,0.373
						c-0.322,0-0.611-0.068-0.868-0.205c-0.256-0.135-0.466-0.307-0.631-0.516v2.776L376.839,259.852L376.839,259.852z
						 M377.714,254.846c0,0.734,0.148,1.277,0.447,1.628c0.297,0.351,0.655,0.526,1.078,0.526c0.43,0,0.799-0.183,1.104-0.545
						c0.305-0.363,0.459-0.928,0.459-1.689c0-0.727-0.15-1.271-0.449-1.633c-0.299-0.362-0.655-0.543-1.071-0.543
						c-0.41,0-0.775,0.193-1.093,0.578S377.714,254.113,377.714,254.846z"/>
					<path d="M386.863,255.831l0.998,0.123c-0.156,0.584-0.449,1.037-0.875,1.358s-0.971,0.483-1.633,0.483
						c-0.834,0-1.496-0.258-1.984-0.771s-0.732-1.234-0.732-2.162c0-0.96,0.246-1.703,0.74-2.234
						c0.494-0.529,1.136-0.795,1.924-0.795c0.763,0,1.386,0.26,1.869,0.778c0.482,0.521,0.726,1.25,0.726,2.19
						c0,0.059-0.002,0.145-0.006,0.259h-4.255c0.035,0.627,0.214,1.106,0.531,1.438c0.319,0.334,0.717,0.5,1.193,0.5
						c0.354,0,0.656-0.092,0.907-0.278S386.714,256.238,386.863,255.831z M383.688,254.266h3.185
						c-0.043-0.479-0.164-0.84-0.365-1.079c-0.307-0.372-0.707-0.56-1.196-0.56c-0.442,0-0.817,0.148-1.119,0.447
						C383.888,253.372,383.72,253.769,383.688,254.266z"/>
					<path d="M393.184,257.667l-1.745-5.703h0.998l0.908,3.291l0.338,1.226c0.016-0.062,0.113-0.452,0.296-1.176l0.907-3.341h0.994
						l0.854,3.309l0.285,1.091l0.328-1.103l0.977-3.297h0.939l-1.783,5.703h-1.004l-0.907-3.416l-0.22-0.973l-1.155,4.389H393.184z"
						/>
					<path d="M403.796,256.963c-0.357,0.304-0.701,0.519-1.033,0.645c-0.332,0.125-0.688,0.188-1.066,0.188
						c-0.625,0-1.107-0.152-1.443-0.459c-0.338-0.307-0.506-0.696-0.506-1.174c0-0.279,0.063-0.533,0.191-0.766
						c0.127-0.23,0.293-0.416,0.498-0.557c0.207-0.139,0.438-0.244,0.695-0.316c0.191-0.05,0.477-0.098,0.859-0.145
						c0.779-0.094,1.355-0.205,1.725-0.334c0.004-0.133,0.006-0.217,0.006-0.252c0-0.395-0.092-0.672-0.273-0.832
						c-0.248-0.219-0.615-0.328-1.102-0.328c-0.455,0-0.791,0.08-1.008,0.238c-0.217,0.159-0.377,0.441-0.48,0.848l-0.945-0.129
						c0.086-0.405,0.229-0.731,0.426-0.98c0.195-0.249,0.48-0.439,0.854-0.574s0.803-0.201,1.295-0.201
						c0.486,0,0.883,0.058,1.186,0.172c0.305,0.113,0.529,0.259,0.672,0.433c0.145,0.174,0.244,0.394,0.301,0.658
						c0.033,0.163,0.051,0.461,0.051,0.891v1.289c0,0.899,0.02,1.468,0.061,1.706s0.123,0.467,0.244,0.686h-1.01
						C403.89,257.465,403.826,257.231,403.796,256.963z M403.716,254.803c-0.352,0.144-0.877,0.266-1.578,0.365
						c-0.398,0.058-0.68,0.121-0.844,0.192c-0.164,0.072-0.293,0.177-0.381,0.313c-0.09,0.139-0.135,0.291-0.135,0.459
						c0,0.259,0.098,0.474,0.293,0.646c0.193,0.173,0.479,0.259,0.855,0.259c0.371,0,0.703-0.082,0.992-0.244
						c0.291-0.164,0.504-0.387,0.641-0.668c0.104-0.219,0.154-0.541,0.154-0.967v-0.355H403.716z"/>
					<path d="M406.171,257.667v-7.873h0.967v7.873H406.171z"/>
					<path d="M408.615,257.667v-7.873h0.967v7.873H408.615z"/>
				</g>
			</g>
		</g>
	</g>
</g>
<g>
	<g>
		<g>
			<g>
				<g>
					<g enable-background="new    ">
						<path d="M362.519,155v-6.945h-2.594v-0.929h6.24v0.929h-2.604V155H362.519z"/>
					</g>
				</g>
			</g>
		</g>
	</g>
	<g>
		<g>
			<g>
				<g>
					<g enable-background="new    ">
						<path d="M368.001,158l-1.586-5.186h0.908l0.824,2.993l0.309,1.113c0.014-0.056,0.103-0.412,0.269-1.069l0.825-3.037h0.902
							l0.776,3.008l0.259,0.991l0.299-1.001l0.889-2.998h0.854L371.91,158h-0.914l-0.824-3.105l-0.2-0.884L368.919,158H368.001z"/>
					</g>
				</g>
			</g>
		</g>
	</g>
</g>
<g>
	<g>
		<g>
			<g>
				<g enable-background="new    ">
					<path d="M265.693,44v-7.874h1.042V44H265.693z"/>
					<path d="M268.449,44v-5.704h0.869v0.812c0.42-0.627,1.023-0.94,1.816-0.94c0.344,0,0.658,0.062,0.947,0.186
						c0.289,0.123,0.504,0.285,0.646,0.485c0.145,0.201,0.243,0.439,0.301,0.715c0.036,0.179,0.055,0.492,0.055,0.939V44h-0.967
						v-3.47c0-0.395-0.037-0.688-0.113-0.884c-0.074-0.195-0.209-0.351-0.4-0.467c-0.191-0.116-0.416-0.175-0.674-0.175
						c-0.411,0-0.768,0.131-1.066,0.392c-0.299,0.262-0.447,0.758-0.447,1.488V44H268.449z"/>
					<path d="M274.179,42.297l0.955-0.15c0.055,0.384,0.203,0.678,0.449,0.881c0.246,0.205,0.588,0.307,1.028,0.307
						c0.443,0,0.772-0.091,0.988-0.271c0.215-0.18,0.321-0.393,0.321-0.637c0-0.218-0.096-0.39-0.285-0.516
						c-0.133-0.086-0.461-0.194-0.987-0.327c-0.709-0.179-1.201-0.334-1.476-0.465c-0.273-0.131-0.48-0.312-0.623-0.542
						c-0.141-0.231-0.211-0.486-0.211-0.766c0-0.254,0.058-0.489,0.175-0.706c0.116-0.217,0.274-0.396,0.475-0.54
						c0.15-0.111,0.354-0.205,0.615-0.282c0.26-0.077,0.538-0.115,0.836-0.115c0.446,0,0.84,0.064,1.179,0.193
						c0.34,0.129,0.588,0.304,0.75,0.523c0.16,0.221,0.271,0.515,0.332,0.884l-0.945,0.129c-0.043-0.294-0.166-0.522-0.373-0.688
						c-0.205-0.165-0.496-0.247-0.873-0.247c-0.443,0-0.76,0.073-0.949,0.22s-0.285,0.319-0.285,0.516
						c0,0.126,0.039,0.238,0.118,0.339c0.079,0.104,0.202,0.189,0.37,0.258c0.098,0.036,0.382,0.118,0.854,0.247
						c0.686,0.183,1.161,0.332,1.432,0.448c0.271,0.116,0.482,0.286,0.637,0.508c0.154,0.222,0.23,0.498,0.23,0.827
						c0,0.322-0.095,0.626-0.281,0.91c-0.188,0.285-0.459,0.505-0.813,0.661c-0.354,0.155-0.755,0.233-1.202,0.233
						c-0.742,0-1.307-0.154-1.695-0.462C274.537,43.359,274.287,42.903,274.179,42.297z"/>
					<path d="M283.804,44v-0.838c-0.443,0.645-1.047,0.967-1.811,0.967c-0.336,0-0.65-0.064-0.941-0.193
						c-0.293-0.129-0.51-0.291-0.65-0.486c-0.143-0.195-0.24-0.434-0.299-0.717c-0.039-0.189-0.059-0.49-0.059-0.902v-3.534h0.967
						v3.163c0,0.506,0.02,0.846,0.059,1.021c0.063,0.254,0.189,0.453,0.387,0.599c0.197,0.145,0.441,0.218,0.73,0.218
						c0.291,0,0.563-0.075,0.816-0.224c0.254-0.148,0.435-0.351,0.541-0.606c0.104-0.256,0.158-0.628,0.158-1.115v-3.056h0.967V44
						H283.804z"/>
					<path d="M286.162,44v-7.874h0.967V44H286.162z"/>
					<path d="M292.349,43.297c-0.357,0.304-0.702,0.519-1.033,0.645c-0.332,0.125-0.688,0.188-1.066,0.188
						c-0.627,0-1.107-0.153-1.444-0.459c-0.337-0.307-0.505-0.697-0.505-1.174c0-0.279,0.063-0.534,0.189-0.766
						c0.129-0.23,0.295-0.416,0.5-0.556c0.206-0.14,0.438-0.245,0.695-0.317c0.189-0.05,0.477-0.098,0.859-0.145
						c0.781-0.093,1.354-0.204,1.725-0.333c0.004-0.133,0.006-0.217,0.006-0.253c0-0.394-0.092-0.671-0.273-0.832
						c-0.248-0.219-0.614-0.328-1.102-0.328c-0.455,0-0.791,0.08-1.008,0.239s-0.377,0.441-0.48,0.847l-0.945-0.129
						c0.087-0.405,0.229-0.731,0.425-0.98s0.481-0.44,0.854-0.575c0.371-0.134,0.803-0.201,1.293-0.201
						c0.487,0,0.883,0.058,1.188,0.172c0.306,0.114,0.528,0.259,0.672,0.433c0.144,0.174,0.243,0.393,0.302,0.658
						c0.03,0.164,0.047,0.461,0.047,0.891v1.289c0,0.899,0.021,1.468,0.063,1.706c0.041,0.238,0.123,0.466,0.244,0.685h-1.01
						C292.443,43.8,292.378,43.565,292.349,43.297z M292.269,41.137c-0.352,0.144-0.877,0.266-1.579,0.365
						c-0.397,0.058-0.679,0.122-0.843,0.193c-0.165,0.072-0.293,0.177-0.383,0.314c-0.088,0.137-0.133,0.291-0.133,0.459
						c0,0.258,0.098,0.473,0.293,0.645c0.193,0.172,0.479,0.258,0.854,0.258c0.373,0,0.704-0.081,0.994-0.244
						s0.503-0.386,0.639-0.668c0.104-0.219,0.156-0.541,0.156-0.967L292.269,41.137L292.269,41.137z"/>
					<path d="M296.856,43.135l0.14,0.854c-0.271,0.058-0.516,0.086-0.729,0.086c-0.353,0-0.623-0.056-0.815-0.167
						c-0.193-0.11-0.33-0.257-0.408-0.438c-0.078-0.181-0.119-0.561-0.119-1.141v-3.282h-0.709v-0.752h0.709v-1.413l0.963-0.58
						v1.993h0.972v0.752h-0.972v3.335c0,0.276,0.017,0.453,0.051,0.532c0.033,0.079,0.09,0.142,0.166,0.188
						c0.077,0.046,0.188,0.069,0.33,0.069C296.539,43.173,296.681,43.161,296.856,43.135z"/>
					<path d="M297.806,37.239v-1.112h0.967v1.112H297.806z M297.806,44v-5.704h0.967V44H297.806z"/>
					<path d="M299.884,41.149c0-1.057,0.295-1.839,0.882-2.348c0.491-0.423,1.089-0.634,1.794-0.634
						c0.784,0,1.426,0.257,1.923,0.771s0.747,1.224,0.747,2.13c0,0.734-0.111,1.312-0.33,1.732
						c-0.221,0.421-0.541,0.747-0.963,0.979c-0.42,0.233-0.879,0.35-1.377,0.35c-0.799,0-1.443-0.256-1.936-0.768
						C300.13,42.849,299.884,42.112,299.884,41.149z M300.878,41.149c0,0.73,0.16,1.277,0.479,1.641
						c0.318,0.364,0.721,0.545,1.203,0.545c0.48,0,0.879-0.183,1.197-0.548c0.318-0.365,0.479-0.922,0.479-1.671
						c0-0.705-0.16-1.239-0.48-1.603c-0.319-0.364-0.719-0.546-1.194-0.546c-0.483,0-0.886,0.182-1.203,0.543
						C301.041,39.871,300.878,40.418,300.878,41.149z"/>
					<path d="M306.363,44v-5.704h0.87v0.812c0.419-0.627,1.024-0.94,1.815-0.94c0.344,0,0.66,0.062,0.947,0.186
						c0.289,0.123,0.504,0.285,0.647,0.485c0.144,0.201,0.243,0.439,0.301,0.715c0.035,0.179,0.054,0.492,0.054,0.939V44h-0.968
						v-3.47c0-0.395-0.036-0.688-0.112-0.884c-0.074-0.196-0.207-0.351-0.398-0.467c-0.191-0.116-0.417-0.175-0.675-0.175
						c-0.411,0-0.767,0.131-1.065,0.392c-0.3,0.262-0.449,0.758-0.449,1.488V44H306.363z"/>
				</g>
			</g>
		</g>
	</g>
</g>
<g>
	<g>
		<g>
			<g>
				<g>
					<g enable-background="new    ">
						<path d="M0.865,48.333v-7.874h3.491c0.702,0,1.235,0.07,1.601,0.212s0.657,0.392,0.875,0.75
							c0.218,0.357,0.328,0.753,0.328,1.187c0,0.559-0.181,1.029-0.542,1.413c-0.362,0.383-0.92,0.626-1.676,0.73
							c0.276,0.132,0.485,0.263,0.628,0.392c0.304,0.279,0.593,0.628,0.865,1.048l1.37,2.143H6.494l-1.042-1.639
							C5.147,46.221,4.896,45.86,4.7,45.61c-0.197-0.251-0.374-0.427-0.529-0.527c-0.156-0.1-0.314-0.17-0.476-0.209
							c-0.118-0.025-0.312-0.037-0.58-0.037H1.907v3.496H0.865z M1.907,43.934h2.24c0.476,0,0.849-0.05,1.117-0.148
							c0.268-0.098,0.473-0.256,0.612-0.473c0.139-0.217,0.209-0.452,0.209-0.706c0-0.372-0.135-0.679-0.406-0.919
							c-0.27-0.239-0.697-0.359-1.281-0.359H1.907V43.934z"/>
						<path d="M12.391,47.629c-0.358,0.304-0.703,0.519-1.034,0.645c-0.332,0.125-0.687,0.188-1.066,0.188
							c-0.626,0-1.108-0.153-1.445-0.459c-0.336-0.307-0.505-0.697-0.505-1.174c0-0.279,0.063-0.534,0.191-0.766
							c0.127-0.23,0.293-0.416,0.499-0.556c0.206-0.14,0.438-0.245,0.696-0.317c0.19-0.05,0.476-0.098,0.859-0.145
							c0.781-0.093,1.355-0.204,1.724-0.333c0.003-0.133,0.005-0.217,0.005-0.253c0-0.394-0.091-0.671-0.274-0.832
							c-0.247-0.219-0.614-0.328-1.101-0.328c-0.455,0-0.791,0.08-1.007,0.239c-0.216,0.159-0.376,0.441-0.48,0.847l-0.945-0.129
							c0.086-0.405,0.228-0.731,0.424-0.98c0.196-0.249,0.481-0.44,0.854-0.575c0.373-0.134,0.804-0.201,1.294-0.201
							c0.487,0,0.883,0.058,1.187,0.172c0.304,0.114,0.528,0.259,0.671,0.433s0.244,0.393,0.301,0.658
							c0.032,0.164,0.048,0.461,0.048,0.891v1.289c0,0.899,0.021,1.468,0.062,1.706c0.042,0.238,0.123,0.466,0.245,0.685h-1.01
							C12.484,48.132,12.42,47.897,12.391,47.629z M12.311,45.469c-0.351,0.144-0.877,0.266-1.579,0.365
							c-0.397,0.058-0.679,0.122-0.843,0.193c-0.165,0.072-0.292,0.177-0.381,0.314c-0.089,0.137-0.134,0.291-0.134,0.459
							c0,0.258,0.098,0.473,0.292,0.645c0.195,0.172,0.481,0.258,0.857,0.258c0.373,0,0.704-0.081,0.994-0.244
							s0.503-0.386,0.639-0.668c0.104-0.219,0.156-0.541,0.156-0.967L12.311,45.469L12.311,45.469z"/>
						<path d="M18.487,48.333v-0.72c-0.362,0.565-0.894,0.849-1.595,0.849c-0.455,0-0.873-0.125-1.254-0.376
							c-0.381-0.251-0.677-0.601-0.886-1.05c-0.21-0.449-0.314-0.966-0.314-1.55c0-0.569,0.095-1.086,0.285-1.55
							s0.475-0.818,0.854-1.066c0.379-0.246,0.804-0.37,1.273-0.37c0.344,0,0.65,0.072,0.918,0.218
							c0.269,0.145,0.487,0.334,0.655,0.566v-2.825h0.961v7.874H18.487z M15.431,45.486c0,0.73,0.154,1.276,0.462,1.638
							s0.671,0.543,1.09,0.543c0.422,0,0.781-0.173,1.077-0.519c0.295-0.346,0.443-0.872,0.443-1.581
							c0-0.781-0.15-1.354-0.451-1.719c-0.301-0.365-0.671-0.549-1.112-0.549c-0.43,0-0.789,0.176-1.077,0.527
							C15.575,44.177,15.431,44.73,15.431,45.486z"/>
						<path d="M20.91,41.571v-1.112h0.967v1.112H20.91z M20.91,48.333v-5.704h0.967v5.704H20.91z"/>
						<path d="M27.07,47.629c-0.358,0.304-0.703,0.519-1.034,0.645c-0.331,0.125-0.687,0.188-1.066,0.188
							c-0.626,0-1.108-0.153-1.445-0.459c-0.336-0.307-0.505-0.697-0.505-1.174c0-0.279,0.063-0.534,0.19-0.766
							c0.127-0.23,0.294-0.416,0.5-0.556c0.206-0.14,0.438-0.245,0.695-0.317c0.19-0.05,0.476-0.098,0.859-0.145
							c0.781-0.093,1.355-0.204,1.724-0.333c0.003-0.133,0.005-0.217,0.005-0.253c0-0.394-0.091-0.671-0.274-0.832
							c-0.247-0.219-0.614-0.328-1.101-0.328c-0.455,0-0.791,0.08-1.007,0.239c-0.217,0.159-0.377,0.441-0.481,0.847l-0.945-0.129
							c0.086-0.405,0.228-0.731,0.424-0.98c0.196-0.249,0.481-0.44,0.854-0.575c0.373-0.134,0.804-0.201,1.294-0.201
							c0.487,0,0.883,0.058,1.187,0.172c0.304,0.114,0.528,0.259,0.671,0.433c0.143,0.174,0.244,0.393,0.301,0.658
							c0.032,0.164,0.048,0.461,0.048,0.891v1.289c0,0.899,0.021,1.468,0.062,1.706c0.041,0.238,0.123,0.466,0.244,0.685h-1.01
							C27.164,48.132,27.099,47.897,27.07,47.629z M26.99,45.469c-0.351,0.144-0.877,0.266-1.579,0.365
							c-0.397,0.058-0.679,0.122-0.843,0.193c-0.165,0.072-0.292,0.177-0.381,0.314c-0.089,0.137-0.134,0.291-0.134,0.459
							c0,0.258,0.098,0.473,0.293,0.645c0.195,0.172,0.48,0.258,0.856,0.258c0.373,0,0.704-0.081,0.994-0.244
							c0.29-0.163,0.503-0.386,0.639-0.668c0.104-0.219,0.156-0.541,0.156-0.967L26.99,45.469L26.99,45.469z"/>
						<path d="M29.444,48.333v-7.874h0.967v7.874H29.444z"/>
						<path d="M38.688,46.243l0.951,0.124c-0.104,0.655-0.37,1.168-0.798,1.539c-0.428,0.37-0.953,0.556-1.576,0.556
							c-0.781,0-1.408-0.255-1.883-0.766c-0.474-0.51-0.711-1.241-0.711-2.193c0-0.616,0.102-1.155,0.306-1.617
							c0.204-0.462,0.515-0.809,0.932-1.039c0.417-0.231,0.871-0.347,1.362-0.347c0.62,0,1.126,0.156,1.52,0.47
							c0.394,0.314,0.646,0.759,0.757,1.335l-0.94,0.146c-0.089-0.384-0.248-0.672-0.476-0.865c-0.227-0.193-0.502-0.29-0.824-0.29
							c-0.487,0-0.883,0.175-1.187,0.523c-0.304,0.35-0.457,0.901-0.457,1.657c0,0.767,0.147,1.323,0.44,1.67
							c0.293,0.348,0.677,0.521,1.149,0.521c0.379,0,0.696-0.116,0.951-0.35C38.459,47.084,38.62,46.727,38.688,46.243z"/>
						<path d="M44.371,46.496l0.999,0.124c-0.158,0.583-0.449,1.036-0.875,1.358c-0.426,0.322-0.97,0.483-1.633,0.483
							c-0.834,0-1.496-0.257-1.984-0.771c-0.489-0.514-0.733-1.234-0.733-2.162c0-0.96,0.247-1.704,0.741-2.234
							c0.494-0.53,1.134-0.794,1.922-0.794c0.763,0,1.386,0.26,1.869,0.778c0.483,0.52,0.725,1.25,0.725,2.191
							c0,0.058-0.002,0.144-0.005,0.258h-4.254c0.036,0.627,0.213,1.107,0.532,1.439c0.319,0.334,0.716,0.5,1.192,0.5
							c0.354,0,0.657-0.093,0.908-0.279S44.224,46.904,44.371,46.496z M41.196,44.932h3.185c-0.043-0.479-0.165-0.839-0.365-1.079
							c-0.308-0.372-0.707-0.559-1.198-0.559c-0.444,0-0.817,0.148-1.12,0.446C41.396,44.038,41.229,44.435,41.196,44.932z"/>
						<path d="M46.562,48.333v-7.874h0.967v7.874H46.562z"/>
						<path d="M49.006,48.333v-7.874h0.967v7.874H49.006z"/>
						<path d="M58.228,48.333v-0.72c-0.362,0.565-0.894,0.849-1.595,0.849c-0.455,0-0.873-0.125-1.254-0.376
							c-0.382-0.251-0.677-0.601-0.887-1.05c-0.209-0.449-0.314-0.966-0.314-1.55c0-0.569,0.095-1.086,0.285-1.55
							s0.475-0.818,0.854-1.066c0.379-0.246,0.804-0.37,1.273-0.37c0.344,0,0.65,0.072,0.918,0.218
							c0.269,0.145,0.487,0.334,0.655,0.566v-2.825h0.961v7.874H58.228z M55.172,45.486c0,0.73,0.154,1.276,0.462,1.638
							c0.308,0.362,0.671,0.543,1.09,0.543c0.422,0,0.782-0.173,1.077-0.519c0.296-0.346,0.443-0.872,0.443-1.581
							c0-0.781-0.15-1.354-0.451-1.719c-0.301-0.365-0.671-0.549-1.112-0.549c-0.43,0-0.789,0.176-1.077,0.527
							C55.316,44.177,55.172,44.73,55.172,45.486z"/>
						<path d="M60.65,41.571v-1.112h0.967v1.112H60.65z M60.65,48.333v-5.704h0.967v5.704H60.65z"/>
						<path d="M64.673,48.333l-2.17-5.704h1.021l1.225,3.416c0.132,0.369,0.254,0.752,0.365,1.149
							c0.086-0.301,0.206-0.662,0.36-1.085l1.268-3.48h0.994l-2.159,5.704H64.673z"/>
						<path d="M68.594,41.571v-1.112h0.967v1.112H68.594z M68.594,48.333v-5.704h0.967v5.704H68.594z"/>
						<path d="M70.646,46.629l0.956-0.15c0.054,0.384,0.203,0.678,0.449,0.881c0.245,0.205,0.588,0.307,1.028,0.307
							c0.444,0,0.773-0.091,0.988-0.271c0.215-0.18,0.322-0.393,0.322-0.637c0-0.218-0.095-0.39-0.285-0.516
							c-0.132-0.086-0.462-0.194-0.988-0.327c-0.709-0.179-1.201-0.334-1.474-0.465c-0.274-0.131-0.482-0.312-0.623-0.542
							c-0.142-0.231-0.212-0.486-0.212-0.766c0-0.254,0.058-0.489,0.174-0.706c0.117-0.217,0.275-0.396,0.476-0.54
							c0.15-0.111,0.355-0.205,0.615-0.282c0.259-0.077,0.538-0.115,0.835-0.115c0.448,0,0.841,0.064,1.179,0.193
							c0.339,0.129,0.588,0.304,0.75,0.523c0.161,0.221,0.272,0.515,0.333,0.884l-0.945,0.129c-0.043-0.294-0.167-0.522-0.374-0.688
							c-0.206-0.165-0.497-0.247-0.873-0.247c-0.444,0-0.761,0.073-0.951,0.22s-0.285,0.319-0.285,0.516
							c0,0.126,0.04,0.238,0.118,0.339c0.079,0.104,0.202,0.189,0.371,0.258c0.097,0.036,0.381,0.118,0.854,0.247
							c0.684,0.183,1.161,0.332,1.431,0.448c0.271,0.116,0.483,0.286,0.637,0.508c0.154,0.222,0.231,0.498,0.231,0.827
							c0,0.322-0.094,0.626-0.282,0.91c-0.188,0.285-0.459,0.505-0.814,0.661c-0.354,0.155-0.755,0.233-1.203,0.233
							c-0.741,0-1.306-0.154-1.695-0.462C71.001,47.692,70.753,47.235,70.646,46.629z"/>
						<path d="M76.538,41.571v-1.112h0.967v1.112H76.538z M76.538,48.333v-5.704h0.967v5.704H76.538z"/>
						<path d="M78.617,45.481c0-1.057,0.293-1.839,0.881-2.348c0.491-0.423,1.088-0.634,1.794-0.634
							c0.784,0,1.425,0.257,1.923,0.771s0.747,1.224,0.747,2.13c0,0.734-0.11,1.312-0.33,1.732
							c-0.221,0.421-0.541,0.747-0.962,0.979c-0.42,0.233-0.88,0.35-1.377,0.35c-0.798,0-1.444-0.256-1.936-0.768
							C78.863,47.181,78.617,46.444,78.617,45.481z M79.61,45.481c0,0.73,0.159,1.277,0.478,1.641
							c0.319,0.364,0.72,0.545,1.203,0.545c0.48,0,0.879-0.183,1.198-0.548c0.319-0.365,0.478-0.922,0.478-1.671
							c0-0.705-0.16-1.239-0.481-1.604c-0.32-0.363-0.719-0.546-1.195-0.546c-0.483,0-0.884,0.182-1.203,0.543
							C79.769,44.203,79.61,44.75,79.61,45.481z"/>
						<path d="M85.094,48.333v-5.704h0.87v0.812c0.419-0.627,1.024-0.94,1.815-0.94c0.344,0,0.66,0.062,0.948,0.186
							c0.289,0.123,0.504,0.285,0.647,0.485c0.143,0.201,0.244,0.439,0.301,0.715c0.036,0.179,0.054,0.492,0.054,0.939v3.508h-0.967
							v-3.47c0-0.395-0.038-0.688-0.113-0.884c-0.075-0.196-0.208-0.351-0.4-0.467c-0.192-0.116-0.417-0.175-0.674-0.175
							c-0.412,0-0.767,0.131-1.066,0.392c-0.299,0.262-0.449,0.758-0.449,1.488v3.115H85.094z"/>
						<path d="M90.825,46.629l0.956-0.15c0.054,0.384,0.203,0.678,0.448,0.881c0.246,0.205,0.588,0.307,1.029,0.307
							c0.444,0,0.773-0.091,0.988-0.271s0.322-0.393,0.322-0.637c0-0.218-0.095-0.39-0.285-0.516
							c-0.132-0.086-0.462-0.194-0.988-0.327c-0.709-0.179-1.2-0.334-1.475-0.465c-0.273-0.131-0.481-0.312-0.623-0.542
							c-0.141-0.231-0.212-0.486-0.212-0.766c0-0.254,0.058-0.489,0.175-0.706c0.116-0.217,0.274-0.396,0.475-0.54
							c0.15-0.111,0.355-0.205,0.615-0.282c0.26-0.077,0.538-0.115,0.835-0.115c0.448,0,0.84,0.064,1.179,0.193
							c0.338,0.129,0.588,0.304,0.749,0.523c0.161,0.221,0.272,0.515,0.333,0.884l-0.945,0.129
							c-0.043-0.294-0.167-0.522-0.373-0.688c-0.206-0.165-0.497-0.247-0.873-0.247c-0.444,0-0.761,0.073-0.951,0.22
							s-0.285,0.319-0.285,0.516c0,0.126,0.04,0.238,0.118,0.339c0.079,0.104,0.202,0.189,0.371,0.258
							c0.097,0.036,0.381,0.118,0.854,0.247c0.684,0.183,1.161,0.332,1.432,0.448c0.27,0.116,0.482,0.286,0.636,0.508
							c0.154,0.222,0.231,0.498,0.231,0.827c0,0.322-0.094,0.626-0.282,0.91c-0.188,0.285-0.459,0.505-0.813,0.661
							c-0.354,0.155-0.755,0.233-1.203,0.233c-0.741,0-1.306-0.154-1.694-0.462C91.181,47.692,90.933,47.235,90.825,46.629z"/>
					</g>
				</g>
			</g>
		</g>
	</g>
	<g>
		<g>
			<g>
				<g>
					<g enable-background="new    ">
						<path d="M2.573,63.647c-0.534-0.673-0.985-1.461-1.354-2.363c-0.369-0.902-0.553-1.836-0.553-2.803
							c0-0.853,0.138-1.669,0.414-2.449c0.322-0.906,0.82-1.809,1.493-2.707h0.693c-0.433,0.744-0.72,1.276-0.859,1.595
							c-0.218,0.494-0.39,1.01-0.516,1.547c-0.154,0.67-0.231,1.343-0.231,2.02c0,1.723,0.535,3.442,1.606,5.161L2.573,63.647
							L2.573,63.647z"/>
						<path d="M4.501,61.333v-7.874H5.57l4.136,6.183v-6.183h0.999v7.874H9.636L5.5,55.145v6.188H4.501z"/>
					</g>
				</g>
			</g>
		</g>
	</g>
	<g>
		<g>
			<g>
				<g>
					<g enable-background="new    ">
						<path d="M14.2,64.333V58.02h-2.358v-0.845h5.674v0.845h-2.368v6.313H14.2z"/>
					</g>
				</g>
			</g>
		</g>
	</g>
	<g>
		<g>
			<g>
				<g>
					<g enable-background="new    ">
						<path d="M26.583,56.703h-5.199V55.8h5.199V56.703z M26.583,59.092h-5.199V58.19h5.199V59.092z"/>
						<path d="M30.713,59.254l0.967-0.129c0.111,0.547,0.3,0.942,0.566,1.184c0.267,0.242,0.592,0.363,0.975,0.363
							c0.455,0,0.839-0.158,1.152-0.473c0.313-0.315,0.47-0.706,0.47-1.172c0-0.443-0.145-0.81-0.435-1.098
							c-0.29-0.288-0.659-0.433-1.106-0.433c-0.183,0-0.41,0.036-0.682,0.107l0.107-0.849c0.064,0.007,0.116,0.011,0.156,0.011
							c0.412,0,0.782-0.107,1.112-0.322c0.33-0.215,0.494-0.546,0.494-0.993c0-0.355-0.12-0.648-0.36-0.881
							c-0.24-0.233-0.55-0.35-0.929-0.35c-0.376,0-0.689,0.118-0.94,0.354c-0.251,0.236-0.412,0.591-0.483,1.063l-0.967-0.172
							c0.118-0.648,0.387-1.15,0.806-1.507c0.419-0.357,0.94-0.534,1.563-0.534c0.43,0,0.825,0.092,1.187,0.276
							c0.362,0.184,0.638,0.437,0.83,0.755c0.191,0.318,0.287,0.657,0.287,1.016c0,0.34-0.091,0.649-0.274,0.929
							c-0.183,0.28-0.453,0.501-0.811,0.666c0.465,0.107,0.827,0.33,1.085,0.669c0.258,0.338,0.387,0.762,0.387,1.27
							c0,0.688-0.25,1.271-0.752,1.749c-0.501,0.478-1.135,0.717-1.901,0.717c-0.691,0-1.265-0.206-1.722-0.618
							C31.039,60.443,30.778,59.909,30.713,59.254z"/>
						<path d="M39.764,59.629l0.956-0.15c0.054,0.384,0.203,0.678,0.449,0.881c0.245,0.205,0.588,0.307,1.028,0.307
							c0.444,0,0.773-0.091,0.988-0.271s0.322-0.393,0.322-0.637c0-0.218-0.095-0.39-0.285-0.516
							c-0.132-0.086-0.462-0.194-0.988-0.327c-0.709-0.179-1.201-0.334-1.474-0.465c-0.274-0.131-0.482-0.312-0.623-0.542
							c-0.142-0.231-0.212-0.486-0.212-0.766c0-0.254,0.058-0.489,0.174-0.706c0.117-0.217,0.275-0.396,0.476-0.54
							c0.15-0.111,0.355-0.205,0.615-0.282c0.259-0.077,0.538-0.115,0.835-0.115c0.448,0,0.841,0.064,1.179,0.193
							c0.339,0.129,0.588,0.304,0.75,0.523c0.161,0.221,0.272,0.515,0.333,0.884l-0.945,0.129c-0.043-0.294-0.167-0.522-0.374-0.688
							c-0.206-0.165-0.497-0.247-0.873-0.247c-0.444,0-0.761,0.073-0.951,0.22s-0.285,0.319-0.285,0.516
							c0,0.126,0.04,0.238,0.118,0.339c0.079,0.104,0.202,0.189,0.371,0.258c0.097,0.036,0.381,0.118,0.854,0.247
							c0.684,0.183,1.161,0.332,1.431,0.448c0.271,0.116,0.483,0.286,0.637,0.508c0.154,0.222,0.231,0.498,0.231,0.827
							c0,0.322-0.094,0.626-0.282,0.91c-0.188,0.285-0.459,0.505-0.814,0.661c-0.354,0.155-0.755,0.233-1.203,0.233
							c-0.741,0-1.306-0.154-1.695-0.462C40.119,60.692,39.871,60.235,39.764,59.629z"/>
						<path d="M45.65,61.333v-7.874h0.967v2.825c0.451-0.522,1.021-0.784,1.708-0.784c0.422,0,0.79,0.083,1.101,0.25
							c0.312,0.166,0.534,0.396,0.669,0.69c0.134,0.293,0.201,0.719,0.201,1.277v3.615H49.33v-3.615
							c0-0.482-0.104-0.835-0.314-1.055c-0.209-0.221-0.505-0.33-0.889-0.33c-0.287,0-0.556,0.074-0.809,0.223
							c-0.252,0.148-0.432,0.35-0.54,0.604c-0.107,0.255-0.161,0.605-0.161,1.053v3.121H45.65z"/>
						<path d="M51.408,58.481c0-1.057,0.293-1.839,0.881-2.348c0.491-0.423,1.088-0.634,1.794-0.634
							c0.784,0,1.425,0.257,1.923,0.771s0.747,1.224,0.747,2.13c0,0.734-0.11,1.312-0.33,1.732
							c-0.221,0.421-0.541,0.747-0.962,0.979c-0.42,0.233-0.88,0.35-1.377,0.35c-0.798,0-1.444-0.256-1.936-0.768
							C51.654,60.181,51.408,59.444,51.408,58.481z M52.402,58.481c0,0.73,0.159,1.277,0.478,1.641
							c0.319,0.364,0.72,0.545,1.203,0.545c0.48,0,0.879-0.183,1.198-0.548c0.319-0.365,0.478-0.922,0.478-1.671
							c0-0.705-0.16-1.239-0.481-1.604c-0.32-0.363-0.719-0.546-1.195-0.546c-0.483,0-0.884,0.182-1.203,0.543
							C52.561,57.203,52.402,57.75,52.402,58.481z"/>
						<path d="M58.938,61.333l-1.746-5.704h0.999L59.1,58.92l0.338,1.225c0.014-0.061,0.113-0.452,0.295-1.176l0.908-3.341h0.994
							l0.854,3.309l0.285,1.091l0.328-1.102l0.978-3.298h0.94l-1.783,5.704h-1.004l-0.908-3.416l-0.22-0.973l-1.155,4.389
							L58.938,61.333L58.938,61.333z"/>
						<path d="M65.83,61.333v-5.704h0.87v0.812c0.419-0.627,1.024-0.94,1.815-0.94c0.344,0,0.66,0.062,0.948,0.186
							c0.288,0.123,0.504,0.285,0.647,0.485c0.143,0.201,0.244,0.439,0.301,0.715c0.036,0.179,0.054,0.492,0.054,0.939v3.508h-0.967
							v-3.47c0-0.395-0.038-0.688-0.113-0.884c-0.075-0.196-0.208-0.351-0.4-0.467c-0.191-0.116-0.416-0.175-0.674-0.175
							c-0.412,0-0.767,0.131-1.066,0.392c-0.299,0.262-0.448,0.758-0.448,1.488v3.115H65.83z"/>
						<path d="M72.581,63.647h-0.693c1.071-1.719,1.606-3.438,1.606-5.161c0-0.673-0.077-1.341-0.231-2.003
							c-0.122-0.537-0.292-1.053-0.51-1.547c-0.14-0.322-0.428-0.859-0.865-1.611h0.693c0.673,0.898,1.171,1.801,1.493,2.707
							c0.276,0.78,0.414,1.597,0.414,2.449c0,0.967-0.186,1.9-0.556,2.803C73.561,62.186,73.111,62.974,72.581,63.647z"/>
					</g>
				</g>
			</g>
		</g>
	</g>
</g>
<line fill="none" stroke="#000000" x1="319.701" y1="246.299" x2="319.701" y2="381.299"/>
<line fill="none" stroke="#000000" x1="67.7" y1="246.299" x2="67.7" y2="381.299"/>
<g>
	<g>
		<polygon fill="#FFFFFF" points="77.2,361.2 69,363.401 77.2,365.5 		"/>
	</g>
	<g>
		<line fill="none" stroke="#000000" x1="75.7" y1="363.299" x2="172.7" y2="363.299"/>
		<polygon points="77.2,361.2 69,363.401 77.2,365.5 		"/>
	</g>
</g>
<g>
	<g>
		<polygon fill="#FFFFFF" points="310.201,365.5 318.3,363.299 310.201,361.1 		"/>
	</g>
	<g>
		<line fill="none" stroke="#000000" x1="311.701" y1="363.299" x2="214.7" y2="363.299"/>
		<polygon points="310.201,365.5 318.3,363.299 310.201,361.1 		"/>
	</g>
</g>
<g>
	<g>
		<g>
			<g>
				<g>
					<g enable-background="new    ">
						<path d="M186.516,364.333v-7.873h2.712c0.612,0,1.08,0.037,1.402,0.111c0.451,0.104,0.836,0.293,1.155,0.564
							c0.416,0.352,0.726,0.799,0.932,1.346s0.309,1.17,0.309,1.871c0,0.6-0.07,1.129-0.209,1.59
							c-0.14,0.463-0.319,0.846-0.537,1.146c-0.218,0.303-0.458,0.541-0.717,0.715c-0.259,0.174-0.573,0.307-0.939,0.395
							c-0.367,0.09-0.789,0.135-1.265,0.135H186.516z M187.558,363.405h1.681c0.519,0,0.926-0.049,1.222-0.146
							c0.295-0.096,0.531-0.23,0.706-0.408c0.247-0.246,0.439-0.578,0.577-0.994c0.138-0.418,0.207-0.924,0.207-1.52
							c0-0.822-0.135-1.455-0.405-1.896c-0.271-0.443-0.599-0.738-0.986-0.891c-0.279-0.105-0.729-0.162-1.348-0.162h-1.654V363.405
							z"/>
					</g>
				</g>
			</g>
		</g>
	</g>
	<g>
		<g>
			<g>
				<g>
					<g enable-background="new    ">
						<path d="M193.943,364.741c0-0.959,0.267-1.672,0.801-2.133c0.446-0.385,0.99-0.576,1.631-0.576
							c0.713,0,1.295,0.232,1.748,0.701c0.453,0.467,0.679,1.111,0.679,1.936c0,0.666-0.1,1.191-0.3,1.574s-0.492,0.68-0.874,0.891
							c-0.382,0.213-0.8,0.318-1.252,0.318c-0.726,0-1.313-0.232-1.76-0.699C194.169,366.288,193.943,365.618,193.943,364.741z
							 M194.846,364.741c0,0.664,0.145,1.162,0.435,1.492c0.29,0.33,0.654,0.494,1.094,0.494c0.436,0,0.799-0.164,1.089-0.496
							s0.435-0.84,0.435-1.52c0-0.643-0.146-1.127-0.437-1.459c-0.292-0.33-0.653-0.494-1.086-0.494
							c-0.439,0-0.804,0.164-1.094,0.492C194.992,363.581,194.846,364.077,194.846,364.741z"/>
					</g>
				</g>
			</g>
		</g>
	</g>
</g>
<g>
	<g>
		<polygon fill="#FFFFFF" points="293.4,176.1 300.8,172.2 292.4,171.8 		"/>
	</g>
	<g>
		<line fill="none" stroke="#000000" x1="270.701" y1="179" x2="294.3" y2="173.7"/>
		<polygon points="293.4,176.1 300.8,172.2 292.4,171.8 		"/>
	</g>
</g>
<g>
	<g>
		<polygon fill="#FFFFFF" points="263.201,102.3 266.1,94.3 259.6,99.8 		"/>
	</g>
	<g>
		<line fill="none" stroke="#000000" x1="248.201" y1="120" x2="262.3" y2="99.8"/>
		<polygon points="263.201,102.3 266.1,94.3 259.6,99.8 		"/>
	</g>
</g>
<g>
	<g>
		<g>
			<g>
				<g>
					<g enable-background="new    ">
						<path d="M307.52,62.667v-6.945h-2.595v-0.929h6.242v0.929h-2.605v6.945H307.52z"/>
					</g>
				</g>
			</g>
		</g>
	</g>
	<g>
		<g>
			<g>
				<g>
					<g enable-background="new    ">
						<path d="M312.05,59.519v-1.011h0.88v1.011H312.05z M312.05,65.667v-5.186h0.88v5.186H312.05z"/>
						<path d="M314.268,65.667v-5.186h0.791v0.737c0.381-0.569,0.931-0.854,1.649-0.854c0.313,0,0.601,0.057,0.862,0.168
							c0.263,0.113,0.457,0.26,0.589,0.442c0.131,0.182,0.221,0.398,0.272,0.649c0.032,0.163,0.049,0.447,0.049,0.854v3.188h-0.879
							v-3.154c0-0.358-0.034-0.626-0.103-0.803c-0.068-0.178-0.189-0.319-0.365-0.426c-0.174-0.105-0.377-0.158-0.611-0.158
							c-0.374,0-0.697,0.119-0.97,0.356c-0.271,0.237-0.407,0.688-0.407,1.353v2.832h-0.878V65.667z"/>
						<path d="M319.478,64.119l0.869-0.137c0.049,0.349,0.186,0.615,0.408,0.801c0.223,0.186,0.533,0.278,0.935,0.278
							c0.403,0,0.703-0.082,0.897-0.246c0.195-0.165,0.293-0.357,0.293-0.579c0-0.198-0.086-0.354-0.258-0.469
							c-0.121-0.078-0.42-0.178-0.898-0.298c-0.645-0.163-1.092-0.304-1.34-0.422c-0.25-0.119-0.438-0.283-0.566-0.494
							c-0.129-0.209-0.193-0.441-0.193-0.695c0-0.231,0.053-0.445,0.158-0.643c0.106-0.196,0.25-0.36,0.434-0.49
							c0.137-0.101,0.322-0.187,0.56-0.256c0.235-0.07,0.488-0.104,0.759-0.104c0.407,0,0.766,0.059,1.071,0.176
							c0.31,0.117,0.535,0.275,0.683,0.477c0.146,0.199,0.248,0.468,0.303,0.803l-0.859,0.117c-0.039-0.267-0.152-0.476-0.34-0.625
							s-0.451-0.225-0.793-0.225c-0.404,0-0.691,0.066-0.864,0.2c-0.173,0.134-0.259,0.29-0.259,0.469
							c0,0.114,0.035,0.217,0.107,0.308c0.071,0.095,0.184,0.173,0.336,0.234c0.088,0.032,0.348,0.107,0.776,0.225
							c0.621,0.166,1.056,0.302,1.302,0.408c0.246,0.105,0.438,0.259,0.578,0.461c0.141,0.202,0.211,0.452,0.211,0.752
							c0,0.293-0.086,0.568-0.257,0.828c-0.172,0.258-0.418,0.459-0.739,0.6c-0.322,0.143-0.688,0.213-1.095,0.213
							c-0.674,0-1.188-0.14-1.541-0.42C319.8,65.083,319.576,64.668,319.478,64.119z"/>
					</g>
				</g>
			</g>
		</g>
	</g>
</g>
<g>
	<g>
		<polygon fill="#FFFFFF" points="237.8,55.5 234.9,63.4 241.3,58.1 		"/>
	</g>
	<g>
		<polyline fill="none" stroke="#000000" points="261.701,41 250.701,41 238.7,58 		"/>
		<polygon points="237.8,55.5 234.9,63.4 241.3,58.1 		"/>
	</g>
</g>
<g>
	<g>
		<polygon fill="#FFFFFF" points="267.3,232.1 260.5,227.2 263.9,234.9 		"/>
	</g>
	<g>
		<polyline fill="none" stroke="#000000" points="339.701,277.299 300.701,277.299 264.701,232.299 		"/>
		<polygon points="267.3,232.1 260.5,227.2 263.9,234.9 		"/>
	</g>
</g>
<g>
	<g>
		<polygon fill="#FFFFFF" points="319.8,230.1 311.9,227.2 317.3,233.7 		"/>
	</g>
	<g>
		<polyline fill="none" stroke="#000000" points="364.3,252 347.3,252 317.3,231 		"/>
		<polygon points="319.8,230.1 311.9,227.2 317.3,233.7 		"/>
	</g>
</g>
<g>
	<line fill="none" stroke="#000000" x1="311.9" y1="142.5" x2="307.9" y2="135.6"/>
	<line fill="none" stroke="#000000" x1="316.3" y1="141.2" x2="311.3" y2="132.5"/>
	<line fill="none" stroke="#000000" x1="321" y1="140.2" x2="314.5" y2="129"/>
</g>
<g>
	<g>
		<polygon fill="#FFFFFF" points="323.8,165.5 316.3,169.3 324.701,169.8 		"/>
	</g>
	<g>
		<polyline fill="none" stroke="#000000" points="322.8,167.9 348.6,162.6 356.3,152 		"/>
		<polygon points="323.8,165.5 316.3,169.3 324.701,169.8 		"/>
	</g>
</g>
<g>
	<g>
		<polygon fill="#FFFFFF" points="280.3,71.3 277.5,79.2 283.9,73.8 		"/>
	</g>
	<g>
		<polyline fill="none" stroke="#000000" points="281.3,73.7 291.1,59.6 301.9,59.1 		"/>
		<polygon points="280.3,71.3 277.5,79.2 283.9,73.8 		"/>
	</g>
</g>
<g>
	<line fill="none" stroke="#000000" x1="253" y1="221.2" x2="255.9" y2="218.4"/>
	<line fill="none" stroke="#000000" x1="254.1" y1="225.799" x2="259.701" y2="220.2"/>
	<line fill="none" stroke="#000000" x1="255.1" y1="230.4" x2="264.3" y2="221.2"/>
</g>
<g>
	<line fill="none" stroke="#000000" x1="306" y1="227.4" x2="306.6" y2="224.7"/>
	<line fill="none" stroke="#000000" x1="308.3" y1="229.7" x2="309.5" y2="224.299"/>
	<line fill="none" stroke="#000000" x1="310.6" y1="231.9" x2="312.5" y2="223.299"/>
</g>
<path fill="none" stroke="#00AB4E" stroke-dasharray="11.664" d="M277.6,76.4"/>
<path fill="none" stroke="#00AB4E" stroke-dasharray="11.664" d="M108.4,312.6"/>
<g>
	<line fill="none" stroke="#000000" x1="233.7" y1="72.4" x2="229.8" y2="71.4"/>
	<line fill="none" stroke="#000000" x1="237.1" y1="69.2" x2="229.4" y2="67.2"/>
	<line fill="none" stroke="#000000" x1="240.6" y1="66" x2="228" y2="62.6"/>
</g>
<g>
	<g>
		<polygon fill="#FFFFFF" points="139.7,78.9 145.8,84.6 143.4,76.6 		"/>
	</g>
	<g>
		<polyline fill="none" stroke="#000000" points="105.7,45.3 121.7,45.3 142.3,79 		"/>
		<polygon points="139.7,78.9 145.8,84.6 143.4,76.6 		"/>
	</g>
</g>
<g>
	<g>
		<g>
			<g>
				<g>
					<g enable-background="new    ">
						<path d="M6.467,8.24l1.042,0.263C7.291,9.359,6.897,10.011,6.33,10.46c-0.568,0.449-1.262,0.675-2.082,0.675
							c-0.849,0-1.539-0.173-2.071-0.519c-0.531-0.345-0.935-0.846-1.213-1.5c-0.277-0.657-0.416-1.36-0.416-2.112
							c0-0.82,0.157-1.535,0.47-2.146c0.313-0.61,0.759-1.074,1.338-1.392C2.934,3.151,3.57,2.993,4.265,2.993
							c0.788,0,1.45,0.2,1.987,0.602c0.537,0.4,0.911,0.965,1.123,1.691L6.349,5.528c-0.183-0.573-0.448-0.99-0.795-1.252
							C5.207,4.014,4.77,3.883,4.243,3.883c-0.605,0-1.111,0.146-1.518,0.436c-0.406,0.29-0.692,0.68-0.856,1.168
							C1.705,5.976,1.622,6.48,1.622,6.999c0,0.67,0.098,1.255,0.293,1.754c0.195,0.5,0.499,0.873,0.91,1.12
							c0.411,0.247,0.857,0.37,1.337,0.37c0.583,0,1.078-0.168,1.482-0.504C6.05,9.402,6.324,8.902,6.467,8.24z"/>
						<path d="M8.674,4.239V3.126h0.967v1.112H8.674V4.239z M8.674,11V5.296h0.967V11H8.674z"/>
						<path d="M11.102,11V5.296h0.87V6.16c0.222-0.404,0.427-0.671,0.615-0.8c0.188-0.129,0.395-0.193,0.621-0.193
							c0.326,0,0.657,0.104,0.994,0.312l-0.333,0.896c-0.236-0.139-0.473-0.209-0.709-0.209c-0.211,0-0.401,0.063-0.569,0.19
							s-0.288,0.304-0.36,0.529c-0.107,0.344-0.161,0.72-0.161,1.128V11H11.102z"/>
						<path d="M18.498,8.911l0.951,0.124c-0.104,0.655-0.37,1.168-0.797,1.539c-0.428,0.37-0.954,0.556-1.577,0.556
							c-0.781,0-1.408-0.255-1.882-0.766c-0.475-0.51-0.712-1.241-0.712-2.193c0-0.616,0.102-1.155,0.306-1.617
							c0.204-0.462,0.515-0.809,0.932-1.039c0.417-0.231,0.871-0.347,1.361-0.347c0.62,0,1.126,0.156,1.52,0.47
							s0.646,0.759,0.757,1.335l-0.94,0.146c-0.089-0.384-0.248-0.672-0.475-0.865c-0.228-0.193-0.502-0.29-0.825-0.29
							c-0.487,0-0.883,0.175-1.187,0.523c-0.304,0.35-0.457,0.901-0.457,1.657c0,0.767,0.147,1.323,0.44,1.67
							c0.293,0.348,0.677,0.521,1.149,0.521c0.379,0,0.696-0.116,0.951-0.35C18.269,9.752,18.43,9.395,18.498,8.911z"/>
						<path d="M24.014,11v-0.838c-0.444,0.645-1.047,0.967-1.81,0.967c-0.336,0-0.651-0.064-0.942-0.193
							c-0.292-0.129-0.509-0.291-0.65-0.486c-0.141-0.195-0.241-0.434-0.298-0.717c-0.04-0.189-0.059-0.49-0.059-0.902V5.296h0.967
							v3.163c0,0.506,0.02,0.846,0.059,1.021c0.061,0.254,0.19,0.453,0.387,0.599c0.197,0.145,0.44,0.218,0.73,0.218
							s0.562-0.075,0.816-0.224c0.254-0.149,0.434-0.351,0.54-0.606c0.105-0.256,0.158-0.628,0.158-1.115V5.296h0.967V11H24.014z"/>
						<path d="M26.394,11V5.296h0.865v0.8c0.179-0.279,0.417-0.504,0.714-0.674c0.297-0.17,0.636-0.255,1.015-0.255
							c0.422,0,0.769,0.088,1.04,0.263c0.27,0.176,0.461,0.421,0.572,0.736c0.451-0.666,1.039-0.999,1.762-0.999
							c0.566,0,1.001,0.156,1.305,0.47s0.457,0.796,0.457,1.447V11h-0.961V7.407c0-0.387-0.031-0.665-0.094-0.835
							c-0.063-0.17-0.177-0.307-0.341-0.411c-0.165-0.104-0.358-0.155-0.58-0.155c-0.401,0-0.734,0.134-0.999,0.4
							c-0.265,0.266-0.397,0.693-0.397,1.28V11h-0.967V7.294c0-0.43-0.079-0.752-0.236-0.967c-0.157-0.215-0.416-0.322-0.773-0.322
							c-0.272,0-0.524,0.071-0.754,0.215c-0.231,0.145-0.398,0.354-0.502,0.628c-0.104,0.276-0.156,0.674-0.156,1.193V11H26.394z"/>
						<path d="M35.788,11V6.048h-0.854V5.296h0.854V4.69c0-0.384,0.034-0.668,0.102-0.854c0.093-0.251,0.257-0.454,0.491-0.609
							c0.235-0.156,0.563-0.233,0.986-0.233c0.272,0,0.573,0.031,0.902,0.096l-0.145,0.844c-0.201-0.036-0.39-0.054-0.569-0.054
							c-0.293,0-0.501,0.063-0.623,0.188s-0.183,0.359-0.183,0.703v0.526h1.112v0.752h-1.112V11H35.788z"/>
						<path d="M42.518,9.164l0.999,0.124c-0.158,0.583-0.449,1.036-0.875,1.358c-0.426,0.322-0.97,0.483-1.633,0.483
							c-0.834,0-1.496-0.257-1.985-0.771c-0.488-0.514-0.733-1.234-0.733-2.162c0-0.96,0.247-1.704,0.741-2.234
							c0.494-0.53,1.135-0.795,1.923-0.795c0.763,0,1.386,0.26,1.869,0.778c0.483,0.52,0.725,1.25,0.725,2.191
							c0,0.058-0.002,0.145-0.005,0.258H39.29c0.036,0.627,0.213,1.107,0.532,1.439c0.319,0.334,0.716,0.5,1.192,0.5
							c0.354,0,0.657-0.093,0.908-0.279S42.371,9.572,42.518,9.164z M39.343,7.6h3.185c-0.043-0.479-0.165-0.839-0.365-1.079
							c-0.308-0.372-0.707-0.559-1.198-0.559c-0.444,0-0.817,0.148-1.12,0.446C39.543,6.706,39.375,7.103,39.343,7.6z"/>
						<path d="M44.72,11V5.296h0.87V6.16c0.222-0.404,0.427-0.671,0.615-0.8c0.188-0.129,0.395-0.193,0.62-0.193
							c0.326,0,0.657,0.104,0.994,0.312l-0.333,0.896c-0.236-0.139-0.473-0.209-0.709-0.209c-0.211,0-0.401,0.063-0.569,0.19
							s-0.288,0.304-0.36,0.529c-0.107,0.344-0.161,0.72-0.161,1.128V11H44.72z"/>
						<path d="M52.298,9.164l0.999,0.124c-0.158,0.583-0.449,1.036-0.875,1.358c-0.426,0.322-0.97,0.483-1.633,0.483
							c-0.834,0-1.496-0.257-1.984-0.771c-0.489-0.514-0.733-1.234-0.733-2.162c0-0.96,0.247-1.704,0.741-2.234
							c0.494-0.53,1.135-0.795,1.923-0.795c0.763,0,1.386,0.26,1.869,0.778c0.483,0.52,0.725,1.25,0.725,2.191
							c0,0.058-0.002,0.145-0.005,0.258H49.07c0.036,0.627,0.213,1.107,0.532,1.439c0.319,0.334,0.716,0.5,1.192,0.5
							c0.354,0,0.657-0.093,0.908-0.279S52.151,9.572,52.298,9.164z M49.124,7.6h3.185c-0.043-0.479-0.165-0.839-0.365-1.079
							c-0.308-0.372-0.707-0.559-1.198-0.559c-0.444,0-0.817,0.148-1.12,0.446C49.324,6.706,49.156,7.103,49.124,7.6z"/>
						<path d="M54.511,11V5.296h0.87v0.812c0.419-0.627,1.024-0.94,1.815-0.94c0.344,0,0.66,0.062,0.948,0.186
							c0.289,0.123,0.504,0.285,0.647,0.485c0.143,0.201,0.244,0.439,0.301,0.715c0.036,0.179,0.054,0.492,0.054,0.939V11H58.18
							V7.53c0-0.395-0.038-0.688-0.113-0.884c-0.075-0.196-0.208-0.351-0.4-0.467c-0.192-0.116-0.417-0.175-0.674-0.175
							c-0.412,0-0.767,0.131-1.066,0.392c-0.299,0.262-0.449,0.758-0.449,1.488V11H54.511z"/>
						<path d="M62.74,10.135l0.14,0.854c-0.272,0.058-0.516,0.086-0.73,0.086c-0.351,0-0.623-0.056-0.816-0.167
							c-0.193-0.11-0.33-0.257-0.408-0.438c-0.078-0.181-0.118-0.561-0.118-1.141V6.048h-0.709V5.296h0.709V3.883l0.961-0.58v1.993
							h0.972v0.752h-0.972v3.335c0,0.276,0.017,0.453,0.051,0.532c0.034,0.079,0.09,0.142,0.167,0.188
							c0.077,0.046,0.187,0.069,0.33,0.069C62.423,10.173,62.564,10.161,62.74,10.135z"/>
						<path d="M63.69,4.239V3.126h0.967v1.112H63.69V4.239z M63.69,11V5.296h0.967V11H63.69z"/>
						<path d="M69.851,10.297c-0.358,0.304-0.703,0.519-1.034,0.645c-0.332,0.125-0.687,0.188-1.066,0.188
							c-0.626,0-1.108-0.153-1.445-0.459c-0.336-0.307-0.505-0.697-0.505-1.174c0-0.279,0.063-0.534,0.191-0.766
							c0.127-0.23,0.293-0.416,0.499-0.556c0.206-0.14,0.438-0.245,0.696-0.317c0.19-0.05,0.476-0.098,0.859-0.145
							c0.781-0.093,1.355-0.204,1.724-0.333c0.003-0.133,0.005-0.217,0.005-0.253c0-0.394-0.091-0.671-0.274-0.832
							c-0.247-0.219-0.614-0.328-1.101-0.328c-0.455,0-0.791,0.08-1.007,0.239c-0.216,0.159-0.376,0.441-0.48,0.847l-0.945-0.129
							c0.086-0.405,0.228-0.731,0.424-0.98c0.196-0.249,0.481-0.44,0.854-0.575c0.373-0.134,0.804-0.201,1.294-0.201
							c0.487,0,0.883,0.058,1.187,0.172c0.304,0.114,0.528,0.259,0.671,0.433c0.143,0.174,0.245,0.392,0.302,0.657
							c0.032,0.164,0.048,0.461,0.048,0.891V8.61c0,0.899,0.021,1.468,0.062,1.706c0.042,0.238,0.123,0.466,0.245,0.685h-1.01
							C69.944,10.8,69.88,10.565,69.851,10.297z M69.771,8.137c-0.351,0.144-0.877,0.266-1.579,0.365
							c-0.397,0.058-0.679,0.122-0.843,0.193c-0.165,0.072-0.292,0.177-0.381,0.314c-0.089,0.137-0.134,0.291-0.134,0.459
							c0,0.258,0.098,0.473,0.292,0.645c0.195,0.172,0.481,0.258,0.857,0.258c0.373,0,0.704-0.081,0.994-0.244
							s0.503-0.386,0.639-0.668c0.104-0.219,0.156-0.541,0.156-0.967L69.771,8.137L69.771,8.137z"/>
						<path d="M72.225,11V3.126h0.967V11H72.225z"/>
						<path d="M81.469,8.911l0.951,0.124c-0.104,0.655-0.37,1.168-0.797,1.539c-0.428,0.37-0.954,0.556-1.577,0.556
							c-0.781,0-1.408-0.255-1.882-0.766c-0.475-0.51-0.712-1.241-0.712-2.193c0-0.616,0.102-1.155,0.306-1.617
							c0.204-0.462,0.515-0.809,0.932-1.039c0.417-0.231,0.871-0.347,1.361-0.347c0.62,0,1.126,0.156,1.52,0.47
							s0.646,0.759,0.757,1.335l-0.94,0.146c-0.089-0.384-0.248-0.672-0.475-0.865c-0.228-0.193-0.502-0.29-0.825-0.29
							c-0.487,0-0.883,0.175-1.187,0.523c-0.304,0.35-0.457,0.901-0.457,1.657c0,0.767,0.147,1.323,0.44,1.67
							c0.293,0.348,0.677,0.521,1.149,0.521c0.379,0,0.696-0.116,0.951-0.35C81.24,9.752,81.401,9.395,81.469,8.911z"/>
						<path d="M87.151,9.164l0.999,0.124c-0.158,0.583-0.449,1.036-0.875,1.358c-0.426,0.322-0.97,0.483-1.633,0.483
							c-0.834,0-1.496-0.257-1.985-0.771c-0.488-0.514-0.733-1.234-0.733-2.162c0-0.96,0.247-1.704,0.741-2.234
							c0.494-0.53,1.135-0.795,1.923-0.795c0.763,0,1.386,0.26,1.869,0.778c0.483,0.52,0.725,1.25,0.725,2.191
							c0,0.058-0.002,0.145-0.005,0.258h-4.254c0.036,0.627,0.213,1.107,0.532,1.439c0.319,0.334,0.716,0.5,1.192,0.5
							c0.354,0,0.657-0.093,0.908-0.279S87.004,9.572,87.151,9.164z M83.977,7.6h3.185c-0.043-0.479-0.165-0.839-0.365-1.079
							c-0.308-0.372-0.707-0.559-1.198-0.559c-0.444,0-0.817,0.148-1.12,0.446C84.177,6.706,84.009,7.103,83.977,7.6z"/>
						<path d="M89.343,11V3.126h0.967V11H89.343z"/>
						<path d="M91.787,11V3.126h0.967V11H91.787z"/>
						<path d="M101.009,11v-0.72c-0.362,0.564-0.894,0.849-1.595,0.849c-0.455,0-0.873-0.125-1.254-0.376
							c-0.381-0.251-0.677-0.601-0.886-1.05c-0.21-0.449-0.314-0.966-0.314-1.55c0-0.569,0.095-1.086,0.285-1.55
							s0.475-0.818,0.854-1.066c0.379-0.246,0.804-0.37,1.273-0.37c0.344,0,0.65,0.072,0.918,0.218
							c0.269,0.146,0.487,0.334,0.655,0.566V3.126h0.961V11H101.009z M97.953,8.154c0,0.73,0.154,1.276,0.462,1.638
							s0.671,0.543,1.09,0.543c0.422,0,0.781-0.173,1.077-0.519c0.295-0.346,0.443-0.872,0.443-1.581
							c0-0.781-0.15-1.354-0.451-1.719c-0.301-0.365-0.671-0.549-1.112-0.549c-0.43,0-0.789,0.176-1.077,0.527
							C98.097,6.845,97.953,7.398,97.953,8.154z"/>
						<path d="M103.431,4.239V3.126h0.967v1.112h-0.967V4.239z M103.431,11V5.296h0.967V11H103.431z"/>
						<path d="M107.454,11l-2.17-5.704h1.021l1.225,3.416c0.132,0.369,0.254,0.752,0.365,1.149c0.086-0.301,0.206-0.662,0.36-1.085
							l1.268-3.48h0.994L108.356,11H107.454z"/>
						<path d="M111.375,4.239V3.126h0.967v1.112h-0.967V4.239z M111.375,11V5.296h0.967V11H111.375z"/>
						<path d="M113.427,9.297l0.956-0.15c0.054,0.384,0.203,0.678,0.448,0.881c0.246,0.205,0.588,0.307,1.029,0.307
							c0.444,0,0.773-0.091,0.988-0.271c0.215-0.18,0.322-0.393,0.322-0.637c0-0.218-0.095-0.39-0.285-0.516
							c-0.132-0.086-0.462-0.194-0.988-0.327c-0.709-0.179-1.2-0.334-1.475-0.465c-0.273-0.131-0.481-0.312-0.623-0.542
							c-0.141-0.231-0.212-0.486-0.212-0.766c0-0.254,0.058-0.489,0.175-0.706c0.116-0.217,0.274-0.396,0.475-0.54
							c0.15-0.111,0.355-0.205,0.615-0.282c0.26-0.077,0.538-0.115,0.835-0.115c0.448,0,0.84,0.064,1.179,0.193
							c0.338,0.129,0.588,0.304,0.749,0.523c0.161,0.221,0.272,0.515,0.333,0.884l-0.945,0.129
							c-0.043-0.294-0.167-0.522-0.373-0.688c-0.206-0.165-0.497-0.247-0.873-0.247c-0.444,0-0.761,0.073-0.951,0.22
							s-0.285,0.319-0.285,0.516c0,0.126,0.04,0.238,0.118,0.339c0.079,0.104,0.202,0.189,0.371,0.258
							c0.097,0.036,0.381,0.118,0.854,0.247c0.684,0.183,1.161,0.332,1.432,0.448c0.27,0.116,0.482,0.286,0.636,0.508
							c0.154,0.222,0.231,0.498,0.231,0.827c0,0.322-0.094,0.626-0.282,0.91c-0.188,0.285-0.459,0.505-0.813,0.661
							c-0.354,0.155-0.755,0.233-1.203,0.233c-0.741,0-1.306-0.154-1.694-0.462C113.782,10.36,113.534,9.903,113.427,9.297z"/>
						<path d="M119.319,4.239V3.126h0.967v1.112h-0.967V4.239z M119.319,11V5.296h0.967V11H119.319z"/>
						<path d="M121.397,8.149c0-1.057,0.293-1.839,0.881-2.348c0.491-0.423,1.088-0.634,1.794-0.634
							c0.784,0,1.425,0.257,1.923,0.771s0.747,1.224,0.747,2.13c0,0.734-0.11,1.312-0.331,1.732
							c-0.22,0.421-0.541,0.747-0.961,0.979c-0.421,0.233-0.88,0.35-1.378,0.35c-0.798,0-1.444-0.256-1.937-0.768
							C121.644,9.849,121.397,9.112,121.397,8.149z M122.391,8.149c0,0.73,0.159,1.277,0.478,1.641
							c0.319,0.364,0.72,0.545,1.203,0.545c0.48,0,0.879-0.183,1.198-0.548c0.319-0.365,0.478-0.922,0.478-1.671
							c0-0.705-0.16-1.239-0.48-1.603c-0.321-0.363-0.719-0.546-1.195-0.546c-0.483,0-0.884,0.182-1.203,0.543
							C122.551,6.871,122.391,7.418,122.391,8.149z"/>
						<path d="M127.875,11V5.296h0.87v0.812c0.419-0.627,1.024-0.94,1.815-0.94c0.344,0,0.66,0.062,0.948,0.186
							c0.288,0.123,0.504,0.285,0.647,0.485c0.143,0.201,0.244,0.439,0.301,0.715c0.036,0.179,0.054,0.492,0.054,0.939V11h-0.967
							V7.53c0-0.395-0.038-0.688-0.113-0.884c-0.075-0.196-0.208-0.351-0.4-0.467c-0.191-0.116-0.416-0.175-0.674-0.175
							c-0.412,0-0.767,0.131-1.066,0.392c-0.299,0.262-0.448,0.758-0.448,1.488V11H127.875z"/>
						<path d="M133.606,9.297l0.956-0.15c0.054,0.384,0.203,0.678,0.449,0.881c0.245,0.205,0.588,0.307,1.028,0.307
							c0.444,0,0.773-0.091,0.988-0.271c0.215-0.18,0.322-0.393,0.322-0.637c0-0.218-0.095-0.39-0.285-0.516
							c-0.132-0.086-0.462-0.194-0.988-0.327c-0.709-0.179-1.201-0.334-1.474-0.465c-0.274-0.131-0.482-0.312-0.623-0.542
							c-0.142-0.231-0.212-0.486-0.212-0.766c0-0.254,0.058-0.489,0.174-0.706c0.117-0.217,0.275-0.396,0.476-0.54
							c0.15-0.111,0.355-0.205,0.615-0.282c0.259-0.077,0.538-0.115,0.835-0.115c0.448,0,0.841,0.064,1.179,0.193
							c0.339,0.129,0.588,0.304,0.75,0.523c0.161,0.221,0.272,0.515,0.333,0.884l-0.945,0.129c-0.043-0.294-0.167-0.522-0.374-0.688
							c-0.206-0.165-0.497-0.247-0.873-0.247c-0.444,0-0.761,0.073-0.951,0.22s-0.285,0.319-0.285,0.516
							c0,0.126,0.04,0.238,0.118,0.339c0.079,0.104,0.202,0.189,0.371,0.258c0.097,0.036,0.381,0.118,0.854,0.247
							c0.684,0.183,1.161,0.332,1.431,0.448c0.271,0.116,0.483,0.286,0.637,0.508c0.154,0.222,0.231,0.498,0.231,0.827
							c0,0.322-0.094,0.626-0.282,0.91c-0.188,0.285-0.459,0.505-0.814,0.661c-0.354,0.155-0.755,0.233-1.203,0.233
							c-0.741,0-1.306-0.154-1.695-0.462C133.961,10.36,133.713,9.903,133.606,9.297z"/>
					</g>
				</g>
			</g>
		</g>
	</g>
	<g>
		<g>
			<g>
				<g>
					<g enable-background="new    ">
						<path d="M2.573,26.315c-0.534-0.673-0.985-1.461-1.354-2.363c-0.369-0.902-0.553-1.836-0.553-2.803
							c0-0.853,0.138-1.669,0.414-2.449c0.322-0.906,0.82-1.809,1.493-2.707h0.693c-0.433,0.744-0.72,1.276-0.859,1.595
							c-0.218,0.494-0.39,1.01-0.516,1.547c-0.154,0.67-0.231,1.343-0.231,2.021c0,1.723,0.535,3.442,1.606,5.161L2.573,26.315
							L2.573,26.315z"/>
						<path d="M4.501,24v-7.874H5.57l4.136,6.183v-6.183h0.999V24H9.636L5.5,17.813V24H4.501z"/>
					</g>
				</g>
			</g>
		</g>
	</g>
	<g>
		<g>
			<g>
				<g>
					<g enable-background="new    ">
						<path d="M15.65,25.101l0.864,0.112c-0.094,0.596-0.336,1.063-0.725,1.398c-0.389,0.338-0.867,0.506-1.433,0.506
							c-0.709,0-1.28-0.232-1.711-0.695c-0.431-0.465-0.647-1.129-0.647-1.995c0-0.56,0.093-1.05,0.278-1.47
							s0.468-0.734,0.847-0.945c0.379-0.209,0.792-0.314,1.238-0.314c0.563,0,1.024,0.143,1.382,0.428
							c0.358,0.284,0.587,0.688,0.688,1.213l-0.854,0.132c-0.082-0.349-0.226-0.61-0.432-0.786c-0.206-0.176-0.457-0.264-0.75-0.264
							c-0.443,0-0.802,0.158-1.079,0.477c-0.277,0.316-0.415,0.819-0.415,1.506c0,0.696,0.133,1.203,0.4,1.519
							c0.267,0.316,0.615,0.474,1.045,0.474c0.345,0,0.633-0.105,0.864-0.317S15.588,25.541,15.65,25.101z"/>
					</g>
				</g>
			</g>
		</g>
	</g>
	<g>
		<g>
			<g>
				<g>
					<g enable-background="new    ">
						<path d="M25.475,19.371h-5.199v-0.902h5.199V19.371z M25.475,21.76h-5.199v-0.902h5.199V21.76z"/>
						<path d="M31.087,19.731c-0.401-0.147-0.698-0.356-0.892-0.629c-0.194-0.273-0.29-0.598-0.29-0.978
							c0-0.573,0.206-1.055,0.618-1.444c0.412-0.391,0.959-0.586,1.644-0.586c0.688,0,1.241,0.199,1.66,0.599
							s0.628,0.886,0.628,1.458c0,0.365-0.096,0.684-0.288,0.954c-0.191,0.271-0.482,0.479-0.873,0.626
							c0.483,0.157,0.851,0.411,1.104,0.762c0.252,0.352,0.378,0.771,0.378,1.258c0,0.673-0.238,1.238-0.714,1.697
							c-0.476,0.458-1.103,0.688-1.88,0.688c-0.777,0-1.404-0.229-1.88-0.69c-0.476-0.46-0.714-1.034-0.714-1.722
							c0-0.512,0.13-0.94,0.389-1.286C30.238,20.091,30.607,19.856,31.087,19.731z M30.583,21.729c0,0.275,0.065,0.542,0.196,0.8
							c0.13,0.258,0.325,0.457,0.583,0.599c0.258,0.142,0.535,0.213,0.833,0.213c0.462,0,0.843-0.149,1.144-0.446
							c0.301-0.297,0.451-0.675,0.451-1.134c0-0.465-0.155-0.85-0.464-1.154c-0.31-0.305-0.698-0.457-1.163-0.457
							c-0.455,0-0.832,0.15-1.131,0.451C30.732,20.901,30.583,21.278,30.583,21.729z M30.894,18.092c0,0.372,0.12,0.677,0.36,0.913
							c0.24,0.236,0.551,0.354,0.935,0.354c0.373,0,0.678-0.117,0.916-0.352c0.238-0.234,0.357-0.522,0.357-0.862
							c0-0.354-0.123-0.652-0.368-0.895c-0.245-0.241-0.55-0.362-0.916-0.362c-0.369,0-0.675,0.118-0.918,0.354
							C31.017,17.478,30.894,17.763,30.894,18.092z"/>
						<path d="M38.655,22.297l0.956-0.15c0.054,0.384,0.203,0.678,0.449,0.881c0.245,0.205,0.588,0.307,1.028,0.307
							c0.444,0,0.773-0.091,0.988-0.271c0.215-0.18,0.322-0.393,0.322-0.637c0-0.218-0.095-0.39-0.285-0.516
							c-0.132-0.086-0.462-0.194-0.988-0.327c-0.709-0.179-1.201-0.334-1.474-0.465c-0.274-0.131-0.482-0.312-0.623-0.542
							c-0.142-0.231-0.212-0.486-0.212-0.766c0-0.254,0.058-0.489,0.174-0.706c0.117-0.217,0.275-0.396,0.476-0.54
							c0.15-0.111,0.355-0.205,0.615-0.282c0.259-0.077,0.538-0.115,0.835-0.115c0.448,0,0.841,0.064,1.179,0.193
							c0.339,0.129,0.588,0.304,0.75,0.523c0.161,0.221,0.272,0.515,0.333,0.884l-0.945,0.129c-0.043-0.294-0.167-0.522-0.374-0.688
							c-0.206-0.165-0.497-0.247-0.873-0.247c-0.444,0-0.761,0.073-0.951,0.22s-0.285,0.319-0.285,0.516
							c0,0.126,0.04,0.238,0.118,0.339c0.079,0.104,0.202,0.189,0.371,0.258c0.097,0.036,0.381,0.118,0.854,0.247
							c0.684,0.183,1.161,0.332,1.431,0.448c0.271,0.116,0.483,0.286,0.637,0.508c0.154,0.222,0.231,0.498,0.231,0.827
							c0,0.322-0.094,0.626-0.282,0.91c-0.188,0.285-0.459,0.505-0.814,0.661c-0.354,0.155-0.755,0.233-1.203,0.233
							c-0.741,0-1.306-0.154-1.695-0.462C39.011,23.36,38.763,22.903,38.655,22.297z"/>
						<path d="M44.542,24v-7.874h0.967v2.825c0.451-0.522,1.021-0.784,1.708-0.784c0.422,0,0.79,0.083,1.101,0.25
							c0.312,0.166,0.534,0.396,0.669,0.69c0.134,0.293,0.201,0.719,0.201,1.277V24h-0.967v-3.615c0-0.482-0.104-0.835-0.314-1.055
							C47.698,19.11,47.401,19,47.018,19c-0.287,0-0.556,0.074-0.809,0.223c-0.252,0.148-0.432,0.35-0.54,0.604
							c-0.107,0.255-0.161,0.605-0.161,1.053V24H44.542z"/>
						<path d="M50.3,21.149c0-1.057,0.293-1.839,0.881-2.348c0.491-0.423,1.088-0.634,1.794-0.634c0.784,0,1.425,0.257,1.923,0.771
							s0.747,1.224,0.747,2.13c0,0.734-0.11,1.312-0.33,1.732c-0.221,0.421-0.541,0.747-0.962,0.979
							c-0.42,0.233-0.88,0.35-1.377,0.35c-0.798,0-1.444-0.256-1.936-0.768C50.546,22.849,50.3,22.112,50.3,21.149z M51.293,21.149
							c0,0.73,0.159,1.277,0.478,1.641c0.319,0.364,0.72,0.545,1.203,0.545c0.48,0,0.879-0.183,1.198-0.548
							c0.319-0.365,0.478-0.922,0.478-1.671c0-0.705-0.16-1.239-0.481-1.603c-0.32-0.363-0.719-0.546-1.195-0.546
							c-0.483,0-0.884,0.182-1.203,0.543C51.452,19.871,51.293,20.418,51.293,21.149z"/>
						<path d="M57.83,24l-1.746-5.704h0.999l0.908,3.292l0.338,1.225c0.014-0.061,0.113-0.452,0.295-1.176l0.908-3.341h0.994
							l0.854,3.309l0.285,1.091l0.328-1.102l0.978-3.298h0.94L62.127,24h-1.004l-0.908-3.416l-0.22-0.973L58.84,24H57.83z"/>
						<path d="M64.721,24v-5.704h0.87v0.812c0.419-0.627,1.024-0.94,1.815-0.94c0.344,0,0.66,0.062,0.948,0.186
							c0.288,0.123,0.504,0.285,0.647,0.485c0.143,0.201,0.244,0.439,0.301,0.715c0.036,0.179,0.054,0.492,0.054,0.939V24H68.39
							v-3.47c0-0.395-0.038-0.688-0.113-0.884c-0.075-0.196-0.208-0.351-0.4-0.467c-0.191-0.116-0.416-0.175-0.674-0.175
							c-0.412,0-0.767,0.131-1.066,0.392c-0.299,0.262-0.448,0.758-0.448,1.488V24H64.721z"/>
						<path d="M71.473,26.315H70.78c1.071-1.719,1.606-3.438,1.606-5.161c0-0.673-0.077-1.341-0.231-2.003
							c-0.122-0.537-0.292-1.053-0.51-1.547c-0.14-0.322-0.428-0.859-0.865-1.611h0.693c0.673,0.898,1.171,1.801,1.493,2.707
							c0.276,0.78,0.414,1.597,0.414,2.449c0,0.967-0.186,1.9-0.556,2.803C72.453,24.854,72.002,25.642,71.473,26.315z"/>
					</g>
				</g>
			</g>
		</g>
	</g>
</g>
<g>
	<g>
		<polygon fill="#FFFFFF" points="187.4,52.4 193.9,57.7 190.9,49.8 		"/>
	</g>
	<g>
		<polyline fill="none" stroke="#000000" points="148.3,9.7 159.3,9.7 190,52.3 		"/>
		<polygon points="187.4,52.4 193.9,57.7 190.9,49.8 		"/>
	</g>
</g>
<g>
	<line fill="none" stroke="#000000" x1="362" y1="185.2" x2="364.9" y2="182.4"/>
	<line fill="none" stroke="#000000" x1="363.1" y1="189.8" x2="368.701" y2="184.2"/>
	<line fill="none" stroke="#000000" x1="364.1" y1="194.4" x2="373.3" y2="185.2"/>
</g>
<g>
	<g>
		<polygon fill="#FFFFFF" points="377.3,197.4 371,191.799 373.6,199.799 		"/>
	</g>
	<g>
		<polyline fill="none" stroke="#000000" points="414.701,223.299 391.701,223.299 374.701,197.299 		"/>
		<polygon points="377.3,197.4 371,191.799 373.6,199.799 		"/>
	</g>
</g>
<g>
	<g>
		<g>
			<g>
				<g enable-background="new    ">
					<path d="M418.537,227.333v-7.873h5.693v0.929h-4.65v2.411h4.355v0.925h-4.355v2.68h4.834v0.931h-5.877V227.333z"/>
					<path d="M425.083,227.333l2.084-2.965l-1.928-2.738h1.209l0.875,1.336c0.164,0.256,0.297,0.469,0.396,0.641
						c0.158-0.236,0.305-0.445,0.436-0.628l0.963-1.349h1.154l-1.973,2.686l2.121,3.02h-1.188l-1.17-1.772l-0.313-0.478l-1.498,2.25
						h-1.17V227.333z"/>
					<path d="M433.339,226.467l0.141,0.855c-0.271,0.057-0.516,0.086-0.73,0.086c-0.352,0-0.623-0.057-0.816-0.168
						c-0.191-0.109-0.33-0.257-0.406-0.438c-0.08-0.182-0.119-0.561-0.119-1.141v-3.283h-0.709v-0.752h0.709v-1.412l0.961-0.58
						v1.992h0.973v0.752h-0.973v3.336c0,0.275,0.018,0.453,0.053,0.531c0.033,0.08,0.088,0.143,0.166,0.188
						c0.076,0.046,0.188,0.069,0.33,0.069C433.023,226.506,433.166,226.495,433.339,226.467z"/>
					<path d="M438.191,225.497l0.998,0.125c-0.158,0.582-0.449,1.035-0.875,1.357c-0.428,0.322-0.971,0.482-1.633,0.482
						c-0.836,0-1.496-0.256-1.984-0.771c-0.49-0.515-0.734-1.233-0.734-2.162c0-0.96,0.248-1.704,0.742-2.233
						c0.494-0.53,1.135-0.795,1.922-0.795c0.764,0,1.387,0.26,1.869,0.777c0.484,0.52,0.727,1.25,0.727,2.191
						c0,0.058-0.002,0.144-0.006,0.258h-4.254c0.035,0.627,0.213,1.107,0.531,1.439c0.318,0.334,0.717,0.5,1.191,0.5
						c0.355,0,0.658-0.094,0.908-0.279S438.042,225.905,438.191,225.497z M435.015,223.933h3.186
						c-0.043-0.479-0.164-0.839-0.365-1.079c-0.309-0.372-0.707-0.559-1.197-0.559c-0.443,0-0.816,0.147-1.121,0.445
						C435.214,223.04,435.048,223.436,435.015,223.933z"/>
					<path d="M440.392,227.333v-5.703h0.869v0.863c0.223-0.404,0.428-0.671,0.615-0.8c0.189-0.129,0.395-0.192,0.621-0.192
						c0.326,0,0.656,0.104,0.994,0.312l-0.334,0.896c-0.236-0.139-0.475-0.209-0.709-0.209c-0.211,0-0.4,0.063-0.568,0.19
						c-0.17,0.127-0.289,0.304-0.361,0.528c-0.105,0.345-0.16,0.721-0.16,1.129v2.986H440.392L440.392,227.333z"/>
					<path d="M444.066,227.333v-5.703h0.869v0.812c0.42-0.627,1.025-0.94,1.816-0.94c0.344,0,0.66,0.063,0.947,0.187
						c0.289,0.123,0.504,0.285,0.646,0.485c0.145,0.201,0.244,0.438,0.301,0.715c0.035,0.179,0.055,0.492,0.055,0.939v3.508h-0.967
						v-3.471c0-0.395-0.037-0.688-0.113-0.884c-0.074-0.196-0.207-0.351-0.398-0.467s-0.418-0.175-0.676-0.175
						c-0.41,0-0.766,0.131-1.064,0.392c-0.301,0.263-0.449,0.758-0.449,1.487v3.115H444.066z"/>
					<path d="M453.906,226.629c-0.357,0.305-0.703,0.52-1.033,0.646c-0.332,0.125-0.688,0.188-1.066,0.188
						c-0.627,0-1.107-0.153-1.443-0.459c-0.336-0.307-0.506-0.697-0.506-1.174c0-0.279,0.063-0.535,0.189-0.767
						c0.127-0.229,0.295-0.416,0.5-0.556c0.205-0.141,0.439-0.245,0.695-0.317c0.189-0.05,0.477-0.099,0.859-0.146
						c0.781-0.092,1.355-0.203,1.725-0.332c0.004-0.133,0.006-0.217,0.006-0.254c0-0.394-0.092-0.67-0.275-0.832
						c-0.246-0.219-0.611-0.328-1.1-0.328c-0.455,0-0.791,0.08-1.008,0.24c-0.217,0.158-0.377,0.44-0.48,0.846l-0.943-0.129
						c0.086-0.404,0.227-0.73,0.424-0.979c0.195-0.249,0.48-0.44,0.854-0.575c0.373-0.134,0.805-0.201,1.295-0.201
						c0.486,0,0.883,0.059,1.188,0.172c0.305,0.115,0.527,0.26,0.672,0.434c0.143,0.174,0.242,0.393,0.301,0.658
						c0.031,0.164,0.047,0.461,0.047,0.891v1.289c0,0.898,0.021,1.469,0.064,1.706c0.041,0.238,0.123,0.466,0.244,0.685h-1.012
						C454,227.133,453.935,226.898,453.906,226.629z M453.826,224.47c-0.352,0.144-0.877,0.266-1.58,0.364
						c-0.396,0.059-0.678,0.123-0.842,0.193c-0.166,0.072-0.293,0.178-0.383,0.314c-0.09,0.138-0.135,0.291-0.135,0.459
						c0,0.258,0.1,0.473,0.293,0.645c0.195,0.172,0.48,0.258,0.857,0.258c0.373,0,0.703-0.08,0.994-0.244
						c0.289-0.162,0.502-0.385,0.639-0.668c0.104-0.219,0.156-0.541,0.156-0.967V224.47L453.826,224.47z"/>
					<path d="M456.281,227.333v-7.873h0.967v7.873H456.281z"/>
					<path d="M462.033,227.333v-4.951h-0.854v-0.752h0.854v-0.606c0-0.384,0.033-0.668,0.102-0.854
						c0.094-0.25,0.258-0.453,0.492-0.608c0.234-0.156,0.563-0.233,0.984-0.233c0.271,0,0.572,0.031,0.902,0.096l-0.145,0.845
						c-0.201-0.036-0.393-0.054-0.57-0.054c-0.293,0-0.5,0.063-0.623,0.188c-0.121,0.125-0.182,0.359-0.182,0.703v0.525h1.109v0.752
						h-1.109v4.953h-0.961V227.333z"/>
					<path d="M464.835,227.333v-7.873h0.967v7.873H464.835z"/>
					<path d="M471.041,227.333v-0.838c-0.445,0.646-1.049,0.967-1.811,0.967c-0.338,0-0.65-0.063-0.943-0.192
						c-0.291-0.129-0.508-0.291-0.65-0.485c-0.141-0.195-0.238-0.435-0.297-0.718c-0.039-0.188-0.059-0.489-0.059-0.901v-3.535
						h0.967v3.164c0,0.506,0.02,0.846,0.059,1.021c0.063,0.254,0.189,0.453,0.389,0.599c0.195,0.146,0.438,0.219,0.729,0.219
						c0.289,0,0.563-0.075,0.816-0.225c0.254-0.148,0.434-0.351,0.539-0.605c0.105-0.256,0.158-0.629,0.158-1.115v-3.057h0.967
						v5.705h-0.863V227.333z"/>
					<path d="M473.423,220.573v-1.113h0.967v1.113H473.423z M473.423,227.333v-5.703h0.967v5.703H473.423z"/>
					<path d="M479.564,227.333v-0.72c-0.361,0.565-0.895,0.849-1.596,0.849c-0.455,0-0.873-0.125-1.254-0.375
						c-0.381-0.252-0.678-0.602-0.887-1.051s-0.314-0.966-0.314-1.55c0-0.569,0.096-1.086,0.285-1.55s0.475-0.818,0.854-1.066
						c0.381-0.246,0.805-0.369,1.273-0.369c0.344,0,0.65,0.071,0.918,0.217c0.27,0.146,0.486,0.334,0.656,0.566v-2.824h0.961v7.873
						H479.564L479.564,227.333z M476.507,224.487c0,0.73,0.154,1.276,0.461,1.639c0.309,0.361,0.672,0.543,1.092,0.543
						c0.422,0,0.781-0.174,1.076-0.52s0.443-0.872,0.443-1.581c0-0.78-0.15-1.354-0.451-1.719c-0.301-0.365-0.672-0.55-1.111-0.55
						c-0.43,0-0.789,0.177-1.078,0.527C476.652,223.178,476.507,223.731,476.507,224.487z"/>
				</g>
			</g>
		</g>
	</g>
</g>
</svg>
