<?xml version="1.0" encoding="utf-8"?>
<!-- Generator: Adobe Illustrator 17.1.0, SVG Export Plug-In . SVG Version: 6.00 Build 0)  -->

<svg version="1.1" id="Layer_1" xmlns="http://www.w3.org/2000/svg" xmlns:xlink="http://www.w3.org/1999/xlink" x="0px" y="0px"
	 width="424.6px" height="183.2px" viewBox="0 0 424.6 183.2" enable-background="new 0 0 424.6 183.2" xml:space="preserve">
<g>
	<g>
		<g>
			<g>
				<g>
					<g>
						<text transform="matrix(0.9986 0 0 1 181.6802 54.5391)" font-family="'ArialMT'" font-size="11.0001">Gaps between</text>
					</g>
				</g>
			</g>
		</g>
		<g>
			<g>
				<g>
					<g>
						<text transform="matrix(0.9986 0 0 1 181.6802 67.5391)" font-family="'ArialMT'" font-size="11.0001">master node pairs</text>
					</g>
				</g>
			</g>
		</g>
	</g>
	<g>
		<g>
			<g>
				<g>
					<text transform="matrix(0.9986 0 0 1 83.439 179.6235)" font-family="'ArialMT'" font-size="11.0001">(a)</text>
				</g>
			</g>
		</g>
	</g>
	<path fill="#FFFFFF" stroke="#000000" d="M150.5,57.5c-8.4,3.4-21.6,1.3-27.2-5.4c-5.5-6.6-8.8-14.4-14-21.3
		C97.5,15,83.1,7,64.4,4.3C43.5,1.3,23,0.5,0.5,0.5l1.1,158.3h149L150.5,57.5z"/>
	<g>
		<g>
			<line fill="none" stroke="#000000" x1="5.9" y1="0.5" x2="0.8" y2="10.3"/>
			<line fill="none" stroke="#000000" x1="19.2" y1="0.7" x2="0.8" y2="34.6"/>
			<line fill="none" stroke="#000000" x1="32.3" y1="1.2" x2="0.8" y2="58.9"/>
			<line fill="none" stroke="#000000" x1="45.2" y1="2.1" x2="0.8" y2="84.2"/>
			<line fill="none" stroke="#000000" x1="57.9" y1="3.4" x2="1.2" y2="106.2"/>
			<line fill="none" stroke="#000000" x1="70.5" y1="5.2" x2="1.4" y2="130.2"/>
			<line fill="none" stroke="#000000" x1="81.7" y1="8.9" x2="2.3" y2="152.7"/>
			<line fill="none" stroke="#000000" x1="92" y1="14.5" x2="12.6" y2="158.4"/>
			<line fill="none" stroke="#000000" x1="101.3" y1="22.2" x2="25.8" y2="158.8"/>
			<line fill="none" stroke="#000000" x1="109.6" y1="31.2" x2="39.2" y2="158.8"/>
			<line fill="none" stroke="#000000" x1="116.8" y1="42.6" x2="52.7" y2="158.8"/>
			<line fill="none" stroke="#000000" x1="124.7" y1="52.7" x2="66.1" y2="158.8"/>
			<path fill="none" stroke="#000000" d="M125.7,50.7"/>
			<line fill="none" stroke="#000000" x1="134.9" y1="58.4" x2="79.5" y2="158.8"/>
		</g>
		<line fill="none" stroke="#000000" x1="149.4" y1="57.4" x2="93.3" y2="158.8"/>
		<line fill="none" stroke="#000000" x1="150.5" y1="80.3" x2="107.2" y2="158.8"/>
		<line fill="none" stroke="#000000" x1="150.5" y1="105.4" x2="121.1" y2="158.8"/>
		<line fill="none" stroke="#000000" x1="150.5" y1="130.5" x2="134.9" y2="158.8"/>
		<line fill="none" stroke="#000000" x1="150.6" y1="155.6" x2="148.8" y2="158.8"/>
	</g>
	<g>
		<polyline fill="#FFFFFF" stroke="#000000" stroke-width="1.1773" points="96.8,68.2 150.1,68.2 150.1,83.2 96.1,83.2 		"/>
		<line fill="none" stroke="#000000" stroke-width="1.1773" x1="132.8" y1="68.2" x2="132.8" y2="83.2"/>
		<line fill="none" stroke="#000000" stroke-width="1.1773" x1="111.5" y1="68.2" x2="111.5" y2="83.2"/>
	</g>
	<ellipse fill="#FFFFFF" stroke="#000000" stroke-width="1.1773" cx="70.2" cy="74.1" rx="27.4" ry="27.4"/>
	<g>
		<g>
			<polygon fill="#FFFFFF" points="153.5,66.8 151,74.8 157.2,69.1 			"/>
		</g>
		<g>
			<polyline fill="none" stroke="#000000" points="178.5,51.2 165.9,51.2 154.5,69.2 			"/>
			<polygon points="153.5,66.8 151,74.8 157.2,69.1 			"/>
		</g>
	</g>
</g>
<g>
	<g>
		<g>
			<g>
				<g>
					<text transform="matrix(0.9986 0 0 1 348.7168 179.6221)" font-family="'ArialMT'" font-size="11.0001">(b)</text>
				</g>
			</g>
		</g>
	</g>
	<line fill="none" x1="285.4" y1="64.6" x2="296.9" y2="64.6"/>
	<line fill="none" x1="405.6" y1="64.8" x2="416.8" y2="64.8"/>
	<line fill="none" stroke="#000000" x1="283.6" y1="65.1" x2="297.3" y2="65.1"/>
	<line fill="none" stroke="#000000" x1="404.6" y1="65.1" x2="418.3" y2="65.1"/>
	<line fill="none" stroke="#000000" x1="309.1" y1="95.8" x2="309.1" y2="150.8"/>
	<line fill="none" stroke="#000000" x1="389.9" y1="97.1" x2="389.9" y2="152.1"/>
	<line fill="none" stroke="#000000" x1="322.6" y1="102.1" x2="322.6" y2="152.1"/>
	<line fill="none" stroke="#000000" x1="336.1" y1="104.8" x2="336.1" y2="152.8"/>
	<line fill="none" stroke="#000000" x1="349.7" y1="105.8" x2="349.7" y2="151.8"/>
	<line fill="none" stroke="#000000" x1="361.7" y1="105.8" x2="361.7" y2="151.8"/>
	<line fill="none" stroke="#000000" x1="376.1" y1="102.6" x2="376.1" y2="151.6"/>
	<g>
		<g>
			<g>
				<g>
					<g>
						<text transform="matrix(0.9986 0 0 1 194.9185 127.6279)" font-family="'ArialMT'" font-size="11.0001">Gaps between</text>
					</g>
				</g>
			</g>
		</g>
		<g>
			<g>
				<g>
					<g>
						<text transform="matrix(0.9986 0 0 1 194.9185 140.628)" font-family="'ArialMT'" font-size="11.0001">master nodes </text>
					</g>
				</g>
			</g>
		</g>
		<g>
			<g>
				<g>
					<g>
						<text transform="matrix(0.9986 0 0 1 194.9185 153.6279)" font-family="'ArialMT'" font-size="11.0001">and ground</text>
					</g>
				</g>
			</g>
		</g>
	</g>
	<path fill="none" stroke="#000000" d="M418,65.1c-5,22.5-34.6,40.7-67.4,40.7c-33.3,0-61-17.5-66.9-40.5"/>
	<path fill="none" stroke="#000000" d="M405.3,65.7c-9.1,18.6-30.9,31.7-54.7,31.7c-23.7,0-44.1-12.8-53.5-31.3"/>
	<g>
		<g>
			<line fill="none" stroke="#000000" x1="290.6" y1="65.3" x2="286.5" y2="72.8"/>
			<line fill="none" stroke="#000000" x1="300.5" y1="71.8" x2="293.9" y2="83.6"/>
			<line fill="none" stroke="#000000" x1="308.6" y1="81.3" x2="302.9" y2="91.6"/>
			<line fill="none" stroke="#000000" x1="318.1" y1="88.4" x2="313" y2="97.6"/>
			<line fill="none" stroke="#000000" x1="328.7" y1="93.5" x2="324.1" y2="101.9"/>
			<line fill="none" stroke="#000000" x1="340.4" y1="96.5" x2="336" y2="104.6"/>
			<line fill="none" stroke="#000000" x1="353.5" y1="97.3" x2="348.8" y2="105.8"/>
			<line fill="none" stroke="#000000" x1="368.2" y1="94.9" x2="361.7" y2="106.7"/>
			<line fill="none" stroke="#000000" x1="386" y1="86.9" x2="377.9" y2="101.5"/>
		</g>
		<line fill="none" stroke="#000000" x1="411.9" y1="65.3" x2="396.8" y2="92.6"/>
	</g>
	<g>
		<line fill="none" stroke="#000000" x1="276.3" y1="151.6" x2="424.6" y2="151.6"/>
		<line fill="none" stroke="#000000" x1="282.2" y1="151.6" x2="277.2" y2="158.3"/>
		<line fill="none" stroke="#000000" x1="288.8" y1="151.6" x2="283.8" y2="158.3"/>
		<line fill="none" stroke="#000000" x1="295.3" y1="151.6" x2="290.3" y2="158.3"/>
		<line fill="none" stroke="#000000" x1="301.9" y1="151.6" x2="296.9" y2="158.3"/>
		<line fill="none" stroke="#000000" x1="308.5" y1="151.6" x2="303.5" y2="158.3"/>
		<line fill="none" stroke="#000000" x1="315.1" y1="151.6" x2="310.1" y2="158.3"/>
		<line fill="none" stroke="#000000" x1="321.7" y1="151.6" x2="316.7" y2="158.3"/>
		<line fill="none" stroke="#000000" x1="328.2" y1="151.6" x2="323.2" y2="158.3"/>
		<line fill="none" stroke="#000000" x1="334.8" y1="151.6" x2="329.8" y2="158.3"/>
		<line fill="none" stroke="#000000" x1="341.4" y1="151.6" x2="336.4" y2="158.3"/>
		<line fill="none" stroke="#000000" x1="348" y1="151.6" x2="343" y2="158.3"/>
		<line fill="none" stroke="#000000" x1="354.5" y1="151.6" x2="349.5" y2="158.3"/>
		<line fill="none" stroke="#000000" x1="361.1" y1="151.6" x2="356.1" y2="158.3"/>
		<line fill="none" stroke="#000000" x1="367.7" y1="151.6" x2="362.7" y2="158.3"/>
		<line fill="none" stroke="#000000" x1="374.3" y1="151.6" x2="369.3" y2="158.3"/>
		<line fill="none" stroke="#000000" x1="380.9" y1="151.6" x2="375.9" y2="158.3"/>
		<line fill="none" stroke="#000000" x1="387.4" y1="151.6" x2="382.4" y2="158.3"/>
		<line fill="none" stroke="#000000" x1="394" y1="151.6" x2="389" y2="158.3"/>
		<line fill="none" stroke="#000000" x1="400.6" y1="151.6" x2="395.6" y2="158.3"/>
		<line fill="none" stroke="#000000" x1="407.2" y1="151.6" x2="402.2" y2="158.3"/>
		<line fill="none" stroke="#000000" x1="413.8" y1="151.6" x2="408.8" y2="158.3"/>
		<line fill="none" stroke="#000000" x1="420.3" y1="151.6" x2="415.3" y2="158.3"/>
	</g>
	<g>
		<g>
			<polygon fill="#FFFFFF" points="305.1,111.9 308.2,104.1 301.6,109.3 			"/>
		</g>
		<g>
			<polyline fill="none" stroke="#000000" points="278.3,127.5 290.9,127.5 304.3,109.5 			"/>
			<polygon points="305.1,111.9 308.2,104.1 301.6,109.3 			"/>
		</g>
	</g>
</g>
</svg>
