**ABCDEFGHIJKLMNOPQRSTUVWXYZabcdefghijklmnopqrstuvwxyz**************************
**PARASOLID !"#$%&'()*+,-./:;<=>?@[\]^_`{|}~0123456789**************************
**PART1;
MC=unknown;
MC_MODEL=unknown;
MC_ID=unknown;
OS=unknown;
OS_RELEASE=unknown;
FRU=sdl_parasolid_customer_support;
APPL=parasolid_acceptance_tests;
SITE=unknown;
USER=unknown;
FORMAT=text;
GUISE=transmit;
KEY=unicode filename;
FILE=unicode filename;
DATE=unknown;
**PART2;
SCH=SCH_3501184_35102;
USFLD_SIZE=0;
**PART3;
**END_OF_HEADER*****************************************************************
T51 : TRANSMIT FILE created by modeller version 350118417 SCH_3500000_350010 12
 1 122 2 3 0 0 0 0 0 0 0 1e3 1e-8 0 0 0 1 0 1 1 4 0 5 6 7 0 0 8 9 10 0 0 0 0 0 0
 0 81 1 2 122 11 1 12 0 13 0 14 70 3 0 4 T1 0 0 5 20 1 15 15 13 4 45 0 1 0 16 0
 0 17 0 50 5 52 0 18 19 0 0 +0 0 .02 0 0 1 1 0 0 30 6 76 0 20 21 0 0 +.02 0 .02
 0 0 -1 29 7 62 0 22 23 0 -.02 .04 -.02 19 8 1 0 1 17 0 24 0 V0 16 9 36 25 ?26 0
 27 28 0 0 1 18 10 37 0 26 0 29 30 ?1 17 26 0 31 26 26 10 32 9 0 32 +18 29 34 0
 33 10 34 35 ?1 29 30 55 0 10 36 35 -.005 0 0 29 36 54 0 37 38 30 -.02 .04 .02 2
9 35 56 0 29 30 39 -.005 .04 0 29 39 57 0 40 35 41 .02 .04 .02 18 40 7 0 42 43 4
4 39 ?1 29 41 58 0 34 39 45 -.02 0 -.02 18 34 25 0 46 29 22 41 ?1 29 45 59 0 47
 41 48 .02 0 -.02 18 47 11 0 49 37 43 45 ?1 29 48 60 0 50 45 23 -.02 0 .02 18 50
 18 0 51 22 37 48 ?1 29 23 61 0 43 48 7 .02 0 .02 18 43 9 0 52 47 40 23 ?1 17 52
 0 53 54 55 43 56 57 0 58 +15 53 14 0 59 18 0 17 54 0 53 59 52 40 60 61 0 62 +17
 55 0 53 52 59 50 63 64 0 0 -17 56 0 65 66 58 50 52 57 0 55 -16 57 19 67 ?52 68
 64 69 0 0 1 17 58 0 65 56 49 43 70 20 0 60 -15 65 43 0 49 16 71 17 49 0 65 58 6
6 47 46 72 0 73 -17 70 0 74 75 60 47 58 20 0 0 +16 20 10 76 ?70 77 61 6 0 0 1 17
 60 0 74 70 62 43 54 61 0 0 -15 74 4 0 62 78 0 17 62 0 74 60 75 40 79 80 0 0 +16
 61 8 81 ?54 20 80 82 0 0 1 81 1 81 118 83 61 84 0 76 85 86 16 80 5 85 ?62 61 0
 87 0 0 1 30 82 67 0 61 88 89 0 +.02 0 .02 0 1 0 30 88 66 0 64 28 82 0 +-.02 0 .
02 0 1 0 30 89 68 0 90 82 91 0 +-.02 0 -.02 0 0 1 16 90 26 92 ?51 93 94 89 0 0 1
 30 91 69 0 77 89 69 0 +.02 0 -.02 0 1 0 16 77 12 95 ?75 96 20 91 0 0 1 30 69 70
 0 57 91 97 0 +-.02 0 .02 1 0 0 30 97 71 0 96 69 98 0 +-.02 .04 .02 -1 0 0 16 96
 15 99 ?59 64 77 97 0 0 1 30 98 72 0 94 97 100 0 +-.02 0 -.02 0 1 0 16 94 24 101
 ?102 90 68 98 0 0 1 31 100 73 0 27 98 103 0 +0 .04 0 0 1 0 -1 0 0 .005 16 27 33
 104 ?33 9 72 100 0 0 1 30 103 74 0 68 100 21 0 +-.02 .04 -.02 0 0 -1 16 68 22 1
05 ?106 94 57 103 0 0 1 30 21 75 0 93 103 6 0 +.02 .04 -.02 1 0 0 16 93 29 107 ?
108 72 90 21 0 0 1 81 1 107 109 83 93 109 0 110 92 111 17 108 0 112 73 102 44 11
3 93 0 75 +16 72 30 110 ?46 27 93 114 0 0 1 81 1 110 108 83 72 115 0 104 107 116
 17 46 0 112 102 73 34 49 72 0 66 +30 114 63 0 72 0 87 0 +.02 0 -.02 -1 0 0 30 8
7 64 0 80 114 28 0 +.02 .04 .02 0 0 1 31 28 65 0 9 87 88 0 +0 0 0 0 -1 0 -1 0 0
 .005 15 112 28 0 108 117 0 17 102 0 112 108 46 22 118 94 0 106 +17 73 0 112 46
 108 47 75 77 0 70 -17 66 0 65 49 56 34 51 90 0 118 -17 51 0 119 63 118 50 66 90
 0 56 +17 118 0 119 51 106 34 102 94 0 0 -15 119 21 0 106 120 0 17 106 0 119 118
 63 22 121 68 0 0 +17 63 0 119 106 51 37 55 64 0 59 +18 22 23 0 113 34 50 7 ?1 1
7 121 0 122 42 113 37 106 68 0 63 -15 122 40 0 79 123 124 17 42 0 122 79 121 40
 59 96 0 54 -17 113 0 122 121 79 22 108 93 0 102 -18 37 16 0 121 50 47 36 ?1 17
 79 0 122 113 42 44 62 80 0 0 -18 44 6 0 108 40 0 38 ?1 29 38 53 0 44 0 36 .02 .
04 -.02 17 59 0 53 55 54 37 42 96 0 0 +14 123 38 125 ?126 16 122 4 127 +0 0 126
 16 24 15 124 39 0 128 123 0 17 128 0 124 128 128 29 33 27 0 0 -17 33 0 129 33 3
3 29 128 27 0 128 +15 129 32 0 33 126 0 14 126 31 130 ?117 123 31 4 131 -0 0 117
 123 24 81 1 130 101 83 126 132 0 125 133 134 14 117 27 133 ?120 126 112 4 135 +
0 0 120 126 24 15 31 35 0 26 126 129 51 131 49 0 126 127 135 0 +0 0 0 0 -1 0 .00
5 -1 0 0 13 24 2 0 0 0 0 0 0 8 16 14 16 41 136 ?123 0 65 4 19 -0 0 123 0 24 81 1
 136 99 83 16 137 0 0 125 138 50 19 51 0 16 135 5 0 +0 0 0 0 1 0 0 0 1 50 135 50
 0 117 131 19 0 +0 0 -.02 0 0 -1 -1 0 0 80 1 83 0 139 8001 0 0 0 0 3 5 0 0 0 FFF
FTFTFFFFFFFFF2 81 1 137 96 11 16 0 136 140 13 141 81 1 125 100 83 123 142 0 136
 130 143 83 3 138 .56078431372549 .686274509803922 .56078431372549 81 1 142 93 1
1 123 0 125 144 132 145 83 3 143 .56078431372549 .686274509803922 .5607843137254
9 80 1 11 146 147 8038 0 0 0 0 0 0 0 0 0 TTTTTTTTTTTTTFTF10 81 1 144 92 11 120 0
 148 149 142 150 81 1 132 94 11 126 0 130 142 140 151 98 5 145 48 58 52 48 51 81
 1 140 95 11 117 0 133 132 137 152 98 5 151 48 58 52 48 48 81 1 133 102 83 117 1
40 0 130 148 153 98 5 152 48 58 51 57 55 81 1 148 103 83 120 144 0 133 154 155 8
3 3 153 .56078431372549 .686274509803922 .56078431372549 14 120 20 148 ?18 117 1
19 4 156 +0 0 18 117 24 81 1 154 104 83 18 13 0 148 157 158 83 3 155 .5607843137
2549 .686274509803922 .56078431372549 14 18 13 154 ?78 120 53 4 5 +0 0 78 120 24
 81 1 13 97 11 18 0 154 137 2 159 81 1 157 105 83 78 149 0 154 25 160 83 3 158 .
56078431372549 .686274509803922 .56078431372549 14 78 3 157 ?0 18 74 4 161 +0 0
 0 18 24 81 1 149 91 11 78 0 157 162 144 163 81 1 25 106 83 9 164 0 157 104 165
 83 3 160 .56078431372549 .686274509803922 .56078431372549 81 1 164 79 11 9 0 25
 166 167 168 81 1 104 107 83 27 169 0 25 110 170 83 3 165 .56078431372549 .68627
4509803922 .56078431372549 81 1 169 87 11 27 0 104 171 172 173 83 3 170 .5607843
1372549 .686274509803922 .56078431372549 81 1 171 86 11 94 0 101 174 169 175 81
 1 172 88 11 68 0 105 169 109 176 98 5 173 48 58 52 52 53 81 1 105 112 83 68 172
 0 101 67 177 81 1 109 89 11 93 0 107 172 162 178 98 5 176 48 58 52 51 48 81 1 1
62 90 11 20 0 76 109 149 179 98 5 178 48 58 52 51 57 81 1 76 117 83 20 162 0 95
 81 180 98 5 179 48 58 52 49 53 81 1 95 116 83 77 181 0 99 76 182 83 3 180 .5607
8431372549 .686274509803922 .56078431372549 81 1 181 83 11 77 0 95 183 184 185 8
1 1 99 115 83 96 174 0 186 95 187 83 3 182 .56078431372549 .686274509803922 .560
78431372549 81 1 174 85 11 96 0 99 184 171 188 81 1 186 114 83 64 167 0 67 99 18
9 83 3 187 .56078431372549 .686274509803922 .56078431372549 16 64 17 186 ?63 57
 96 88 0 0 1 81 1 167 80 11 64 0 186 164 84 190 81 1 67 113 83 57 184 0 105 186
 191 83 3 189 .56078431372549 .686274509803922 .56078431372549 81 1 184 84 11 57
 0 67 181 174 192 83 3 191 .56078431372549 .686274509803922 .56078431372549 98 5
 192 48 58 52 50 55 81 1 84 81 11 61 0 81 167 183 193 98 5 190 48 58 52 50 52 81
 1 183 82 11 90 0 92 84 181 194 98 5 193 48 58 52 49 50 81 1 92 110 83 90 183 0
 107 101 195 98 5 194 48 58 52 51 54 81 1 101 111 83 94 171 0 92 105 196 83 3 19
5 .56078431372549 .686274509803922 .56078431372549 83 3 196 .56078431372549 .686
274509803922 .56078431372549 98 5 188 48 58 52 50 49 98 5 185 48 58 52 49 56 83
 3 177 .56078431372549 .686274509803922 .56078431372549 98 5 175 48 58 52 51 51
 81 1 166 78 11 80 0 85 115 164 197 98 5 168 48 58 52 52 56 81 1 85 119 83 80 16
6 0 81 0 198 81 1 115 77 11 72 0 110 0 166 199 98 5 197 48 58 52 48 57 98 5 199
 48 58 52 52 50 83 3 198 .56078431372549 .686274509803922 .56078431372549 98 5 1
63 48 58 51 56 56 50 161 46 0 78 0 156 0 +.02 0 0 1 0 0 0 0 -1 50 156 47 0 120 1
61 127 0 +-.02 0 0 -1 0 0 0 0 1 50 127 48 0 123 156 131 0 +0 .04 0 0 1 0 0 0 1 9
8 5 159 48 58 51 57 49 98 5 150 48 58 51 57 52 79 14 147 SDL/TYSA_UNAME98 5 141
 48 58 52 48 54 79 15 139 SDL/TYSA_COLOUR83 3 134 .56078431372549 .6862745098039
22 .56078431372549 17 75 0 74 62 70 44 73 77 0 79 +83 3 116 .56078431372549 .686
274509803922 .56078431372549 83 3 111 .56078431372549 .686274509803922 .56078431
372549 83 3 86 .56078431372549 .686274509803922 .56078431372549 15 71 42 0 32 16
 0 17 32 0 71 32 32 10 26 9 0 0 -19 17 44 0 1 0 8 4 0 S0 74 20 15 5 0 0 2 200 85
 201 12 0 0 0 0 0 0 0 0 0 0 0 0 0 0 0 81 1 200 98 202 1 0 201 0 0 203 81 4 201 1
20 204 1 200 12 0 0 205 206 0 207 81 1 12 121 208 1 201 2 0 0 209 80 1 208 210 2
11 9000 0 0 0 0 3 5 0 0 0 TTTTTTTTTTTTTFFF1 82 1 209 9 79 14 211 AttGS_PS_Layer8
0 4 204 212 213 8042 0 0 0 0 3 6 0 0 0 TTTTTTTTTTTTTTFF10 10 10 1 98 1 205 57 98
 6 206 76 97 121 101 114 48 82 1 207 0 79 14 213 SDL/TYSA_LAYER80 1 202 83 214 8
040 0 0 0 0 3 5 0 0 0 TTTFFFFFFFFFFFFF2 83 3 203 .56078431372549 .68627450980392
2 .56078431372549 79 17 214 SDL/TYSA_COLOUR_298 5 14 83 111 108 105 100 1 0 
