2700 0 1 0
10 SpaceClaim 12 ACIS 31.0 NT 24 Tue Sep  5 10:35:35 2023
1000 1e-08 1e-10
T @77 7VB3S6K3VWTUSXK76FTHCT3KW3SSF965HCRUM85DYCPCY87EFBSKFE6C3B54Q8N7YCNUFE73F8NMF
-0 body $1 4285 -1 $-1 0 $2 $-1 $-1 T -0.02 0 -0.02 0.02 0.040000000000000001 0.02 #
-1 integer_attrib-name_attrib-gen-attrib $-1 -1 $3 $-1 $0 2 1 1 1 1 1 1 1 1 1 1 1 1 1 0 1 1 1 @17 ATTRIB_XACIS_SHOW 1 #
-2 lump $-1 -1 -1 $-1 $-1 $4 $0 T -0.02 0 -0.02 0.02 0.040000000000000001 0.02 #
-3 string_attrib-name_attrib-gen-attrib $-1 -1 $5 $1 $0 2 1 1 1 1 1 1 1 1 1 1 1 1 1 0 1 1 1 @17 ATTRIB_XACIS_NAME @5 Solid #
-4 shell $-1 -1 -1 $-1 $-1 $-1 $6 $-1 $2 T -0.02 0 -0.02 0.02 0.040000000000000001 0.02 #
-5 render-rbase-attrib $-1 -1 $7 $3 $0 1 1 1 1 1 1 1 1 1 1 1 1 0 1 0 1 1 1 $8 $-1 0 0 #
-6 face $9 4292 -1 $-1 $10 $11 $4 $-1 $12 forward single T 0.02 0 -0.02 0.02 0.040000000000000001 0.02 T -0.02 0.02 0 0.040000000000000001 #
-7 rgb_color-st-attrib $-1 -1 $-1 $5 $0 2 1 2 1 1 1 1 1 1 1 1 1 1 1 0 1 1 1 0.5607843137254902 0.68627450980392157 0.5607843137254902 #
-8 rh_material-rh_entity $-1 -1 4 4 @5 plain @5 color -4 1 1 1 @5 phong @14 ambient factor -2 1 @14 diffuse factor -2 0.75 @15 specular factor -2 0.5 @8 exponent -2 10 @14 specular color -4 1 1 1 @4 none @5 plain @5 color -4 0 0 0 #
-9 string_attrib-name_attrib-gen-attrib $-1 -1 $-1 $-1 $6 2 1 1 1 1 1 1 1 1 1 1 1 1 1 0 1 1 1 @17 ATTRIB_XACIS_NAME @5 0:388 #
-10 face $13 4293 -1 $-1 $14 $15 $4 $-1 $16 forward single T -0.02 0 0.02 0.02 0.040000000000000001 0.02 T -0.02 0.02 0 0.040000000000000001 #
-11 loop $-1 -1 -1 $-1 $-1 $17 $6 T 0.02 0 -0.02 0.02 0.040000000000000001 0.02 unknown #
-12 plane-surface $-1 -1 -1 $-1 0.02 0 0 1 -0 0 0 0 -1 forward_v I I I I #
-13 string_attrib-name_attrib-gen-attrib $-1 -1 $-1 $-1 $10 2 1 1 1 1 1 1 1 1 1 1 1 1 1 0 1 1 1 @17 ATTRIB_XACIS_NAME @5 0:391 #
-14 face $18 4294 -1 $-1 $19 $20 $4 $-1 $21 forward single T -0.02 0 -0.02 -0.02 0.040000000000000001 0.02 T -0.02 0.02 0 0.040000000000000001 #
-15 loop $-1 -1 -1 $-1 $-1 $22 $10 T -0.02 0 0.02 0.02 0.040000000000000001 0.02 unknown #
-16 plane-surface $-1 -1 -1 $-1 0 0 0.02 0 0 1 1 0 0 forward_v I I I I #
-17 coedge $-1 -1 -1 $-1 $23 $24 $25 $26 forward $11 $-1 #
-18 string_attrib-name_attrib-gen-attrib $-1 -1 $-1 $-1 $14 2 1 1 1 1 1 1 1 1 1 1 1 1 1 0 1 1 1 @17 ATTRIB_XACIS_NAME @5 0:394 #
-19 face $27 4295 -1 $-1 $28 $29 $4 $-1 $30 forward single T -0.02 0 -0.02 0.02 0.040000000000000001 -0.02 T -0.02 0.02 0 0.040000000000000001 #
-20 loop $-1 -1 -1 $-1 $-1 $31 $14 T -0.02 0 -0.02 -0.02 0.040000000000000001 0.02 unknown #
-21 plane-surface $-1 -1 -1 $-1 -0.02 0 0 -1 0 0 0 0 1 forward_v I I I I #
-22 coedge $-1 -1 -1 $-1 $32 $33 $34 $35 forward $15 $-1 #
-23 coedge $-1 -1 -1 $-1 $36 $17 $33 $37 reversed $11 $-1 #
-24 coedge $-1 -1 -1 $-1 $17 $36 $38 $39 forward $11 $-1 #
-25 coedge $-1 -1 -1 $-1 $40 $34 $17 $26 reversed $41 $-1 #
-26 edge $42 4291 -1 $-1 $43 -0.040000000000000001 $44 0 $17 $45 forward @7 unknown T 0.02 0.040000000000000001 -0.02 0.02 0.040000000000000001 0.02 #
-27 string_attrib-name_attrib-gen-attrib $-1 -1 $-1 $-1 $19 2 1 1 1 1 1 1 1 1 1 1 1 1 1 0 1 1 1 @17 ATTRIB_XACIS_NAME @5 0:397 #
-28 face $46 4296 -1 $-1 $47 $48 $4 $-1 $49 forward single T -0.0050000000000000001 0 -0.0050000000000000001 0.0050000000000000001 0.040000000000000001 0.0050000000000000001 T 0 8 -3.1415926535897931 3.1415926535897931 #
-29 loop $-1 -1 -1 $-1 $-1 $50 $19 T -0.02 0 -0.02 0.02 0.040000000000000001 -0.02 periphery $30 F #
-30 plane-surface $-1 -1 -1 $-1 0 0 -0.02 0 0 -1 -1 0 0 forward_v I I I I #
-31 coedge $-1 -1 -1 $-1 $51 $52 $53 $54 forward $20 $-1 #
-32 coedge $-1 -1 -1 $-1 $55 $22 $52 $56 reversed $15 $-1 #
-33 coedge $-1 -1 -1 $-1 $22 $55 $23 $37 forward $15 $-1 #
-34 coedge $-1 -1 -1 $-1 $25 $53 $22 $35 reversed $41 $-1 #
-35 edge $57 4290 -1 $-1 $44 -0.040000000000000001 $58 -0 $22 $59 forward @7 unknown T -0.02 0.040000000000000001 0.02 0.02 0.040000000000000001 0.02 #
-36 coedge $-1 -1 -1 $-1 $24 $23 $60 $61 forward $11 $-1 #
-37 edge $62 4298 -1 $-1 $63 0 $44 0.040000000000000001 $33 $64 forward @7 unknown T 0.02 0 0.02 0.02 0.040000000000000001 0.02 #
-38 coedge $-1 -1 -1 $-1 $65 $50 $24 $39 reversed $29 $-1 #
-39 edge $66 4300 -1 $-1 $67 0 $43 0.040000000000000001 $24 $68 forward @7 unknown T 0.02 0 -0.02 0.02 0.040000000000000001 -0.02 #
-40 coedge $-1 -1 -1 $-1 $53 $25 $50 $69 reversed $41 $-1 #
-41 loop $-1 -1 -1 $-1 $-1 $25 $47 T -0.02 0.040000000000000001 -0.02 0.02 0.040000000000000001 0.02 periphery $70 F #
-42 string_attrib-name_attrib-gen-attrib $-1 -1 $-1 $-1 $26 2 1 1 1 1 1 1 1 1 1 1 1 1 1 0 1 1 1 @17 ATTRIB_XACIS_NAME @5 0:409 #
-43 vertex $-1 -1 -1 $-1 $39 $71 #
-44 vertex $-1 -1 -1 $-1 $37 $72 #
-45 straight-curve $-1 -1 -1 $-1 0.02 0.040000000000000001 0.02 0 0 1 I I #
-46 string_attrib-name_attrib-gen-attrib $-1 -1 $-1 $-1 $28 2 1 1 1 1 1 1 1 1 1 1 1 1 1 0 1 1 1 @17 ATTRIB_XACIS_NAME @5 0:400 #
-47 face $73 4286 -1 $-1 $74 $75 $4 $-1 $70 forward single T -0.02 0.040000000000000001 -0.02 0.02 0.040000000000000001 0.02 T -0.02 0.02 -0.02 0.02 #
-48 loop $-1 -1 -1 $-1 $76 $77 $28 T -0.0050000000000000001 0.040000000000000001 -0.0050000000000000001 0.0050000000000000001 0.040000000000000001 0.0050000000000000001 unknown #
-49 cone-surface $-1 -1 -1 $-1 0 0 0 0 1 0 -0.0050000000000000001 0 0 1 I I 0 -1 0.0050000000000000001 forward I I I I #
-50 coedge $-1 -1 -1 $-1 $38 $78 $40 $69 forward $29 $-1 #
-51 coedge $-1 -1 -1 $-1 $79 $31 $78 $80 reversed $20 $-1 #
-52 coedge $-1 -1 -1 $-1 $31 $79 $32 $56 forward $20 $-1 #
-53 coedge $-1 -1 -1 $-1 $34 $40 $31 $54 reversed $41 $-1 #
-54 edge $81 4289 -1 $-1 $58 -0.040000000000000001 $82 -0 $31 $83 forward @7 unknown T -0.02 0.040000000000000001 -0.02 -0.02 0.040000000000000001 0.02 #
-55 coedge $-1 -1 -1 $-1 $33 $32 $84 $85 forward $15 $-1 #
-56 edge $86 4301 -1 $-1 $87 0 $58 0.040000000000000001 $52 $88 forward @7 unknown T -0.02 0 0.02 -0.02 0.040000000000000001 0.02 #
-57 string_attrib-name_attrib-gen-attrib $-1 -1 $-1 $-1 $35 2 1 1 1 1 1 1 1 1 1 1 1 1 1 0 1 1 1 @17 ATTRIB_XACIS_NAME @5 0:421 #
-58 vertex $-1 -1 -1 $-1 $56 $89 #
-59 straight-curve $-1 -1 -1 $-1 -0.02 0.040000000000000001 0.02 -1 -0 -0 I I #
-60 coedge $-1 -1 -1 $-1 $84 $90 $36 $61 reversed $91 $-1 #
-61 edge $92 4299 -1 $-1 $63 0 $67 0.040000000000000001 $36 $93 forward @7 unknown T 0.02 0 -0.02 0.02 0 0.02 #
-62 string_attrib-name_attrib-gen-attrib $-1 -1 $-1 $-1 $37 2 1 1 1 1 1 1 1 1 1 1 1 1 1 0 1 1 1 @17 ATTRIB_XACIS_NAME @5 0:412 #
-63 vertex $-1 -1 -1 $-1 $85 $94 #
-64 straight-curve $-1 -1 -1 $-1 0.02 0 0.02 0 1 0 I I #
-65 coedge $-1 -1 -1 $-1 $78 $38 $90 $95 forward $29 $-1 #
-66 string_attrib-name_attrib-gen-attrib $-1 -1 $-1 $-1 $39 2 1 1 1 1 1 1 1 1 1 1 1 1 1 0 1 1 1 @17 ATTRIB_XACIS_NAME @5 0:418 #
-67 vertex $-1 -1 -1 $-1 $95 $96 #
-68 straight-curve $-1 -1 -1 $-1 0.02 0 -0.02 0 1 0 I I #
-69 edge $97 4288 -1 $-1 $82 -0.040000000000000001 $43 0 $50 $98 forward @7 unknown T -0.02 0.040000000000000001 -0.02 0.02 0.040000000000000001 -0.02 #
-70 plane-surface $-1 -1 -1 $-1 0 0.040000000000000001 0 0 1 0 0 0 1 forward_v I I I I #
-71 point $-1 -1 -1 $-1 0.02 0.040000000000000001 -0.02 #
-72 point $-1 -1 -1 $-1 0.02 0.040000000000000001 0.02 #
-73 string_attrib-name_attrib-gen-attrib $-1 -1 $-1 $-1 $47 2 1 1 1 1 1 1 1 1 1 1 1 1 1 0 1 1 1 @17 ATTRIB_XACIS_NAME @5 0:403 #
-74 face $99 4297 -1 $-1 $-1 $100 $4 $-1 $101 reversed single T -0.02 0 -0.02 0.02 0 0.02 T -0.02 0.02 -0.02 0.02 #
-75 loop $-1 -1 -1 $-1 $41 $102 $47 T -0.0050000000000000001 0.040000000000000001 -0.0050000000000000001 0.0050000000000000001 0.040000000000000001 0.0050000000000000001 hole $70 F #
-76 loop $-1 -1 -1 $-1 $-1 $103 $28 T -0.0050000000000000001 0 -0.0050000000000000001 0.0050000000000000001 0 0.0050000000000000001 unknown #
-77 coedge $-1 -1 -1 $-1 $77 $77 $102 $104 forward $48 $-1 #
-78 coedge $-1 -1 -1 $-1 $50 $65 $51 $80 forward $29 $-1 #
-79 coedge $-1 -1 -1 $-1 $52 $51 $105 $106 forward $20 $-1 #
-80 edge $107 4303 -1 $-1 $108 0 $82 0.040000000000000001 $78 $109 forward @7 unknown T -0.02 0 -0.02 -0.02 0.040000000000000001 -0.02 #
-81 string_attrib-name_attrib-gen-attrib $-1 -1 $-1 $-1 $54 2 1 1 1 1 1 1 1 1 1 1 1 1 1 0 1 1 1 @17 ATTRIB_XACIS_NAME @5 0:430 #
-82 vertex $-1 -1 -1 $-1 $80 $110 #
-83 straight-curve $-1 -1 -1 $-1 -0.02 0.040000000000000001 -0.02 -0 -0 -1 I I #
-84 coedge $-1 -1 -1 $-1 $105 $60 $55 $85 reversed $91 $-1 #
-85 edge $111 4302 -1 $-1 $87 0 $63 0.040000000000000001 $55 $112 forward @7 unknown T -0.02 0 0.02 0.02 0 0.02 #
-86 string_attrib-name_attrib-gen-attrib $-1 -1 $-1 $-1 $56 2 1 1 1 1 1 1 1 1 1 1 1 1 1 0 1 1 1 @17 ATTRIB_XACIS_NAME @5 0:424 #
-87 vertex $-1 -1 -1 $-1 $106 $113 #
-88 straight-curve $-1 -1 -1 $-1 -0.02 0 0.02 0 1 0 I I #
-89 point $-1 -1 -1 $-1 -0.02 0.040000000000000001 0.02 #
-90 coedge $-1 -1 -1 $-1 $60 $105 $65 $95 reversed $91 $-1 #
-91 loop $-1 -1 -1 $-1 $-1 $90 $74 T -0.02 0 -0.02 0.02 0 0.02 periphery $101 T #
-92 string_attrib-name_attrib-gen-attrib $-1 -1 $-1 $-1 $61 2 1 1 1 1 1 1 1 1 1 1 1 1 1 0 1 1 1 @17 ATTRIB_XACIS_NAME @5 0:415 #
-93 straight-curve $-1 -1 -1 $-1 0.02 0 0.02 0 0 -1 I I #
-94 point $-1 -1 -1 $-1 0.02 0 0.02 #
-95 edge $114 4305 -1 $-1 $67 0 $108 0.040000000000000001 $65 $115 forward @7 unknown T -0.02 0 -0.02 0.02 0 -0.02 #
-96 point $-1 -1 -1 $-1 0.02 0 -0.02 #
-97 string_attrib-name_attrib-gen-attrib $-1 -1 $-1 $-1 $69 2 1 1 1 1 1 1 1 1 1 1 1 1 1 0 1 1 1 @17 ATTRIB_XACIS_NAME @5 0:439 #
-98 straight-curve $-1 -1 -1 $-1 0.02 0.040000000000000001 -0.02 1 0 0 I I #
-99 string_attrib-name_attrib-gen-attrib $-1 -1 $-1 $-1 $74 2 1 1 1 1 1 1 1 1 1 1 1 1 1 0 1 1 1 @17 ATTRIB_XACIS_NAME @5 0:406 #
-100 loop $-1 -1 -1 $-1 $91 $116 $74 T -0.0050000000000000001 0 -0.0050000000000000001 0.0050000000000000001 0 0.0050000000000000001 hole $101 T #
-101 plane-surface $-1 -1 -1 $-1 0 0 0 0 1 0 0 0 1 forward_v I I I I #
-102 coedge $-1 -1 -1 $-1 $102 $102 $77 $104 reversed $75 $-1 #
-103 coedge $-1 -1 -1 $-1 $103 $103 $116 $117 forward $76 $-1 #
-104 edge $118 4287 -1 $-1 $119 0 $119 6.2831853071795862 $77 $120 forward @7 unknown T -0.0050000000000000001 0.040000000000000001 -0.0050000000000000001 0.0050000000000000001 0.040000000000000001 0.0050000000000000001 #
-105 coedge $-1 -1 -1 $-1 $90 $84 $79 $106 reversed $91 $-1 #
-106 edge $121 4304 -1 $-1 $108 0 $87 0.040000000000000001 $79 $122 forward @7 unknown T -0.02 0 -0.02 -0.02 0 0.02 #
-107 string_attrib-name_attrib-gen-attrib $-1 -1 $-1 $-1 $80 2 1 1 1 1 1 1 1 1 1 1 1 1 1 0 1 1 1 @17 ATTRIB_XACIS_NAME @5 0:433 #
-108 vertex $-1 -1 -1 $-1 $95 $123 #
-109 straight-curve $-1 -1 -1 $-1 -0.02 0 -0.02 0 1 0 I I #
-110 point $-1 -1 -1 $-1 -0.02 0.040000000000000001 -0.02 #
-111 string_attrib-name_attrib-gen-attrib $-1 -1 $-1 $-1 $85 2 1 1 1 1 1 1 1 1 1 1 1 1 1 0 1 1 1 @17 ATTRIB_XACIS_NAME @5 0:427 #
-112 straight-curve $-1 -1 -1 $-1 -0.02 0 0.02 1 0 0 I I #
-113 point $-1 -1 -1 $-1 -0.02 0 0.02 #
-114 string_attrib-name_attrib-gen-attrib $-1 -1 $-1 $-1 $95 2 1 1 1 1 1 1 1 1 1 1 1 1 1 0 1 1 1 @17 ATTRIB_XACIS_NAME @5 0:442 #
-115 straight-curve $-1 -1 -1 $-1 0.02 0 -0.02 -1 0 0 I I #
-116 coedge $-1 -1 -1 $-1 $116 $116 $103 $117 reversed $100 $-1 #
-117 edge $124 4306 -1 $-1 $125 0 $125 6.2831853071795862 $103 $126 forward @7 unknown T -0.0050000000000000001 0 -0.0050000000000000001 0.0050000000000000001 0 0.0050000000000000001 #
-118 string_attrib-name_attrib-gen-attrib $-1 -1 $-1 $-1 $104 2 1 1 1 1 1 1 1 1 1 1 1 1 1 0 1 1 1 @17 ATTRIB_XACIS_NAME @5 0:445 #
-119 vertex $-1 -1 -1 $-1 $104 $127 #
-120 ellipse-curve $-1 -1 -1 $-1 0 0.040000000000000001 0 0 1 0 -0.0050000000000000001 0 0 1 I I #
-121 string_attrib-name_attrib-gen-attrib $-1 -1 $-1 $-1 $106 2 1 1 1 1 1 1 1 1 1 1 1 1 1 0 1 1 1 @17 ATTRIB_XACIS_NAME @5 0:436 #
-122 straight-curve $-1 -1 -1 $-1 -0.02 0 -0.02 0 0 1 I I #
-123 point $-1 -1 -1 $-1 -0.02 0 -0.02 #
-124 string_attrib-name_attrib-gen-attrib $-1 -1 $-1 $-1 $117 2 1 1 1 1 1 1 1 1 1 1 1 1 1 0 1 1 1 @17 ATTRIB_XACIS_NAME @5 0:448 #
-125 vertex $-1 -1 -1 $-1 $117 $128 #
-126 ellipse-curve $-1 -1 -1 $-1 0 0 0 -0 -1 -0 -0.0050000000000000001 0 0 1 I I #
-127 point $-1 -1 -1 $-1 -0.0050000000000000001 0.040000000000000001 0 #
-128 point $-1 -1 -1 $-1 -0.0050000000000000001 0 0 #
End-of-ACIS-data
